<svg xmlns="http://www.w3.org/2000/svg" xmlns:xlink="http://www.w3.org/1999/xlink" width="330.002" height="260.001" viewBox="0 0 87.313 68.792"><style>.B{stroke-width:.378}.C{fill:#129612}.D{stroke:#003718}.E{fill:none}.F{fill-rule:evenodd}.G{stroke:#000}.H{fill:#b400b4}.I{stroke:#531553}.J{stroke-width:1.65}.K{fill:#7eff00}.L{stroke-width:.404}.M{stroke-width:.099}.N{stroke-width:.371}.O{stroke-width:.033}.P{stroke-width:.265}.Q{fill:#961e1d}.R{stroke-width:.387}</style><path fill="#0c2d83" d="M0 0h87.313v68.792H0z"/><g class="D"><path stroke-width=".282" d="M-1697.737-556.488c-.016 0-.121.244-.233.542l-.251.653-.046.112-.205-.148c-.113-.082-.219-.148-.236-.148s-.032.188-.032.418c0 .359-.016.433-.111.526l-.111.108.137.256c.122.229.13.275.076.436-.034.099-.091.181-.127.181s-.168-.089-.294-.198c-.288-.249-.838-.495-1.357-.607-.781-.167-3.331-.075-3.25.117.101.24.095.302-.031.304-.068.001-.219.035-.335.076s-.477.136-.803.213c-1.037.246-1.7.522-2.11.879-.094.082-.171.173-.171.203s-.113.08-.252.113c-.622.146-1.115.455-1.67 1.049-.288.308-.608.74-.608.82 0 .012.111.005.246-.013l.247-.034-.15.235a10.6 10.6 0 0 1-1.127 1.481l-.428.495c0 .017.302.019.672.006.495-.018.759-.051 1-.126l.352-.103c.013 0 .052.077.085.17.066.184.045.181.592.088.254-.043.156.022-.158.104-.451.119-1.12.417-1.353.604-.195.156-.418.507-.369.58.013.019.117.049.233.067l.211.032-.41.401c-.395.386-.595.671-.666.951-.032.125-.024.132.152.132.102 0 .186.02.186.043s-.102.17-.228.325c-.23.285-.51.516-.919.762-.123.074-.224.152-.224.173 0 .084.422.163.869.162a4 4 0 0 0 1.551-.316c.397-.163.537-.121.273.083-.092.071-.16.136-.15.145s.18-.005.378-.031c.435-.056 1.101-.331 1.493-.617l.277-.201v.441l.264-.131a3 3 0 0 0 .482-.315c.12-.101.268-.198.329-.215.15-.042.838-.352.894-.402.019-.017.063 0 .108.029l.234-.143 1.107.144 1.423-1.3 1.74.867 6.167-.193.79-1.781 1.476.962 2.471 1.551c-.041-.04.01-.029.106-.013.115.02.214.003.305-.051.13-.078.148-.074.56.114.234.107.46.195.501.195s.187.094.323.21c.28.236.713.481.766.432.019-.018.035-.105.035-.195v-.163l.33.213a3.4 3.4 0 0 0 1.567.584l.236.031-.144-.137c-.166-.158-.194-.283-.052-.226.846.334 1.606.491 2.093.433.309-.037.661-.125.661-.166 0-.016-.137-.108-.304-.206-.371-.218-.85-.649-1.008-.906l-.118-.192h.192c.189 0 .191-.003.156-.156-.054-.238-.263-.538-.664-.954l-.364-.377.186-.032c.235-.04.258-.076.168-.271-.162-.352-.606-.631-1.459-.916-.506-.169-.505-.198.006-.106.117.021.148.001.207-.134l.08-.173c.006-.008.162.033.347.091.25.078.506.111 1.007.129.37.013.672.008.672-.013s-.162-.212-.36-.428a8.7 8.7 0 0 1-1.034-1.323l-.298-.451.24.033c.132.018.24.02.24.004 0-.164-.509-.774-1.001-1.198a2.9 2.9 0 0 0-1.272-.662c-.141-.033-.257-.086-.257-.117 0-.104-.462-.447-.826-.613a7 7 0 0 0-1.464-.469l-.702-.19a1.8 1.8 0 0 0-.414-.097c-.104 0-.129-.018-.105-.076.07-.168.094-.309.051-.309a27 27 0 0 1-.676-.072c-1.51-.172-2.767-.034-3.536.389-.325.179-.311.192-.367-.329-.019-.179-.049-.325-.066-.325s-.108.076-.201.168-.189.168-.214.168-.11-.184-.188-.408-.205-.506-.281-.625l-.14-.217-.137.098-.137.099-.062-.193c-.073-.227-.323-.63-.39-.63-.026 0-.116.078-.202.172l-.155.172-.254-.316c-.14-.174-.267-.316-.284-.316z" class="C F" transform="matrix(.561 0 0 .56156 996.02 320.522)"/><g class="E" style="stroke-width:2.845" transform="matrix(.05071 0 0 .04868 5.116 9.767)"><path d="M760.288 33.955s-12.108-6.054-12.613-9.586l2.775-2.775s-7.568-7.82-7.063-9.333l2.775-2.27s-3.279-8.324-3.532-11.099l5.55.757s.252-2.775 1.261-4.793-2.523-6.811-2.523-6.811l2.018-1.766.252-7.82 4.541 3.279 5.297-14.883 5.55 7.063 3.784-4.541s4.036 4.541 3.532 10.595l4.288-3.027s5.802 9.081 4.541 14.378c0 0 4.793-1.009 6.306-3.027 0 0 1.514 8.577 0 12.36l5.297-.252-6.559 13.369 4.036.252s-7.82 15.892-12.36 18.162m-12.864-54.989s5.55 21.441 3.784 30.775 1.261 22.45 1.261 22.45"/><path d="m754.739-14.225 13.117 8.577m9.586-7.821S773.406.91 768.613 1.162M753.73-2.622l14.631 10.847m-18.163 1.766s16.649 13.369 18.414 12.36M784-.856s-2.018 18.162-15.64 22.955M743.64.91s-18.919-5.297-21.694-3.027c0 0 7.063.252 6.054 6.306 0 0-16.144-3.027-26.486 4.793l12.108 4.793-4.036 2.27s4.793 5.551 17.91 5.299c0 0 2.27 10.595 22.703 5.802"/><path d="M717.153 11s19.171-.757 31.532 10.847"/><path d="M722.198 18.063s9.333-5.802 15.892-3.027m-3.279-12.36s-1.514 8.324 2.775 11.856"/><use xlink:href="#B"/><use xlink:href="#C"/><use xlink:href="#D"/><use xlink:href="#E"/><use xlink:href="#F"/><path d="M688.901 63.216s-9.081 8.324-10.847 23.459c0 0 .505 7.063 10.342-1.009m-7.315-81.477s-9.586 4.036-9.333 6.306m24.721 1.514s-17.405-4.288-21.694 1.514l4.288 2.27-8.072 2.523"/><path d="m671.496 9.739 3.532 2.775m20.432-1.01 7.568 3.279-1.766 3.532 13.369 1.009m-48.937 50.198s-35.063 17.153-37.333 25.982"/><path d="M636.18 67s3.279-1.261 8.324-.252 18.667 4.036 18.667 4.036m-33.045 11.351s11.099-3.027 15.387-1.261c0 0 4.793 3.532.757 12.36m6.559-57.766s33.802-7.315 44.649-6.811"/><path d="M666.451 42.027s4.541-11.604 17.153-12.36M672 69.27s12.613-6.559 15.135-5.297"/><g transform="matrix(-1 0 0 1 1531.447 0)"><path d="M743.64.91s-18.919-5.297-21.694-3.027c0 0 7.063.252 6.054 6.306 0 0-16.144-3.027-26.486 4.793l12.108 4.793-4.036 2.27s4.793 5.929 17.91 5.677c0 0 2.27 10.595 22.703 5.802"/><path d="M717.153 11s14.343-.566 26.215 6.79"/><path d="M722.198 18.063s9.333-5.802 15.892-3.027m-3.279-12.36s-1.514 8.324 2.775 11.856"/><use xlink:href="#B"/><use xlink:href="#C"/><use xlink:href="#D"/><use xlink:href="#E"/><use xlink:href="#F"/><path d="M688.901 63.216s-9.081 8.324-10.847 23.459c0 0 .505 7.063 10.342-1.009m-7.315-81.477s-9.586 4.036-9.333 6.306m24.721 1.514s-17.405-4.288-21.694 1.514l4.288 2.27-8.072 2.523"/><path d="m671.496 9.739 3.532 2.775m20.432-1.01 7.568 3.279-1.766 3.532 13.369 1.009m-48.937 50.198s-35.063 17.153-37.333 25.982"/><path d="M636.18 67s3.279-1.261 8.324-.252 18.667 4.036 18.667 4.036m-33.045 11.351s11.099-3.027 15.387-1.261c0 0 4.793 3.532.757 12.36m6.559-57.766s33.802-7.315 44.649-6.811"/><path d="M666.451 42.027s4.541-11.604 17.153-12.36M672 69.27s12.613-6.559 15.135-5.297"/></g></g></g><path stroke="#d2d2d2" stroke-width=".823" d="M-1710.606-488.864c2.92 3.546 10.856 3.856 13.089 8.056 3.401-4.51 10.684-5.061 14.944-8.538" class="E" transform="matrix(.561 0 0 .56156 996.02 320.522)"/><path fill="#b68c5b" d="M-1713.949-530.952c-.495.199-1.189.331-1.321.86.033.199.396.232.693.165-.033-.364.066-.496.528-.397-.066-.198.066-.397.099-.629zm33.979 0c.495.199 1.189.331 1.321.86-.033.199-.396.232-.693.165.033-.364-.066-.496-.528-.397.066-.198-.066-.397-.099-.629zm-14.364 17.207c.429.132 1.09.298 1.189.761 0 .199-.33.199-.627.165.033-.331-.066-.463-.495-.397.066-.165-.066-.364-.066-.529z" class="G M" transform="matrix(.561 0 0 .56156 996.02 320.522)"/><path fill="#ccc" d="M45.963 12.23c.203 0 .389.037.592.056 1.26 3.642 7.318 3.642 8.577 1.282-.648-.595-.778-1.04-.704-1.84.056-.464.167-1.393 1.39-1.45.463-.018.76.298.796 1.636.093 2.174-2.612 4.404-5.168 4.255-1.778-.111-5.594-1.245-5.483-3.939"/><g class="G"><g class="M"><path fill="#0f0" d="M-1707.212-520.628c-.066-.463-.264-.893-.462-1.224 0 .066-.264.132-.264.066.198.331.363.761.429 1.092.099.066.198.066.264.099zm.33-11.582c-.066-.463-.264-.893-.462-1.224 0 .066-.264.132-.264.066.198.331.363.761.429 1.092.099.066.198.066.264.099zm-8.618 3.375c.066-.463.264-.894.462-1.224 0 .066.264.132.264.066a3.8 3.8 0 0 0-.429 1.092c-.099.066-.198.066-.264.099z" transform="matrix(.561 0 0 .56156 996.02 320.522)"/><path d="M-1707.411-521.223c.132 0 .33.099.396.132.264.265.792.827.792 1.191 0-.265.297-.993.033-1.224-.165-.232-1.024-.265-1.222-.099zm0 .132c-.165 0-.33.199-.429.364-.165.43-.462 1.291-.297 1.721-.132-.364-.792-.993-.66-1.423.132-.331 1.057-.794 1.387-.662zm-.099-.298c-.132.066-.33.232-.363.397-.165.397-.528 1.258-.297 1.721-.165-.364-.792-.993-.693-1.456.099-.364 1.09-.794 1.354-.662zm.429-11.416c.132 0 .33.099.396.132.264.265.792.827.792 1.191 0-.265.297-.993.033-1.224-.165-.232-1.024-.265-1.222-.099zm0 .132c-.165 0-.33.199-.429.364-.165.43-.462 1.291-.297 1.721-.132-.364-.792-.993-.66-1.423.132-.331 1.057-.794 1.387-.662zm-.099-.298c-.132.066-.33.232-.363.397-.165.397-.528 1.258-.297 1.721-.165-.364-.792-.993-.693-1.456.099-.364 1.09-.794 1.354-.662zm-8.123 3.541c-.132 0-.33.099-.396.132-.264.265-.792.827-.792 1.191 0-.265-.297-.993-.033-1.224.165-.232 1.024-.265 1.222-.099zm0 .132c.165 0 .33.198.429.364.165.43.462 1.291.297 1.721.132-.364.792-.993.66-1.423-.132-.331-1.057-.794-1.387-.662zm.099-.298c.132.066.33.232.363.397.165.397.528 1.257.297 1.721.165-.364.792-.993.693-1.456-.099-.364-1.09-.794-1.354-.662z" class="K" transform="matrix(.561 0 0 .56156 996.02 320.522)"/></g><path d="M-1707.51-521.356a.8.8 0 0 0-.429.265c-.198.265-.561.927-.33 1.191-.165-.265-.925-.695-.792-.993.132-.232 1.222-.563 1.552-.463zm-.033.033c.165.033.363.232.429.43.165.364.495 1.258.297 1.688.165-.331.792-.96.693-1.423-.132-.331-1.09-.827-1.42-.695zm.363-11.615a.8.8 0 0 0-.429.265c-.198.265-.561.927-.33 1.191-.165-.265-.925-.695-.792-.993.132-.232 1.222-.563 1.552-.463zm-.033.033c.165.033.363.232.429.43.165.364.495 1.258.297 1.688.165-.331.792-.96.693-1.423-.132-.331-1.09-.827-1.42-.695zm-7.991 3.342a.8.8 0 0 1 .429.265c.198.265.561.927.33 1.191.165-.265.925-.695.792-.993-.132-.232-1.222-.563-1.552-.463zm.033.033c-.165.033-.363.232-.429.43-.165.364-.495 1.258-.297 1.688-.165-.331-.792-.96-.693-1.423.132-.331 1.09-.827 1.42-.695z" class="K O" transform="matrix(.561 0 0 .56156 996.02 320.522)"/><g class="M"><path fill="#0f0" d="M-1686.608-520.628c.066-.463.264-.893.462-1.224 0 .066.264.132.264.066a3.8 3.8 0 0 0-.429 1.092c-.099.066-.198.066-.264.099zm-.33-11.582c.066-.463.264-.893.462-1.224 0 .066.264.132.264.066a3.8 3.8 0 0 0-.429 1.092c-.099.066-.198.066-.264.099zm8.618 3.375c-.066-.463-.264-.894-.462-1.224 0 .066-.264.132-.264.066.198.331.363.761.429 1.092.099.066.198.066.264.099z" transform="matrix(.561 0 0 .56156 996.02 320.522)"/><path d="M-1686.409-521.223c-.132 0-.33.099-.396.132-.264.265-.792.827-.792 1.191 0-.265-.297-.993-.033-1.224.165-.232 1.024-.265 1.222-.099zm0 .132c.165 0 .33.199.429.364.165.43.462 1.291.297 1.721.132-.364.792-.993.66-1.423-.132-.331-1.057-.794-1.387-.662zm.099-.298c.132.066.33.232.363.397.165.397.528 1.258.297 1.721.165-.364.792-.993.693-1.456-.099-.364-1.09-.794-1.354-.662zm-.429-11.416c-.132 0-.33.099-.396.132-.264.265-.792.827-.792 1.191 0-.265-.297-.993-.033-1.224.165-.232 1.024-.265 1.222-.099zm0 .132c.165 0 .33.199.429.364.165.43.462 1.291.297 1.721.132-.364.792-.993.66-1.423-.132-.331-1.057-.794-1.387-.662zm.099-.298c.132.066.33.232.363.397.165.397.528 1.258.297 1.721.165-.364.792-.993.693-1.456-.099-.364-1.09-.794-1.354-.662zm8.123 3.541c.132 0 .33.099.396.132.264.265.792.827.792 1.191 0-.265.297-.993.033-1.224-.165-.232-1.024-.265-1.222-.099zm0 .132c-.165 0-.33.198-.429.364-.165.43-.462 1.291-.297 1.721-.132-.364-.792-.993-.66-1.423.132-.331 1.057-.794 1.387-.662zm-.099-.298c-.132.066-.33.232-.363.397-.165.397-.528 1.257-.297 1.721-.165-.364-.792-.993-.693-1.456.099-.364 1.09-.794 1.354-.662z" class="K" transform="matrix(.561 0 0 .56156 996.02 320.522)"/></g><path d="M-1686.31-521.356a.8.8 0 0 1 .429.265c.198.265.561.927.33 1.191.165-.265.925-.695.792-.993-.132-.232-1.222-.563-1.552-.463zm.033.033c-.165.033-.363.232-.429.43-.165.364-.495 1.258-.297 1.688-.165-.331-.792-.96-.693-1.423.132-.331 1.09-.827 1.42-.695zm-.363-11.615a.8.8 0 0 1 .429.265c.198.265.561.927.33 1.191.165-.265.925-.695.792-.993-.132-.232-1.222-.563-1.552-.463zm.033.033c-.165.033-.363.232-.429.43-.165.364-.495 1.258-.297 1.688-.165-.331-.792-.96-.693-1.423.132-.331 1.09-.827 1.42-.695zm7.991 3.342a.8.8 0 0 0-.429.265c-.198.265-.561.927-.33 1.191-.165-.265-.925-.695-.792-.993.132-.232 1.222-.563 1.552-.463zm-.033.033c.165.033.363.232.429.43.165.364.495 1.258.297 1.688.165-.331.792-.96.693-1.423-.132-.331-1.09-.827-1.42-.695z" class="K O" transform="matrix(.561 0 0 .56156 996.02 320.522)"/><g class="M"><path fill="#0f0" d="M-1701.038-503.652c.066-.463.264-.894.462-1.224 0 .066.264.132.264.066a3.8 3.8 0 0 0-.429 1.092c-.099.066-.198.066-.264.099zm-.33-11.582c.066-.463.264-.894.462-1.224 0 .066.264.132.264.066a3.8 3.8 0 0 0-.429 1.092c-.099.066-.198.066-.264.099zm8.618 3.375c-.066-.463-.264-.893-.462-1.224 0 .066-.264.132-.264.066.198.331.363.761.429 1.092.099.066.198.066.264.099z" transform="matrix(.561 0 0 .56156 996.02 320.522)"/><path d="M-1700.839-504.248c-.132 0-.33.099-.396.132-.264.265-.792.827-.792 1.191 0-.265-.297-.993-.033-1.224.165-.232 1.024-.265 1.222-.099zm0 .132c.165 0 .33.199.429.364.165.43.462 1.291.297 1.721.132-.364.792-.993.66-1.423-.132-.331-1.057-.794-1.387-.662zm.099-.298c.132.066.33.232.363.397.165.397.528 1.257.297 1.721.165-.364.792-.993.693-1.456-.099-.364-1.09-.794-1.354-.662zm-.429-11.416c-.132 0-.33.099-.396.132-.264.265-.792.827-.792 1.191 0-.265-.297-.993-.033-1.224.165-.232 1.024-.265 1.222-.099zm0 .132c.165 0 .33.199.429.364.165.43.462 1.29.297 1.721.132-.364.792-.993.66-1.423-.132-.331-1.057-.794-1.387-.662zm.099-.298c.132.066.33.232.363.397.165.397.528 1.257.297 1.721.165-.364.792-.993.693-1.456-.099-.364-1.09-.794-1.354-.662zm8.123 3.541c.132 0 .33.099.396.132.264.265.792.827.792 1.191 0-.265.297-.993.033-1.224-.165-.232-1.024-.265-1.222-.099zm0 .132c-.165 0-.33.199-.429.364-.165.43-.462 1.291-.297 1.721-.132-.364-.793-.993-.66-1.423.132-.331 1.057-.794 1.387-.662zm-.099-.298c-.132.066-.33.232-.363.397-.165.397-.528 1.257-.297 1.721-.165-.364-.792-.993-.693-1.456.099-.364 1.09-.794 1.354-.662z" class="K" transform="matrix(.561 0 0 .56156 996.02 320.522)"/></g><path d="M-1700.74-504.38a.8.8 0 0 1 .429.265c.198.265.561.927.33 1.191.165-.265.925-.695.792-.993-.132-.232-1.222-.563-1.552-.463zm.033.033c-.165.033-.363.232-.429.43-.165.364-.495 1.257-.297 1.688-.165-.331-.792-.96-.693-1.423.132-.331 1.09-.827 1.42-.695zm-.363-11.615a.8.8 0 0 1 .429.265c.198.265.561.927.33 1.191.165-.265.925-.695.792-.993-.132-.232-1.222-.563-1.552-.463zm.033.033c-.165.033-.363.232-.429.43-.165.364-.495 1.257-.297 1.688-.165-.331-.792-.96-.693-1.423.132-.331 1.09-.827 1.42-.695zm7.991 3.342a.8.8 0 0 0-.429.265c-.198.265-.561.926-.33 1.191-.165-.265-.925-.695-.792-.993.132-.232 1.222-.563 1.552-.463zm-.033.033c.165.033.363.232.429.43.165.364.495 1.257.297 1.688.165-.331.792-.96.693-1.423-.132-.331-1.09-.827-1.42-.695z" class="K O" transform="matrix(.561 0 0 .56156 996.02 320.522)"/></g><g fill="#ffd312"><path d="M53.854 54.58c-1.705 2.078-2.559 1.345-4.387.795s-3.776-1.466-5.543-1.893c-1.767-.429-6.155-.736-8.835-.857-2.481-.114-3.343-1.116-3.41-1.894.017-.005.788-.203 2.395-.042 1.625.164 1.706.123 2.03-.367a2.41 2.413 0 0 0 .222-.406c.155-.108.226-.263.226-.468 0-.613-.427-1.527-4.814-1.527-1.49 0-2.59-.05-3.43-.132l1.298-3.353c.396-1.1-1.431-1.282-1.431-1.282-1.707 0-3.017.03-3.869-.184-1.608-.402-2.864-.549-5.3-.427s-4.387.122-7.677-.856c.305 1.254 2.742 2.963 2.742 2.963l-3.838 1.773 1.096.276c3.29.978 5.24.978 7.677.856 1.859-.094 3.03-.03 4.194.184l-.849 2.734c1.539 1.6 2.607 2.44 7.458 2.907l-.933 1.182.202.04c1.747 2.405 2.721 3.177 6.783 3.26 4.061.08 5.93.04 9.058 1.466s4.561 1.924 7.038 1.19c0 0 .045.13.494-.932.506-1.194.632-3.476 1.118-3.885.488-.407 1.138-1.548 1.138-1.548z"/><path d="M65.065 49.06c.527.244 1.096.406 2.802-.083 1.705-.487 6.66-1.343 9.26-1.14-1.015-.896-3.696-2.24-3.696-2.24l2.722-2.241s-.691.04-1.665-.204c-2.884-.814-5.647.123-8.084 1.142-.482.2-.88.354-1.21.468l-.577-2.017s-.991-.724-3.342.064c-2.145.723-2.628 1.892-2.506 2.176s1.137 2.2 1.137 2.2l-.023.07c-.895.42-2.057.846-3.47 1.273-4.021 1.225-4.914 1.792-8.489 4.403l.935 2.24 1.95.611s.487.163.892.123l.05.031c2.034-1.391 3.276-1.944 6.368-2.885 4.021-1.222 6.01-2.404 5.564-3.544l-.69-1.875s.894-.529 1.26-.366l.812 1.792"/></g><g fill="#fff"><path d="m23.483 47.033.475-1.668c.068-.408.705-.66 2.49-.4 1.234.18 2.218.377 2.775-.074l.025-.01c.074-.795-1.043-.718-1.043-.718h-.03c-1.707 0-3.017.029-3.87-.185-1.608-.402-2.863-.55-5.3-.428-2.234.113-4.058.121-6.88-.63.548.673 1.944 1.7 1.944 1.7l-2.742 1.314c3.29.978 5.24.978 7.677.856 2.013-.102 3.22-.017 4.484.239m8.376 3.597c.419-.082 1.185-.094 2.072.031 1.382.2 1.891.065 2.003-.112l-.904 2.083s-3.515.04-3.353-1.956"/><path d="m54.634 54.256-.73 1.045c-1.336 1.798-2.981 1.25-4.863.807-1.828-.548-3.778-1.466-5.544-1.894s-6.153-.732-8.834-.856-3.473-1.283-3.412-2.078a.875.876 0 0 1 .052-.247l.451-.805.067-.088c.3-.374 1.077-.334 2.415-.14.854.12 1.432.137 1.798.044l.03-.106c0-.612-.364-1.285-4.751-1.285s-5.392-.427-6.368-.855c-.574-.252-1.402-1.09-1.245-1.634l-.989 3.222c1.665 1.754 2.468 2.649 7.545 3.138l-.853 1.265c1.746 2.402 2.721 3.177 6.782 3.258s5.93.04 9.059 1.465c3.127 1.429 4.666 1.9 7.144 1.167M24.05 45.836c.226.491.886 1.035 1.322 1.226.649.286 1.312.57 2.979.728l-.004.005.953-2.595c-.394 1.1-1.683.81-3.257.578m38.696 2.383c.528.246 1.096.41 2.803-.08s5.748-1.364 8.347-1.16l-2.564-1.234 1.886-1.518-.358-.08c-2.884-.815-5.646.122-8.084 1.14s-2.721.816-3.045.447l-.65-1.262s.04-.57.528-.773l.569-.246s-.528-.733-2.56 0-2.152 1.672-2.111 1.834c0 0 .407-.04.812-.202s1.381-.734 1.666-.04.283.834.283.834c.448 1.14-1.583 2.26-5.604 3.483s-4.834 1.711-8.408 4.319l.568 1.548 1.866.58c2.542-1.809 3.683-2.378 7.152-3.431 4.021-1.223 6.012-2.405 5.564-3.546l-.65-1.793s.732-.65 1.179-.49l.812 1.672"/></g><path fill="#0d2897" d="M24.816 49.384c-.183.253-.206.597.085.784a.4.4 0 0 0 .196.053l-.041-.449.324.174.024.238a.7.7 0 0 0 .322-.254c.178-.245.189-.62-.077-.791-.29-.185-.644-.016-.834.245l-.293-.213c.307-.424.887-.6 1.331-.314s.483.854.174 1.28a1.2 1.2 0 0 1-.58.432l.03.382-.32-.164-.013-.193a.84.84 0 0 1-.45-.14c-.445-.283-.488-.85-.172-1.283zm2.509.104.368.036-.29.973c-.064.213-.134.518.18.547s.423-.269.487-.484l.29-.972.369.036-.31 1.04c-.126.423-.418.724-.925.678-.507-.052-.606-.39-.48-.814l.31-1.04m2.388 1.923-.375-.007.374-1.747.375.009zm1.469 3.467-.294-.206.872-1.254-.304-.212.178-.257.9.629-.177.257-.304-.213zm2.393-.354-.166.312.045.012c.193.06.356.049.46-.15s-.012-.282-.197-.34l-.048-.015zl-.352-.099.235-.444.472.14c.354.109.523.325.338.674-.11.206-.346.375-.606.34l.142.84-.423-.127-.086-.787-.005-.002-.349.656-.35-.106.63-1.183.353.099m2.162.626-.214.372.441.035-.072-.669h-.005zl-.307-.087.467-.708.281.022.256 1.888-.388-.027-.05-.39-.646-.05-.245.367-.383-.029.708-1.072zm1.994-.712.264.015.709 1.303h.003l.265-1.203.364.019-.401 1.826-.263-.015-.707-1.303h-.006l-.267 1.216-.365-.019zm3.446.695a.28.28 0 0 0-.238-.172c-.114-.013-.248.06-.28.176-.08.3.686.25.524.847-.097.358-.397.587-.774.549-.255-.025-.404-.187-.475-.405l.293-.195c.012.14.108.277.263.292.147.014.27-.097.308-.233.05-.184-.113-.254-.243-.324-.212-.118-.354-.251-.28-.527a.66.66 0 0 1 .686-.482c.164.018.37.12.45.25l-.234.223m1.31 1.654-.35-.067.544-1.46-.361-.07.11-.299 1.074.21-.11.296-.363-.07zm1.682-1.454.333.131-.379.959c-.084.21-.184.515.1.628s.42-.177.502-.388l.378-.96.333.134-.403 1.023c-.166.418-.468.665-.925.483s-.51-.57-.344-.987l.405-1.025m1.943 2.452.468.195-.12.29-.798-.334.702-1.7.331.137zm1.525.93-.337-.122.617-1.734.338.119zm1.524.387-.358-.07.42-1.448-.37-.073.085-.296 1.098.216-.086.295-.37-.073-.419 1.451m1.47-5.872c-.104-.049-.21-.057-.314.002-.1.056-.153.187-.094.293.151.269.723-.202 1.025.338.179.323.107.663-.22.846-.22.125-.454.087-.668-.036l.092-.311c.11.1.284.146.419.07.127-.07.144-.224.076-.346-.093-.165-.272-.127-.424-.105-.253.029-.463.01-.602-.24a.537.537 0 0 1 .198-.744c.142-.08.379-.12.538-.067l-.025.3m.607-.805.317-.169.484.91c.106.198.274.471.543.329s.135-.436.028-.638l-.483-.91.316-.168.516.973c.211.398.203.787-.23 1.018s-.762.024-.973-.373zm2.89-1.013a.34.34 0 0 0-.313-.02c-.104.048-.167.175-.116.284.13.28.736-.147.997.414.157.333.06.668-.28.827-.23.108-.46.053-.663-.083l.113-.305c.104.105.275.167.413.101.133-.06.162-.211.101-.34-.08-.174-.261-.147-.415-.135-.255.01-.462-.026-.583-.282a.54.54 0 0 1 .252-.73c.148-.069.387-.092.542-.026zm1.966.73-.333.132-.56-1.421-.344.135-.114-.29 1.021-.405.115.291-.344.135zm1.249-.451-.338.117-.594-1.744.34-.116zm.094-2.02.243-.088 1.339.896.003-.002-.408-1.17.336-.12.62 1.775-.243.085-1.337-.892h-.005l.413 1.182-.338.119z"/><path fill="#c4c4c4" d="M42.035 12.453c.26 1.022 2.372.948 2.835.91l1.945-.557-.056.032c.593 1.524 2.853 2.384 4.687 2.365 1.797-.018 2.982-.595 3.705-1.635-.63-.669-.797-.873-.723-2.044.055-.669.63-1.227 1.278-1.245.741-.019 1.371.576 1.908 1.096.852.818 1.519 1.784 2.445 2.508.852.706 1.797.688 2.575 1.227.834.595 1.76 1.543 2.13 2.49.315.818-.259 1.69-.796 1.69-.612 0-1.26-.538-1.149-1.04-1.074-.799-3.15.91-3.649 2.75-.667 2.398.352 4.98 1.575 6.02-.389 1.023-1.742 1.877-2.446 2.528-.259.948.111 2.267.908 2.862.945.148 2.52.111 3.538.185.573.782.99 2.443.89 3.327-.315 2.137-.982 3.957-3.001 5.351-1.056.706-1.927 1.19-3.15 1.636-.537-.483-1.019-1.19-1.611-1.468-1.908-.037-4.243.948-4.89 2.34-.315.688.5 1.432 1.426 2.194-1.945 1.412-4.242 2.118-6.372 3.084-.723.335-1.372.818-2.446 2.063-1.111-1.338-1.686-1.914-2.723-2.397-1.834-.837-4.038-1.32-5.428-2.75.853-.502 1.371-.91 1.501-1.691-1.185-1.505-2.575-3.103-4.409-3.568-.611.241-1.39 1.319-1.87 2.118-4.52-.948-8.189-5.947-5.817-10.072.519.205 1.278.576 1.908.242 1.185-.744 2.593-1.691 2.686-3.085-.037-1.338-1.056-2.286-2.26-2.899.796-.576 1.667-2.62 1.722-4.088.056-1.375-.704-2.639-1.426-3.81-.333-.576-1.112-1.096-1.575-1.263-.204.316-1.019 1.022-1.63 1.059-.612.018-1.5-.483-1.5-1.115 0-.483.203-1.245.759-1.58 1.519-.928 3.297-1.542 4.686-2.657.834-.687 1.223-1.914 2.093-2.62.334-.26.704-.54 1.056-.632.898 3.77 2.233 4.223 4.107 4.86 2.056.242 4.785-.623 6.563-2.723z"/><path fill="#ccc" d="M41.535 12.249c-.278 1.728-3.227 2.813-4.931 2.873-1.694-.122-2.96-.885-3.98-2 .408-.093.871-.966.816-1.654-.019-.557-.538-1.133-1.074-1.226-.408-.074-.667-.056-1 .074-.797 4.014 3.334 5.76 5.427 5.705 2.093-.074 5.201-1.607 5.052-3.708v-.041z"/><path fill="#0d2897" d="m60.056 49.077.163.373.522-.23.126.286-.523.23.2.455.541-.237.126.286-.87.382-.738-1.687.87-.383.126.286-.542.24m2.504.388-.312.179-.568-1.424-.322.182-.153-.27.956-.543.154.271-.322.184z"/><path d="M52.222 45.008c.012.015-.012.024-.023.038h-.013v-.036zM52.2 45.168l-.026-.036c.024-.024.074.024.025.036M52.346 45.128h.085"/><path fill="#fff" d="M59.238 45.849c.237.365.937.102 1.704-.224.493-.14.933-.27.887.057-.06.553-1.883 1.503-1.94 1.383-.22-.456-.235-.509-.651-1.216m5.845-1.146-.65.205c-.4.021-.804.177-.794-.26.235-.45 1.192-.84 1.197-.821zM25.212 15.478l1.457-.765c1.422-.898 1.583-.905 2.322-1.83.966-1.21.39-.866 1.327-1.81.129 1.574 2.886 6.005 5.83 5.973 3.618-.004 5.85-2.259 6.535-3.69.858-.054 1.711-.104 2.594-.037.797 2.304 3.779 3.773 6.206 3.754 2.63-.019 6.15-1.728 5.854-5.91 3.823 4.99 3.61 2.31 6.65 5.315-5.55-.43-9.578 7.095-5.002 12.41-.644.804-.472 1.934.074 1.995l1.714 2.007c4.625 4.316-1.4 7.894-4.419 8.712l-4.575 3.196h-1.26c-1.445 1.71-5.075 1.747-6.798 3.81-2.223-2.565-5.04-1.747-6.262-4.014h-.796s-2.263-1.096-5.765-2.972c-4.055-1.868-5.857-3.008-4.389-8.12 3.623-2.407 3.36-3.689 2.558-5.187 2.929-4.38 3.011-10.572-4.371-12.594z"/><g fill="#ffd312"><path d="M25.604 33.06c.39.075.76.131 1.093-.018-1.742 3.866 1 7.043 4.63 8.79-.166.279-.333.483-.5.725-3.593-1.617-7.095-5.073-5.224-9.496zm11.8 11.652h-.797v.985c1.575 1.914 5.854 2.081 7.058 4.348 1.834-2.434 5.761-2.731 8.058-4.608v-.52h-1.26c-1.444 1.709-5.075 1.746-6.798 3.809-2.222-2.565-5.039-1.747-6.261-4.014zm23.193-12.19c.388.018.778-.019 1.167.055 2.204 4.925-.482 7.638-4.669 9.96-.24-.278-.518-.594-.796-.817 3.02-.817 7.224-4.274 4.298-9.198m-.834-4.423-.834.725c-4.575-5.315-.852-13.082 5.002-12.228.556.075 1 1.301.778 1.227-6.78-2.788-8.058 7.414-4.946 10.276M46 12.229c.055.372.314.595.555.52.26-.093.334-.539.278-.799-.037-.335-.296-.836-.722-.836-.37 0-.834.427-.853.985-.018.427-.018.892-.037 1.338.797 2.304 3.78 3.773 6.206 3.754 2.63-.019 6.15-1.728 5.854-5.91-.222-.204-.426-.427-.63-.632.5 3.457-2.815 5.557-5.242 5.501-2.02-.056-5.724-1.561-5.41-3.92m-3.168-.502a5.066 5.07 0 0 1-.204 1.747c-.686 1.431-1.704 3.382-5.928 3.568-4.557.186-6.761-3.493-6.206-6.225a2.407 2.41 0 0 1 .89-.502c-.797 2.75 1.926 5.705 5.408 5.705 2.464 0 5.335-2.08 5.002-3.735-.963 0-1.074-1.486.26-1.468.666 0 .796.558.778.91zm-18.525 4.051c7.595 1.505 7.725 8.548 4.705 12.655l-.778-.93c2.982-3.474 1.612-9.867-4.705-11.279zm30.861-2.23c.538-.65.742-.854.76-1.375.019-.297-.074-1.078-.37-1.078-.315 0-.426.614-.464.91-.037.39.464.874.074 1.543m7.633 4.683c.63.167.982-.186 1.315.037.222.149.259.335.166.483-.092.186-.37.279-.574.223-.389-.112-.519-.483-.908-.743zm-30.158-5.073c-.37-.502-.63-1.06-.649-1.487-.018-.353.204-.91.482-.78.26.093.5.632.352 1.078-.13.464-.26.817-.185 1.189M25.88 17.84c-.741-.372-1.148-.65-1.76-.576-.37.037-.76.408-.685.799s.593.594.963.464c.556-.149.76-.557 1.482-.687"/><g class="G"><path d="M-1696.942-550.74c1.024 0 1.849.827 1.849 1.886 0 1.026-.826 1.886-1.849 1.886s-1.882-.86-1.882-1.886c0-1.059.859-1.886 1.882-1.886z" class="N" transform="matrix(.561 0 0 .56156 996.02 320.522)"/><path stroke-width=".305" d="M-1725.31-510.988c-1.003 0-1.815-.76-1.815-1.765a1.82 1.82 0 0 1 1.815-1.819 1.8 1.8 0 0 1 1.815 1.819c0 1.005-.786 1.765-1.815 1.765z" transform="matrix(.561 0 0 .56156 996.02 320.522)"/><path d="M-1724.847-519.734a2.11 2.11 0 0 1 2.113 2.118c0 1.191-.925 2.151-2.113 2.151-1.156 0-2.113-.96-2.113-2.151a2.13 2.13 0 0 1 2.113-2.118zm-3.996-5.063c1.123 0 2.08.96 2.08 2.118s-.958 2.118-2.08 2.118a2.13 2.13 0 0 1-2.113-2.118 2.13 2.13 0 0 1 2.113-2.118zm63.763 1.125c-1.354 0-2.477 1.092-2.477 2.449a2.5 2.5 0 0 0 2.477 2.482c1.354 0 2.444-1.125 2.444-2.482a2.44 2.44 0 0 0-2.444-2.449z" class="N" transform="matrix(.561 0 0 .56156 996.02 320.522)"/><path stroke-width=".301" d="M-1668.978-511.23c.991 0 1.82-.832 1.82-1.851 0-.993-.83-1.824-1.82-1.824-1.017 0-1.847.832-1.847 1.824 0 1.019.83 1.851 1.847 1.851z" transform="matrix(.561 0 0 .56156 996.02 320.522)"/><path d="M-1669.207-519.635c1.255 0 2.278 1.026 2.278 2.283s-1.024 2.283-2.278 2.283-2.245-1.026-2.245-2.283.991-2.283 2.245-2.283zm-8.784 20.583c-.925 0-1.684.761-1.684 1.688 0 .96.759 1.721 1.684 1.721.958 0 1.717-.761 1.717-1.721a1.7 1.7 0 0 0-1.717-1.688z" class="N" transform="matrix(.561 0 0 .56156 996.02 320.522)"/><path stroke-width=".299" d="M-1683.111-494.611c.957 0 1.755.826 1.755 1.786 0 .986-.798 1.812-1.755 1.812-.984 0-1.782-.826-1.782-1.812 0-.96.798-1.786 1.782-1.786z" transform="matrix(.561 0 0 .56156 996.02 320.522)"/><path d="M-1680.699-496.868c.991 0 1.816.794 1.816 1.82 0 .993-.826 1.82-1.816 1.82s-1.816-.827-1.816-1.82c0-1.026.826-1.82 1.816-1.82zm-36.207-2.383a1.87 1.87 0 0 1 1.849 1.853c0 1.059-.859 1.886-1.849 1.886a1.883 1.883 0 0 1-1.882-1.886c0-1.026.859-1.853 1.882-1.853zm3.583 1.886c-1.156 0-2.113.96-2.113 2.151a2.13 2.13 0 0 0 2.113 2.118c1.189 0 2.146-.96 2.146-2.118a2.145 2.145 0 0 0-2.146-2.151zm3.5 6.155c-1.057 0-1.915-.86-1.915-1.886a1.92 1.92 0 0 1 1.915-1.919c1.057 0 1.948.86 1.948 1.919 0 1.026-.892 1.886-1.948 1.886z" class="N" transform="matrix(.561 0 0 .56156 996.02 320.522)"/></g></g><path d="M26.21 26.892c-.048.029-.069.03-.096.035a.909.91 0 0 1-.087.014 2 2 0 0 1-.208.012c-.127.001-.153.014-.138.003s-.014.022-.064.149c-.013.033-.026.067-.055.107s-.079.08-.128.1c-.098.037-.174.03-.304.03h-.104a.45.45 0 0 1-.076.252c-.06.081-.138.14-.26.235l-.193.164-.06.062a.482.483 0 0 0 .178.077c.147.037.38.13.568.223.161.079.422.166.509.18a1.3 1.3 0 0 1 .487.184c.093.062.116.07.105.072l.038-.029a.8.8 0 0 1 .372-.153.8.8 0 0 1 .194-.01.33.33 0 0 1 .2.074.31.31 0 0 1 .116.31c-.014.1-.087.188-.166.232s-.164.06-.256.065a1.9 1.9 0 0 1-.659-.101c-.557-.17-.672-.196-.856-.196a.23.23 0 0 1-.027.131c-.053.074-.098.083-.145.1a3 3 0 0 1-.426.106 1.963 1.965 0 0 0-.284.092l-.119.046c.01.009.016.011.027.024.03.037.06.122.046.184-.028.125-.08.142-.141.206a3 3 0 0 0-.256.424 3.4 3.4 0 0 1-.291.514l-.013.019.315.035c.306.027.6.09.871.186a3.209 3.212 0 0 0 .31.092c.099.024.19.036.208.037.076 0 .086-.003.102-.012s.06-.047.14-.139l.122-.15.032-.044c0 .003-.012.005-.012.061 0-.087.033-.11.05-.132s.035-.036.053-.051a.7.7 0 0 1 .121-.078c.002 0 .071-.048.142-.107l.227-.205c.102-.1.185-.174.264-.229s.155-.097.256-.097c.059 0 .114-.006.191.052a.224.225 0 0 1 .082.15.2.2 0 0 1-.033.13c-.072.118-.16.158-.298.233-.05.028-.102.064-.139.094s-.055.077-.037.027c-.032.088-.077.121-.127.165a.864.865 0 0 1-.17.115 1.7 1.7 0 0 0-.322.287l-.153.178c.01.02.028.037.03.056a.2.2 0 0 1-.008.093c-.029.088-.062.111-.11.17-.026.03-.026.04-.038.065a.26.26 0 0 1 .112.136c.042.11.016.15.004.215a1.8 1.803 0 0 1-.057.213 1.75 1.752 0 0 1-.161.359.2.2 0 0 1 .112.066c.026-.032.051-.066.084-.093a.3.3 0 0 1 .095-.052.23.23 0 0 1 .149.007c.099.04.125.116.145.174s.029.117.037.19c.016.139.063.194.08.216.004-.006.002 0 .006-.01a.4.4 0 0 1 .21-.21.27.27 0 0 1 .18-.008c.038.012.058.043.085.068.009-.005.017-.006.047-.035a1.8 1.8 0 0 0 .321-.472l.129-.24a.5.5 0 0 1 .121-.154.2.2 0 0 1 .144-.054.224.225 0 0 1 .17.103c.013.024.005.037.011.056a1.077 1.078 0 0 1 .15-.097c.05-.025.073-.053.173-.053.038 0 .056-.01.055-.008.009-.055.02-.118.07-.16a.3.3 0 0 1 .192-.06c.002 0 .022 0 .068-.048a1.116 1.118 0 0 0 .17-.264c.048-.096.107-.176.168-.253-.018-.013-.04-.025-.059-.063-.013-.028 0-.062.002-.096l-.216-.016c-.652-.002-1.171-.448-1.32-1.115a1.128 1.129 0 0 1 .25-.995c.165-.192.353-.33.59-.395s.515-.065.89-.03c.095.008.086.01.104 0s.086-.074.216-.215a2.412 2.415 0 0 0 .175-.212l.007-.011c-.062-.02-.124-.034-.182-.115a.26.26 0 0 1-.042-.147.4.4 0 0 1 .02-.102c.03-.092.017-.18.017-.286-.013.011-.018.022-.045.034a.2.2 0 0 1-.142.009.2.2 0 0 1-.111-.103c-.028-.062-.02-.084-.021-.111v-.016s-.023-.014-.085-.014a.51.51 0 0 1-.37-.147c-.039-.039-.025-.024-.011-.022s-.023.002-.111.027a1.1 1.1 0 0 1-.4.032.7.7 0 0 1-.177-.037.3.3 0 0 1-.092-.053c-.015-.012-.02-.046-.033-.069a1 1 0 0 0-.103.084c-.087.08-.114.113-.12.127s-.013.052-.013.167c0 .251.107.54.19.63.036.038.066.068.09.132.012.032.033.086-.006.163s-.13.104-.173.104c-.056 0-.074-.013-.092-.022s-.032-.017-.046-.026a1 1 0 0 1-.086-.066 2.704 2.707 0 0 1-.202-.188c-.242-.248-.45-.61-.643-1.092.008.018-.07-.077-.15-.125-.04-.024-.083-.042-.107-.049s-.023.017.038-.02zm1.381.092c0 .073.018.07.022.07l.012.001c-.012-.025-.034-.039-.034-.07z" class="C"/><path fill="#013818" d="M26.165 26.74a.05.05 0 0 0-.048.027c-.027.043-.075.05-.154.022a.7.7 0 0 0-.282-.014c-.143.023-.17.048-.183.17-.027.235-.092.277-.381.248l-.257-.027.027.152c.026.142.009.166-.239.344-.273.196-.398.334-.398.44 0 .075.246.205.39.205a.662.663 0 0 1 .254.078c.458.25.59.304.759.304.126 0 .26.047.416.147l.23.148.121-.096c.157-.123.48-.18.574-.102s.09.268-.006.304c-.177.068-.664.028-.807-.067-.078-.052-.18-.083-.224-.068s-.131-.006-.191-.045-.238-.074-.396-.08c-.383-.012-.386-.012-.286.098.047.053.076.107.064.119s-.19.055-.395.094c-.421.08-.666.202-.682.339-.007.05 0 .066.015.033s.064-.06.11-.06.107-.025.138-.057.058-.043.058-.026.096-.01.214-.06.246-.081.282-.067.08.003.098-.025.094-.052.169-.052c.172 0 .233-.09.118-.174q-.225-.165.29-.013l.427.111a.976.977 0 0 1 .167.038c.502.177.832.178.971.003.118-.149.071-.316-.114-.405-.169-.082-.376-.07-.584.034-.194.097-.254.091-.341-.034-.06-.085-.125-.107-.328-.113-.33-.008-.604-.134-.571-.261.021-.081-.002-.094-.184-.096-.26-.005-.41-.03-.58-.1-.126-.05-.129-.058-.052-.142a.8.8 0 0 1 .204-.153l.22-.116a1 1 0 0 1 .219-.08c.1-.02.12-.047.103-.138-.019-.1-.005-.11.114-.096.163.02.325-.105.416-.322.085-.2.27-.23.395-.065.079.106.262.165.25.08s.009-.155.052-.155c.048 0 .24.36.24.452 0 .028.042.131.094.23s.08.178.062.178.013.034.07.074.107.097.107.125.055.093.122.146c.162.127.124.15-.096.059-.183-.077-.29-.185-.609-.61-.149-.2-.404-.415-.491-.415-.074 0 .007.139.216.368.28.307.297.37.083.33l-.298-.059c-.287-.055-1.026-.073-1.026-.024 0 .08.07.102.414.129.179.014.443.05.588.079l.263.053-.263.078c-.349.104-.355.212-.012.215.138.001.25-.012.251-.03s.064-.064.142-.104c.138-.069.335-.059.335.018 0 .02.043.026.095.013s.096-.002.096.028.02.054.043.054.176.075.34.167.35.181.415.198c.107.027.116.018.085-.078-.02-.062-.015-.097.01-.082s.07.01.102-.01c.065-.04.03-.15-.128-.41-.119-.196-.288-.698-.26-.772a.4.4 0 0 1 .138-.134c.095-.063.115-.064.115-.01 0 .038.032.094.072.127.057.048.086.047.145-.002.055-.046.087-.047.129-.005.076.076.224.07.255-.011.025-.065.176-.056.282.017a.5.5 0 0 0 .206.022c.129-.008.166.012.202.107.057.15.056.158-.015.162-.033.002-.14.1-.238.218l-.178.214-.067-.158a4 4 0 0 1-.109-.3c-.05-.168-.168-.19-.205-.038-.02.081-.043.095-.097.061-.108-.068-.239-.056-.239.022 0 .039.09.152.198.252.427.39.524.558.351.612l-.155.054a.8.8 0 0 1-.26.057c-.07.006-.467.377-.809.755-.124.137-.451.172-.613.065a1.7 1.7 0 0 0-.632-.255c-.153-.023-.179-.014-.179.064 0 .067.046.098.18.12.239.041.488.129.488.172 0 .074-.548.101-.832.042-.47-.098-.79-.109-.79-.025s.2.144.316.1c.042-.016.107-.005.142.024s.097.042.136.027.084-.006.1.02-.011.058-.06.073a1.582 1.584 0 0 0-.212.095.589.59 0 0 1-.224.068.27.27 0 0 0-.16.06 1.43 1.432 0 0 1-.237.151q-.41.217-.353.31c.044.071.198.023.39-.123a.7.7 0 0 1 .18-.112c.068 0 .485-.203.566-.276.046-.04.084-.058.084-.039s.027.018.06-.003a.488.489 0 0 1 .152-.052c.084-.013.081-.002-.024.11-.064.07-.24.202-.391.295s-.274.198-.274.232c0 .08.096.14.136.086.031-.043.174-.131.391-.241.167-.084.37-.32.408-.472.027-.107.053-.123.17-.106.077.011.15.002.164-.02.033-.052.258-.051.258.002 0 .064-.334.484-.384.484-.025 0-.046.031-.046.068 0 .123.164.105.28-.031.106-.127.2-.173.196-.097a.9.9 0 0 1-.143.202c-.126.147-.154.16-.237.107-.088-.055-.105-.038-.215.203-.175.383-.273.458-.543.42-.12-.016-.277-.029-.348-.028s-.14-.03-.155-.068q-.026-.071-.146-.04c-.102.026-.116.014-.107-.079.006-.06-.01-.105-.036-.1l-.215.042c-.297.062-.81.08-.81.029 0-.026.053-.09.119-.142s.12-.116.12-.144.043-.08.097-.118.093-.087.087-.11c-.014-.064.088-.291.149-.328.037-.023.038-.05.002-.094-.06-.073-.013-.118.254-.243.164-.076.176-.093.106-.144-.095-.07-.269-.036-.238.046.012.031-.043.105-.122.164s-.144.134-.144.167c0 .108-.32.724-.423.816-.057.05-.103.106-.103.124 0 .078.27.144.598.144.241 0 .42.028.558.089.32.14.68.245.839.245.149 0 .296-.134.468-.425a.561.562 0 0 1 .24-.198c.088-.035.16-.086.16-.114 0-.048.367-.388.511-.473a.18.18 0 0 1 .137-.013c.14.053.061.169-.194.285-.195.09-.255.14-.233.195s-.035.103-.216.183c-.185.082-.284.167-.412.358-.093.137-.19.25-.215.25s-.046.023-.046.051.044.039.107.021l.107-.03-.1.089c-.107.093-.21.261-.21.34 0 .027.048.055.107.063.084.012.104.041.091.135-.009.066-.036.14-.06.164s-.043.103-.043.172-.053.188-.117.262c-.135.159-.122.211.05.192.106-.012.12.002.102.098-.035.182.076.162.193-.033.124-.208.249-.205.249.004 0 .251.058.42.16.47.146.07.143.072.242-.111.1-.187.155-.206.244-.086.055.076.071.073.23-.036a.785.786 0 0 0 .243-.285 4.185 4.19 0 0 1 .164-.334c.05-.092.105-.206.12-.254.04-.126.124-.05.124.114 0 .177.05.177.247-.004.087-.08.19-.14.23-.136.134.016.23-.057.203-.155-.02-.08-.007-.09.095-.065.141.035.263-.096.401-.432.049-.117.112-.214.143-.214.046 0 .113-.102.113-.171 0-.012-.044-.02-.096-.02s-.095-.023-.095-.051.02-.038.044-.023.057.007.072-.018q.077-.118-.377-.105c-.186.005-.347-.019-.435-.065-.077-.04-.16-.073-.187-.074s-.101-.05-.167-.108c-.423-.375-.59-.994-.375-1.397.278-.521.842-.747 1.441-.575a.33.33 0 0 0 .252-.024c.137-.073.544-.554.544-.642 0-.033-.065-.073-.143-.089-.11-.021-.144-.054-.144-.14 0-.06.02-.13.044-.156.069-.071.072-.27.008-.427l-.06-.144-.105.132c-.132.164-.163.164-.182 0-.014-.123-.032-.133-.265-.146-.175-.01-.25-.034-.25-.081 0-.1-.091-.135-.174-.067-.04.034-.182.061-.316.061-.197 0-.256-.02-.312-.105-.08-.121-.179-.136-.218-.032-.015.04-.08.092-.143.116-.094.036-.12.088-.147.302-.037.302.103.75.271.87.142.098.065.151-.08.055-.333-.218-.726-.802-.812-1.207-.025-.115-.083-.177-.245-.263-.105-.055-.165-.08-.203-.08zm3.061.897q.093.002-.085.286c-.127.2-.124.209.094.26l.142.035-.233.211c-.232.21-.273.229-.41.176-.115-.044-.133-.108-.08-.281.045-.15.494-.687.573-.687zm-2.28 2.02c.102 0 .118.02.118.105a.634.635 0 0 0 .028.186c.023.06-.002.068-.143.045-.146-.023-.186-.009-.27.098-.055.069-.118.126-.14.126-.088 0-.1-.105-.028-.216.041-.063.076-.149.076-.189s.032-.073.071-.073.072-.017.072-.036.075-.04.167-.045zm.21.734a.6.6 0 0 0 .12.168c.138.15.116.183-.118.183-.197 0-.47.119-.51.223-.042.11.012.122.192.047.092-.039.18-.058.195-.043s.029.003.029-.028.03-.056.066-.056c.073 0-.465.84-.691 1.078-.159.166-.178.26-.053.26.083 0 .39-.277.39-.352 0-.02.033-.07.073-.108.063-.064.071-.061.071.027q0 .099.092.099c.08 0 .09-.03.078-.211-.014-.22.086-.497.197-.54.035-.013.063-.048.063-.078s.044-.083.097-.116c.08-.05.115-.048.202.012.057.04.133.073.17.073s.118.042.183.093l.117.093-.102.055a1.2 1.2 0 0 0-.241.206c-.117.127-.146.14-.188.08s-.068-.05-.168.071c-.065.079-.117.17-.118.2 0 .09-.187.198-.294.17q-.097-.026-.213.1a1.2 1.2 0 0 1-.27.205c-.085.043-.164.093-.177.11s-.083.067-.156.113a1.588 1.59 0 0 1-.238.124c-.124.047-.325-.005-.235-.06.03-.02.056-.078.056-.129a.471.472 0 0 1 .042-.176 2.21 2.213 0 0 0 .092-.24c.044-.135.037-.17-.047-.247-.094-.089-.095-.093-.007-.187a.7.7 0 0 1 .223-.147c.163-.062.155-.201-.014-.241l-.117-.028.149-.105a.6.6 0 0 1 .189-.105c.1.001.541-.267.522-.318-.012-.031.062-.112.166-.181.09-.06.166-.098.184-.092zm1.286.838.052.003c.158.017.168.028.164.184-.005.184-.109.431-.193.458-.03.01-.067-.036-.084-.102-.062-.25-.38-.284-.358-.04.016.161-.04.343-.137.454s-.129.106-.195-.04c-.109-.238-.432-.022-.458.306-.013.162-.132.37-.285.493-.082.067-.111.07-.17.018-.082-.071-.23-.03-.33.089-.123.147-.19.091-.18-.15.007-.2.02-.226.113-.223.058.001.096-.011.085-.029s.05-.082.134-.143.17-.14.19-.175c.025-.04.083-.053.159-.034.098.025.155-.008.33-.19.116-.122.228-.221.25-.221.054 0 .278-.179.555-.445.183-.175.246-.217.357-.215z"/><path d="M33.256 40.945q-.028-.006-.05.013c-.022.02-.021.03-.02.047s.002.033 0 .05-.017.052-.036.068c-.027.023-.044.029-.064.032s-.046 0-.08 0-.062.01-.072.014c.004 0 .012-.004.03.003s.036.034.037.049c.002.02-.001.017-.003.018l-.099-.056c-.009.017-.028.041-.05.054s-.051.02-.082.02a2 2 0 0 1-.284-.028c-.408-.058-.635-.023-.77.095a2.3 2.3 0 0 1-.409.252 6.384 6.39 0 0 0-.55.316l-.23.157-.134.111-.031.034a.06.06 0 0 0-.009.068l.058.103.1.18c.017.028.052.038.08.022s.037-.05.022-.078l.008.016c-.006-.013.01.03.006.016l.005.017c-.003-.013.004.031.002.017s.002.032.002.018v.017c.001-.014-.006.032-.003.018l-.004.016-.112-.032-.071.247-.04.14a.06.06 0 0 0 .038.071.808.809 0 0 0 .074.02l.03.005c.013.003.007.004.024.004.049 0 .082-.003.126.014a.2.2 0 0 1 .093.1c.034.099.029.223.029.486v.386c0 .03.022.055.051.058l.086.01c.108.013.227.004.333-.018s.196-.05.255-.094c.03-.022.053-.037.08-.049s.056-.02.093-.005c.032.013.053.05.06.073a.3.3 0 0 1 .009.09h.116a.1.1 0 0 1-.006.024l-.01.012-.017.013a7.31 7.317 0 0 0-.012.004h-.012l-.018-.002q-.014-.005-.018-.01l-.009-.008.008.012c.011.017.031.044.063.067l.112.08c.026.017.061.01.08-.015s.012-.061-.013-.08l.016.013c-.01-.009.024.026.015.015l.013.017.01.018c-.007-.012.014.032.009.02s.01.033.006.02.006.034.004.02.001.035.001.021h-.117v.839q0 .025.02.043c.02.018.028.016.044.015.093-.008.234-.069.381-.175.154-.111.305-.261.4-.408l.027-.043.014-.017c.019-.018.013-.015.015-.017s.009-.006.037-.004a.2.2 0 0 1 .05.027c.01.014.008.014.01.026.004.015.003.011.002.024l-.004.046.116.012-.004.016a41.233 41.275 0 0 0-.01.016l-.017.014a295.001 295.299 0 0 0-.033.005 200.76 200.962 0 0 0-.028-.01l-.012-.013-.007-.014-.004-.014.001.019.006.062.026.148c.028.122.053.427.065.715l.02.369q.003.032.03.047c.026.015.037.01.054.002a.22.22 0 0 1 .14-.03c.028.005.06.021.081.045s.031.06.031.092l.01.027.039.089.127.261.265.472a.353.354 0 0 0 .031.04c.004.002.011.011.002 0l-.007-.01-.005-.016a97.513 97.611 0 0 0 0-.016 81.704 81.786 0 0 0 .006-.022 92.492 92.585 0 0 0 .017-.02 56.33 56.387 0 0 0 .017-.008 24.712 24.737 0 0 0 .02-.003l.013.003.018.01a57.609 57.667 0 0 0 .01.013l.008.024a185.113 185.3 0 0 0-.005.032l-.015.019-.011.007-.018.006.037-.006a.27.27 0 0 1 .16.016.8.8 0 0 1 .177.137l.084.077c.01.01.027.016.042.015s.03-.008.04-.02l.02-.023a1 1 0 0 0 .085-.131 1.4 1.4 0 0 0 .088-.181 3.658 3.661 0 0 0 .134-.506c.03-.163.069-.318.105-.435a1 1 0 0 1 .052-.143c.01-.02.017-.033.028-.049s.015-.02.022-.026.017-.011.045-.011c.022 0 .03.004.034.006s.004.004.015.015c.009.009.011.012.017.02l.026.048q.028.056.057.137a.886.887 0 0 0 .139.262q.028.03.062.022c.034-.008.038-.022.042-.044q.006-.026 0-.002a1 1 0 0 1 .027-.088c.015-.036.005-.036.041-.068a.14.14 0 0 1 .06-.02.1.1 0 0 1 .051.018c.06.043.094.096.195.222l.17.205c.037.043.06.066.082.084l.01.011.047-.102c.009.002.02.007.02.007a113.277 113.391 0 0 0 .017.016l.011.034a126.28 126.408 0 0 0-.007.028l-.01.012-.014.011.018-.009a.3.3 0 0 1 .066-.028.2.2 0 0 1 .08.003c.056.019.087.05.153.108.073.064.18.131.273.177q.04.017.065.026c.025.009.038.004.053-.007s.026-.028.026-.047q.004-.105-.008-.302l-.01-.333a.5.5 0 0 1 .01-.094c.009-.037.002-.048.046-.075l-.058-.092h.018a118.08 118.198 0 0 0 .03.016 90.338 90.429 0 0 0 .015.026 37.295 37.333 0 0 0 .003.015l-.002.014a.1.1 0 0 0 .005-.036.2.2 0 0 0-.039-.12 1 1 0 0 1-.07-.13l-.088-.193a1 1 0 0 1-.078-.225.27.27 0 0 1 .028-.154c.002-.005.012-.027.014-.048s0-.043-.006-.083a5 5 0 0 0-.09-.443l-.149-.642a.17.17 0 0 0-.092-.119.325.326 0 0 1-.087-.06c-.027-.026-.04-.034-.044-.083l-.105.039.047-.035.028-.051.004.002-.025-.014a1.3 1.3 0 0 0-.287-.077 2.317 2.32 0 0 1-.232-.058c-.073-.021-.114-.033-.16-.065a.252.253 0 0 0-.16-.042.8.8 0 0 0-.258.07c-.157.068-.258.082-.476.063a.98.98 0 0 1-.77-.43l-.144-.195a.058.058 0 1 0-.093.069c.019.026-.028-.05-.015-.024s-.02-.054-.01-.026-.012-.056-.007-.028-.003-.057-.003-.028h.117v-.376c0-.18 0-.278.019-.363s.053-.147.111-.24c.07-.113.1-.173.105-.229.005-.05-.011-.101-.06-.196a1.3 1.3 0 0 0-.346-.398.8.8 0 0 0-.299-.153zm2.998 2.744" class="C"/><path fill="#003718" d="M34.285 47.26c-.137-.133-.182-.153-.259-.112-.108.058-.092.076-.394-.47-.119-.215-.215-.425-.215-.467 0-.119-.09-.146-.212-.066l-.112.073-.03-.322-.031-.643c0-.182-.024-.337-.053-.355s-.041-.093-.026-.172q.059-.285-.113.053c-.172.338-.536.53-.734.53h-.133v-.482c0-.468-.003-.484-.12-.537-.077-.035-.12-.094-.12-.165 0-.138-.068-.183-.142-.093-.094.114-.377.183-.607.148l-.212-.032v-.994l-.217-.032c-.119-.018-.216-.052-.216-.076s.033-.142.074-.263c.071-.208.07-.226-.024-.358a.6.6 0 0 1-.099-.182c0-.132.595-.537 1.13-.768.132-.057.247-.133.254-.17.03-.151.506-.2.956-.099.176.04.203.035.224-.043q.024-.09.1-.06a.25.25 0 0 0 .154-.001c.06-.023.065-.044.022-.097-.077-.093.01-.14.184-.101.193.042.488.31.627.57.105.196.11.229.048.306a2 2 0 0 0-.164.255c-.124.224-.125.754-.002.949.144.227.33.404.5.475.183.077.706.093.75.022.015-.026.108-.069.205-.095.149-.041.192-.035.275.041.062.058.21.103.405.125.28.032.311.047.359.174q.052.14.13.114c.062-.02.087.038.131.301.03.18.1.486.155.683.09.315.092.362.029.398s-.056.082.053.34c.07.165.145.32.166.346.053.06.051.219-.002.219-.035 0-.03.436.008.793.006.057-.018.095-.062.094-.107-.001-.353-.143-.484-.28-.105-.108-.123-.113-.197-.046s-.094.062-.217-.065a2.8 2.802 0 0 1-.255-.317q-.191-.284-.192-.106c0 .04-.02.072-.044.072-.052 0-.01-.389.047-.452.038-.041.232.143.235.223.003.059.263.418.304.42.02.001.032-.036.024-.082-.023-.138.076-.097.348.144l.285.229c.015 0 .022-.082.018-.18l-.017-.181c-.004 0-.013-.14-.02-.313s-.035-.356-.065-.409c-.088-.157-.195-.6-.152-.627.023-.013.01-.112-.028-.218a2.648 2.65 0 0 1-.1-.44c-.028-.208-.042-.233-.092-.166a.2.2 0 0 1-.141.08c-.069 0-.08-.038-.067-.223.019-.25-.004-.273-.33-.355a.75.75 0 0 1-.27-.119c-.108-.108-.135-.025-.038.114.048.07.149.263.223.43.101.228.186.339.34.445q.358.246.356.337c0 .066-.15.054-.299-.024-.118-.062-.126-.06-.088.012l.197.417a4.393 4.397 0 0 0 .318.568c.18.256.17.42-.012.196l-.112-.138-.002.137c-.002.188-.109.14-.17-.077-.026-.095-.064-.189-.084-.209s-.036-.07-.036-.112-.075-.228-.168-.413c-.148-.3-.168-.321-.174-.193-.003.08-.002.173.003.208s-.012.09-.036.12-.059.117-.076.19-.065.132-.107.132c-.062 0-.07-.036-.04-.205.054-.305.057-.757.006-.974l-.054-.264a2 2 0 0 0-.143-.348c-.115-.234-.148-.27-.221-.23-.048.026-.24.034-.428.02-.333-.025-.342-.023-.342.085a.6.6 0 0 1-.062.232c-.05.1-.067.298-.039.493.01.066.15.038.15-.03 0-.095.127-.193.166-.129.018.028-.005.05-.048.05q-.08 0-.051.077c.029.077-.003.085-.067.102-.119.03-.124.13-.011.243.046.047.077.121.069.166s.006.123.033.173c.088.164-.013.164-.15 0l-.13-.16-.002.346c0 .19.02.36.047.376s.126.151.22.299c.134.208.158.277.108.308q-.063.042-.19-.103c-.07-.08-.14-.144-.155-.144s-.021.087-.013.193c.019.216-.045.255-.115.072-.052-.137-.12-.155-.162-.045-.016.042-.05.062-.077.046-.055-.034-.044-.16.023-.265s.095-1.107.031-1.107c-.069 0-.163.182-.125.243.016.026.011.042-.011.035s-.093.035-.157.095c-.13.12-.29.144-.29.043 0-.036.103-.204.23-.373.336-.45.44-.648.469-.9.014-.125.045-.296.068-.382.039-.145.025-.173-.206-.409-.137-.139-.245-.264-.24-.277s-.026-.1-.065-.193a.8.8 0 0 1-.044-.42c.025-.22.017-.254-.056-.26a3 3 0 0 1-.204-.025c-.54-.086-.968.005-1.059.226-.033.078-.078.142-.101.142s-.042.04-.042.087c0 .133-.112.34-.195.361-.063.016-.07-.017-.045-.214.017-.129.017-.234 0-.234-.05 0-.337.315-.337.37 0 .03-.029.065-.064.078s-.102.103-.147.198c-.091.192-.152.218-.196.082a.6.6 0 0 1 .118-.39c.014-.014.105-.125.203-.248l.18-.223-.203-.058c-.174-.049-.417-.26-.363-.315.01-.01.104.005.21.033.384.103.622.102.855-.004.12-.055.26-.1.31-.1s.114-.026.146-.058q.057-.056.058-.006c.001.05.064.042.157.029a.858.86 0 0 1 .372.003c.557.099.514.103.598-.059.074-.144.072-.157-.05-.342s-.211-.247-.211-.149c0 .028-.06.028-.156 0-.194-.055-.18-.057-.18.025 0 .103-.07.128-.224.078-.075-.025-.289-.055-.474-.068s-.378-.04-.429-.06c-.073-.029-.086-.02-.062.045.05.127-.013.225-.143.225-.154 0-.815.274-1.005.417a.6.6 0 0 1-.214.112c-.038 0-.013.054.065.135.145.152.16.234.063.372a1 1 0 0 0-.1.203c-.028.093-.015.108.09.108.069 0 .166.043.217.094.082.081.092.148.077.526l-.016.433.131.029a.539.54 0 0 0 .26-.02c.178-.068.443-.342.482-.5.033-.129.024-.136-.161-.148-.04-.003-.073-.036-.073-.073 0-.076.34-.287.468-.29.045-.002.104-.044.131-.094.119-.223.806-.397.983-.25.218.181-.062.46-.416.414-.155-.021-.18-.011-.18.07 0 .056-.025.086-.06.072s-.132-.03-.22-.04c-.126-.015-.152-.004-.13.055.015.04-.005.123-.045.184s-.06.145-.044.186q.031.078-.043.048c-.084-.032-.135.073-.16.327-.015.163-.006.18.098.18.073 0 .127.036.146.096.044.138.015.687-.04.76-.09.12.04.17.215.082.21-.107.368-.284.487-.548.096-.215.396-.533.502-.534.113 0 .11.093-.009.268-.066.099-.12.208-.12.244s-.023.066-.05.066c-.068 0-.059.132.011.155.041.014.06.195.065.607l.037.617c.016.016.07-.02.12-.08.112-.14.18-.1.223.132.019.099.055.205.08.236s.041.073.036.096c-.01.042.108.308.211.474l.07.115c.006.01.044-.008.084-.041.06-.05.09-.041.17.053.055.063.12.163.144.222.069.165.126.133.258-.15.154-.323.222-.625.2-.87-.014-.143.003-.207.068-.252.085-.06.157-.278.107-.327-.014-.014-.035-.113-.044-.221s-.061-.273-.114-.366c-.159-.283-.129-.609.058-.631.183-.022.283.271.307.896.025.69.023.668.1.733.039.031.07.108.07.171 0 .07.028.115.072.115.078 0 .098.075.03.116s-.217-.157-.299-.397l-.076-.224-.066.12c-.079.145-.091.19-.14.53-.063.428-.306.97-.43.959a1 1 0 0 1-.194-.165z"/><g class="E G"><path stroke-width=".086" d="m-1712.13-488.685-.066.53" transform="matrix(.561 0 0 .56156 996.02 320.522)"/><path stroke-width=".293" d="M-1726.592-516.718s1.451 1.147 2.599 0 .725-2.159.725-2.159" transform="matrix(.561 0 0 .56156 996.02 320.522)"/><g class="P"><path d="M-1728.796-523.075s.924-.289 1.155-1.213m12.832 29.264c.449 1.807 2.692 1.548 2.952.268M-1712.822-495.048s.397-.532-.066-.958m4.251 3.075s-.751.805-1.664.859m28.336-3.22s-.02 2.069 2.01 1.243M-1680.731-495.185s1.288.483.59-.322M-1670.802-517.027s1.02 1.986 3.327.966m-1.449-2.951.644-.429m-1.791 6.897s1.015 1.433 2.389-.06" transform="matrix(.561 0 0 .56156 996.02 320.522)"/></g></g><g class="D"><g class="L" transform="matrix(-.24696 -.05915 -.028 .28936 -70.803 110.77)"><use xlink:href="#G" class="C F"/><g class="E"><use xlink:href="#H"/><use xlink:href="#I"/><use xlink:href="#J"/></g></g><g class="B C F" transform="matrix(-.2885 0 0 .28879 -77.001 123.324)"><use xlink:href="#K"/><use xlink:href="#L"/></g></g><g class="F" transform="matrix(-.2885 0 0 .28879 -77.001 123.324)"><g class="H I J" transform="rotate(9.908 1248.29 -1919.003)scale(.22899)"><circle cx="-448.064" cy="-368.485" r="4.521"/><circle cx="-446.055" cy="-373.21" r="4.521"/><circle cx="-452.617" cy="-378.161" r="4.521"/><circle cx="-442.171" cy="-380.843" r="4.521"/><circle cx="-447.796" cy="-383.12" r="4.521"/><circle cx="-440.163" cy="-389.146" r="4.521"/><circle cx="-459.179" cy="-384.325" r="4.521"/><circle cx="-454.625" cy="-387.941" r="4.521"/><circle cx="-447.93" cy="-392.628" r="4.521"/><circle cx="-440.564" cy="-397.315" r="4.521"/><circle cx="-456.232" cy="-402.403" r="4.521"/><circle cx="-462.392" cy="-397.449" r="4.521"/><circle cx="-463.464" cy="-390.485" r="4.521"/><circle cx="-455.161" cy="-395.574" r="4.521"/><circle cx="-448.599" cy="-401.466" r="4.521"/></g><use xlink:href="#M" class="B C D"/><g class="H I J" transform="rotate(9.908 1218.982 -1822.371)scale(.22899)"><circle cx="-448.064" cy="-368.485" r="4.521"/><circle cx="-446.055" cy="-373.21" r="4.521"/><circle cx="-452.617" cy="-378.161" r="4.521"/><circle cx="-442.171" cy="-380.843" r="4.521"/><circle cx="-447.796" cy="-383.12" r="4.521"/><circle cx="-440.163" cy="-389.146" r="4.521"/><circle cx="-459.179" cy="-384.325" r="4.521"/><circle cx="-454.625" cy="-387.941" r="4.521"/><circle cx="-447.93" cy="-392.628" r="4.521"/><circle cx="-440.564" cy="-397.315" r="4.521"/><circle cx="-456.232" cy="-402.403" r="4.521"/><circle cx="-462.392" cy="-397.449" r="4.521"/><circle cx="-463.464" cy="-390.485" r="4.521"/><circle cx="-455.161" cy="-395.574" r="4.521"/><circle cx="-448.599" cy="-401.466" r="4.521"/></g><use xlink:href="#N" class="B C D"/><g class="H I J" transform="scale(-.229 .229)rotate(9.911 6561.56 11752.588)"><circle cx="-448.064" cy="-368.485" r="4.521"/><circle cx="-446.055" cy="-373.21" r="4.521"/><circle cx="-452.617" cy="-378.161" r="4.521"/><circle cx="-442.171" cy="-380.843" r="4.521"/><circle cx="-447.796" cy="-383.12" r="4.521"/><circle cx="-440.163" cy="-389.146" r="4.521"/><circle cx="-459.179" cy="-384.325" r="4.521"/><circle cx="-454.625" cy="-387.941" r="4.521"/><circle cx="-447.93" cy="-392.628" r="4.521"/><circle cx="-440.564" cy="-397.315" r="4.521"/><circle cx="-456.232" cy="-402.403" r="4.521"/><circle cx="-462.392" cy="-397.449" r="4.521"/><circle cx="-463.464" cy="-390.485" r="4.521"/><circle cx="-455.161" cy="-395.574" r="4.521"/><circle cx="-448.599" cy="-401.466" r="4.521"/></g><g class="Q B"><g class="D"><use xlink:href="#O"/><use xlink:href="#P"/></g><g class="G"><use xlink:href="#Q"/><use xlink:href="#R"/></g><use xlink:href="#S" class="D"/></g></g><g class="D" transform="matrix(-.2885 0 0 .28879 -77.001 123.324)"><g class="E"><g class="B"><use xlink:href="#T"/><use xlink:href="#U"/><use xlink:href="#V"/></g><path d="M-399.581-361.351s-1.503-.802-2.439-.1" class="R"/></g><use xlink:href="#W" class="B C F"/><g class="B E"><use xlink:href="#X"/><use xlink:href="#Y"/><use xlink:href="#I"/><use xlink:href="#Z"/></g><g class="B E"><use xlink:href="#a"/><use xlink:href="#b"/><path d="M-400.453-342.455s-.897.897.69 6.693"/><use xlink:href="#c"/><path d="M-397.969-340.247s-.414 3.795-1.863 4.485"/></g><use xlink:href="#d" class="B C F"/></g><g class="D"><g class="L" transform="matrix(.24696 -.05915 .028 .28936 150.188 119.976)"><use xlink:href="#G" class="C F"/><g class="E"><use xlink:href="#H"/><use xlink:href="#I"/><use xlink:href="#J"/></g></g><g class="B C F" transform="matrix(.2885 0 0 .28879 156.386 132.53)"><use xlink:href="#K"/><use xlink:href="#L"/></g></g><g class="F" transform="matrix(.2885 0 0 .28879 156.386 132.53)"><g class="H I J" transform="rotate(9.908 1248.29 -1919.003)scale(.22899)"><circle cx="-448.064" cy="-368.485" r="4.521"/><circle cx="-446.055" cy="-373.21" r="4.521"/><circle cx="-452.617" cy="-378.161" r="4.521"/><circle cx="-442.171" cy="-380.843" r="4.521"/><circle cx="-447.796" cy="-383.12" r="4.521"/><circle cx="-440.163" cy="-389.146" r="4.521"/><circle cx="-459.179" cy="-384.325" r="4.521"/><circle cx="-454.625" cy="-387.941" r="4.521"/><circle cx="-447.93" cy="-392.628" r="4.521"/><circle cx="-440.564" cy="-397.315" r="4.521"/><circle cx="-456.232" cy="-402.403" r="4.521"/><circle cx="-462.392" cy="-397.449" r="4.521"/><circle cx="-463.464" cy="-390.485" r="4.521"/><circle cx="-455.161" cy="-395.574" r="4.521"/><circle cx="-448.599" cy="-401.466" r="4.521"/></g><use xlink:href="#M" class="B C D"/><g class="H I J" transform="rotate(9.908 1218.982 -1822.371)scale(.22899)"><circle cx="-448.064" cy="-368.485" r="4.521"/><circle cx="-446.055" cy="-373.21" r="4.521"/><circle cx="-452.617" cy="-378.161" r="4.521"/><circle cx="-442.171" cy="-380.843" r="4.521"/><circle cx="-447.796" cy="-383.12" r="4.521"/><circle cx="-440.163" cy="-389.146" r="4.521"/><circle cx="-459.179" cy="-384.325" r="4.521"/><circle cx="-454.625" cy="-387.941" r="4.521"/><circle cx="-447.93" cy="-392.628" r="4.521"/><circle cx="-440.564" cy="-397.315" r="4.521"/><circle cx="-456.232" cy="-402.403" r="4.521"/><circle cx="-462.392" cy="-397.449" r="4.521"/><circle cx="-463.464" cy="-390.485" r="4.521"/><circle cx="-455.161" cy="-395.574" r="4.521"/><circle cx="-448.599" cy="-401.466" r="4.521"/></g><use xlink:href="#N" class="B C D"/><g class="H I J" transform="scale(-.229 .229)rotate(9.911 6561.56 11752.588)"><circle cx="-448.064" cy="-368.485" r="4.521"/><circle cx="-446.055" cy="-373.21" r="4.521"/><circle cx="-452.617" cy="-378.161" r="4.521"/><circle cx="-442.171" cy="-380.843" r="4.521"/><circle cx="-447.796" cy="-383.12" r="4.521"/><circle cx="-440.163" cy="-389.146" r="4.521"/><circle cx="-459.179" cy="-384.325" r="4.521"/><circle cx="-454.625" cy="-387.941" r="4.521"/><circle cx="-447.93" cy="-392.628" r="4.521"/><circle cx="-440.564" cy="-397.315" r="4.521"/><circle cx="-456.232" cy="-402.403" r="4.521"/><circle cx="-462.392" cy="-397.449" r="4.521"/><circle cx="-463.464" cy="-390.485" r="4.521"/><circle cx="-455.161" cy="-395.574" r="4.521"/><circle cx="-448.599" cy="-401.466" r="4.521"/></g><g class="Q B"><g class="D"><use xlink:href="#O"/><use xlink:href="#P"/></g><g class="G"><use xlink:href="#Q"/><use xlink:href="#R"/></g><use xlink:href="#S" class="D"/></g></g><g class="D" transform="matrix(.2885 0 0 .28879 156.386 132.53)"><g class="E"><g class="B"><use xlink:href="#T"/><use xlink:href="#U"/><use xlink:href="#V"/></g><path d="M-399.581-361.351s-1.503-.802-2.439-.1" class="R"/></g><use xlink:href="#W" class="B C F"/><g class="B E"><use xlink:href="#X"/><use xlink:href="#Y"/><use xlink:href="#I"/><use xlink:href="#Z"/></g><g class="B E"><use xlink:href="#a"/><use xlink:href="#b"/><path d="M-400.453-342.455s-.897.897.69 6.693"/><use xlink:href="#c"/><path d="M-397.969-340.247s-.414 3.795-1.863 4.485"/></g><use xlink:href="#d" class="B C F"/></g><g class="D"><g class="L" transform="matrix(.24696 -.05915 .028 .28936 158.557 110.77)"><use xlink:href="#G" class="C F"/><g class="E"><use xlink:href="#H"/><use xlink:href="#I"/><use xlink:href="#J"/></g></g><g class="B C F" transform="matrix(.2885 0 0 .28879 164.755 123.325)"><use xlink:href="#K"/><use xlink:href="#L"/></g></g><g class="F" transform="matrix(.2885 0 0 .28879 164.755 123.325)"><g class="H I J" transform="rotate(9.908 1248.29 -1919.003)scale(.22899)"><circle cx="-448.064" cy="-368.485" r="4.521"/><circle cx="-446.055" cy="-373.21" r="4.521"/><circle cx="-452.617" cy="-378.161" r="4.521"/><circle cx="-442.171" cy="-380.843" r="4.521"/><circle cx="-447.796" cy="-383.12" r="4.521"/><circle cx="-440.163" cy="-389.146" r="4.521"/><circle cx="-459.179" cy="-384.325" r="4.521"/><circle cx="-454.625" cy="-387.941" r="4.521"/><circle cx="-447.93" cy="-392.628" r="4.521"/><circle cx="-440.564" cy="-397.315" r="4.521"/><circle cx="-456.232" cy="-402.403" r="4.521"/><circle cx="-462.392" cy="-397.449" r="4.521"/><circle cx="-463.464" cy="-390.485" r="4.521"/><circle cx="-455.161" cy="-395.574" r="4.521"/><circle cx="-448.599" cy="-401.466" r="4.521"/></g><use xlink:href="#M" class="B C D"/><g class="H I J" transform="rotate(9.908 1218.982 -1822.371)scale(.22899)"><circle cx="-448.064" cy="-368.485" r="4.521"/><circle cx="-446.055" cy="-373.21" r="4.521"/><circle cx="-452.617" cy="-378.161" r="4.521"/><circle cx="-442.171" cy="-380.843" r="4.521"/><circle cx="-447.796" cy="-383.12" r="4.521"/><circle cx="-440.163" cy="-389.146" r="4.521"/><circle cx="-459.179" cy="-384.325" r="4.521"/><circle cx="-454.625" cy="-387.941" r="4.521"/><circle cx="-447.93" cy="-392.628" r="4.521"/><circle cx="-440.564" cy="-397.315" r="4.521"/><circle cx="-456.232" cy="-402.403" r="4.521"/><circle cx="-462.392" cy="-397.449" r="4.521"/><circle cx="-463.464" cy="-390.485" r="4.521"/><circle cx="-455.161" cy="-395.574" r="4.521"/><circle cx="-448.599" cy="-401.466" r="4.521"/></g><use xlink:href="#N" class="B C D"/><g class="H I J" transform="scale(-.229 .229)rotate(9.911 6561.56 11752.588)"><circle cx="-448.064" cy="-368.485" r="4.521"/><circle cx="-446.055" cy="-373.21" r="4.521"/><circle cx="-452.617" cy="-378.161" r="4.521"/><circle cx="-442.171" cy="-380.843" r="4.521"/><circle cx="-447.796" cy="-383.12" r="4.521"/><circle cx="-440.163" cy="-389.146" r="4.521"/><circle cx="-459.179" cy="-384.325" r="4.521"/><circle cx="-454.625" cy="-387.941" r="4.521"/><circle cx="-447.93" cy="-392.628" r="4.521"/><circle cx="-440.564" cy="-397.315" r="4.521"/><circle cx="-456.232" cy="-402.403" r="4.521"/><circle cx="-462.392" cy="-397.449" r="4.521"/><circle cx="-463.464" cy="-390.485" r="4.521"/><circle cx="-455.161" cy="-395.574" r="4.521"/><circle cx="-448.599" cy="-401.466" r="4.521"/></g><g class="Q B"><g class="D"><use xlink:href="#O"/><use xlink:href="#P"/></g><g class="G"><use xlink:href="#Q"/><use xlink:href="#R"/></g><use xlink:href="#S" class="D"/></g></g><g class="D" transform="matrix(.2885 0 0 .28879 164.755 123.325)"><g class="E"><g class="B"><use xlink:href="#T"/><use xlink:href="#U"/><use xlink:href="#V"/></g><path d="M-399.581-361.351s-1.503-.802-2.439-.1" class="R"/></g><use xlink:href="#W" class="B C F"/><g class="B E"><use xlink:href="#X"/><use xlink:href="#Y"/><use xlink:href="#I"/><use xlink:href="#Z"/></g><g class="B E"><use xlink:href="#a"/><use xlink:href="#b"/><path d="M-400.453-342.455s-.897.897.69 6.693"/><use xlink:href="#c"/><path d="M-397.969-340.247s-.414 3.795-1.863 4.485"/></g><use xlink:href="#d" class="B C F"/></g><path stroke-width=".753" d="M-974.449-647.569s.378 3.963 3.246 4.019" class="E G" transform="matrix(.19722 0 0 .19742 235.501 140.06)"/><path d="M59.645 26.91c-.02 0-.126.085-.235.189-.184.177-.232.257-.173.293q.054.032-.014.098c-.036.036-.043.034-.083-.014-.092-.114-.192.013-.23.293-.018.138-.018.284.003.517q.049.562.153.667c.05.049.05.049.147-.007a.976.977 0 0 1 .295-.084c.249-.036.427.007.71.168.448.255.627.568.627 1.098 0 .14-.01.2-.037.223a.11.11 0 0 0-.037.075c0 .073-.186.285-.355.406-.204.146-.32.185-.596.204-.385.026-.445.08-.385.351.044.202.211.637.304.792.111.186.314.36.57.488.17.085.247.11.339.11.114 0 .129.008.304.171.102.094.217.188.256.208.08.042.262.23.354.37.034.05.07.092.08.092.016 0 .033-.052.095-.303.016-.065.038-.124.05-.132.032-.019.4.196.855.499.212.142.396.25.41.243s.015-.044.006-.078a.886.887 0 0 0-.098-.19c-.126-.192-.163-.425-.223-1.408-.042-.676-.053-.746-.161-1.019-.067-.169-.09-.26-.065-.26a5.434 5.434 0 0 0 .514.074c.403.04.594-.016.539-.162-.028-.074-.025-.076.253-.137l.41-.11c.241-.082.63-.28.61-.31-.152-.247-.584-.79-.628-.79-.011 0-.049-.038-.084-.084-.057-.075-.06-.092-.035-.161.039-.103.016-.122-.284-.236-.153-.059-.266-.119-.31-.165s-.093-.072-.138-.072c-.072 0-.524-.098-.758-.164l-.136-.04.284-.266.284-.267-.002-.177c-.002-.198-.023-.233-.159-.268l-.086-.023.006-.177.006-.178h-.513l-1.25-.063a.4.4 0 0 1-.107-.126l-.064-.108-.121.101-.135.124a.2.2 0 0 1-.059.047c-.038.02-.058.002-.136-.124-.145-.236-.204-.244-.412-.059a.7.7 0 0 1-.143.11c-.03 0-.09-.075-.137-.168-.023-.044-.057-.08-.078-.08zm1.692 3.307.272.025.84.668-.123.099-.593-.371z" class="C"/><path fill="#044617" d="M59.644 26.917c-.019 0-.135.095-.256.211-.172.163-.206.221-.15.256.058.035.058.056.005.11s-.075.051-.113-.011c-.042-.067-.058-.066-.133.008-.17.17-.07 1.486.114 1.486.036 0 .078-.022.094-.048s.154-.064.306-.083a.8.8 0 0 1 .515.072c.58.256.804.553.83 1.096.009.198-.005.353-.032.353s-.048.031-.048.07c0 .108-.26.373-.487.498-.14.076-.297.113-.495.115-.39.004-.439.08-.308.486.165.508.26.689.457.874.22.207.607.394.743.358q.094-.023.26.158c.09.1.215.201.278.225s.183.14.268.257l.154.213.06-.237c.032-.13.066-.237.074-.237.048 0 .805.46.993.604h-.001c.122.093.244.169.272.169.052 0-.024-.176-.134-.31-.091-.11-.159-.665-.198-1.647-.013-.305-.052-.513-.129-.686-.128-.289-.136-.35-.042-.314.038.015.24.045.45.068.443.049.638-.005.56-.151-.043-.081-.01-.098.298-.151.19-.033.49-.134.666-.224l.319-.163-.185-.276a3.3 3.3 0 0 0-.41-.483c-.18-.167-.212-.222-.164-.28.079-.095.025-.14-.3-.244-.145-.048-.277-.12-.293-.161-.03-.076-.086-.09-.127-.056l-.222-.048a3 3 0 0 0-.26-.06c-.22-.045-.4-.1-.4-.122s.129-.15.286-.286c.267-.232.284-.26.27-.453-.014-.182-.032-.21-.154-.223-.126-.015-.135-.031-.108-.193l.028-.177-.56-.008-.688-.018-.338-.019c-.167-.005-.224-.033-.278-.134l-.068-.127-.18.158-.179.158-.105-.186c-.125-.218-.211-.231-.373-.056-.066.071-.145.129-.174.129s-.082-.058-.114-.129-.074-.128-.093-.128zm.632.262q.036.003.037.064c0 .06.057.121.127.187.112.105.138.11.219.048.05-.04.11-.095.134-.124q.043-.049.068.013c.015.036.123.067.241.07s.28.021.36.04l.144.032-.106.113c-.058.063-.106.149-.106.192s-.08.151-.178.24c-.265.242-1.033.66-1.116.607a.5.5 0 0 0-.21-.045c-.118 0-.142-.023-.142-.132 0-.183.15-.624.237-.697.08-.067.097-.201.024-.201-.027 0-.12.06-.206.133-.15.126-.158.127-.158.028 0-.153-.089-.182-.16-.05-.063.12-.079.631-.023.805.027.086.004.105-.15.123-.206.024-.233-.02-.208-.345l.021-.347c.004-.09.034-.142.083-.142.042 0 .077-.021.077-.048s.03-.079.065-.117.102-.137.15-.221c.08-.142.212-.243.19-.146-.016.072.066.223.122.223.028 0 .131-.07.228-.154q.177-.157.237-.15zm1.844.304c.353 0 .46.016.44.065l-.062.154c-.047.116.107.18.238.099.143-.09.2-.073.2.061 0 .14-.138.304-.463.552a1.7 1.7 0 0 0-.248.214c-.036.08.025.11.248.117l.285.019.563.123a.196.197 0 0 0-.015.061c-.007.089.016.126.079.126a3.327 3.33 0 0 1 .625.144c.013.01-.017.046-.065.082-.079.057-.05.103.276.45l.447.475c.046.05.074.096.062.103-.23.138-.598.25-.83.25-.05 0-.103.023-.12.05s-.132.047-.258.047c-.238 0-.282.046-.151.155.185.154.05.172-.566.076-.192-.03-.345-.106-.604-.3-.19-.142-.347-.275-.347-.294s-.092-.074-.204-.119c-.202-.08-.362-.068-.362.028s.12.272.251.376c.073.058.166.144.207.191s.175.117.298.154c.189.055.241.102.335.296.07.144.117.352.125.555.008.18.037.406.063.505.03.108.031.18.003.18-.064 0-.06.296.003.317.027.01.061.11.076.223l.056.348q.053.248-.163.045a1.268 1.27 0 0 0-.22-.158c-.13-.07-.304-.212-.53-.436-.171-.169-.244-.127-.246.141v.146l-.213-.168a2.154 2.156 0 0 1-.358-.378l-.225-.323c-.1-.143-.253-.102-.213.057.038.152-.038.269-.13.194-.357-.292-.455-.404-.6-.69-.224-.448-.218-.5.054-.496.12.003.308-.033.418-.079l.219-.083c.062 0-.045.44-.144.593-.018.028-.05.138-.07.244-.029.158-.02.192.047.192.046 0 .083-.026.083-.058 0-.049.238-.585.29-.656.035-.046.327.285.327.37 0 .151.151.566.256.704.128.168.196.094.11-.116-.101-.245-.13-.45-.063-.45.062 0 .08.017.584.508.287.28.332.308.31.194-.013-.073-.057-.159-.096-.191s-.071-.089-.071-.124-.197-.25-.437-.478l-.437-.443c0-.018.04-.032.09-.032.125 0 .54-.218.566-.296.028-.088-.094-.08-.295.02a1.4 1.4 0 0 1-.381.108c-.18.02-.232.002-.337-.11l-.124-.134.105-.116c.198-.217.268-.389.31-.759.014-.127.052-.249.084-.27s.19-.038.35-.038h.291l.394.373c.343.324.646.516.643.407 0-.018-.139-.184-.308-.368s-.308-.354-.308-.378c0-.054.418-.03.496.028.032.024.078.04.102.034.048-.011.306.048.43.098.043.018.1.035.129.04s.097.026.154.049l.276.11a1 1 0 0 0 .33.07c.152 0 .153-.002.061-.103-.051-.057-.182-.13-.29-.163s-.198-.079-.198-.102-.018-.039-.039-.033-.173-.04-.337-.103-.353-.113-.42-.113c-.192 0-.202-.09-.015-.13.092-.02.19-.055.219-.077s.119-.049.202-.059c.268-.03.22-.146-.06-.146-.14 0-.27.017-.289.036-.08.08-.642.232-.92.248-.269.016-.29.009-.246-.074.027-.05.165-.17.307-.266s.26-.193.26-.215c.005-.17-.457.014-.703.28-.369.396-.64.458-.759.172a1.5 1.5 0 0 0-.296-.39c-.142-.136-.198-.22-.156-.238.137-.053.56-.286.732-.402.162-.11.594-.249.926-.3.068-.01.132-.045.143-.078.02-.062-.096-.077-.489-.06l-.217.008.056-.16c.03-.087.042-.192.026-.235-.025-.064.045-.076.437-.076zm-.556 2.836q.05-.012.317.227c.141.125.23.23.197.23-.079.003-.491-.313-.52-.397q-.017-.054.006-.06z"/><path d="m55.972 41.08-.081.004a.64.64 0 0 0-.33.085c-.137.066-.174.095-.295.234a1 1 0 0 0-.101.129l-.027.043-.003.045a.084.084 0 0 1-.15.053l-.044-.054a.4.4 0 0 1-.059-.107 1 1 0 0 1-.05-.139c-.02-.065-.033-.09-.041-.108a.2.2 0 0 1-.081 0 1.088 1.09 0 0 1-.153-.043c-.16-.055-.15-.055-.292-.034-.083.012-.128.027-.15.042s-.033.03-.049.082c-.018.057-.06.149-.098.224s-.046.103-.04.142.037.101.106.206c.052.08.109.18.136.243.056.13.057.306.032.484s-.075.353-.161.473c-.294.411-.806.574-1.232.379-.076-.036-.117-.048-.157-.048s-.09.012-.182.047a1.34 1.342 0 0 1-.301.074l-.2.026v.025c0 .118-.05.263-.123.423s-.174.33-.285.477c-.073.096-.16.245-.228.39s-.122.292-.134.365a3 3 0 0 0-.021.378l.005.18.006.058c.005.009.01.01.027.01a.965.966 0 0 0 .209-.032c.087-.02.146-.037.215-.012a.16.16 0 0 1 .081.069.3.3 0 0 1 .031.087c.003.017.005.018.008.026.006-.005.046-.019.123-.08.024-.019.042-.035.072-.05.015-.007.036-.016.067-.012s.06.028.073.047c.025.039.024.065.029.104l.012.151a4.376 4.38 0 0 0 .052.373l.036.184.007.025.075-.038c.079-.041.224-.16.462-.393l.252-.238.085-.075.03-.023.015-.01c.007-.003.007-.012.046-.012s.05.01.07.018l.037.021.005-.016.047-.185.047-.193.02-.067.01-.024c.002-.008 0-.013.017-.032-.015.017 0-.003.008-.033s.016-.07.024-.122l.047-.41.027-.318a.084.084 0 0 1 .156-.037l.053.086.024.035a.5.5 0 0 1 .088-.012q.007-.001.026.004a.1.1 0 0 1 .03.018.1.1 0 0 1 .03.063l-.001-.008.002.012.007.041.023.132c.031.18.079.3.115.346.018.023.026.024.027.024s.01.002.031-.018q.014-.015.034-.028c.02-.013.037-.024.07-.021s.057.02.07.033.018.022.027.033a.5.5 0 0 1 .07.164c.019.073.038.109.046.118s.013.012.058.013c.067 0 .134.01.197.053s.125.106.231.218c.096.102.236.232.297.278a2.9 2.903 0 0 0 .24.158l.097.055.003-.013a2.418 2.42 0 0 0 .03-.264l.03-.26a.15.15 0 0 1 .044-.083.14.14 0 0 1 .087-.03c-.018 0-.01.001-.004-.003s.016-.011.02-.016c.007-.009.003 0 .006-.01a.482.483 0 0 0 .002-.095l-.06-.71-.01-.16-.002-.057.001-.023c0-.008-.007-.01.014-.044.027-.043.057-.045.079-.048s.036 0 .055.003c.001-.008.009-.033.008-.094a2.6 2.6 0 0 0-.156-.634c-.029-.057-.066-.1-.1-.126s-.06-.031-.076-.028c-.057.009-.122.003-.168-.041s-.056-.103-.06-.165c0-.035-.006-.069.022-.112.015-.022.038-.038.058-.045s.035-.009.05-.01c.081-.01.144.026.227.076s.178.12.282.208l.09.076.029-.046c.06-.096.109-.161.167-.208s.128-.067.197-.067c.176 0 .334.125.535.368l.091.11.031-.089.089-.255c.03-.06.07-.102.124-.156s.07-.08.073-.105-.009-.078-.05-.174a3.5 3.5 0 0 1-.227-.68c-.068-.306-.116-.48-.16-.566-.022-.043-.039-.061-.056-.072s-.04-.019-.08-.023l-.107-.013a.084.084 0 0 1-.075-.078l-.011-.158a1 1 0 0 0-.014-.113.23.23 0 0 0-.118-.01q-.096.008-.256.054l-.13.035c-.034.007-.063.018-.11-.001-.023-.009-.047-.031-.058-.053s-.012-.041-.013-.057c-.001-.032.003-.058.008-.093l.02-.126zm-4.78 4.79c.004.011.002.007 0 0m3.944-4.287v-.013zm.128.876.249.182-.023.294-.271.022-.158-.158-.09-.158z" class="C"/><path fill="#003718" d="M55.864 41c-.182 0-.559.185-.607.299-.01.022-.057.074-.105.115s-.088.104-.088.14c0 .149-.118.007-.163-.197-.034-.157-.062-.207-.098-.171s-.093.028-.202-.026-.21-.066-.356-.045c-.186.029-.21.048-.26.204a.8.8 0 0 1-.097.218c-.072.077-.045.214.07.368.187.25.234.466.164.748l-.063.275a1 1 0 0 1-.133.197c-.263.33-.763.45-1.106.268-.157-.084-.167-.084-.366.002a1.206 1.207 0 0 1-.393.088c-.15 0-.183.015-.16.072.04.107-.189.64-.364.848a2.5 2.5 0 0 0-.382.696c-.05.141-.08.626-.046.759.03.123.047.124.409.035.109-.027.13-.015.157.09.037.147.066.151.22.03.066-.052.127-.094.136-.094s.02.085.022.189a3.226 3.229 0 0 0 .064.468l.066.28c.004 0 .09-.043.193-.093s.325-.246.495-.432c.274-.3.32-.332.387-.275.042.035.083.055.09.045.024-.033.09-.318.142-.57l.022.007c.051-.152.077-.427.094-.672l.016-.28c.012-.002.037.03.066.083.056.103.085.12.135.08s.07-.004.096.209c.037.302.166.504.261.41s.127-.07.187.132c.05.17.071.188.189.176.108-.011.165.026.319.212a2.508 2.51 0 0 0 .456.406c.148.098.29.174.316.167s.053-.165.06-.352c.012-.274.028-.334.082-.313.044.016.063-.006.067-.072l.052-.006-.064-.624a.7.7 0 0 0-.009-.224c-.028-.238-.023-.273.04-.249.14.054.146-.177.014-.626-.087-.297-.213-.441-.35-.398-.068.022-.098.002-.119-.077-.065-.25.13-.213.484.091l.183.157.12-.19c.177-.28.408-.23.726.155l.187.227.05-.133a1.975 1.977 0 0 0 .076-.26.36.36 0 0 1 .137-.2c.142-.093.14-.187-.005-.474-.065-.127-.137-.351-.161-.5s-.058-.29-.074-.318a.51.511 0 0 1-.044-.165c-.012-.111-.145-.3-.206-.293-.166.02-.2-.012-.185-.183.014-.162.005-.177-.116-.191-.073-.008-.224.016-.336.054s-.214.06-.227.046-.012-.095.002-.183l.026-.16zm-.01.211a.03.03 0 0 1 .02.007c.026.026-.114.312-.164.335-.046.021.01.15.064.15.024 0 .153-.05.287-.112.38-.177.467-.195.439-.092-.072.26-.076.334-.02.331.28-.01.34.017.418.189.094.206.177.511.148.54-.025.025.239.486.346.607.04.045.057.097.038.117s-.075-.018-.125-.082c-.175-.226-.309-.353-.467-.442-.184-.104-.228-.11-.498-.063-.172.029-.228.014-.424-.107-.492-.306-.992-.257-.992.097 0 .223.276.447.487.394.106-.026.3-.193.273-.235-.073-.116.085-.151.177-.04.033.04.087.062.12.05s.081.003.108.035c.033.04.14.052.332.038.24-.017.306-.004.445.09.09.062.163.129.163.15s.032.07.071.109c.077.077.093.157.03.157-.046 0-.033.197.018.29.019.034-.065-.038-.185-.159-.172-.171-.265-.227-.422-.25-.237-.036-.386.028-.408.174-.015.105-.132.182-.132.087 0-.082-.24-.273-.418-.334-.15-.052-.168-.046-.27.073-.11.127-.11.13-.024.276.069.118.117.148.239.148.161 0 .306.134.264.244-.013.034 0 .118.027.19.114.292.093.416-.047.28-.043-.042-.05 0-.037.183h-.007l.1.968c-.017.016-.057.007-.09-.02-.106-.088-.148-.007-.108.203.045.23.055.551.018.551-.014 0-.152-.106-.307-.234s-.296-.234-.314-.234-.074-.074-.123-.165q-.18-.337-.262-.207c-.034.056-.052.051-.11-.026-.037-.051-.055-.111-.042-.134s.005-.054-.02-.07-.067-.094-.093-.17c-.06-.187-.18-.207-.236-.038-.042.126-.046.122-.079-.097-.043-.285-.116-.45-.199-.45-.035 0-.088-.054-.118-.12-.07-.153-.177-.135-.198.014l-.04-.001-.024.45-.041.41c-.03.016-.049.072-.052.16a.7.7 0 0 1-.05.245.34.34 0 0 0-.053.2q0 .05-.097-.003c-.092-.049-.16-.03-.16.042 0 .08-.315.51-.454.62-.247.194-.255.184-.292-.367-.015-.235-.005-.293.05-.293.038 0 .1-.074.138-.165s.085-.156.105-.144.038-.023.04-.08c.004-.145.065-.313.114-.313.023 0 .041.031.041.07 0 .105.324.444.398.415.07-.026.047-.136-.05-.251-.105-.124-.265-.609-.228-.693a.5.5 0 0 0 .04-.146c.005-.08.12-.129.12-.05 0 .074.184.327.238.327.059 0 .056-.174-.003-.21-.026-.017-.047-.072-.047-.123s-.064-.215-.141-.365c-.181-.348-.155-.426.14-.426.23 0 .528-.098.66-.216.065-.057.085-.055.15.017.04.045.074.092.074.105s.015.062.033.109.013.232-.012.412-.032.335-.017.344c.072.045.168-.114.182-.303.016-.217.094-.356.135-.243.013.034.06.097.107.14s.101.164.122.267c.044.23.044.276-.002.532q-.036.201.015.255c.078.078.148-.018.179-.245.044-.327.13-.197.13.195 0 .41.041.49.136.265.06-.14.072-.149.1-.066.086.254.175.407.206.357.04-.066.006-.333-.043-.333-.02 0-.046-.08-.059-.176a1.812 1.814 0 0 0-.146-.43l-.123-.27c0-.043.182-.004.26.055.113.085.301.092.301.01 0-.057-.367-.319-.484-.345l-.147-.033-.12-.026c-.016-.001-.093-.093-.173-.202s-.23-.283-.333-.387-.19-.208-.191-.234.04-.13.09-.234.104-.263.118-.355c.022-.147.05-.177.212-.23.103-.034.186-.078.186-.097 0-.094 1.489-.146 1.602-.056.107.084.305.11.33.043a.15.15 0 0 0-.006-.112c-.037-.06-.569-.205-.624-.17-.021.012-.039 0-.039-.028s.05-.07.112-.093c.137-.052.194-.135.135-.195-.028-.028-.155.018-.344.125-.248.14-.355.172-.627.186-.418.022-.458.028-.515.07-.026.02-.115.05-.199.068s-.152.054-.152.081-.03.024-.073-.012c-.04-.034-.063-.1-.05-.149s-.006-.099-.044-.113-.067-.063-.067-.109-.029-.106-.064-.135c-.05-.042-.053-.093-.014-.239.048-.178.056-.184.212-.16.258.042.414.188.476.446.03.125.078.228.105.228.073 0 .221-.145.221-.216 0-.033.028-.077.06-.098s.11-.106.168-.19.136-.152.173-.152.066-.018.066-.04c0-.042.165-.125.229-.124zm-.574 1.4c.032-.003.056.016.087.058.033.046.05.11.038.144-.032.082-.132.076-.22-.013-.095-.094-.093-.1.023-.163a.2.2 0 0 1 .072-.026zm-2.696.967a.3.3 0 0 1 .167.067c.056.043.072.083.044.106-.026.02-.051.1-.057.176-.017.243-.284.684-.562.93-.299.262-.096.28.233.02q.28-.217.11.11a2.165 2.168 0 0 0-.125.363c-.055.212-.076.24-.185.24-.071 0-.17.05-.233.117-.131.14-.188.148-.188.029a.22.22 0 0 0-.072-.148c-.06-.05-.101-.046-.236.018l-.176.078c-.027 0-.002-.353.032-.469.043-.142.277-.623.32-.655.075-.058.36-.666.337-.724-.033-.087.051-.13.277-.14.105-.006.2-.035.21-.065.013-.038.053-.055.103-.053z"/><path d="M-1697.144-548.643s.833.062.432-.463" class="E G P" transform="matrix(.561 0 0 .56156 996.02 320.522)"/><defs><path id="B" d="m749.442 29.162-20.685-1.514s-8.072-8.072-17.658-7.315c0 0 3.027 2.523 2.523 4.793 0 0-23.964-1.009-28.757 23.207l6.559-1.766s-7.82 9.081-3.279 18.162l8.577-1.009s-6.054 6.054-7.315 12.613c0 0 8.829-.505 12.108-1.514"/><path id="C" d="M743.64-.856s-7.315-15.135-49.946-8.577l1.514 4.036s-9.586.505-10.847 3.784l3.279 2.775s-6.054.505-7.315 3.784c0 0 11.856 3.279 14.378 7.315"/><path id="D" d="M687.135-3.126S664.18.153 656.36 8.477l6.306 2.018s-14.631 0-23.207 7.568-11.099 12.36-11.099 12.36l5.802-.505s-9.081 14.883-11.604 17.658-7.315 8.324-7.315 8.324 13.622.757 20.18-4.036l2.018 4.793s20.18-2.775 22.45-5.045c0 0-12.36 6.559-16.144 7.82s-18.162 4.541-20.685 11.856l6.559 1.514S617.009 83.144 616 89.198l4.541.252s-1.766 8.072-14.631 15.892c0 0 11.099 3.784 28.505-5.297 0 0 2.523 3.532 1.261 4.541 0 0 9.838-1.009 20.685-11.351v6.054s5.802-2.775 8.072-6.306"/><path id="E" d="m705.297 26.135-19.171-1.514-6.559-4.036s-19.423-5.802-22.955 3.784c0 0-18.162 2.018-20.685 18.919 0 0 2.775-2.27 5.802-2.018s5.297.252 5.297.252l.757 1.766 9.081-.252h3.279l-2.775 5.045 17.153.505"/><path id="F" d="M687.892 40.513s-26.739 9.838-20.685 30.018l-3.027 5.297 3.784-1.009s-7.315 10.09-3.532 18.414c0 0 11.604-3.532 13.622-7.315"/><path id="G" d="M-386.75-354.579s1.592-1.048.541-2.74-.233-2.859.233-3.384 1.109-1.809.934-2.567 1.575.292 1.342 1.459-.525 1.4.175 2.042.817 1.342.875 1.575.817.525 1.167-1.225 1.05-.525 1.75-.233 2.567.642 3.092.525.817 1.634 1.925 2.101c0 0-2.042-.525-3.268.642s-.934.175-1.925.117-1.342.233-1.4.642-.117 1.167.467 1.342 2.82.487 3.229.196-2.762 2.022-3.929 1.73c-.803-.201-2.019-1.284-2.947-1.714-.421-.195-1.442.186-1.678.404"/><path id="H" d="M-386.282-354.129c.784-.371 1.113-1.732 1.263-3.181.141-1.365-.346-1.959.228-3.527.385-1.288.714-1.715-.18-2.802"/><path id="I" d="M-385.563-354.926s2.087-2.624 3.28-2.266 1.431-.537 1.491-1.073c.04-.356.304-.763 1.917-.353.815.207 1.886.446 3.628 1.367"/><path id="J" d="M-385.503-354.867c1.908-1.193 2.624.477 3.637 1.073s3.413.016 3.413.016"/><path id="K" d="M-396.449-335.446s-1.934.925-2.003-.041.897-1.725.897-2.484 0-2.76-.69-2.07-.897.759-.828 1.311-1.242-2.691-1.242-3.381-1.035-.207-1.035 1.38.483 2.898.276 3.105-.897.759-1.242-.345-2.208-2.484-2.484-1.587-1.38.345-1.656.759.414.759 0 1.311-1.242.069-.897.966-.414.897-.414 1.38 2.001 1.173 3.864 0 1.863.552 1.38.621-1.863.621-1.863 1.518-.207 1.518 1.656.759 2.07-.207 3.795-1.932c.276-.414 1.035-.138 1.104.414s.966-1.932.966-1.932z"/><path id="L" d="M-394.721-357.565s-.614-.614-.351-1.14 1.885-1.184 1.842-1.622-.132-1.184-.526-1.798-.175-1.885.307-2.236-1.622.175-1.842 1.842-1.315 1.184-1.491.702.395-2.149-.482-2.324-1.096.132-1.272.482-1.052-1.096-1.403-.614-.833.526-.658 1.535c-1.14.044-1.622.088-1.535.877s.395.57.57.965-.044.833 0 1.14.482.57 1.14.088 1.315-.438 1.403.175-.132.702-1.009 1.535-.921.877-.482 1.272 1.184.877 2.412-.438 1.798-1.272 1.929-1.009l.472.922"/><path id="M" d="M-383.601-345.921c-.035-1.928-2.337-2.965-2.337-2.965s.161-.943.372-.931 2.158 1.417 2.997 2.99"/><path id="N" d="M-397.677-327.109c-.468-1.871 1.203-2.739 1.203-2.739s-.401-.869-.601-.802-1.67 1.47-2.071 3.207"/><path id="O" d="M-391.905-358.183a6.7 6.7 0 0 0-1.145.112c-3.858.732-4.946 3.503-4.817 5.027l.155.404.555-.358s-.379-2.163 2.055-3.515c1.053-.585 2.319-.724 3.518-.544l.017-1.116z"/><path id="P" d="m-390.55-358.054.021 1.242c1.142.363 2.129 1.011 2.672 1.814 1.244 1.838 1.298 3.082.865 4.921s-2.271 4.055-3.299 5.299l-6.381 7.678c-1.244 2.055-1.027 3.082-.973 3.893s.378 3.028 2.163 4.596l3.425 2.919.033-2.26-1.037-.76c-.816-.554-1.35-1.164-1.735-1.801-.6-1.01-1.081-2.365-1.158-3.665a4.5 4.5 0 0 1 .293-1.648c.593-1.562 1.961-3.046 3.348-4.557 2.418-2.631 5.531-5.853 6.688-9.676 1.012-3.389-.809-5.615-1.416-6.222-.366-.366-1.656-1.41-3.508-1.772z"/><path id="Q" d="M-390.926-361.295c-.616-.088-.617 1.497-.617 1.497l-.261 16.747 1.213-1.379.017-6.121s.265-10.656-.352-10.744"/><path id="R" d="m-390.597-342.262-1.239 1.361-.235 16.154c-.088 7.31-1.409 11.096-1.409 11.096l3.522-.528c-.969-1.057-.704-4.492-.704-4.492z"/><path id="S" d="m-390.64-326.738-.007 2.493.518.662c1.352 1.893 2.055 6.543 1.298 8.597 0 0-.459.886-.636 1.019s.794.309 1.147-.132-.176.706.132.926 2.388.309 2.652-.794.913-.58.913-.58c-.152-.304-1.942-3.743-2.549-6.526-.429-1.964-1.714-3.953-3.468-5.665"/><path id="T" d="M-393.8-363.923s-.474.684-.616 1.237a1.8 1.8 0 0 0 .046 1.043c.263.745-.702 2.017-1.71 2.455-.206.313.207.033-.223.112-.484.089-1.537.413-2.173.764-.716.395-1.047 1.5-2.252 1.272"/><path id="U" d="M-395.28-357.356c-.127-.841-2.741-5.441-5.427-5.371"/><path id="V" d="M-397.214-364.106c-.814 0-.93 2.376-.839 2.858 0 0-1.372-.368-2.473.324-.091.057-.925 1.023-.967 1.101"/><path id="W" d="M-386.092-355.102s.934-.525-.117-2.217-.233-2.859.233-3.384 1.109-1.809.934-2.567 1.575.292 1.342 1.459-.525 1.4.175 2.042.817 1.342.875 1.575.817.525 1.167-1.225 1.05-.525 1.75-.233 2.567.642 3.092.525.817 1.634 1.925 2.101c0 0-2.042-.525-3.268.642s-.934.175-1.925.117-1.342.233-1.4.642-.117 1.167.467 1.342 1.517.292 1.925 0-1.459 2.217-2.626 1.925-3.209-2.451-3.968-1.75"/><path id="X" d="M-385.566-361.21s-.35 1.673.35 2.432.7 1.05.7 1.05"/><path id="Y" d="M-383.991-360.879c-.292 1.167-.408 5.426-1.867 6.302"/><path id="Z" d="M-385.503-354.867c1.908-1.193 2.624.477 3.637 1.073s2.862-.239 2.862-.239"/><path id="a" d="M-407.628-335.555s1.863-1.173 3.933-1.242c0 0 .69-2.415-2.001-2.277"/><path id="b" d="M-406.593-338.522s1.035 1.449 4.623 2.001c2.021.423 3.578 2.198 4.168 1.86"/><path id="c" d="M-404.248-332.037s.828-1.656 2.277-1.725 2.139-1.932 2.139-1.932"/><path id="d" d="M-404.245-312.824s4.088 0 5.743.876c1.363.681.779-.876 4.77-.195 2.044-1.168 5.646-.292 7.106 0 1.752-.389 1.947-.292 5.354.292 1.655-.389 4.964-.681 6.23-.195 0 0-3.699-1.46-4.672-1.46s-2.823-.973-4.478-.584c-1.557-.779-7.884-1.265-9.442-.097-1.849-.195-4.283-.389-5.354 1.071 0 0-2.141-.876-5.256.292z"/></defs></svg>