<svg xmlns="http://www.w3.org/2000/svg" width="720" height="432" viewBox="0 0 190.5 114.3"><path fill="#fff" d="M0 0h190.5v114.3H0z"/><path fill="#071d49" d="M190.5 0v46.154l-19.05-11.001-9.525 5.503-28.575-16.5-9.52 5.499-28.58-16.5-28.58 16.5-9.52-5.499-28.575 16.5-9.525-5.503-19.05 11V0z"/><path fill="#071d49" d="M128.246 76.2V38.1L95.253 19.05l-33 19.05v38.1l33 19.05z"/><g fill="#ffb81d"><path d="M95.25 22.505 65.246 39.83v34.645L95.25 91.8l30.004-17.325V39.83zm28.575 51.144L95.25 90.15l-28.575-16.5V40.656l28.575-16.5 28.575 16.5z"/><path d="M105.585 39.984H84.93c-.397 0-.598-.487-.312-.762 3.006-2.879 6.646-4.752 10.626-4.752s7.657 1.873 10.647 4.752a.444.444 0 0 1-.313.762zM110.31 47.371H80.19a.792.792 0 0 1-.704-1.154 29 29 0 0 1 1.969-3.265 2.57 2.57 0 0 1 2.106-1.095h23.389c.841 0 1.63.413 2.106 1.1a29 29 0 0 1 1.958 3.26.792.792 0 0 1-.704 1.154M113.035 54.753h-35.57a.79.79 0 0 1-.768-.984 51 51 0 0 1 .932-3.234 1.89 1.89 0 0 1 1.799-1.296h31.65c.814 0 1.54.524 1.799 1.296.322.969.635 2.07.93 3.234a.792.792 0 0 1-.766.984zM114.639 62.14H75.867a.79.79 0 0 1-.778-.937c.19-1 .391-2.037.608-3.074a1.9 1.9 0 0 1 1.852-1.503h35.407c.9 0 1.672.63 1.852 1.503.217 1.037.418 2.069.609 3.074a.79.79 0 0 1-.778.937M98.938 69.522a.79.79 0 0 1-.793-.789c0-.799-.323-1.518-.847-2.042s-1.249-.847-2.048-.847a2.89 2.89 0 0 0-2.895 2.884.79.79 0 0 1-.793.789h-16.95a.787.787 0 0 1-.783-.905c.106-.693.27-1.747.482-3.027a1.89 1.89 0 0 1 1.868-1.577h38.147c.926 0 1.715.667 1.868 1.577.212 1.28.376 2.334.482 3.027a.787.787 0 0 1-.783.905h-16.95z"/></g><g stroke-width=".265"><path fill="#aa0200" d="M190.5 79.147V114.3H0V79.147h57.15l38.1 21.998 38.1-21.998z"/><path fill="#fff" d="m95.25 74.385 1.18 3.64h3.826l-3.096 2.25 1.186 3.635-3.096-2.249-3.096 2.249 1.18-3.635-3.09-2.25h3.82z"/></g></svg>