<?xml version="1.0" encoding="utf-8"?>
<!-- Generator: Adobe Illustrator 28.1.0, SVG Export Plug-In . SVG Version: 6.00 Build 0)  -->
<svg version="1.1" id="Layer_1" xmlns="http://www.w3.org/2000/svg" xmlns:xlink="http://www.w3.org/1999/xlink" x="0px" y="0px"
	 viewBox="0 0 360 360" style="enable-background:new 0 0 360 360;" xml:space="preserve">
<style type="text/css">
	.st0{fill:none;stroke:#BFBFBF;stroke-width:3;stroke-miterlimit:10;}
	.st1{fill:#FFFFFF;}
	.st2{fill:none;stroke:#FFFFFF;stroke-width:0.5525;stroke-miterlimit:10;}
</style>
<path class="st0" d="M252.8,137.3l-2-2.5c-0.4-0.5-0.3-1.2,0.2-1.6l3.7-2.5c0.4-0.3,1-0.2,1.4,0.1l9.4,9.8c0.4,0.4,0.4,1.1,0,1.5
	l-3.3,3.3c-0.4,0.4-1.1,0.4-1.5,0L252.8,137.3z"/>
<path class="st0" d="M257.9,132.2l2.2-7.5c0,0,5.4-9.1,9.1-6.4l8.7-11.3c0.6-0.7,1.7-0.3,1.7,0.6c-0.3,6.1-2.5,20.5-15.6,30.2"/>
<g>
	<circle class="st1" cx="67" cy="124.9" r="3.3"/>
</g>
<g>
	<circle class="st1" cx="145" cy="186" r="3.3"/>
</g>
<g>
	<circle class="st1" cx="165.9" cy="163.6" r="1.9"/>
</g>
<g>
	<circle class="st1" cx="272.6" cy="86" r="1.9"/>
</g>
<g>
	<circle class="st1" cx="331" cy="103.3" r="1.9"/>
</g>
<g>
	<circle class="st1" cx="110.5" cy="80.2" r="1.9"/>
</g>
<g>
	<circle class="st1" cx="196.6" cy="222.8" r="2.4"/>
</g>
<g>
	<circle class="st1" cx="198.6" cy="235" r="1.6"/>
</g>
<g>
	<circle class="st1" cx="199.1" cy="200" r="1.6"/>
</g>
<g>
	<circle class="st1" cx="277.9" cy="111.1" r="1.6"/>
</g>
<g>
	<circle class="st1" cx="272.7" cy="103.6" r="1.6"/>
</g>
<g>
	<circle class="st1" cx="176" cy="142.5" r="1.6"/>
</g>
<g>
	<circle class="st1" cx="147.8" cy="93.5" r="1.6"/>
</g>
<g>
	<circle class="st1" cx="185" cy="276.1" r="1.6"/>
</g>
<g>
	<circle class="st1" cx="167" cy="283.3" r="1.6"/>
</g>
<path class="st0" d="M259.2,144.1c-42.4,47.1-39,70.3-39,70.3l8.2,3.5l3.1-5.9c0,0,2.3-4.2,9-2.7c6.7,1.6,18.3,6.4,17.6,21.1
	c0,0-12.9-8.5-22.3,4.9c0,0-6.1-3.8-12.3-1.9c-6.2,1.9-9.3,3.9-9.3,3.9s-3.8,10.9-9.4,15.3c0,0-2.2,37.1-55.9,41.9l-0.3-9.5
	c0,0,38-7,38.1-38.4l-27.2-35.9c0,0-26.4,2.9-40.7-11s-19.3-30.9-66.3-34.3c0,0-4.4-9.2,9.1-22.8c13.5-13.5,18-13.3,19.7-32.4
	c0,0,10.2-11.5,33.9-4.7s37.5-2.2,41.9-19.1l22.5,20.8c5.3,4.8,8.2,11.8,7.7,18.9c-0.4,6.2-2.4,14.2-8.3,23.3
	c-13.7,21.3-10.2,31.7-4.2,35c0,0,6,2.9,12.9,0.9s11.7-0.9,14.9,1.3c0,0,33.3-33.4,48.9-50.4"/>
<path class="st0" d="M79.1,122.4c0,0-18.4-8.1-29.6-27.4c-0.4-0.7-1.3-0.6-1.6,0.1c-1.8,4.9-5.2,19.4,9.3,30.3c0,0,1.3,8.9,7,8.3
	c0,0,1.7,0,3.1-2.4l4,2"/>
<path class="st0" d="M143,105.7L121.2,89c0,0-3.7,7.4-9.1,5.1s-4.3-8.6-4.3-8.6s-12.1-6.8-13.5-26c-0.1-0.9,1-1.5,1.7-0.9
	c7.6,6.4,36.9,29.7,59.4,32.4"/>
<path class="st0" d="M224,197.7c3.4,3,9.4,6.4,19.7,6.2c18.4-0.3,26,5.1,27.8,13s-7.8,13.7-7.8,13.7s5.3,21.3-16.2,26.4
	s-23.6-3.4-33.9,12.5c-10.3,16-21.1,19.8-32,16.3"/>
<path class="st0" d="M146.3,281.5c1.1-0.1,2.1,0.7,2.1,1.8l0.1,1.8l0.3,9.5l-0.1,2.3c0,1-0.9,1.9-1.9,1.9l-4,0.1c-1.1,0-2-0.9-2-2
	l0.2-13.2c0-1,0.8-1.8,1.8-1.9L146.3,281.5z"/>
<path class="st0" d="M141.1,284.9c0,0-9-5.2-19.2-0.8c-1.2,0.5-1.1,2.3,0.2,2.6l4.8,1.4c0,0-7.5,7.6-17,9c-1.1,0.2-1.6,1.5-0.8,2.3
	c3.7,3.7,13.5,9.8,31.5-4"/>
<g>
	<polyline class="st2" points="67,124.9 145,186 196.6,222.8 198.6,235 185,276.1 168.6,283.2 	"/>
	<polyline class="st2" points="251.5,231.7 196.6,222.8 199.1,200 145,186 165.9,163.6 176,142.5 147.8,93.5 110.5,80.2 	"/>
	<polyline class="st2" points="331,103.3 277.9,111.1 199.1,200 	"/>
	<polyline class="st2" points="272.5,86 272.8,103.6 277.9,111.1 	"/>
</g>
<g>
	<circle class="st1" cx="251.5" cy="231.7" r="3.3"/>
</g>
</svg>
