<?xml version="1.0" encoding="utf-8"?>
<!-- Generator: Adobe Illustrator 28.1.0, SVG Export Plug-In . SVG Version: 6.00 Build 0)  -->
<svg version="1.1" id="Layer_1" xmlns="http://www.w3.org/2000/svg" xmlns:xlink="http://www.w3.org/1999/xlink" x="0px" y="0px"
	 viewBox="0 0 360 360" style="enable-background:new 0 0 360 360;" xml:space="preserve">
<style type="text/css">
	.st0{fill:none;stroke:#FFFFFF;stroke-width:0.5525;stroke-miterlimit:10;}
	.st1{fill:#FFFFFF;}
	.st2{fill:none;stroke:#BFBFBF;stroke-width:2.9999;stroke-miterlimit:10;}
</style>
<polyline class="st0" points="59.3,274.3 119.5,204.9 245.9,261.4 "/>
<g>
	<circle class="st1" cx="119.5" cy="204.9" r="1.6"/>
</g>
<g>
	<circle class="st1" cx="59.3" cy="274.3" r="1.6"/>
</g>
<g>
	<circle class="st1" cx="245.9" cy="261.4" r="1.6"/>
</g>
<g>
	<polyline class="st2" points="201.9,158.2 114.7,199.3 117.9,209.5 126.8,213 204.9,170.2 147.1,258.5 149.1,267.4 156.2,272.4 
		218.9,176.8 176.3,257.9 184.7,265.4 229.8,180.9 	"/>
	<polyline class="st2" points="142.5,204.4 160,218.5 163.1,234 	"/>
	<polyline class="st2" points="147.1,258.5 148.9,228.2 126.8,213 	"/>
	<line class="st2" x1="160" y1="218.5" x2="191.7" y2="190.4"/>
	<line class="st2" x1="150.3" y1="210.7" x2="178" y2="185"/>
	<line class="st2" x1="170.2" y1="251.1" x2="176.3" y2="257.9"/>
	<line class="st2" x1="181.9" y1="247.2" x2="176" y2="242.2"/>
	<path class="st2" d="M202.9,231.4l1.5,1.2c1.9,1.5,4.8,1.1,6-1.1l3.6-5.9c1.3-2.2,4.3-2.6,6.2-0.9l3.8,3.4"/>
	<path class="st2" d="M235.3,246l-11.7-9.8c-2.3-1.9-2.6-5.3-0.7-7.6l0,0c1.9-2.3,5.3-2.6,7.6-0.7l11.7,9.8c2.3,1.9,2.6,5.3,0.7,7.6
		l0,0C241,247.7,237.6,248,235.3,246z"/>
	<path class="st2" d="M222.4,169.1l-3.9-3c-3-2.3-3.5-6.5-1.2-9.5l9.9-12.9c3.1-4,8.9-4.8,12.9-1.7l0,0c4,3.1,4.8,8.9,1.7,12.9
		l-9.9,12.9C229.6,170.8,225.4,171.3,222.4,169.1z"/>
	<path class="st2" d="M232.4,167.2c5.1,4.3,10.4,10.3,6.3,13.9c-7,6.2-27.9-12.5-27.9-12.5s-13.2-9.1-7.5-14.6
		c3-2.9,9.1-0.5,14.1,2.4"/>
	<path class="st2" d="M236.1,140.6l2.5-3.5l-4.6-3.3l-0.7,1c-1.1,1.6-3.3,2-4.8,0.9l0,0c-1.6-1.1-2-3.3-0.9-4.8l4-5.7
		c1.1-1.6,3.3-2,4.8-0.9l0,0c1.6,1.1,2,3.3,0.9,4.8l-0.2,0.3l4.8,3.8l2.6-3.3l6.6,5.1l-8.3,10.7"/>
	<path class="st2" d="M246.2,131.3c0,0,4.9-3.4,0.2-11.6s-8.6-21.2,3.9-33.6c10.6-10.6,28.2-5.6,32.2-4.3c0.7,0.2,1.4,0,1.9-0.4
		l1.1-1c0.5-0.5,0.7-1.2,0.5-1.9c-0.3-1-0.5-2.8,0.9-4.6c2.2-3,7.9-0.5,7.5,3.4c0,0,5-2.3,6.8,2.7c1.6,4.4-2.4,5.5-5.4,5.2
		c-0.7-0.1-1.3,0.2-1.7,0.7l-0.4,0.5c-0.6,0.7-0.6,1.8,0,2.5c3.9,4.4,16.1,20.1,5.3,35.9c-12.7,18.6-32.5,9-32.5,9
		s-13.8-6.9-17.1,0.2"/>
</g>
</svg>
