<?xml version="1.0" encoding="utf-8"?>
<!-- Generator: Adobe Illustrator 28.1.0, SVG Export Plug-In . SVG Version: 6.00 Build 0)  -->
<svg version="1.1" id="Layer_1" xmlns="http://www.w3.org/2000/svg" xmlns:xlink="http://www.w3.org/1999/xlink" x="0px" y="0px"
	 viewBox="0 0 360 360" style="enable-background:new 0 0 360 360;" xml:space="preserve">
<style type="text/css">
	.st0{fill:none;stroke:#BFBFBF;stroke-width:2.9999;stroke-miterlimit:10;}
	.st1{fill:none;stroke:#BFBFBF;stroke-width:2.9999;stroke-linecap:round;stroke-miterlimit:10;}
	.st2{fill:#BFBFBF;}
	.st3{fill:none;stroke:#FFFFFF;stroke-width:0.5525;stroke-miterlimit:10;}
	.st4{fill:#FFFFFF;}
</style>
<path class="st0" d="M78.1,104.4c0,0,10.4-6.9,18.2-8.6c0,0,8.2-9.1,27.9-7.1s17,20.8,38.1,25.5c21.1,4.7,54.8,6.8,67.7,28.5
	s30.8,28.7,30.8,28.7l-6.8,4.4c0,0,38.4,24.6,36.6,60.3c0,0-8.9-17.7-17-23.9c0,0,26.7,48.9-15.4,93.6c0,0,4.3-7.6,2.6-18.5
	c0,0-1.9,4-6.6,8c0,0-0.7-47.6-67.5-106.1c-0.1,0-0.1,0-0.2,0c-0.4,0.8-2.5,5.2-6.6,5.4c-4.6,0.2-23,1.1-17.7-7.3
	c0,0-28.4-6.5-41.4-23.1c0,0-20-4.2-17.5-23.8c2.4-19.6,4.4-19.6-10.4-27.8C92.9,112.6,82,109.3,78.1,104.4z"/>
<path class="st1" d="M254.1,175.8c0,0-117,10.5-116.8-40.4"/>
<path class="st0" d="M96.2,95.8c0,0,17.2,11.5-3.3,16.8"/>
<g>
	<path class="st2" d="M120.3,96.4c-1.2,0-2.3,0.3-3.2,0.6c-1.2,0.4-2.9,0.5-4,0.5c-0.8,0-1.3,0-1.3,0s1.6,0.4,3.9,3.2
		c0.9,1.1,2.5,1.6,4,1.6c2.5,0,5-1.3,4.5-3.3C123.7,96.9,122,96.4,120.3,96.4L120.3,96.4z"/>
</g>
<g>
	<path class="st2" d="M185.7,188.1c5-3.3,11.3-4.5,17.2-3.1c3.2,0.9,6.2,2,9.4,2.7c16.9,4.2,33.8,11.4,46.1,24.2
		c6.2,6.3,11.1,13.6,14.7,21.5c-4-7.7-9.1-14.9-15.4-20.8c-12.6-12.1-29.2-18.4-46.1-22c-3.1-0.6-6.3-1.6-9.5-2.4
		c-4.4-0.9-9,0-12.9,2.2c-0.4,0.2-0.9,0.5-1.1,0.7C188.1,191.3,185.7,188.1,185.7,188.1L185.7,188.1z"/>
</g>
<g>
	<path class="st2" d="M213.3,188.1c24,13,43.3,36,48.5,63.1c1.7,8.9,1.9,18.1,0.9,27.1c0.8-9,0.3-18.1-1.6-26.9
		c-4.8-22.1-19.2-41.1-37.6-53.8c-3.6-2.5-7.5-4.9-11.4-6.8C212.1,190.8,213.3,188.1,213.3,188.1L213.3,188.1z"/>
</g>
<polyline class="st3" points="243.4,176.9 162.3,161 138.3,142.7 151.5,166.4 "/>
<g>
	<circle class="st4" cx="243.4" cy="176.9" r="2.2"/>
</g>
<g>
	<circle class="st4" cx="151.5" cy="166.4" r="2.2"/>
</g>
<g>
	<circle class="st4" cx="162.3" cy="161" r="2.2"/>
</g>
<g>
	<circle class="st4" cx="138.3" cy="142.7" r="2.2"/>
</g>
</svg>
