<?xml version="1.0" encoding="utf-8"?>
<!-- Generator: Adobe Illustrator 28.1.0, SVG Export Plug-In . SVG Version: 6.00 Build 0)  -->
<svg version="1.1" id="Layer_1" xmlns="http://www.w3.org/2000/svg" xmlns:xlink="http://www.w3.org/1999/xlink" x="0px" y="0px"
	 viewBox="0 0 360 360" style="enable-background:new 0 0 360 360;" xml:space="preserve">
<style type="text/css">
	.st0{fill:none;stroke:#BFBFBF;stroke-width:3;stroke-miterlimit:10;}
	.st1{fill:none;stroke:#FFFFFF;stroke-width:0.5525;stroke-miterlimit:10;}
	.st2{fill:#FFFFFF;}
</style>
<path class="st0" d="M206,181c0,0,6,19.1,24.8,24.8c18.8,5.6,24,19,24,19c-7.1-0.6-20.9-6.5-20.9-6.5c15.8,10.9,20.9,28.6,20.9,28.6
	l-14-7.7c7.2,7.8,13,29.9,13,29.9c-22.4-7.3-34.7-36.6-34.7-36.6c4.1,22,9,33.7,9,33.7C211,259,208.4,238,208.4,238
	c2,5.6-4.4,23.2-4.4,23.2c-11.3-8.6-5-54.1-5-54.1c-4.2-9.4-13.6-11.1-13.6-11.1l5,7.5c0,0-99.1,56-108.7,88.6l-8.4-23.2
	c0,0-2.6,35.6-29.9,52.9c0,0,3.1-23.4,3.5-38.5l-17.5,23.2l3.7-22.3l-25.3,16c0,0-7.4-39.8,28.1-65.8c6.9-5,16.3-16.9,16.3-16.9
	l-20.7,10.7l15.9-17.7c3.5-3.9,8.1-6.7,13.2-8l82.6-21.4c2-0.5,3.8-1.7,5-3.3c2.7-3.6,5-8.7,5-8.7c-4-2.1-3.1-2.8-2.3-7.2
	c0.9-4.4-0.5-6.2-0.5-6.2s-1.4-1.7-0.9-6.8s-2.8-9.3-2.8-9.3l-3,7.4c0.4-5.1-4.7-8.2-4.7-8.2c-12,1.6-14-5.6-14-5.6l8.2-2.7
	c-11.3-3.7-13.3,0.5-13.3,0.5c-5.3-11.2,11.4-7.7,11.4-7.7l0.7-1.6l8.1,1.9l-2.7-3.2c0,0,5.6-1.2,9.1,3.1c3.5,4.2,16.7,1.7,16.7,1.7
	l-6.4,3.4c0,0,4.3-1.9,10.7,3.5c6.4,5.4,13,7,13,7c19.9,3.3,32.6-10.2,38.7-18.8c4.9-6.9,25-45.9,32.6-60.8c1.9-3.8,4.9-6.9,8.5-9
	l19.1-11.2c-10,9.6-10.7,17.1-10.7,17.1s29.9-25.1,53.2-22.1L299,50.9c0,0,25.9-11.6,47.6,14.3L330,68.5l15.3,4.3
	c0,0-24.8,16.2-52.6,21.4l14.7,8.5c0,0-18,19.3-44.9,32.3s-46.8,38.5-45.5,54.3l-11.4-9"/>
<g>
	<polyline class="st1" points="259.8,76.4 247.1,88 203.5,181 146.5,199.6 103.7,215.7 179.9,219.3 246.2,250.5 256.3,257.8 	"/>
	<polyline class="st1" points="139.5,152.4 148.7,130.7 159.1,115.7 203.5,181 246.2,250.5 247.1,88 	"/>
	<g>
		<circle class="st2" cx="148.7" cy="130.7" r="3.6"/>
	</g>
	<g>
		<circle class="st2" cx="103.7" cy="215.7" r="2.7"/>
	</g>
	<g>
		<circle class="st2" cx="203.5" cy="181" r="2.7"/>
	</g>
	<g>
		<circle class="st2" cx="247.1" cy="88" r="2.7"/>
	</g>
	<g>
		<circle class="st2" cx="159.1" cy="115.7" r="1.7"/>
	</g>
	<g>
		<circle class="st2" cx="246.2" cy="250.5" r="1.7"/>
	</g>
	<g>
		<circle class="st2" cx="139.5" cy="152.4" r="1.7"/>
	</g>
	<g>
		<circle class="st2" cx="146.5" cy="199.6" r="1.7"/>
	</g>
	<g>
		<circle class="st2" cx="179.9" cy="219.3" r="1.7"/>
	</g>
	<g>
		<circle class="st2" cx="256.3" cy="257.8" r="1.7"/>
	</g>
	<g>
		<circle class="st2" cx="259.8" cy="76.4" r="1.7"/>
	</g>
</g>
</svg>
