<?xml version="1.0" encoding="utf-8"?>
<!-- Generator: Adobe Illustrator 28.1.0, SVG Export Plug-In . SVG Version: 6.00 Build 0)  -->
<svg version="1.1" id="Layer_1" xmlns="http://www.w3.org/2000/svg" xmlns:xlink="http://www.w3.org/1999/xlink" x="0px" y="0px"
	 viewBox="0 0 360 360" style="enable-background:new 0 0 360 360;" xml:space="preserve">
<style type="text/css">
	.st0{fill:none;stroke:#BFBFBF;stroke-width:3;stroke-miterlimit:10;}
	.st1{fill:none;stroke:#BFBFBF;stroke-width:3;stroke-linecap:round;stroke-linejoin:round;stroke-miterlimit:10;}
	.st2{fill:none;stroke:#BFBFBF;stroke-width:3;stroke-linecap:round;stroke-miterlimit:10;}
	.st3{fill:none;stroke:#FFFFFF;stroke-width:0.5525;stroke-miterlimit:10;}
	.st4{fill:#FFFFFF;}
</style>
<path class="st0" d="M157.8,146.6c2.9-7.8,9.7-7.3,12.8-7.3s6.2-0.6,8.9-2.1c10.5-6,12.1-18.7,12.1-18.7
	c4.4-29.3-25.1-32.8-25.1-32.8s-25.7-3.2-33.4,20.5c0,0-1.2,2.7,0,11.6"/>
<path class="st0" d="M190.4,103c0,0,15,1.4,21,3.6"/>
<path class="st1" d="M181.6,230.8c6-0.9,8.8-4.9,8.8-4.9c5.9-2.7,7.4-15.7,7.4-15.7c5.3-3,7.5-3.5,9.5-13.5s7.1-19.3,11.8-22.9
	c4.7-3.6,19.1-18.3,19.1-18.3c3.8,7.6,13.4,24.1,16.4,29.1c0.6,1,1.5,1.7,2.6,1.9c4,0.9,14,2.6,21.8-0.4c10-3.8,15.3-8,15.3-8
	c9.8,2,12.5-2.4,15.5-5s2.5-6.8,1.5-9.3s-2.7-2.3-9-2.8c-6.3-0.4-11.5,7.9-15.3,9.2s-22.1,0-22.1,0c-2.5-7.6-12.1-26.1-12.1-26.1
	c0.5-13.5-10.5-15.8-10.5-15.8c-1.3-7.6-12.3-14.6-12.3-14.6s2.3-6.7,6.3-9.1c0,0,8.5-2.2,10.1-13.3h-3.9c-3.9,0-1.1-0.4-1.1-4
	c0.1-3.5-1-10.2-7-6.7s-4.2-0.4-4.2-0.4s0.3-3.8-7.1-3.3c-7.4,0.4-8.6,10.9-8.6,10.9s-3.6,7.9-3.2,15.1c0.4,7.2-1.4,9.1,5.9,10.8"/>
<path class="st0" d="M181.3,230.9c0,0,7.4-21.2,2.5-34.2s-21.2-15.8-31.5-10.1c-10.2,5.8-11.7,19.7-6.3,28.4s5.6,5.5,9.2,14.2
	s20.9,20,24.7,26.9c0,0-0.1,7.2,1.6,10.7c1.8,3.5-6.7,9.1-7.5,11.3c-0.9,2.2-2.2,4.8,2,6.8s13.8-0.4,16-6.8
	c2.2-6.5,1.3-13.6,3.1-16.8c1.8-3.2,1.8-9.6-6.5-11.6C188.6,249.6,183.9,238.8,181.3,230.9c-0.5-1.5-1-2.9-1.3-4.1
	c-2-7.3-7.1-13.1-14.4-18.1c0,0,9.6,2.8,18.9,3.9"/>
<path class="st0" d="M147,191.3c0,0-17.1-11.9-20.5-17.5c0,0,8.1,12.9,6.1,24.7s-7.1,12.3-6.1,26.2c1,14-1.8,11.1-6.8,11.3
	c-5.1,0.2-9.9,1.9-15.5,3.6s-19.3-0.3-16.2-3.4s15.8-4.9,18.2-8s8.7-4.4,8.7-4.4s-0.7-19.5-2.7-29.5s-0.2-19.2-0.2-19.2
	s-2.2-12.8,0.9-16.7c3.1-4,20.8-4.5,28.6-2s12.3,9.8,12.7,17.3s-1.8,12.8-1.8,12.8"/>
<path class="st0" d="M185.9,131.5c0,0-6.8,16.9-12.8,21.4s-33.6,3.1-33.6,3.1"/>
<path class="st0" d="M305.5,161.1l20-39.4c0.6-1.3,2.2-1.8,3.5-1.2l0,0c1.3,0.6,1.8,2.2,1.2,3.5l-18.6,38.1"/>
<path class="st0" d="M303.1,177.7l-23.9,43.6c-0.7,1.3-2.4,1.8-3.7,1l0,0c-1.3-0.7-1.7-2.3-1-3.6l21.8-40.3"/>
<path class="st2" d="M142.4,117.6c0,0-10.2,11-43.4,11.2c-33.5,0.2-73.2,24.1-73.2,66.8s31.4,68.5,54.2,88.5"/>
<path class="st2" d="M145,154.8c-8,0.5-22.8,1-35.8,0C90.5,153.3,67.9,171,67.9,198s9.5,40.8,59.9,70.3"/>
<path class="st0" d="M125.5,125.7c0.6-2.3,1.7-4.3,3.4-5.9c6-5.3,16.7-2.9,24,5.3s8.4,19.2,2.5,24.5c-2.9,2.6-7,6-11.2,5.2"/>
<path class="st0" d="M213.1,97.6c0,0-10.9-4.4-5.1-12.2c5.8-7.8,1.8-15.5,13.5-16.2c0,0,6-7.3,14.6,0c0,0,14.2-3.6,15.3,7.7
	c0,0,14,6.9,6.9,19.5s-11.4,9.6-11.4,9.6s-0.8,5.7-6.2,5.3c0,0-5.3,4.5-9.5,0"/>
<path class="st1" d="M203.9,104.8c0,0-16.6,50.8,18.4,66.3"/>
<g>
	<polyline class="st3" points="305.5,177.7 240.6,150.8 189.2,118.4 160.1,107.8 154.2,116.6 144.2,117.6 	"/>
	<line class="st3" x1="188.6" y1="199.7" x2="240.6" y2="150.8"/>
	<polyline class="st3" points="77.1,239.7 81.9,173.9 86.2,154.7 119.1,162.9 173.1,162.9 189.2,118.4 165.6,125.2 154.2,116.6 	"/>
	<polyline class="st3" points="96.8,245.1 81.9,173.9 117.3,212.6 124.7,198.6 119.1,162.9 	"/>
	<g>
		<circle class="st4" cx="240.6" cy="150.8" r="3.2"/>
	</g>
	<g>
		<circle class="st4" cx="188.6" cy="199.7" r="1.8"/>
	</g>
	<g>
		<circle class="st4" cx="165.6" cy="125.2" r="1.8"/>
	</g>
	<g>
		<circle class="st4" cx="173.1" cy="162.9" r="1.8"/>
	</g>
	<g>
		<circle class="st4" cx="119.1" cy="162.9" r="1.8"/>
	</g>
	<g>
		<circle class="st4" cx="86.2" cy="154.7" r="1.8"/>
	</g>
	<g>
		<circle class="st4" cx="81.9" cy="173.9" r="1.8"/>
	</g>
	<g>
		<circle class="st4" cx="124.7" cy="198.6" r="1.8"/>
	</g>
	<g>
		<circle class="st4" cx="77.1" cy="239.7" r="1.8"/>
	</g>
	<g>
		<circle class="st4" cx="96.8" cy="245.1" r="1.8"/>
	</g>
	<g>
		<circle class="st4" cx="154.2" cy="116.6" r="1.8"/>
	</g>
	<g>
		<circle class="st4" cx="144.2" cy="117.6" r="1.8"/>
	</g>
	<g>
		<circle class="st4" cx="160.1" cy="107.8" r="1.8"/>
	</g>
	<g>
		<circle class="st4" cx="189.2" cy="118.4" r="2.4"/>
	</g>
	<g>
		<circle class="st4" cx="305.5" cy="177.7" r="2.4"/>
	</g>
	<g>
		<circle class="st4" cx="117.3" cy="212.6" r="2.4"/>
	</g>
</g>
</svg>
