<?xml version="1.0" encoding="utf-8"?>
<!-- Generator: Adobe Illustrator 28.1.0, SVG Export Plug-In . SVG Version: 6.00 Build 0)  -->
<svg version="1.1" id="Layer_1" xmlns="http://www.w3.org/2000/svg" xmlns:xlink="http://www.w3.org/1999/xlink" x="0px" y="0px"
	 viewBox="0 0 360 360" style="enable-background:new 0 0 360 360;" xml:space="preserve">
<style type="text/css">
	.st0{fill:none;stroke:#BFBFBF;stroke-width:3;stroke-miterlimit:10;}
	.st1{fill:none;stroke:#FFFFFF;stroke-width:0.5525;stroke-miterlimit:10;}
	.st2{fill:#FFFFFF;}
</style>
<g>
	<path class="st0" d="M53.1,93.6c0,0,7.6,2,13.1,0.3c5.5-1.7,15.3-0.2,17.8,8.8s10.8,46.3,18.8,55.7c11.6,13.6,17.8,15.3,28.6,16.1
		c10.8,0.8,7.8,6.8,7.3,7.1c-0.5,0.3-3,2.3-8.1-1.5c-5.2-3.8-9.3,1.2-9.6,4.7c-0.3,3.3,1.3,13,13.9,15.4c2.4,0.5,5,0.4,7.3-0.3
		c4.6-1.4,10.5-5.6,5.7-18.1c-7.3-19.1-27.4-20.3-34.3-38.1S95.3,99.6,89,93.1c-6.3-6.5-19.6-15.1-35.6-8.8c0,0-3.7,0.7-3.7,4.5
		S53.1,93.6,53.1,93.6z"/>
	<path class="st0" d="M179.9,38c0,0-2.4,7.4-6.6,11.2c-4.2,3.8-8.1,12.8-2.4,19.2s29.3,31.9,33.7,42.8c5.8,14.5,2.7,22.4-2.3,31.8
		c-5,9.5,1.2,9.9,1.8,9.6c0.5-0.3,3.4-1.4,3.1-7.6c-0.3-6.2,5.8-7.3,8.7-5.8c1.9,0.9,5.7,4.1,6.3,9.9c0.9,8.7-6.3,16.3-15,15.2
		c-2.6-0.3-5.2-1.5-7.8-3.9c-14.3-13.9-1.5-32.9-11.9-47.2s-25-36.8-26.8-45.3s-1.6-23.8,11.7-34.2c0,0,2.4-2.7,5.4-0.9
		C180.8,34.7,179.9,38,179.9,38z"/>
	<path class="st0" d="M196.9,158.1c0,0-34.8,1.7-47.7,26.9"/>
	<path class="st0" d="M162.6,169.1c0,0-17.5-6.3-24.4-39.6c-7-33.3-16-39.1-19-44.1c-0.5-0.8-2.8-5.7-1.7-7.1c1.6-2,4.2-3.1,6.7-2.7
		c1.6,0.2,3.1,0.9,3.7,2.7c1.2,4,1.7,14.3,10.3,26.8c8.6,12.5,37.7,40.1,34.3,58.4"/>
	<path class="st0" d="M217.2,162c0,0,21.3,11.5,23.9,25.4"/>
	<path class="st0" d="M139.5,200.9c0,0-3.7,9.8,0.2,20.1c3.8,10.3,0.7,17.8,0.7,17.8"/>
	<path class="st0" d="M168.5,251.1c0,0-24.4,11.8-31.6-0.3s40.1-42.2,56.7-49.4c0,0,32.7-16.2,55.6-14.1c8.5,0.8,12.9,10.6,7.9,17.4
		c-1.9,2.6-4.7,5.4-8.8,8.6"/>
	<path class="st0" d="M232.8,296.5c0,0-10.5-19.6,0.7-32.3c11.1-12.6,37.9-51,1.2-57.5c0,0,9.5-2.7,5.5-4.7c-4-2-23.8,2.7-46.2,14.5
		s-41.2,24.1-40.9,31.1c0.3,7,11.6-2.8,11.6-2.8s10.3,6.3,3,20.1c-7.3,13.8,10.6,23.9,10.6,23.9s-6.7-18.6,6.5-31.1
		c13.1-12.5,5.7-31.8,5.7-31.8s14.5,2.2,11,18.8c-3.5,16.6-16.5,14-14.6,38.7c1.8,24.8,5.5,27.6,5.3,28.1s-2-33.4,7.8-44.9
		c9.8-11.5,26.4-39.2,15.1-49c0,0,21.9,6.5,4.8,37.4c0,0,20.6-20.5,8.5-38.7c0,0,25.3,8.1,6.2,37.7S232.8,296.5,232.8,296.5z"/>
</g>
<polyline class="st1" points="58.6,82.5 143.6,71.3 220.9,123.8 219.5,167.4 232.9,217 151.7,238.2 162,170.7 "/>
<g>
	<line class="st1" x1="161.5" y1="157.3" x2="143.6" y2="71.3"/>
	<g>
		<g>
			<circle class="st2" cx="143.6" cy="70.2" r="3.3"/>
		</g>
		<g>
			<circle class="st2" cx="162" cy="170.7" r="3.3"/>
		</g>
		<g>
			<circle class="st2" cx="161.5" cy="157.3" r="3.3"/>
		</g>
		<g>
			<circle class="st2" cx="151.7" cy="238.2" r="3.3"/>
		</g>
		<g>
			<circle class="st2" cx="58.6" cy="82.5" r="2.2"/>
		</g>
		<g>
			<circle class="st2" cx="220.9" cy="123.8" r="2.2"/>
		</g>
		<g>
			<circle class="st2" cx="219.5" cy="167.4" r="2.2"/>
		</g>
		<g>
			<circle class="st2" cx="232.9" cy="217" r="2.2"/>
		</g>
	</g>
</g>
</svg>
