<?xml version="1.0" encoding="utf-8"?>
<!-- Generator: Adobe Illustrator 28.1.0, SVG Export Plug-In . SVG Version: 6.00 Build 0)  -->
<svg version="1.1" id="Layer_1" xmlns="http://www.w3.org/2000/svg" xmlns:xlink="http://www.w3.org/1999/xlink" x="0px" y="0px"
	 viewBox="0 0 360 360" style="enable-background:new 0 0 360 360;" xml:space="preserve">
<style type="text/css">
	.st0{fill:none;stroke:#BFBFBF;stroke-width:3;stroke-miterlimit:10;}
	.st1{fill:none;stroke:#FFFFFF;stroke-width:0.5525;stroke-miterlimit:10;}
	.st2{fill:#FFFFFF;}
</style>
<g>
	<path class="st0" d="M194.6,118.9c0,0-10.9-19.9-25.1-29.7c0,0-5.8-25.7-22.8-28.4c0,0-16.4-15.1-36.4-3.1c0,0-28.6-4.7-32.6,22.6
		c0,0-15.7,11.3-7.5,18.6s14.4-2.9,14.4-2.9s-7.3,19.7-0.7,32.6c0,0-4.2,10.4-4,12.4c0,0-10.9,9.8-8.6,20.6
		c2.2,10.9,23.9,11.1,30.4,31c0,0-4.2,10.4-0.4,18c0,0-5.8,19.7,0.7,24.4c0,0,10.9,4.2,10.4-23.7l4.4-4.9c0,0,5.3,9.8,5.5,0.4
		c0.2-9.3,0.2-9.3,0.2-9.3s9.8-7.5-2-16.2c-11.7-8.6-14.6-26.2-14.6-26.2s10.6,2.4,18.8-0.7c0,0,5.1,67.4,45.7,67.8
		c0,0-1.6,14.6,2.2,25.7c0,0-8.4-4-11.5-3.5c0,0-11.3-10-18.2-7.5s5.1,23.5,15.5,17.1c0,0,8.9,4.9,14.9,4.9c0,0-1.8,5.1-1.8,12
		c0,0-1.3,7.1-5.1,13.1c-3.8,6-5.8,17.1-5.3,18.8c0,0-12.4,17.1-6.7,27c5.8,10,15.1-10,14.2-23.5c0,0,7.5-5.3,8.6-16
		c1.1-10.6,2.7-14.9,7.3-19.1c4.7-4.2,1.8-10.9,1.8-10.9s27.5,10.9,30.4,0.9c2.9-10-1.3-19.5-0.7-26.6s2.4-13.3,2.4-13.3
		s21.5-8.4,24.6-32.4c0,0,18.8-13.3,21.7-20.6c0,0,13.5,20.2,36.8,10.6c0,0-13.9,0.3-23.9-17.4c0,0,26.1,11.4,30.8-12.6
		s-17.3-22.4-17.3-22.4s-6.9-14.2-19.1-15.3c0,0-6.4-17.5-20.6-16.6c0,0,0-12.9-15.1-18c-15.1-5.1-21.7,12.4-21.7,12.4
		s-2.2-6.4-1.1-12.4c0,0-15.3,14.2,0.9,32.6c0,0-6.9,0.4-12,6.4L194.6,118.9z"/>
	<line class="st0" x1="242.4" y1="104.6" x2="214.5" y2="109.7"/>
	<path class="st0" d="M194.6,118.9c0,0-10,27.1,23.7,24.8c0,0,8.6,11.5,20,10.9c0,0,11.7,12,24.6,8"/>
	<path class="st0" d="M291.2,126.9c0,0-19.3,0.2-26.2,17.7c-6.9,17.5-0.2,23.9-0.2,23.9"/>
	<path class="st0" d="M224.5,99c0,0,3-7.3,9.1-3.5c0.8,0.5,1.4,1.5,1.2,2.4C234.5,99.4,232.7,101.1,224.5,99z"/>
	<path class="st0" d="M282.4,147.3c0,0,11.4-9.8,14-1.1C298.8,154.4,282.4,147.3,282.4,147.3z"/>
	<path class="st0" d="M193,229.4c0,0-2.9,18.4-5.5,22.2c0,0,8.6-2.2,15.3,2.2c0,0,1.1-9.1-2.9-12.4S193,229.4,193,229.4z"/>
</g>
<polyline class="st1" points="142.8,85.6 242.9,123.5 274,149 277.7,163.9 "/>
<g>
	<circle class="st2" cx="242.9" cy="123.5" r="3.4"/>
</g>
<g>
	<circle class="st2" cx="142.8" cy="85.6" r="2.4"/>
</g>
<g>
	<circle class="st2" cx="274" cy="149" r="2.4"/>
</g>
<g>
	<circle class="st2" cx="277.7" cy="163.9" r="2.4"/>
</g>
</svg>
