<?xml version="1.0" encoding="utf-8"?>
<!-- Generator: Adobe Illustrator 28.1.0, SVG Export Plug-In . SVG Version: 6.00 Build 0)  -->
<svg version="1.1" id="Layer_1" xmlns="http://www.w3.org/2000/svg" xmlns:xlink="http://www.w3.org/1999/xlink" x="0px" y="0px"
	 viewBox="0 0 360 360" style="enable-background:new 0 0 360 360;" xml:space="preserve">
<style type="text/css">
	.st0{fill:none;stroke:#BFBFBF;stroke-width:3;stroke-miterlimit:10;}
	.st1{fill:none;stroke:#BFBFBF;stroke-width:3;stroke-linecap:round;stroke-miterlimit:10;}
	.st2{fill:none;stroke:#BFBFBF;stroke-width:3;stroke-linecap:round;stroke-linejoin:round;stroke-miterlimit:10;}
	.st3{fill:none;stroke:#BFBFBF;stroke-width:3;stroke-linejoin:round;stroke-miterlimit:10;}
	.st4{fill:none;stroke:#FFFFFF;stroke-width:0.6019;stroke-miterlimit:10;}
	.st5{fill:#FFFFFF;}
</style>
<path class="st0" d="M162.7,86.1c0,0,1.8-2.9-1.3-9.9c-3.1-7-11.7-19.6-19.6-14.1s-5.3,10.3-13.4,17.2c-8.1,7-4,24.7,2.7,28.4
	c6.8,3.7,9.3,0.2,10.6-5.5s5.9-14.1,10.4-16.7S162.7,86.1,162.7,86.1z"/>
<polyline class="st0" points="142.9,115 144.7,122.7 134.1,128.1 "/>
<path class="st0" d="M135.7,109.2c0,0,0,5.7,4,7c4,1.3,9.8-1.7,10.4-2.5"/>
<path class="st0" d="M141.8,102.2c0,0,0.2,6.8,3.7,8.6s9.3,6.4,15,6.6c5.7,0.2,9.5-3.1,9.3-5.7c-0.2-2.6-2.4-5.5-2.4-5.5
	s0.5-3.7-1.2-6"/>
<path class="st1" d="M163.6,101.3c0,0,6.3-1.5,3.8-4.3c-2.5-2.8-5.9-5.7-4.8-10.9"/>
<path class="st0" d="M161.9,108.9"/>
<path class="st0" d="M124.9,134.9c-2.8-4.2-1.8-9.3,0.6-10.3c2.5-0.9,6.8,1.9,12,5.1c5.2,3.2,25.5,7.6,25.5,7.6"/>
<path class="st2" d="M141,152.5l13.4,33.7c0,0,0,18.8-7.1,28.1c-7.1,9.3-3.9,10.8-3.4,16.4s-1.2,9.9-3.7,10.1c-2.4,0.2-2-8.8-2-8.8
	c0,3-0.8,15.6-0.8,19c0,1.2-1.5,1.7-2.3,0.8c-1.7-2-3.8-8.8-3.2-16.2c1-12.5,6.8-45.2,7.3-47.2c0,0-15.4-26.9-17.4-34.2
	c-2-7.3-3.4-13,0.7-17.6c4.2-4.6,8.3,1.5,11,4.9c2.7,3.4,18.8,18.6,38.4,22.7l-6.4,3.7l23.7,7.3"/>
<path class="st1" d="M154.4,210.9c0,0-7.6,11.2-7.1,19.6c0,0-1.7,8.3,4.6,15.6c6.4,7.3,18.5,19.2,18.5,19.2"/>
<path class="st0" d="M187.2,258.1c0,0-3.4-12.7-17.6-18.6l12.7,0.2"/>
<path class="st0" d="M147.6,227.1c0,0,21.8-5.6,30.8,8.1c9,13.7,10.5,14.4,15.6,16.4c5.1,2,6.4-3.2,11.7-3.4c5.4-0.2,9-4.9,12-11.5
	c2.9-6.6,11-6.8,11.7-22.2s4.2-32.5,6.6-37.6s8.1-7.3,8.1-7.3s-10.5-2.7-18.8,2"/>
<line class="st1" x1="242.7" y1="190.4" x2="231.7" y2="197.7"/>
<path class="st0" d="M252.7,210.9c0,0,4.6-18.3,5.9-22.5c1.2-4.2,3.2-17.8-14.4-19.1"/>
<path class="st0" d="M228.3,220c0,0,5.9,9.3,12.7,8.3c6.8-1,11.2-1.2,12.5-3.7c1.2-2.4,7.1-9.5,2.2-12c-4.9-2.4-5.1,1.7-10.8,2
	s-14.7-2.4-14.9-6.4"/>
<path class="st0" d="M183,274.5c0,0-2.4,3.9-7.1,2.4s-7.3-3.9-7.3-6.6s2-4.6,5.1-6.4s8.3-4.6,9.5-5.4c1.2-0.7,6.4-2.4,8.3-0.2
	s4.4,2.7,4.4,5.1c0,2.4,4.2,4.2,0.5,5.9C192.8,271.1,185.7,275.5,183,274.5z"/>
<path class="st0" d="M234.1,226.6c0,0-0.2,13.2-1.5,17.6c-1.2,4.4-3.4,6.8,1,8.1c4.4,1.2,15.4,3.7,19.1,6.6c3.7,2.9,17.6,6.1,16.9,1
	c-0.7-5.1-16.2-10.3-19-14.8c-2.8-4.5-5-7.5-1.3-18.4"/>
<path class="st0" d="M196.5,269.3c0,0,4.4,8.6,6.6,10.5c2.2,2,5.6,5.6,4.2,9.3c-1.5,3.7-5.1,10-6.6,16.1c-1.5,6.1-7.6,11.7-9.5,7.6
	c-2-4.2-2.2-15.4-1.7-21.3s0.5-5.9,0.5-5.9l-9.5-9.5"/>
<path class="st0" d="M164,117.8c0,0,2.2,4.9,8.1,2l5.3,9.5l-5.9-2.4c0,0-3.1,0.2-4.2,2.9c-1.1,2.7-5.5,9.3-7.3,11.2
	c-1.8,1.8-2.9,4.8-2.9,5.9s3.1,2.7,4,1.8c0.9-0.9,1.8-4.8,2.2-5.3c0.4-0.5,4.4,0.2,4.4-3.5c0-3.7,3.8-6.4,3.8-6.4l11.2,6.2
	c0,0,4.8,12.5,12.6,15.8c0,0-6.6,3.7-3.5,9.5s2,9.3,2,9.3s-9.3,0-12.5,7.7c0,0,0.2,3.8,1.8,2.9c1.6-0.9,1.3-2,3.5-3.7
	s3.5-0.9,6.6-1.8c3.1-0.9,4.9-2.6,4.9-5.9s-0.5-7.7-0.5-7.7l5.5-3.7c0,0,2.2,8.8,4.8,13.6c2.6,4.8,3.7,4.6,0.2,8.1
	s-9,12.5-13.2,12.8c-4.2,0.4-12.1,3.1-9.7,4c2.4,0.9,0.4,1.8,5.3,2.9c4.9,1.1,5.5,2.6,9.7,0.9c4.2-1.6,10.6-12.1,13.2-14.8
	c2.6-2.7,11.9-14.5,13.9-23.6c2-9.2-15-33-29.3-41.6c0,0-0.4,7.5,5.3,15.4s14.1,14.7,14.5,19.8l5.9,2.2c0,0-3.8,4.2-9,2.9l-4.6,15"
	/>
<path class="st3" d="M168.4,114.9c0,0,6.6-1.3,7.9,2.4c1.3,3.7,5.3,6.6,5.3,6.6l3.8-3.8l2.4-3.3l-4.9-0.2c0,0,3.8-7.1,6.8-8.2
	l-0.9-7.3c0,0,2.7,1.1,6.8,5.7l0.4-4.8c0,0-0.4-5.1-7.5-6.8s-5.3-9.5-5.3-9.5s4.2,6,13.2,8.6l0.2-10.8c0,0,2.2,7.9,5.3,11
	c3.1,3.1,3.3,9.2,4.6,11.4c1.3,2.2,1.3,6.4,0,7s2.6,5.5-0.4,7.1c-2.9,1.6-3.1,7.1-4.4,3.8c-1.3-3.3-1.8-7.5-1.8-7.5
	s-5.1,1.8-6.6-0.5"/>
<polyline class="st0" points="206.3,105.7 209.8,98.2 204.1,99.7 "/>
<g>
	<polygon class="st4" points="139,69.1 136.3,150.2 134.5,217.4 197.6,290.3 248,245 222.3,179.1 201.1,138.3 	"/>
	<polyline class="st4" points="136.3,150.2 201.1,138.3 225.9,154.6 228.7,177.4 	"/>
</g>
<g>
	<g>
		<circle class="st5" cx="197.6" cy="290.3" r="3.6"/>
	</g>
	<g>
		<circle class="st5" cx="201.1" cy="138.3" r="4.3"/>
	</g>
	<g>
		<circle class="st5" cx="136.3" cy="150.2" r="2.6"/>
	</g>
	<g>
		<circle class="st5" cx="134.5" cy="217.4" r="2.6"/>
	</g>
	<g>
		<circle class="st5" cx="248" cy="245" r="2.6"/>
	</g>
	<g>
		<circle class="st5" cx="139" cy="69.1" r="1.7"/>
	</g>
	<g>
		<circle class="st5" cx="228.7" cy="177.4" r="1.7"/>
	</g>
	<g>
		<circle class="st5" cx="225.9" cy="154.6" r="1.7"/>
	</g>
	<g>
		<circle class="st5" cx="222.3" cy="179.1" r="1.7"/>
	</g>
</g>
</svg>
