<?xml version="1.0" encoding="utf-8"?>
<!-- Generator: Adobe Illustrator 28.1.0, SVG Export Plug-In . SVG Version: 6.00 Build 0)  -->
<svg version="1.1" id="Layer_1" xmlns="http://www.w3.org/2000/svg" xmlns:xlink="http://www.w3.org/1999/xlink" x="0px" y="0px"
	 viewBox="0 0 360 360" style="enable-background:new 0 0 360 360;" xml:space="preserve">
<style type="text/css">
	.st0{fill:none;stroke:#BFBFBF;stroke-width:3;stroke-linecap:round;stroke-miterlimit:10;}
	.st1{fill:none;stroke:#BFBFBF;stroke-width:3;stroke-linecap:round;stroke-linejoin:round;stroke-miterlimit:10;}
	.st2{fill:#FFFFFF;}
	.st3{fill:none;stroke:#FFFFFF;stroke-width:0.5016;stroke-miterlimit:10;}
</style>
<path class="st0" d="M166.6,118.1c0,0-6.7,5.5-4.2,9.8c2.4,4.2,4,7.5,2.9,9.3c-1.1,1.8-3.1-1.6-3.1-1.6s1.6,4.4,0.2,10.4
	c-1.3,6-3.5,3.1-2.9,8.4c0.7,5.3,0.4,9.3,0.4,9.3l-5.1-4.9c0,0-2.2-0.4-1.3,6s-2.7,8.6-2.7,8.6s-0.9-5.3-5.5-6.2s-10.4,3.5-12.9,0.9
	c-2.4-2.7-3.1-1.1-3.3-6.2c-0.2-5.1,0.4-5.3-1.6-7.5c-2-2.2-3.1-4-2.7-9.1c0.4-5.1-0.4-4.4,0.7-6.2c1.1-1.8,3.1-3.3,3.1-3.3
	s-0.4-6.9,10-8.4c0,0,3.3,0.2,4.2-2.9c0.9-3.1,2.2-3.5,0-6.9c-2.2-3.3-7.3-7.3-7.3-7.3s9.5-0.4,14,1.1
	C154,113,166.6,118.1,166.6,118.1z"/>
<path class="st0" d="M124.1,146.9c0,0-9.1-2.2-13.5-8.6c-4.4-6.4-7.8-18.2-9.8-20.6c-2-2.4,0-13.5,12.9-13.1
	c12.9,0.4,19.5,3.8,30.6-0.7c11.1-4.4,22.2-10,19.5,12.4"/>
<path class="st0" d="M166.6,118.1l15.5-8.6c0,0,0.9-8.4,17.7-12.4c0,0-5.1-14.2-4-23.5c1.1-9.3-9.3-19.7-11.1-21.7
	c-1.8-2-4.7-10.6-1.8-13.5s5.1-0.4,5.1-0.4s6-2.9,8.4-0.9c2.4,2,6.9,1.3,7.1,6s-0.9,5.3,1.6,12.4c2.4,7.1,9.8,25.1,11.3,30.2
	c1.6,5.1,6.9,13.7-0.4,20.2c-7.3,6.4-10.4,18.6-23.3,23.3c0,0,2.9,17.1,4.4,22.6c1.6,5.5,6.4,16.6,10.4,20.2s16.8,12,22.6,19.1
	c5.8,7.1,11.1,21.7,13.7,25.1s13.3,14,13.1,17.1c-0.2,3.1-1.8,4.7-8,3.8c-6.2-0.9-15.5-1.8-17.3,4.4c-1.8,6.2-11.3,20.6-28.4,14.9
	c-17.1-5.8-15.7-10-22.8-16.8c-7.1-6.9-8.2-13.3-20.6-12.9c0,0,9.1-8.4,10-10.6c0.9-2.2,1.6-7.3-4-12.4c-5.5-5.1-13.1-14.2-18-20
	c-4.9-5.8-7.3-16-7.3-16"/>
<path class="st0" d="M135.8,168.8c0,0-0.4,6.4,2,12.4c2.4,6,4.7,17.5,9.1,22.2c0,0-10.4,15.5-14,17.7c-3.5,2.2-4.7,3.1-10.4,3.8
	c-5.8,0.7-9.8,0-9.8,4c0,0-3.3,2.7-2.7,5.3c0.7,2.7-0.7,5.1,2.2,5.5c2.9,0.4-0.9,5.1,1.3,5.1c2.2,0,0.4,4,4.9,3.8
	c4.4-0.2,6-2,10.6-7.8c4.7-5.8,6.2-8.4,11.3-11.7c5.1-3.3,18.2-12.6,19.5-19.1c1.3-6.4,1.8-10.4,1.8-10.4"/>
<path class="st0" d="M160,226.3c0,0-7.5,11.5-11.5,14.2s-13.5,13.5-8.4,21.1c5.1,7.5,16.4,16.6,24.4,23.9c8,7.3,15.1,13.1,15.7,18
	l-5.3,14.2c0,0-8.6,3.8-6,8.6c2.7,4.9,9.3-4.7,14.4-8.6c5.1-4,9.8-6,13.3-7.8s5.1-7.8-1.6-12.2c-6.7-4.4-9.1-12.4-11.1-15.7
	c-2-3.3-7.8-18-19.1-22.8l20-14"/>
<path class="st0" d="M228.7,247.5c0,0,4.9,16.2,12.4,20.4c0,0,9.8,6,21.5,11.5c11.7,5.5,15.5,6.2,21.5,12.2c6,6,7.1,8.4,7.8,13.7
	c0.7,5.3,0.7,6.7,6.9,6.9c6.2,0.2,12.4-5.3,9.8-12.2c-2.7-6.9-8.4-12-12.9-15.7s-11.7-17.3-19.1-21.5c-7.3-4.2-16.4-4.9-16.4-4.9
	l-8.4-21.3"/>
<path class="st0" d="M153.5,170.4c0,0,35.5,31.9,66.5,12"/>
<path class="st0" d="M144.2,103.9c0,0,0.4-7.1-7.8-7.8c-8.2-0.7-14-6-19.5,8.2"/>
<path class="st0" d="M120.5,138.3L120.5,138.3c-1.6-5.5-7.2-8.7-12.8-7.4l-0.5,0.1c-5.8,1.4-9.4,7.1-8,12.9l18.9,82.2"/>
<line class="st0" x1="122.1" y1="248" x2="140.5" y2="333.1"/>
<polyline class="st1" points="181.9,42 173.1,41.8 173.1,47.8 182.6,47.6 "/>
<path class="st1" d="M173.1,47.8l-0.3,2.4c-0.9,7.5-7.3,13.2-14.9,13h0c-6.1-0.2-11.4-4.1-13.4-9.8l-1.8-5.1c0,0-2,17.7,15.5,20
	s21.3-21.1,21.3-21.1"/>
<path class="st1" d="M135.6,110.3c0,0-20.5-2.5-21,12"/>
<g>
	<circle class="st2" cx="690" cy="83.1" r="1.9"/>
</g>
<g>
	<polygon class="st3" points="202.2,88.9 192,54.3 203.4,53.8 	"/>
	<polygon class="st3" points="211.3,250 186.9,184 186.3,135.8 151.6,122.5 131.6,163.4 170,204 	"/>
	<polyline class="st3" points="174.5,283.7 211.3,250 242.1,252.8 254.4,257.2 	"/>
	<line class="st3" x1="202.2" y1="88.9" x2="186.3" y2="135.8"/>
	<g>
		<circle class="st2" cx="211.3" cy="250" r="3.6"/>
	</g>
	<g>
		<circle class="st2" cx="170" cy="204" r="2.2"/>
	</g>
	<g>
		<circle class="st2" cx="242.1" cy="252.8" r="2.2"/>
	</g>
	<g>
		<circle class="st2" cx="186.3" cy="135.8" r="2.2"/>
	</g>
	<g>
		<circle class="st2" cx="151.6" cy="122.5" r="1.4"/>
	</g>
	<g>
		<circle class="st2" cx="192" cy="54.3" r="1.4"/>
	</g>
	<g>
		<circle class="st2" cx="131.6" cy="163.4" r="1.4"/>
	</g>
	<g>
		<circle class="st2" cx="174.5" cy="283.7" r="1.4"/>
	</g>
	<g>
		<circle class="st2" cx="254.4" cy="257.2" r="1.4"/>
	</g>
	<g>
		<circle class="st2" cx="186.9" cy="184" r="1.4"/>
	</g>
	<g>
		<circle class="st2" cx="202.2" cy="88.9" r="1.4"/>
	</g>
	<g>
		<circle class="st2" cx="203.4" cy="53.8" r="1.4"/>
	</g>
</g>
</svg>
