<?xml version="1.0" encoding="utf-8"?>
<!-- Generator: Adobe Illustrator 28.1.0, SVG Export Plug-In . SVG Version: 6.00 Build 0)  -->
<svg version="1.1" id="Layer_1" xmlns="http://www.w3.org/2000/svg" xmlns:xlink="http://www.w3.org/1999/xlink" x="0px" y="0px"
	 viewBox="0 0 360 360" style="enable-background:new 0 0 360 360;" xml:space="preserve">
<style type="text/css">
	.st0{fill:#FFFFFF;}
	.st1{fill:none;stroke:#BFBFBF;stroke-width:3;stroke-linecap:round;stroke-miterlimit:10;}
	.st2{fill:none;stroke:#FFFFFF;stroke-width:0.993;stroke-miterlimit:10;}
</style>
<g>
	<circle class="st0" cx="690" cy="83.1" r="1.9"/>
</g>
<path class="st1" d="M148,112.4L148,112.4c-3.6-18.2,8.8-35.7,27.2-38.4l4.3-0.6c18.3-2.6,35.1,10.7,36.8,29.1l0.4,4.7
	c0,0-16.7,2.2-16.6,36.6c0,3.3-1.7,6.4-4.6,8l-2.7,1.5l-2.8,44.8l40.1,63l2.8,8.8l-2.8,2.8l-8-5.7L180,198.6l-1.6-45.2l-3.6-2.6
	c-2.4-1.7-3.7-4.5-3.7-7.4v-9.6C171.1,133.8,171.1,111.6,148,112.4z"/>
<path class="st1" d="M148,112.4c0,0,31.3-31.6,68.7-5.2"/>
<polyline class="st1" points="192.8,153.3 193.3,146.1 177.8,146 178.4,153.3 "/>
<g>
	<polyline class="st2" points="101.4,74.8 192.8,108.2 196.5,204.6 230.1,269.9 	"/>
	<g>
		<circle class="st0" cx="230.1" cy="269.9" r="2.8"/>
	</g>
	<g>
		<circle class="st0" cx="196.5" cy="204.6" r="2.8"/>
	</g>
	<g>
		<circle class="st0" cx="192.8" cy="108.2" r="2.8"/>
	</g>
	<g>
		<circle class="st0" cx="101.4" cy="74.8" r="2.8"/>
	</g>
</g>
</svg>
