<?xml version="1.0" encoding="utf-8"?>
<!-- Generator: Adobe Illustrator 28.1.0, SVG Export Plug-In . SVG Version: 6.00 Build 0)  -->
<svg version="1.1" id="Layer_1" xmlns="http://www.w3.org/2000/svg" xmlns:xlink="http://www.w3.org/1999/xlink" x="0px" y="0px"
	 viewBox="0 0 360 360" style="enable-background:new 0 0 360 360;" xml:space="preserve">
<style type="text/css">
	.st0{fill:none;stroke:#BFBFBF;stroke-width:3;stroke-linecap:round;stroke-miterlimit:10;}
	.st1{fill:none;stroke:#FFFFFF;stroke-width:0.993;stroke-miterlimit:10;}
	.st2{fill:#FFFFFF;}
</style>
<path class="st0" d="M280.5,216.5l-9.2-8.9l4.1,1.1c0.3,0.1,0.6-0.3,0.4-0.5c-5.1-7.9-17.6-7.9-17.6-7.9s-6.1-4.8-14.5-11.4
	c-8.4-6.7-10-15.5-17.3-28.6s-19.6-15.5-24.7-16.3c-5.1-0.8-26.2-2.3-30.5-7.4c-4.3-5.1-13.5-9.6-22.6-12.2
	c-9.1-2.5-11.2-6.3-19.6-14.7S105,77.1,105,77.1s3.8-0.7,5.9-2c2.1-1.3-4.5-3.1-8.4-4.4c-3.9-1.3-8-4.4-8-4.4s2.7-4.4,6.7-4.5
	c4-0.1-1-2.7-3.4-4.1c-2.4-1.4-2.9,0.6-6.5,2.4s-8,3.2-13.7,3.2s-3.5,7.3-3.5,7.3s-10.2,4.2-14.2,9.8c-4,5.5-1.3,2.9,2.7,4.7
	c4,1.8,11.1,0,11.1,0c6.9,2,16.4,1.1,16.4,1.1s10.1,14.9,13.3,23.6c3.2,8.8,8.3,20.1,12.1,31.4s14,19.4,15.1,22.1s-2.5,10.1-1.8,16
	c0.8,5.9,13.1,12.3,13.1,12.3s2.7,28,3.4,34.3s4.1,7.8,4.1,7.8s10.8,7.8,17.4,13.1s9.8,7.6,11.7,10.4s3.8,7.8,5.5,9.9
	c1.8,2.1,1.6,7.8,2.3,8.8c0.8,1,6.1-6.9,6.1-6.9s0.2,6.4-0.1,8.8c-0.3,2.3,2.3,0.6,4.1-0.6s5.2-2.8,5.4-4.7s-2.8-6.5-2.7-8.1
	c0.1-1.6,1-4-0.2-6.7s-4.8-4.2-5.8-5.4s-12.1-27.6-12.1-30.6c0-3-0.9-6.9-3.5-9.9c-2.3-2.6-3.5-12.7-3.8-15.3c0-0.3,0.2-0.6,0.6-0.7
	l9.5-0.4c0.2,0,0.4,0.1,0.5,0.2c1.7,2,14.4,17.4,19.7,25.2c5.7,8.3,7.6,35.6,6.8,40.7c-0.9,5.1,1,11.5,1.4,14.9
	c0.4,3.3-2.8,8.2-2,10.4c0.6,1.8,8.9-4.1,12.2-6.5c0.7-0.5,0.9-1.6,0.4-2.3c-1.3-1.9-3.4-5.2-2.5-6.8c1.3-2.2,0.7-6.1-1-7.3
	c-1.7-1.2-2.1-7.8-2.5-12.6c-0.4-4.9-1.7-19.5,0-22.8c1.7-3.3-2.7-9.1-4.7-11.7s-3.8-13.5-3.8-13.5l4.4-10.1
	c0.1-0.3,0.6-0.5,0.9-0.2c2.3,1.7,10.8,8.3,18.9,14.7c9.5,7.5,15,21,20.2,35.2c5.2,14.3,3.3,18.7,1.9,21.9c-0.6,1.4-0.8,2.7-0.7,3.7
	c0.1,1,1.2,1.7,2.2,1.2l9.2-4.6c0.6-0.3,0.8-1,0.5-1.6c-1-1.8-2.8-5.6-2.5-8.8c0.3-4.3-1.6-7.5-6.4-15.6c-4.9-8.1-5.8-24.5-6.8-28.6
	c-1-4.1-6-5.2-9.3-9.1c-3.3-3.9-4.1-12.2-4.1-12.2c7.2,7.3,20.6,15.4,20.6,15.4c6.5,8.1,20.2,11.8,23.4,12.6
	C280.5,216.9,280.6,216.7,280.5,216.5z M183.9,246.4c1.8,4,2.4,7.9,2.6,9.3c0,0.1-0.1,0.1-0.1,0c-1.3-3-3.7-6.1-8.5-7.6
	c-5-1.7-13.2-11.7-17.2-14.7c-4-3-5-5.4-5-6.4c0-0.9,1.2-27.7,1.3-30.4c0-0.1,0.1-0.1,0.1,0c1.1,2.1,11,21.5,13.5,25.2
	C173.4,225.5,181.7,241.5,183.9,246.4z"/>
<g>
	<polyline class="st1" points="137.1,139.5 151.5,197.9 212.1,211.4 234.1,160.4 258.2,195.5 295.7,219.2 	"/>
	<polyline class="st1" points="236.5,299.5 217.4,254.5 212.1,211.4 	"/>
	<g>
		<circle class="st2" cx="137.1" cy="139.5" r="1.7"/>
	</g>
	<g>
		<circle class="st2" cx="151.5" cy="197.9" r="1.7"/>
	</g>
	<g>
		<circle class="st2" cx="212.1" cy="211.4" r="1.7"/>
	</g>
	<g>
		<circle class="st2" cx="258.2" cy="195.5" r="1.7"/>
	</g>
	<g>
		<circle class="st2" cx="236.5" cy="299.5" r="1.7"/>
	</g>
	<g>
		<circle class="st2" cx="217.4" cy="254.5" r="1.7"/>
	</g>
	<g>
		<circle class="st2" cx="234.1" cy="160.4" r="1.7"/>
	</g>
	<g>
		<circle class="st2" cx="295.7" cy="219.2" r="1.7"/>
	</g>
</g>
</svg>
