<?xml version="1.0" encoding="utf-8"?>
<!-- Generator: Adobe Illustrator 28.1.0, SVG Export Plug-In . SVG Version: 6.00 Build 0)  -->
<svg version="1.1" id="Layer_1" xmlns="http://www.w3.org/2000/svg" xmlns:xlink="http://www.w3.org/1999/xlink" x="0px" y="0px"
	 viewBox="0 0 360 360" style="enable-background:new 0 0 360 360;" xml:space="preserve">
<style type="text/css">
	.st0{fill:none;stroke:#BFBFBF;stroke-width:3;stroke-linecap:round;stroke-miterlimit:10;}
	.st1{fill:none;stroke:#FFFFFF;stroke-width:0.993;stroke-miterlimit:10;}
	.st2{fill:#FFFFFF;}
</style>
<path class="st0" d="M159.3,224.7c0,0,26.9,8.9,42.8-3.6c0,0,5.2,6.5,5.3,7.4c0.1,0.9,0.2,3.8-4.3,4.5c-4.5,0.8-3.8,3.5-5.3,6.5
	c-1.6,3-4.1,6-5.9,8c-1.8,2-5.5,1.4-5.9,3c-0.3,1.6,4.7,12.6,4.7,12.6s5.3-3.5,6-7c0.7-3.4,0.4-6,2.9-6.4c2.4-0.4,2.4-3.7,6.6-6.8
	c4.2-3.1,12-8.6,11.2-12.2c-0.8-3.5,3-18.6,4.8-21.2"/>
<path class="st0" d="M217.6,191.8c0,0,0,13.9,8,19.3s13.7,10.7,13.7,10.7s-2.3,4.8-7.8,6.8c-5.4,2-5.5,6.4-8,9.1
	c-2.4,2.7-7.5,4.6-7.5,4.6l5.4,11.7l4.5-7.4c0,0,1.9-5.1,4.1-5.1c2.2,0,6.3-5.8,9.2-8c2.9-2.2,12.1-8.1,10.1-11.7
	c-2-3.6-11.1-18.2-16.5-21.9"/>
<path class="st0" d="M242.6,151.1c0,0-3.8,2.6-1.4,6.7c2.3,4.1,2.5,7.7,2.5,7.7s-1.5,6.9-4.7,7.8c-3.2,0.9-6.1,3.5-6.9,6.6
	c-0.8,3.1-1.8,15.1,4.1,19c0,0,0.5-6.3,3.2-7.2c2.4-0.8,1.7-5.6,1.5-6.7c0-0.1,0.1-0.1,0.1-0.1c0.8,0.9,4.7,5.1,7.3,5.2
	c2.9,0.1,6.9-5.9,6.9-5.9s2.5,1.8,4.3-0.8s6.9-14.6,9.9-15.6c0,0,6-0.9,6.1-8.5c0,0,10.4-4.6,13.2-10.5c0.1-0.3-0.1-0.6-0.4-0.6
	l-8.2-0.6"/>
<path class="st0" d="M278.3,138.4c0,0-5.9,2.3-5.2,5.9c0.7,3.5,3.3,6,7.4,1.9c4.1-4.1,9.2-11.8,6-19.8c-3-7.5-3.5-13.9-1.5-20.7
	c0.1-0.4-0.3-0.6-0.6-0.4c-2,2-6.3,7-5.6,12.5C279.6,124.7,285.7,132.5,278.3,138.4z"/>
<path class="st0" d="M267.2,141.1c-1.9-0.9-2.9-3-2.5-5.1c0.7-3.7,1.4-10.4-2.4-13.1c-5-3.5-14.2-18.4-4.5-26.4
	c0.7-0.6,1.7,0.2,1.4,1c-1.2,3.2-2.1,8.7,1.4,14.9c5.5,9.8,14,8.8,13,23.2c0,0-1.1,7.6-5.7,5.9C267.7,141.3,267.5,141.2,267.2,141.1
	z"/>
<path class="st0" d="M264.7,135.9c0,0-2.3-0.7-5.7,0c-3.4,0.7-6.1-1.7-8.1-1.5c-2,0.2-4.3,0-4.3,0s-7.2-4.4-17.1-2.5
	c-0.4,0.1-0.5,0.6-0.2,0.8l8.2,7.3c0,0-13.7,3-15.2,5.7c-1.1,2.1-2.8,4.1-3.5,5c-0.2,0.2-0.5,0.2-0.6,0l-1.1-1.7
	c-0.5-0.7-1.4-0.9-2.1-0.4c-2.1,1.4-6.1,4.3-8.2,7.3c-3,4.2-1.9,5-8.1,5.1c-6.2,0.1-9.3,0.4-10.5,1.1c-1.2,0.7,1,2.4,1,2.4
	s0.2,1-6.5,1.7c-6.8,0.7-18.8,1.9-18.8,1.9s-29-14.6-48.6,1.7s-12.1,45.1-12.1,45.1s7.3,23.9,33.4,22.8s25.6-23.6,25.6-23.6
	s0-23.9-20.1-24.3c-20.1-0.3-15.5,22.6-9,24.8"/>
<path class="st0" d="M88.8,151.1c0,0,31.6-15.2,38.8,12.2"/>
<path class="st0" d="M101.4,200.9c0,0-5-8.8-1.3-20.1s5.3-15.2-2.2-16.8c0,0-7.2,14.6-21.8,14.4c-12.9-0.2-18.7-10-19.8-12.3
	c-0.1-0.3,0-0.6,0.2-0.7l15.9-9.1c0,0,0,0,0,0c-1.6,0-25.4-0.3-18.6-32.9c0-0.1,0.1-0.2,0.2-0.2c1.9,0.2,19,2.3,27.8,11.6
	c0.1,0.1,0.3,0.1,0.3-0.1l3.3-11.8c0-0.1,0.2-0.2,0.3-0.2c2.2,0.5,19.7,5.2,13.8,23.6"/>
<path class="st0" d="M152.8,164.2c0,0-1.9-10-19.4-9.1c-0.3,0-0.5,0.5-0.2,0.7l6.8,5.7"/>
<path class="st0" d="M190.7,226.4c0,0-13.3,18.3-33.6,15.9c-0.1,0-0.1-0.1-0.1-0.1c0.4-1.2,4.8-14.1,15-14.9"/>
<path class="st0" d="M180,173.3c0,0,5.3,7.6,1.1,11c-3.9,3.2-3.6,7.4-3.5,7.9c0,0,0,0.1-0.1,0.1l-3.6,1.7c-0.1,0-0.1,0.1,0,0.2
	c0.7,0.5,4.5,3.1,6.6,3.1c0.1,0,0.1,0.1,0.1,0.1c-0.7,0.8-4,4.5-6.6,4.5c-0.1,0-0.1,0.1-0.1,0.1c1.1,0.9,6.6,5,10.5,4.7
	c0.1,0,0.1,0.1,0.1,0.1l-4,4.1c-0.1,0.1,0,0.1,0,0.2c1.3,0.1,9.1,1,10,0.8c1-0.2-0.6,4.8-0.9,5.6c0,0.1,0,0.1,0.1,0.1
	c0.9,0.1,6.8,0.8,9.9-0.6c2.9-1.3,5.1-4.1,5.6-4.8c0-0.1,0.1,0,0.2,0.1l0.6,6c0,0.1,0.1,0.1,0.1,0.1c0.8-0.2,5.4-1.7,7.8-3.6
	c0,0,0.1,0,0.1,0l3.9,6"/>
<polygon class="st1" points="68.7,162.5 117.8,220.1 160,244 193.6,262.7 206.2,246.5 245.3,184.4 266.9,149.4 275.4,128 
	163.6,169.8 85.4,166.2 "/>
<g>
	<g>
		<circle class="st2" cx="275.4" cy="128" r="1.7"/>
	</g>
	<g>
		<circle class="st2" cx="266.9" cy="149.4" r="1.7"/>
	</g>
	<g>
		<circle class="st2" cx="245.3" cy="184.4" r="1.7"/>
	</g>
	<g>
		<circle class="st2" cx="206.2" cy="246.5" r="1.7"/>
	</g>
	<g>
		<circle class="st2" cx="117.8" cy="220.1" r="1.7"/>
	</g>
	<g>
		<circle class="st2" cx="163.6" cy="169.8" r="1.7"/>
	</g>
	<g>
		<circle class="st2" cx="160" cy="244" r="1.7"/>
	</g>
	<g>
		<circle class="st2" cx="85.4" cy="166.2" r="1.7"/>
	</g>
	<g>
		<circle class="st2" cx="68.7" cy="162.5" r="3.1"/>
	</g>
	<g>
		<circle class="st2" cx="193.6" cy="262.7" r="1.7"/>
	</g>
</g>
</svg>
