<?xml version="1.0" encoding="utf-8"?>
<!-- Generator: Adobe Illustrator 28.1.0, SVG Export Plug-In . SVG Version: 6.00 Build 0)  -->
<svg version="1.1" id="Layer_1" xmlns="http://www.w3.org/2000/svg" xmlns:xlink="http://www.w3.org/1999/xlink" x="0px" y="0px"
	 viewBox="0 0 360 360" style="enable-background:new 0 0 360 360;" xml:space="preserve">
<style type="text/css">
	.st0{fill:none;stroke:#BFBFBF;stroke-width:3;stroke-linecap:round;stroke-miterlimit:10;}
	.st1{fill:none;stroke:#FFFFFF;stroke-width:0.993;stroke-miterlimit:10;}
	.st2{fill:#FFFFFF;}
</style>
<path class="st0" d="M280.2,108.5c0,0,21,79.2-1.5,109.8"/>
<path class="st0" d="M184.3,198.6l-62-106.8c-0.5-0.8-1.5-1.1-2.4-0.7l0,0c-0.8,0.5-1.1,1.5-0.7,2.3L176.8,203"/>
<path class="st0" d="M128.2,112l-37.5,19.9c-0.6,0.3-1,0.8-1.3,1.4c-2.8,7-17.6,49.8,27.7,70.7c0.6,0.3,1.2,0.3,1.8,0.2
	c5.7-1.3,36.6-8.2,49.4-15.5"/>
<path class="st0" d="M177.3,184.6c0,0,22.5-12.8,31.3-21.4c0.3-0.3,0.1-0.8-0.3-0.8c-6.4-1.1-43.4-9.2-38.8-56.9
	c0-0.3-0.2-0.6-0.5-0.5l-35.2,5.1"/>
<path class="st0" d="M105,124.7c0,0-23.5,48.6,32.9,74.4"/>
<path class="st0" d="M120.8,115.6c0,0-24.7,57.9,38.5,76.4"/>
<path class="st0" d="M133.4,121c0,0-13.1,40.2,31.5,59.6"/>
<path class="st0" d="M150.3,108.4c0,0-5.9,17.2-2.9,26.4"/>
<path class="st0" d="M166.3,166.1c0,0,14.3,10.2,21.3,11.7"/>
<path class="st0" d="M161,106.3c0,0-12.5,46.4,39,63.3"/>
<path class="st0" d="M89.5,271.5c0,0,6.8,0.3,11.8-5.2c0,0,12.8,1.8,17-5.3c0,0,9,5.2,18.6-0.8c0,0,15,1.2,18-4.5c0,0,13.5,4.3,18-6
	c0,0,11.6,5.8,17-2.8c0,0,14.3,1.8,18.1-6.7c0,0,12.5,4.2,16.1-4.7c0,0,11.3,4.8,17.6-3.7c0,0,16.3,0.8,17.8-8.6
	c0,0,14.8-0.7,16.5-4.8c0,0,12.6,0.8,16.1-3.7"/>
<path class="st0" d="M73.4,217.4c0,0,8,28.9,94.1-2.5s75.8-98.6,75.8-98.6c-3.4-6.8,1-10.9,1-10.9c-3.1-3.8,0.4-6.8,0.4-6.8
	c-3.4-5.5-1-10.4-1-10.4s-5.2,2.5-7.6,3c-2.4,0.4-3.1-1.9-5.9-3.7s-1.1-4.3-1.1-4.3l3-4.3c-2.2-5.5,3.5-10.6,3.5-10.6l-2.9-2.9
	c0,0,1.9-0.4,6.1,0c4.2,0.4,15.7-2.8,21.6,4c5.9,6.8,8.1,8.2,8.1,8.2l4.8-0.9l3.2,4c12.3,5.9,6,20.1,6,20.1s2.4,9.2-9.4,9.5
	s-12.6-9.4-12.6-9.4s-2.7,3.7-8.4,4.8c-5.8,1.1-8.6,12.4-8.6,12.4s-7.5,57.2-66.7,85S84,212,84,212s-1.8-5.5-3.7-7.3
	c-1.8-1.8-3.2-8-4.5-7c-1.3,1-3.8,3.5-5.8,3.3s-2.5,1.5-2.2,3c0.3,1.5,3.3,2,3.5,6.5c0.2,4.5,14,44.7,42.6,52.7"/>
<path class="st0" d="M273.2,110.3c0,0,15.4,53.2,2.8,108.2"/>
<polyline class="st1" points="167.5,254.5 147.2,262.2 125.4,246.9 124.5,234.3 130.5,229.6 157.5,211.6 186.7,209.7 203.7,183.4 
	"/>
<polyline class="st1" points="124.5,234.3 108.5,229.9 102.5,235 103.8,240.8 111.7,245.8 125.4,246.9 "/>
<g>
	<circle class="st2" cx="147.2" cy="262.2" r="1"/>
</g>
<g>
	<circle class="st2" cx="125.4" cy="246.9" r="1"/>
</g>
<g>
	<circle class="st2" cx="130.5" cy="229.6" r="1"/>
</g>
<g>
	<circle class="st2" cx="157.5" cy="211.6" r="1"/>
</g>
<g>
	<circle class="st2" cx="186.7" cy="209.7" r="1.3"/>
</g>
<g>
	<circle class="st2" cx="203.7" cy="183.4" r="1"/>
</g>
<g>
	<circle class="st2" cx="103.8" cy="240.8" r="0.7"/>
</g>
<g>
	<circle class="st2" cx="102.5" cy="235" r="0.7"/>
</g>
<g>
	<circle class="st2" cx="108.5" cy="229.9" r="0.7"/>
</g>
<g>
	<circle class="st2" cx="124.5" cy="234.3" r="0.7"/>
</g>
<g>
	<circle class="st2" cx="111.7" cy="245.8" r="0.7"/>
</g>
<line class="st1" x1="167.5" y1="254.5" x2="260.3" y2="199.8"/>
<g>
	<circle class="st2" cx="260.7" cy="199.8" r="3.5"/>
</g>
<g>
	<circle class="st2" cx="167.5" cy="254.5" r="1.6"/>
</g>
</svg>
