<?xml version="1.0" encoding="utf-8"?>
<!-- Generator: Adobe Illustrator 28.1.0, SVG Export Plug-In . SVG Version: 6.00 Build 0)  -->
<svg version="1.1" id="Layer_1" xmlns="http://www.w3.org/2000/svg" xmlns:xlink="http://www.w3.org/1999/xlink" x="0px" y="0px"
	 viewBox="0 0 360 360" style="enable-background:new 0 0 360 360;" xml:space="preserve">
<style type="text/css">
	.st0{fill:none;stroke:#BFBFBF;stroke-width:3;stroke-miterlimit:10;}
	.st1{fill:none;stroke:#BFBFBF;stroke-width:3;stroke-linecap:round;stroke-miterlimit:10;}
	.st2{fill:none;stroke:#FFFFFF;stroke-width:0.993;stroke-miterlimit:10;}
	.st3{fill:#FFFFFF;}
</style>
<path class="st0" d="M168.3,124.9c0,0-3.7,13-3.3,21.6c0.3,8.6-1.7,17.6-6.3,21.6c0,0-19.3-4.3-27.6-4.7c-8.3-0.3-24.4,4.5-28.4,1.8
	c-4-2.7-3-5.5-11.3-3.2c-8.3,2.3-20.5,6.5-20.6,12.8c-0.2,6.3,7.6-2.5,23.1-1.8s23.1,5.8,34.9,7.6c11.8,1.8,27.9,4,34.6,3.8
	c6.7-0.2,11.6-1.2,15.1-7.6c3.5-6.5,11.3-11,4-21.9C175.2,144.1,168.3,124.9,168.3,124.9z"/>
<path class="st0" d="M176.7,180c0,0,6.5,2.3,12.1,1.8s7.5-2.7,11.5,2.3c4,5,5.3,8,7,12s4.4,7.5,9.4,8.3c0,0-8.1,6.3-16.8,10.8
	c-8.6,4.5-8.5,8.5-5.7,11c2.8,2.5,13.5,9.5,22.4,12.5c9,3,9,5.5,13,7.5c4,2,7.6,1.5,8.3,1c0.7-0.5,4,1.3,6.2-2.8l3.8-0.3l7,2.3
	c2.3,0.7,4.7,0.3,6.6-1.1v0c4-3.1,3.6-9.2-0.8-11.8l-0.4-0.3c-2.8-1.6-6.3-1.2-8.6,1.1l-4.4,4.4l-3.2,0.3c0,0-4.2-5-8.5-3.5
	c-4.3,1.5-3.8,2.8-9.5-0.5s-13.5-9.8-15.6-10.1c0,0,11.5-8.8,14.6-8.5c3.2,0.3,14.3-2.7,16.8-6c2.5-3.3,3.7-9.6,7-10.6
	c0,0,3.5,1.5,6.5,4c0,0-4.2,5-1.5,7.5c2.7,2.5,6.7,5,10.8,5.2c4.2,0.2,11,1.3,11,1.3s4-2.5-0.8-17.3c0,0-16.5,0.8-15.5-25.4
	c0,0,12.6-5.3,14-7c0,0,9.8,0.2,13.5-1.8c0,0-2.2,12.6-2.3,17"/>
<path class="st1" d="M168.3,124.9c0,0-1.7-6.8-1-18.5c0.7-11.5-4.9-33.2-17.5-29.5c-0.1,0-0.1,0,0-0.1c1.5-0.9,8.7-4.4,17.9,4.8
	c10.3,10.3,15.1-11.8,31.9,18.8s-6,47.6,20,82.8"/>
<path class="st0" d="M206.4,129.9c0,0,18.1,2,21.1,25.9c3,23.9,0.2,42.6,14.5,54.5"/>
<path class="st0" d="M272.6,169.8c0,0,9,5,15.6,20.3s8.5,17.8,1,26.8c0,0-2.8,8-10,7.5s-10.5-7.1-10.5-7.1"/>
<path class="st0" d="M227.5,155.9l15.3,6c0,0,15.6-3.5,25.3-5.2c9.6-1.7,14.8-2.2,19.5-2.3c4.7-0.2,8.5,1,8.6,6.7
	c0.2,5.7-2.3,15.8-3.3,23.9s-1.8,11.3-1.8,11.3"/>
<path class="st0" d="M164.9,152.2c0,0-8.3-1.2-10.6-7.3s-13-16.6-24.3-19.8s-11.5-13.1-18.5-16s-16.3-9-20-8.5c-3.7,0.5-4,4.2-2,7.6
	c2,3.5,1.2,6.8,9.3,9.1s11.6,6.3,23.3,17.6s21.5,28.4,32.9,32.6"/>
<path class="st1" d="M266.9,156.7c0,0-5.5-14.6-14.6-17.1c-8.9-2.4-6.3-17.7-15.3-19.3c-0.3-0.1-0.6,0.3-0.4,0.5
	c1.5,2.5,6.4,11.8,2.4,18.8c-4.7,8.1,12.6,20.1,12.6,20.1"/>
<g>
	<polyline class="st2" points="123.1,128.7 154.1,168.3 190.8,163.3 216.7,204.4 254.6,170.2 	"/>
	<g>
		<circle class="st3" cx="254.6" cy="170.2" r="3"/>
	</g>
	<g>
		<circle class="st3" cx="216.7" cy="204.4" r="3"/>
	</g>
	<g>
		<circle class="st3" cx="190.8" cy="163.3" r="3"/>
	</g>
	<g>
		<circle class="st3" cx="154.1" cy="168.3" r="3"/>
	</g>
	<g>
		<circle class="st3" cx="123.1" cy="128.7" r="3"/>
	</g>
</g>
</svg>
