<?xml version="1.0" encoding="utf-8"?>
<!-- Generator: Adobe Illustrator 28.1.0, SVG Export Plug-In . SVG Version: 6.00 Build 0)  -->
<svg version="1.1" id="Layer_1" xmlns="http://www.w3.org/2000/svg" xmlns:xlink="http://www.w3.org/1999/xlink" x="0px" y="0px"
	 viewBox="0 0 360 360" style="enable-background:new 0 0 360 360;" xml:space="preserve">
<style type="text/css">
	.st0{fill:none;stroke:#BFBFBF;stroke-width:3;stroke-miterlimit:10;}
	.st1{fill:none;stroke:#BFBFBF;stroke-width:3;stroke-linecap:round;stroke-miterlimit:10;}
	.st2{fill:none;stroke:#FFFFFF;stroke-width:0.75;stroke-miterlimit:10;}
	.st3{fill:#FFFFFF;}
</style>
<path class="st0" d="M227.4,116.8l70-14.9l0,0c1.7,1.2,2.2,3.5,1,5.2l0,0l-70.6,14.7"/>
<path class="st0" d="M80.9,152.5L50.1,159l0,0c-0.5,1.3-1.8,2.2-3.2,2.3l-2.9,0.3c-0.1,0-0.1,0-0.2,0.1l-2.8,3.9
	c0,0.1-0.1,0.1-0.2,0.1l-32-0.4c0,0,0-0.1,0-0.1l29.7-14.2c0.1,0,0.2,0,0.3,0.1l2.4,2.7c0.1,0.1,0.1,0.1,0.2,0.1l5.4-0.6
	c1.2-0.1,2.3,0.3,3.1,1.1l0,0l29.9-6.3"/>
<path class="st0" d="M123.8,144c0,0-1.2,3.7-1.7,6.9c-0.4,3.2-2,6.8-8.3,6.7c-6.3-0.1-10-2.2-14.6-1.8c-4.7,0.4-10.5,1.3-13.5,0.3
	c-3-1-6.4-2.4-5.7-9.6c0,0,1.6-1.2,2.7-0.8c1.1,0.4,3-2.3,3.5-1.3c0,0,3.5-1.1,3.9,2.4c0.1,0.9,0.2,1.5,0.2,2c0.1,0.9,1,1.6,1.9,1.4
	l121.7-25.4"/>
<path class="st1" d="M113.1,140.9c0,0-0.7-12,3.4-15.1c0,0-3.7-8.8,0.7-14.1c4.3-5.3,8.6-4.9,8.6-4.9s2-1,4.2-3.1
	c2.2-2.1,4.8-2.3,5.7-4.1c0.9-1.8,1-4.8,0.9-5.2c0-0.3-3.2,0.6-4.7,1c-0.4,0.1-0.7-0.2-0.8-0.5c-0.1-1.1-0.3-3.2-0.9-3.8
	c-0.9-0.8-1-0.2-1-1.4s-0.7-1.7-1.7-2.2c-1.1-0.5-4,1.2-2.4-2.6c1.3-3.2-0.3-9.1-0.2-9.4c0.1-0.3,0.6-3.1,2.3-3.9s6.4-2.9,6.4-2.9
	s2.2-0.7,3.8,0.7s4.7,2.3,5.2,5.3c0.5,2.9,3,8.5-0.8,9.6"/>
<path class="st1" d="M124.9,74.8c0,0-2.1-1.7-2.3-4c-0.2-2.3,2.6-6.8,5-6.7c2.4,0.2,4.2-2.6,7.5-0.8s9.9-1.1,12.5,6.9
	s2.4,7.7,4.1,12s1.8,5.7,5.4,7.4c5,2.4,7.5,6.5,7.5,6.5"/>
<path class="st1" d="M147,87.9c0,0,1.9,6.2,7.6,7.5c5.7,1.4,10.8,1.1,10.8,1.1s8.5-2.3,11.3,2.1c0,0,3.5,1.5,8.4,2.2
	s7.9-0.4,10.8,2.7s5.2,3.4,5.2,3.4s5.7-1.9,8.3,0.6c2.6,2.5,6.5,3.7,8.4,4s7.8-0.7,10,4.3c2.2,4.9,1.3,8.8-0.9,8.3s-2.3,2.7-4.8,1.8
	c-2.4-0.9-3.1,2-4.7,0.8c-1.6-1.2-2.6,1.5-4-3.4l-0.3-3.6L89.6,146"/>
<path class="st0" d="M204.1,121.3c0,0-3-1.1-5.4-3.7c0,0-11,1.8-15-1c-3.9-2.8-5.5-4-7.9-3.8c-2.4,0.2-4.5,3.6-5.2,6.2
	c-0.6,2.5-4,10.4-4,10.4"/>
<path class="st1" d="M161.7,136.4l-3.2,7.5c0,0,12.6-3.7,19,0.3c6.3,4,20.8,2.8,28.3,2c7.5-0.8,14.1-10.3,29.8-5.8c0,0,6-6,19.1,4.8
	c13.1,10.8,28.4,19.6,37.2,20.6s10.1,12.8,3.8,12.6c-6.3-0.2-13.5-4.7-21.6-10c-8.1-5.3-24.1-18.5-27.3-21.1c-3.2-2.7-6.3-4.5-6.3,0
	s4.8,16.6,0.2,25.4c-4.7,8.8-6.5,13.3-0.5,17.8s15.1,7,15.1,7s6.3,3.5,3.3,8.5c-3,5-2.8,11.1-3.5,17.1c-0.7,6,4.5,11.5-1.2,15.1
	c0,0-0.7,5,0.3,7.8s3.7,6.5-0.5,7.6c-3.2,0.9-8.9,2.2-11.5,2.7c-0.6,0.1-1.2-0.4-1.1-1.1c0.5-3.1,1.9-11,4-17.1
	c0,0-4.2-6.3,0.7-12.3c4.8-6,5.7-13,5-17s-1-4.8-1-4.8s-18-9.5-24.9-11.1c-7-1.7-19.5-15.3-15.1-29.1"/>
<path class="st0" d="M128.4,142.9c0,0-1.2,9.5,3.3,21.9c4.5,12.5,2.8,25.6,21,34.4"/>
<path class="st1" d="M150.9,182.1c0,0-1.7,12,3.7,18.8l-13,6.3c0,0-6,1.3-7.5,3.3c-1.5,2-7,7.3,1.5,12c8.5,4.7,11.1,6.8,16.1,12.1
	c5,5.3,9.1,10.5,16.1,8.1c7-2.3,8.3-7.5,12.3-11.3c2-1.9,3.3-3.5,4.1-4.6c0.6-0.8,0.2-2-0.8-2.4c-3-1.1-9.4-3.1-14.4-2.6
	c-0.6,0.1-1.1,0.5-1.1,1.1c-0.2,2.6-0.7,9.7-1.1,10c-0.5,0.3-8.5-3-15.8-8.5c-7.3-5.5-10-8.3-10-8.3s9.5-4,15.8-5.3s11-1,12.6-3.5
	c1.7-2.5,9.5-14,5.7-26.6"/>
<path class="st0" d="M212.2,183.3c0,0-6-0.7-11,4.7c-5,5.3-27.8,13.3-27.8,13.3"/>
<path class="st0" d="M140.7,190.6c0,0-11.1,3.5-15.6,3c-4.5-0.5-9.3,1.2-9.5,6.5c-0.2,5.3,3.7,3.2,3.7,11.5s-0.7,19.5,1.7,21.8
	c2.3,2.3,6.8,6.8,11.1,8.5c3,1.2,7,1.7,9.2,2c0.9,0.1,1.8-0.5,1.9-1.4c0.3-2.1,0.7-6-0.7-9.2c-0.4-0.9-1.3-1.3-2.2-1.1
	c-2.4,0.6-7.3,1.5-8.4-0.6c-1.5-2.8-1.3-3.8-3.3-4.2c-2-0.3-2.7-25.1-2.7-25.1s0.8-3,4.5-2.7c3.7,0.3,22.3-0.3,22.3-0.3"/>
<path class="st0" d="M240.7,172.8c0,0,7.1,2.3,11,1.5c3.8-0.8,14-2.5,15-2.5c1,0,4.5,0.8,3.5,6.3s-1,10.5,0.5,16.3
	c1.5,5.8,5.3,9.5,3.8,12l7.1,6.7c0,0,1.5,7.4-5.3,9.8c-0.1,0-0.2,0-0.3-0.1c-0.9-0.9-6.9-7-7.7-11c0,0-1.2-2.8-2.8-4.8
	c-1.7-2,0.3-3.8-0.2-8.8s-4.2-17-4.2-17l-23.9,5"/>
<polyline class="st2" points="257.5,236.3 237.2,190.3 225.2,176.4 242.2,182.1 274.5,213 "/>
<polygon class="st2" points="145.6,160.3 214.2,168.1 163.5,192.8 "/>
<line class="st2" x1="225.2" y1="176.4" x2="214.2" y2="168.1"/>
<polyline class="st2" points="163.5,192.8 150.5,233.1 126.6,241.5 "/>
<polyline class="st2" points="148.1,133.2 145.6,160.3 138.2,152 138.6,132.6 129.8,128.8 110.9,114.1 124.4,102.7 147.3,128.7 
	165.6,114.4 176.6,99.3 220.6,118.5 "/>
<polyline class="st2" points="77.8,147.9 101.4,140.8 138.6,132.6 "/>
<g>
	<circle class="st3" cx="77.8" cy="147.9" r="1.4"/>
</g>
<g>
	<circle class="st3" cx="101.4" cy="140.8" r="1.4"/>
</g>
<g>
	<circle class="st3" cx="147.3" cy="128.7" r="1.4"/>
</g>
<g>
	<circle class="st3" cx="148.1" cy="133.2" r="1.4"/>
</g>
<g>
	<circle class="st3" cx="145.6" cy="160.3" r="1.4"/>
</g>
<g>
	<circle class="st3" cx="214.2" cy="168.1" r="1.4"/>
</g>
<g>
	<circle class="st3" cx="242.2" cy="182.1" r="1.4"/>
</g>
<g>
	<circle class="st3" cx="163.5" cy="192.8" r="1.4"/>
</g>
<g>
	<circle class="st3" cx="150.5" cy="233.1" r="1.9"/>
</g>
<g>
	<circle class="st3" cx="126.6" cy="241.5" r="2.4"/>
</g>
<g>
	<circle class="st3" cx="176.6" cy="99.3" r="1.4"/>
</g>
<g>
	<circle class="st3" cx="138.6" cy="132.6" r="1.4"/>
</g>
<g>
	<circle class="st3" cx="124.4" cy="102.7" r="1.4"/>
</g>
<g>
	<circle class="st3" cx="110.9" cy="114.1" r="0.9"/>
</g>
<g>
	<circle class="st3" cx="129.8" cy="128.8" r="0.9"/>
</g>
<g>
	<circle class="st3" cx="138.2" cy="152" r="0.9"/>
</g>
<g>
	<circle class="st3" cx="225.2" cy="176.4" r="0.9"/>
</g>
<g>
	<circle class="st3" cx="237.2" cy="190.3" r="0.9"/>
</g>
<g>
	<circle class="st3" cx="274.5" cy="213" r="0.9"/>
</g>
<g>
	<circle class="st3" cx="257.5" cy="236.3" r="0.9"/>
</g>
<g>
	<circle class="st3" cx="165.6" cy="114.4" r="0.9"/>
</g>
<g>
	<circle class="st3" cx="220.6" cy="118.5" r="0.9"/>
</g>
</svg>
