<?xml version="1.0" encoding="utf-8"?>
<!-- Generator: Adobe Illustrator 28.1.0, SVG Export Plug-In . SVG Version: 6.00 Build 0)  -->
<svg version="1.1" id="Layer_1" xmlns="http://www.w3.org/2000/svg" xmlns:xlink="http://www.w3.org/1999/xlink" x="0px" y="0px"
	 viewBox="0 0 360 360" style="enable-background:new 0 0 360 360;" xml:space="preserve">
<style type="text/css">
	.st0{fill:none;stroke:#BFBFBF;stroke-width:3;stroke-linecap:round;stroke-miterlimit:10;}
	.st1{fill:none;stroke:#FFFFFF;stroke-width:0.75;stroke-linejoin:round;stroke-miterlimit:10;}
	.st2{fill:none;stroke:#FFFFFF;stroke-width:0.75;stroke-miterlimit:10;}
	.st3{fill:#FFFFFF;}
</style>
<path class="st0" d="M214.2,84.4c-0.8,2.3-2.2,4.3-4.3,5.6c-2.7,1.8-6.9,3.7-12.7,3.5c-10.5-0.5-9.8,8.1-21.6,6.3
	c-11.8-1.8-18,7-21.6-0.2c-2-3.9-5.2-5.9-7.7-6.9c-1.7-0.7-3.6,0.6-3.6,2.5c-0.1,6.5-0.5,21.1-1.3,32.4c-1,14.9-5.6,46.8,30.2,49.2
	c0,0,0.1,0.1,0,0.1c-1.5,0.7-13.4,6.3-12,13.6c0,0.1-0.1,0.3-0.2,0.3c-1.4,0.1-7.7,0.8-11.7,3.5c-4.5,3-10.6,4.3-11.3,9.3
	s-2.2,8.8,1.2,10.3c3.3,1.5,11.6,6.2,10.8-6.3c0,0,7.8-2.2,13.5,0c0,0,3.3,0,4,10.5c0.6,10.1,1.8,25.6,19.2,27.8
	c1,0.1,1.8,1,1.8,2.1v0.9c0,0.2-0.1,0.3-0.3,0.3c-1.2-0.1-5.7-0.4-5.4,3.4c0.2,4.3-0.3,4.9,0.7,6.2c1.1,1.2,0.7,2.4,0.7,3.8
	c-0.1,1.4-1.5,3.8-0.9,4.7c0.6,0.9-1.1,6.3,1.3,8.4c2.4,2.1,3.1-0.1,6.8,1.2c3.7,1.2,5.3,2.1,6.7,0.2c1.4-1.8,2.2-5.5,5.4-5.6
	s4.8-2.7,4.5-5.7c-0.3-2.9-2-5.4-4.4-4.2c0,0-0.1,0-0.1,0c0-0.7-0.1-6.6,0.8-8.5c1-2,2.2-4.3,6.6-4.2c4.3,0.1,4.3-0.7,5.9-1.8
	c1.6-1.2,5.5,0.6,9.4-3.5c3.9-4.1,12.7-25.2,18-35.9c5.3-10.7,5.9-11.1,14.4-16.5c8.5-5.5,20.6-12.6,15.3-25.1
	c-5.3-12.6-12.8-9-12.8-9s6.7-28.1,21.8-36.7s23.6-8.1,27.6-13.5c4-5.4-3.4-9.1-12.1-10.4c-8.7-1.2-28.6-10.4-37.2-14.4
	c-8.3-3.8-20-11.6-41-2.8c-1.9,0.8-3.4,2.3-4,4.3L214.2,84.4z"/>
<path class="st0" d="M199.8,93.2c0,0,0.5-1.7,1.7-5.2c1.2-3.6-1-8-5.7-10.6s-10.7,0.6-9.9,5.5c0.8,4.9,1.4,9.8,0.6,14.4"/>
<path class="st0" d="M170.3,99.4c0,0-5.2-9.1-6.7-13.1c-1.4-4.1-5.3-8.5-10.8-9c-5.5-0.5-10.4-1.7-9.9,2.4c0.5,4.1,1.6,5.4,5.3,6.7
	s10.9,15.7,10.9,15.7"/>
<path class="st0" d="M180.6,269.7c0,0-3.2,2.4-2.9,5.8c0.3,3.3-0.7,9.3,3.3,9.4s5.9,1.6,7.9,3c2,1.4,0.4,0.8,3.9-0.4
	c3.4-1.2,4.2,0.9,7.5-2.1c3.3-3,6.8-5,6.5-8.3s-2.8-6.7-2.8-6.7"/>
<path class="st0" d="M264.9,103.7c0,0-17-12.6-24.6-7.3c-7.5,5.2,9.8,11.5-3.9,59.7c-0.4,1.3-1.4,2.2-2.8,2.3
	c-4.7,0.5-15.9,2.3-20.5,8.1"/>
<path class="st0" d="M213.4,86.5c0,0,12.5,10.6,9.5,33.6c-3,22.9-4.3,41.6-4.3,41.6"/>
<path class="st0" d="M259.5,157c0,0-9.6,4.4-13.6,14.4c-4,10-14,21.6-28.4,6.7"/>
<path class="st0" d="M213.6,178.8c0,0-7.1,0.3-9.3-1.8s-3.5-4-1.3-5.8c2.2-1.8,1.3-5,14-3.8c12.6,1.2,15,2.5,13.1,7.3
	c-1.8,4.8-4.8,6.3-7.6,4.3C219.6,177,213.6,178.8,213.6,178.8z"/>
<path class="st0" d="M205.4,248.9c0,0-19.3-51.2-41-37.9"/>
<line class="st0" x1="161.2" y1="175.7" x2="153" y2="191.7"/>
<line class="st0" x1="140" y1="215" x2="127.8" y2="238"/>
<path class="st0" d="M126.1,245c0.8-0.3,1.6-1.2,2-2.3c0.6-1.7,0-3.5-1.2-3.9c-1.2-0.4-2.7,0.7-3.3,2.4c-0.3,1-0.3,2,0.1,2.8
	c-1.2,0.2-2.3,1.2-2.8,2.6c-0.6,1.9,0.1,3.9,1.7,4.5c1.6,0.5,3.4-0.6,4-2.6C127,247.2,126.8,245.9,126.1,245z"/>
<polygon class="st1" points="176,142.5 176,203.5 181,244.5 193.2,246.9 190.3,252.5 212.2,244 225.8,223.3 215,183.9 "/>
<polyline class="st2" points="253.2,213.6 246.1,222.2 225.8,223.3 "/>
<line class="st2" x1="176" y1="203.5" x2="215" y2="183.9"/>
<g>
	<circle class="st3" cx="246.1" cy="222.2" r="1.3"/>
</g>
<g>
	<circle class="st3" cx="253.2" cy="213.6" r="1.3"/>
</g>
<g>
	<circle class="st3" cx="176" cy="142.5" r="1.3"/>
</g>
<g>
	<circle class="st3" cx="176" cy="203.5" r="1.3"/>
</g>
<g>
	<circle class="st3" cx="215" cy="183.9" r="1.8"/>
</g>
<g>
	<circle class="st3" cx="225.9" cy="223.3" r="2.2"/>
</g>
<g>
	<circle class="st3" cx="212.2" cy="244" r="0.8"/>
</g>
<g>
	<circle class="st3" cx="190.3" cy="252.5" r="0.8"/>
</g>
<g>
	<circle class="st3" cx="193.2" cy="246.9" r="0.8"/>
</g>
<g>
	<circle class="st3" cx="181" cy="244.5" r="0.8"/>
</g>
</svg>
