<?xml version="1.0" encoding="utf-8"?>
<!-- Generator: Adobe Illustrator 28.1.0, SVG Export Plug-In . SVG Version: 6.00 Build 0)  -->
<svg version="1.1" id="Layer_1" xmlns="http://www.w3.org/2000/svg" xmlns:xlink="http://www.w3.org/1999/xlink" x="0px" y="0px"
	 viewBox="0 0 360 360" style="enable-background:new 0 0 360 360;" xml:space="preserve">
<style type="text/css">
	.st0{fill:none;stroke:#BFBFBF;stroke-width:3;stroke-linecap:round;stroke-miterlimit:10;}
	.st1{fill:none;stroke:#FFFFFF;stroke-width:0.75;stroke-linejoin:round;stroke-miterlimit:10;}
	.st2{fill:#FFFFFF;}
</style>
<path class="st0" d="M63.6,52.7c0.7-0.8,2-0.2,1.9,0.8c-0.2,5.8,0.9,18.6,12.9,25.4c14.9,8.5,14.1,22.9,14,24.5c0,0,0,0,0,0
	c0.6-1.4,6.6-14.1,22.6-15c15.2-0.9,15.3-16.4,18.7-23.1c0.6-1.1,2.2-1.2,2.8,0c1.8,3.2,4.3,11.2,1.4,29
	c-4.2,25.6-39.1,20.1-40.1,36.9c-1,16.8,20.5,25.8,32.8,26.1c8.9,0.2,12.6-6.7,13.9-10.6c0.5-1.3,2-1.8,3.1-1.1
	c3.1,2,8.7,6.1,14.4,12.7c8.5,9.8,41.1,12.8,57.4,9.3s12.6-3,33.9-2c21.3,1,29.8,0.5,40.9-3.5s17-8.6,27.3-5.8s-10,69.2-60.6,84.6
	s-106-2.6-126.7-15.6c-15-9.3-50.7-30.1-57.7-77c0,0-3-28.3-8.1-35.4C63.1,105.6,36.5,81.5,63.6,52.7z"/>
<path class="st0" d="M233.7,192.5c0,0,7.8-14.3,25.4-10.3s28.3-9.5,39.6-16.8c11.3-7.3,15.1-9,22.8-9.1"/>
<path class="st0" d="M281.4,230.7c0,0-24.6,3.8-44.1-19.5c-0.7-0.9-1.9-1.4-3-1.3l-19.4,1.2"/>
<path class="st0" d="M222.2,205.9c0,0-32.8,29.6-62.2,3.2c-0.4-0.4-0.1-1,0.4-1c4.5,0.5,17.3,1.4,28.5-4.1c2.6-1.3,5.5-1.8,8.4-1.2
	l11.1,2.1"/>
<ellipse transform="matrix(0.9795 -0.2016 0.2016 0.9795 -31.9967 50.3917)" class="st0" cx="231.4" cy="182.3" rx="3.9" ry="2.8"/>
<path class="st0" d="M239.5,214.6c0,0-12.6,3.7-34.3,1.7"/>
<path class="st0" d="M245.2,219.7c0,0-28.1,7.5-58.4,0.7"/>
<path class="st0" d="M253.5,224.9c0,0-73.2,24.1-130.4-26.4"/>
<path class="st0" d="M263.5,229.4c0,0-75.8,34.9-154-32.9"/>
<path class="st0" d="M173.8,217.7c0,0-25.3-7.3-37.2-18"/>
<line class="st0" x1="167.7" y1="208.3" x2="155.2" y2="201.9"/>
<polygon class="st1" points="62.8,115.4 65.2,87.4 86.7,79.5 111.8,88.3 90.5,118.8 "/>
<polygon class="st1" points="166.8,195 205.8,183 227.4,194.6 297.2,189.8 260.8,240.8 177.2,227.2 "/>
<polyline class="st1" points="90.5,118.8 97,135.4 126.7,153.5 166.8,195 "/>
<g>
	<circle class="st2" cx="90.5" cy="118.8" r="1.9"/>
</g>
<g>
	<circle class="st2" cx="177.2" cy="227.2" r="1.9"/>
</g>
<g>
	<circle class="st2" cx="297.2" cy="189.8" r="1.9"/>
</g>
<g>
	<circle class="st2" cx="260.8" cy="240.8" r="3.2"/>
</g>
<g>
	<circle class="st2" cx="62.8" cy="115.4" r="3.2"/>
</g>
<g>
	<circle class="st2" cx="65.2" cy="87.4" r="1.2"/>
</g>
<g>
	<circle class="st2" cx="111.8" cy="88.3" r="1.2"/>
</g>
<g>
	<circle class="st2" cx="166.8" cy="195" r="1.2"/>
</g>
<g>
	<circle class="st2" cx="227.4" cy="194.6" r="1.2"/>
</g>
<g>
	<circle class="st2" cx="126.7" cy="153.5" r="1.2"/>
</g>
<g>
	<circle class="st2" cx="205.8" cy="183" r="1.2"/>
</g>
<g>
	<circle class="st2" cx="86.7" cy="79.5" r="1.2"/>
</g>
<g>
	<circle class="st2" cx="97" cy="135.4" r="1.2"/>
</g>
</svg>
