<?xml version="1.0" encoding="utf-8"?>
<!-- Generator: Adobe Illustrator 28.1.0, SVG Export Plug-In . SVG Version: 6.00 Build 0)  -->
<svg version="1.1" id="Layer_1" xmlns="http://www.w3.org/2000/svg" xmlns:xlink="http://www.w3.org/1999/xlink" x="0px" y="0px"
	 viewBox="0 0 360 360" style="enable-background:new 0 0 360 360;" xml:space="preserve">
<style type="text/css">
	.st0{fill:none;stroke:#BFBFBF;stroke-width:3;stroke-linecap:round;stroke-miterlimit:10;}
	.st1{fill:none;stroke:#FFFFFF;stroke-width:0.75;stroke-linejoin:round;stroke-miterlimit:10;}
	.st2{fill:#FFFFFF;}
</style>
<path class="st0" d="M270.4,169.8c0,0,5.5-5.2,13.6-7.8c8.1-2.7,16,2.2,19.6-0.2s0.3-6.8-3.7-9.5c-4-2.7-8.3-5-13.3-12
	c-5-7-8.1-9-17.5-8.8s-11.6-0.5-17.1-6.3c-5.5-5.8-11-8.8-11.8,1.7c-0.7,8.9,14.6,19.2,19.1,22c0.7,0.4,0.9,1.3,0.5,2l-0.7,1.4
	c-0.4,0.7-1.2,1-1.9,0.7c-3.3-1.2-12.2-5.6-21.5-19.2c-11.6-17.1-21.8-25.8-37.6-29.6c-15.8-3.8-38.9,3-54.5,19.5
	s-40.9,27.3-53,30.4c-12.1,3.2-38.4,9-42.2,30.9s14.1,35.2,30.4,34.9c16.3-0.3,21-12.5,19.8-18.5c-1.2-6-5.7-11.8-14.5-12.1
	c-5.1-0.2-9.4,1-9.2,6.4c0.1,1.6,2.2,2.2,3,0.8c1.4-2.4,3.7-2.5,7.7-1.6c9.3,2,9.3,13.5,1.5,17.5s-23.4-0.2-23.8-14.6
	c-0.3-14.5,8.3-19.1,21.8-21.1c13.5-2,26.4-3,38.1-6.3s33.4-2,33.4-2"/>
<path class="st0" d="M294.9,162.4c0,0-4.5,8-13.1,9.3c-8.6,1.3-9.1,8-23.9,6c-14.8-2-38.2-1.3-38.2-1.3"/>
<path class="st0" d="M231,167.7c0,0-14.3-1.8-13.6,3.3c0.7,5.2,2.2,13,6.5,18.5s24.1,18.5,19,26.4s-3.7,3.8-4.3-2.3
	s-12.5-9.1-19.1-17.8c-6.7-8.6-13.8-26.8-13.8-26.8s-4.3-7.3,3-10.1s19.5,1,22.4,0.5"/>
<path class="st0" d="M169.5,169.8c0,0,8-1.7,14.3,0s23.9,6.5,23.9,6.5"/>
<path class="st0" d="M148.2,148.9c0,0,24.4,4.8,26.3,11c1.8,6.2-16.8,18.8-19.1,22.4c-2.3,3.7-2.3,6.2,1.7,9.8
	c4,3.7,2.8,14.8-1.7,14.5c-4.5-0.3-3.3-3.2-6.3-9.6c-3-6.5-9.8-9.3-3.3-14.1c6.5-4.8,14.3-9.3,10.8-16.8c-3.5-7.5-19.5-5.2-19.5-5.2
	"/>
<path class="st0" d="M174.5,169.5c0,0,5.7,4.2,1.5,8.5c-4.2,4.3,0,9.5,1.5,14.1c1.5,4.7-2.3,0.8-5.7,1.2c-3.3,0.3-1.7,15-4.7,7.8
	c-3-7.1-3.2-10.5,0-17.1c3.2-6.7,2.3-14.1,2.3-14.1"/>
<path class="st0" d="M255.3,177.3c0,0,13.5,9.3,17.3,15s2.8,9.3,2.8,14.3c0,5,10.5,10.3,6.7,11.6s-8.6-5.8-14.5-4.8
	c-5.8,1-6,10.3-7.5,7.3c-1.5-3-1.7-8.3,3-11s7.3-8.1,5-13.1S245.3,177,245.3,177"/>
<path class="st0" d="M279.6,142.9c0,0,8.6,5,8.5,11.5c-0.2,6.5-14.5,4.7-16.5,3.3c-2-1.3-7.5-5.3-2.7-12.8
	C273.8,137.4,279.6,142.9,279.6,142.9z"/>
<polygon class="st1" points="67.9,154.9 61,179.6 139,180.9 145.7,146.3 "/>
<line class="st1" x1="281.4" y1="153.6" x2="145.7" y2="146.3"/>
<g>
	<circle class="st2" cx="139" cy="180.9" r="2.9"/>
</g>
<g>
	<circle class="st2" cx="281.4" cy="153.6" r="2.9"/>
</g>
<g>
	<circle class="st2" cx="67.9" cy="154.9" r="1.9"/>
</g>
<g>
	<circle class="st2" cx="61" cy="179.6" r="1.9"/>
</g>
<g>
	<circle class="st2" cx="145.7" cy="146.3" r="1.9"/>
</g>
</svg>
