<?xml version="1.0" encoding="utf-8"?>
<!-- Generator: Adobe Illustrator 28.1.0, SVG Export Plug-In . SVG Version: 6.00 Build 0)  -->
<svg version="1.1" id="Layer_1" xmlns="http://www.w3.org/2000/svg" xmlns:xlink="http://www.w3.org/1999/xlink" x="0px" y="0px"
	 viewBox="0 0 360 360" style="enable-background:new 0 0 360 360;" xml:space="preserve">
<style type="text/css">
	.st0{fill:none;stroke:#BFBFBF;stroke-width:3;stroke-linecap:round;stroke-miterlimit:10;}
	.st1{fill:none;stroke:#FFFFFF;stroke-width:0.75;stroke-linejoin:round;stroke-miterlimit:10;}
	.st2{fill:#FFFFFF;}
</style>
<path class="st0" d="M215.6,178.8L141,101.7c-0.1-0.1-0.3,0-0.2,0.2l64.3,82c-1.3,1.2-2.4,2.5-3.2,4l-76.2-73.7
	c-0.1-0.1-0.3,0.1-0.2,0.2l73.7,84c0.1,5.4,2.1,11.1,6.1,15.8c8.3,9.6,21.9,11.5,30.4,4.2s8.6-21,0.3-30.7
	C230.5,181.2,222.7,177.9,215.6,178.8 M231.2,212.9c-5.9,5.1-15.4,3.8-21.1-2.9c-4.2-4.9-5.3-11.3-3.3-16.4l5.7-6.5
	c5.9-3.2,13.8-1.5,19,4.4C237.2,198.3,237.1,207.9,231.2,212.9z"/>
<polyline class="st1" points="122.8,111.3 236.6,223.9 137.4,97.6 "/>
<g>
	<circle class="st2" cx="236.6" cy="223.9" r="3"/>
</g>
<g>
	<circle class="st2" cx="137.4" cy="97.6" r="1.9"/>
</g>
<g>
	<circle class="st2" cx="122.8" cy="111.3" r="1.9"/>
</g>
<path class="st0" d="M237.5,216.3l3,4.1c1.1,1.5,0.8,3.5-0.7,4.6v0c-1.4,1.1-3.5,0.8-4.6-0.6l-3-3.7"/>
</svg>
