<?xml version="1.0" encoding="utf-8"?>
<!-- Generator: Adobe Illustrator 28.1.0, SVG Export Plug-In . SVG Version: 6.00 Build 0)  -->
<svg version="1.1" id="Layer_1" xmlns="http://www.w3.org/2000/svg" xmlns:xlink="http://www.w3.org/1999/xlink" x="0px" y="0px"
	 viewBox="0 0 360 360" style="enable-background:new 0 0 360 360;" xml:space="preserve">
<style type="text/css">
	.st0{fill:none;stroke:#BFBFBF;stroke-width:3;stroke-linecap:round;stroke-miterlimit:10;}
	.st1{fill:none;stroke:#FFFFFF;stroke-width:0.993;stroke-miterlimit:10;}
	.st2{fill:#FFFFFF;}
</style>
<path class="st0" d="M147.1,90.3l9.5-12.8c1-1.3,2.5-2.2,4.1-2.5l2.3-0.3c0.7-0.1,1.2-0.6,1.5-1.2l5.9-15.6c0,0,1.9-3.8,5.4-2.1
	s6.4,3.5,6.5,8.6c0,0,4.7,2.1,4.1,8c-0.6,5.9-4.7,16.5-4.7,16.5s8.2,3.1,10.6,10.5c2.4,7.4,11.7,9.9,16.1,16
	c4.3,6.1,13.3,18.6,7.3,35.6"/>
<path class="st0" d="M139.5,86.6l-5.1-10.4c0-0.1,0-0.1,0.1-0.1c1.4,0,12.5,0.3,16.5,8.6"/>
<path class="st0" d="M216.3,127.7c0,0,3-2.3,10.3-7.4s12.1-5.9,17.7-6.5c5.7-0.7,14.5-2.4,18.3-1.3s5.9,2.5,5.9,5.2
	c0,2.7,0.4,5.1-4,4.8c-3.2-0.2-11.6,0.3-16.1,0.7c-2,0.1-3.8,1-5.2,2.4c-4.2,4.2-13.2,13.6-14,17.9c-1.1,5.7-13,6.1-13,6.1"/>
<path class="st0" d="M197.7,136.6c0,0,17.2,13.5,23.2,19.1c4.5,4.1,18.3,9.8,25,12.3c2.2,0.8,4.7,0.2,6.2-1.7l3.3-4.2
	c1-1.3,2.9-1.7,4.4-0.9h0c2.3,1.3,3.5,4,2.9,6.5l-1.1,4.3c-0.8,3.2-3.3,5.6-6.5,6.4l-4.1,1c-2.9,0.7-6,0.6-8.8-0.2
	c-7.2-2.1-21.3-6.1-25.2-6.3c-5.3-0.2-24.7-6.2-32.3-16.7"/>
<path class="st0" d="M210.1,172.2c0,0-22.4,17.6-29,44.3"/>
<path class="st0" d="M173.3,210.2c0,0,18.3,11.4,22.9,26.3c4.7,14.9,2.8,15.9,10.4,20.3c6.5,3.8,12,4.8,13.5,5
	c0.3,0,0.5-0.1,0.7-0.3c0.9-1.1,3.9-4.7,6.6-4.1c3.2,0.7,5.1,2.7,4.4,7.1s-1.6,11.5-10.4,10.2c-8.9-1.3-26.9-8.9-26.9-8.9l-9-16.6
	c0,0-22.9,1.1-39.7-15.5c0,0-0.7,16.3-21.7,18.3s-27.9-18.8-24.2-28.2c0,0,2.9-6.1,3-8.9c0-0.3,0.3-0.4,0.5-0.2
	c1.9,1.6,7.9,7.4,9.3,17.1c1.7,11.5,18.5,6.6,21.2-2.9c2.7-9.5-2.2-33.7,6.9-49.7c9.1-16,17.7-17.5,17.7-45c0,0-8-12.2-7.8-24.4
	l-9.1-3.9c-2-0.9-3.7-2.4-4.7-4.4l-7.5-14.5c-0.1-0.2,0-0.4,0.2-0.4c2.7-0.3,19-1.7,21.6,11"/>
<path class="st0" d="M191.2,194.3c0,0,8.2-0.4,15.4,3.9c7.2,4.3,8.4,4,17.2,3.2c5.6-0.5,9.1-1.8,10.9-2.6c0.9-0.4,1.7-1.2,2.1-2.1
	l1.9-4.2c0.9-2,2.8-3.6,5-3.8c1.1-0.1,2.3,0.1,3.5,0.8c0.6,0.4,1,1.1,1,1.9c0,3.1-0.5,12.1-4.3,14.4c-4.7,2.8-8,0.8-16.4,5
	s-7.2,6.1-15.2,4s-17.8-3.4-28.2,4"/>
<g>
	<polygon class="st1" points="150.5,102.6 171.1,69.2 167.6,115.2 	"/>
	<polygon class="st1" points="191.9,112.1 241.5,124.8 210.1,135.2 173,180.5 163.9,224.2 143.3,201.2 	"/>
	<line class="st1" x1="112.9" y1="229.4" x2="143.3" y2="201.2"/>
	<line class="st1" x1="167.6" y1="115.2" x2="191.9" y2="112.1"/>
</g>
<g>
	<g>
		<circle class="st2" cx="210.1" cy="135.2" r="1.6"/>
	</g>
	<g>
		<circle class="st2" cx="167.5" cy="115.2" r="1.6"/>
	</g>
	<g>
		<circle class="st2" cx="150.5" cy="102.6" r="1.6"/>
	</g>
	<g>
		<circle class="st2" cx="171.1" cy="69.2" r="1.6"/>
	</g>
	<g>
		<circle class="st2" cx="143.3" cy="201.2" r="2.4"/>
	</g>
	<g>
		<circle class="st2" cx="163.9" cy="224.2" r="3.3"/>
	</g>
	<g>
		<circle class="st2" cx="112.9" cy="229.4" r="2.4"/>
	</g>
	<g>
		<circle class="st2" cx="173" cy="180.5" r="1.6"/>
	</g>
	<g>
		<circle class="st2" cx="241.5" cy="124.8" r="3.8"/>
	</g>
	<g>
		<circle class="st2" cx="191.9" cy="112.1" r="6.7"/>
	</g>
</g>
</svg>
