<?xml version="1.0" encoding="utf-8"?>
<!-- Generator: Adobe Illustrator 28.1.0, SVG Export Plug-In . SVG Version: 6.00 Build 0)  -->
<svg version="1.1" id="Layer_1" xmlns="http://www.w3.org/2000/svg" xmlns:xlink="http://www.w3.org/1999/xlink" x="0px" y="0px"
	 viewBox="0 0 360 360" style="enable-background:new 0 0 360 360;" xml:space="preserve">
<style type="text/css">
	.st0{fill:none;stroke:#BFBFBF;stroke-width:3;stroke-linecap:round;stroke-miterlimit:10;}
	.st1{fill:none;stroke:#FFFFFF;stroke-width:0.993;stroke-miterlimit:10;}
	.st2{fill:#FFFFFF;}
</style>
<path class="st0" d="M199.1,131.6l7-13c2.8-3.7,7.8-10.9,5.7-15l0,0c0.4-1.7,1.8-4.7,0-8.4c-1.8-3.7-5.2-1.5-5.2-1.5l-9.4,6.6
	c-0.8,0.6-1.8,0.8-2.8,0.7l-3.6-0.5c-1.5-0.2-3.1,0.3-4.2,1.3l-7.2,6.6c-0.1,0.1-0.2,0-0.2,0c-1.9-5-7.7-9.5-9.2-10.6
	c-0.2-0.1-0.4-0.1-0.5,0.1c-3.1,7,2.8,20.9,2.8,20.9c-2.2,7.5,3.1,18.8,3.1,18.8s-3.4,5.8-11.8,12.3c-8.3,6.5-9.5,20.2-16,23.5
	c-6.5,3.3-9.6,11.1-9.8,15c-0.2,3.8-5,5.6-5,5.6c-7.6,1.1-11-7.6-11-7.6c-3.8-16.8,10.1-21.9,13.3-22.8c0.1,0,0-0.1,0-0.1
	c-28.3,1.7-25.8,28.2-18.8,35.4c6,6.1,15.6,4,18.5,3.2c0.4-0.1,0.7,0.2,0.7,0.6c0.1,3.3,3.1,14.7,2.6,17c-0.6,2.6-5.3,1.7-8,9
	s1.4,13.9,4.1,17.9c2.7,4,6.8-0.2,6.8-0.2c4.7,5,8.9,1.2,8.9-0.8c0-1.7-3.9-5.8-5.4-7.3c-0.3-0.3-0.4-0.8-0.2-1.2l3.5-7.7
	c0.4-0.9,1.1-1.6,2-1.9c1.6-0.7,4.6-1.9,9.2-3.9c7.1-3.1,9.2-22.6,9.2-22.6s8.9-3,14.3-8.7c5-5.4,11.9-17.7,12.8-19.2
	c0-0.1,0.2-0.1,0.2,0l3.8,4.6c2.7,3.2,7.4,3.8,10.7,1.3l17.7-13.3l4.9,9.1c0.8,1.4,2.7,1.8,3.9,0.7h0c2.4-2,3-5.4,1.5-8.1l-4.7-8.4
	c-1.5-2.6-4.6-3.8-7.5-2.8l-16.2,5.8c0,0,0,0,0,0c0.1-0.6,1.2-6.2-0.3-10.6C207.7,146.6,199.1,131.6,199.1,131.6s-4.4,5-10.9-0.8"/>
<line class="st1" x1="157.7" y1="200.2" x2="197.2" y2="160"/>
<g>
	<circle class="st2" cx="197.2" cy="160" r="1.8"/>
</g>
<g>
	<circle class="st2" cx="157.7" cy="200.2" r="6.1"/>
</g>
<path class="st0" d="M184.3,103.9l-5.2-6.8c-0.1-0.1-0.3-0.1-0.4,0l-2.4,5.9"/>
<path class="st0" d="M204.7,180.3c0,0,8,12.7,11.6,16.2c3.6,3.5,7,4.6,7,4.6s8.6-1.8,8.8,3.2c0.2,5-6.5,4.4-10.1,3.2
	c-3.7-1.2-6.6-4.9-10.2-7.2c-3.7-2.2-20.7-19.9-20.7-19.9"/>
</svg>
