<?xml version="1.0" encoding="utf-8"?>
<!-- Generator: Adobe Illustrator 28.1.0, SVG Export Plug-In . SVG Version: 6.00 Build 0)  -->
<svg version="1.1" id="Layer_1" xmlns="http://www.w3.org/2000/svg" xmlns:xlink="http://www.w3.org/1999/xlink" x="0px" y="0px"
	 viewBox="0 0 360 360" style="enable-background:new 0 0 360 360;" xml:space="preserve">
<style type="text/css">
	.st0{fill:none;stroke:#BFBFBF;stroke-width:3;stroke-linecap:round;stroke-miterlimit:10;}
	.st1{fill:none;stroke:#FFFFFF;stroke-width:0.993;stroke-miterlimit:10;}
	.st2{fill:#FFFFFF;}
</style>
<path class="st0" d="M154.4,204.5c1.6,4.9,6,11.7,6,11.7c-6.7,3.1-8.4,14.9-8.4,14.9c-5.8,0.9-14.4,12.6-14.4,12.6
	c-1.1-11.5-8-14-16-19.7c-8-5.8-11.7-19.3-11.7-19.3c-4,4.2-3.5,17.5-3.5,17.5c-3.3-8.4-6.9-23.7-6.9-23.7
	c-9.1,12.2-6.4,52.8,12.9,62.1s33.5,0.2,33.5,0.2c12-0.7,13.5-11.5,18.2-15.7s8-24.2,8-24.2l9.5,0.2c-4.2,2.9-10.2,32.8-12.6,32.4
	c-2.4-0.4-7.8,8.2-10.4,13.5c-2.1,4.1-12.4,9-16.8,10.9c-0.4,0.2-0.2,0.7,0.2,0.7c24.2-2,31.8-14.9,37-22
	c5.3-7.3,10.4-34.1,10.4-34.1h6.2c0,0,0,0-0.2,4.9c-0.2,4.9-9.3,30.6-10.4,34.6c-1.1,4,2.9,9.8,5.5,12.9c2.7,3.1,3.5,7.3,12.4,14.4
	c8.9,7.1,19.5,7.1,23.5,2c3.2-4.1,12.4-2.9,16-2.3c0.5,0.1,0.9-0.5,0.6-1c-13.5-17.7-31.7-4.6-32.8-9.2
	c-1.1-4.7-13.7-15.5-13.7-15.5s-2.2-0.9,1.8-6s5.1-23.3,7.1-25.5c2-2.2,0.9-10.2,0.9-10.2l11.7-10.2c0,0-0.2,15.1,0.4,18.8
	s1.3,15.3-1.3,23.9c-2.7,8.6,9.3,11.5,9.3,11.5c5.3,9.3,18.6,8.4,23.3,6.2c3.5-1.7,10.6-8.9,13.7-12.3c0.5-0.6,0.1-1.5-0.7-1.4
	c-4,0.6-12.3,1.9-16.5,3c-5.8,1.6-18,0.7-17.3-3.3c0.7-4-0.7-4.7-2-8.4s-2.4-22.4-0.7-26.6c1.8-4.2,0.7-19.3,2.4-22.6
	c1.8-3.3,10.4-4,10.4-4s-1.1,19.1-2.4,23.3c-1.3,4.2-5.1,11.7,2,18.6s12.6,0.2,18.6-5.1c3.8-3.4,5.4-8.1,6.1-11.1
	c0.2-0.8-0.7-1.4-1.3-0.9c-4.6,3.4-15.5,5.7-15.5,5.7s-1.8-4.9-1.6-12.6s0.4-7.8,6.7-17.7c6.2-10-2.2-32.4-2.2-32.4
	c4.2-10-1.1-29.7-1.1-29.7c2.9,0.4,11.4,7.3,14.4,9.9c0.3,0.3,0.9,0,0.7-0.5c-4.7-17.4-17.1-22.1-24-21.4
	c-7.1,0.7-2.2,12.9-1.6,17.7c0.7,4.9,0.7,24.4,0.7,24.4l-11.3-11.5c0,0,2.2-12,3.3-20s-2.2-21.1-2.2-21.1s8.6-0.9,14-4.4
	c5.3-3.5,11.3,0.2,21.3-1.3c10-1.6,4-8-10.6-12.4c-14.6-4.4-26.8,11.7-26.8,11.7s-3.3,0.9-5.3,5.8c-2,4.9,1.3,19.3,2,23.3
	s-1.6,13.3-1.6,13.3l-6.7-8.9c0,0-1.3-10,0-15.7c1.3-5.8-3.3-21.5-3.3-21.5s1.8-6.4,4.9-5.1c3.1,1.3,13.7-1.6,18.2-8
	c3.7-5.3,15-6.1,18.9-6.2c0.6,0,0.9-0.7,0.5-1.1c-7.7-10.3-26.5-1.8-26.5-1.8c-10.2-0.9-23.1,8.9-24.2,14.4
	c-1.1,5.5,4.4,33.5,4.4,33.5l-0.9,7.3l-8.6-2c0,0-1.3-4.4,0.2-7.8c1.6-3.3,0.7-21.1-0.7-34.8c-1-10.8-14.2-16.5-19.9-18.5
	c-0.5-0.2-0.8,0.4-0.5,0.8c6.9,6.5,11,23.7,10.3,27.7c-0.7,4.4,2.2,13.5,1.6,21.1c-0.7,7.5,1.6,11.7,1.6,11.7l-10.6,2.9l-0.9-17.5
	c2.9-10.9-4-21.1-4-21.1c0.9-16.2-4.2-24.4-16.2-27.5c-12-3.1-24.8,6-24.8,6c-37.9,11.7-21.3,53.4-21.3,53.4c0.4-11.5,6-20.6,6-20.6
	c-0.9,3.8,3.3,11.1,3.3,11.1c10.4-37.5,36.6-16.4,36.6-16.4l-3.1,9.3l9.1,11.5c-0.7,8.6,1.6,19.5,1.6,19.5s-7.5,8.2-8.6,12.4"/>
<path class="st0" d="M153.8,166.4c0,0-2.9,19.5-1.3,28.2"/>
<ellipse class="st0" cx="156.3" cy="161.5" rx="6.5" ry="3.5"/>
<ellipse class="st0" cx="153.6" cy="199.5" rx="6.5" ry="3.5"/>
<g>
	<polyline class="st1" points="170.6,81.4 178.4,158.9 174.5,195 137.7,261.6 	"/>
	<line class="st1" x1="249.9" y1="288.6" x2="174.5" y2="195"/>
	<g>
		<circle class="st2" cx="170.6" cy="81.4" r="1.9"/>
	</g>
	<g>
		<circle class="st2" cx="174.5" cy="195" r="1.9"/>
	</g>
	<g>
		<circle class="st2" cx="249.9" cy="288.6" r="1.9"/>
	</g>
	<g>
		<circle class="st2" cx="178.4" cy="158.9" r="1.9"/>
	</g>
	<g>
		<circle class="st2" cx="137.7" cy="261" r="1.9"/>
	</g>
</g>
</svg>
