<?xml version="1.0" encoding="utf-8"?>
<!-- Generator: Adobe Illustrator 28.1.0, SVG Export Plug-In . SVG Version: 6.00 Build 0)  -->
<svg version="1.1" id="Layer_1" xmlns="http://www.w3.org/2000/svg" xmlns:xlink="http://www.w3.org/1999/xlink" x="0px" y="0px"
	 viewBox="0 0 360 360" style="enable-background:new 0 0 360 360;" xml:space="preserve">
<style type="text/css">
	.st0{fill:none;stroke:#BFBFBF;stroke-width:3;stroke-linecap:round;stroke-linejoin:round;stroke-miterlimit:10;}
	.st1{fill:none;stroke:#FFFFFF;stroke-width:0.75;stroke-linejoin:round;stroke-miterlimit:10;}
	.st2{fill:#FFFFFF;}
</style>
<path class="st0" d="M175.7,144.5c0.2,0.2,0,0.6-0.3,0.4c-10.1-5.8-58.1-33.6-67.5-44c-10.5-11.6-10.5-11.7-13-11.4
	c-2.4,0.3-1.6,12.7,13.1,20c0,0-8.6-2.9-9.1,1.1c-0.4,4,10.1,9.6,16.2,10.3c0,0-10.5-0.1-10.3,3.8c0.2,3.9,18,10.8,18,10.8
	s-10.5-1.6-12.2,2.7s20.2,10.1,20.2,10.1s-9.1,3.1-8.9,7.9s21.4,2.7,21.4,2.7s-5.2,12.4-0.8,18c4.4,5.5,8,0.1,14.9,6
	s11.9,3.8,14.6,11.1c0,0,0.7,3.1,4.9,5.3c0,0-6,20.4-24.5,36.1s-30.8,25.6-30.8,25.6l14.3,1c0,0-11.1,5.3-9.6,9.6
	c1.4,4.3,22.2-1.2,27.5-5.4c0,0-8.5,6.9-5.2,13c3.3,6.1,23.3-16.4,23.3-16.4s-7.5,9.5-3,13.9s17.8-18.5,17.8-18.5s-3,10.1,3.9,12.6
	c6.9,2.5,9.9-19.6,9.9-19.6s1.6,8.2,5.9,10c4.3,1.8,2.1-19,2.1-19s6.4,9.2,9.2,7.6c2.8-1.6-5.4-28-5.4-28s17.7-7.3,22.4-20.8
	c4.7-13.5,10.9-42.9,29.3-33c0,0-1.3-6.3-6.1-7.2c0,0-1.4-16.8-20.5-10.2c0,0-0.3-7.9,4.1-11.5c4.4-3.7,7.4-8.1,2.3-14.5
	c-5.1-6.4-13.6-19.7-18.5-27.9s-15.2-18.3-20.2-17.6c-5,0.7,10.5,21.2,10.5,21.2s-22.5-8.9-29.6-7.6c-7.1,1.2,8.8,11.3,8.8,11.3
	s-11.4-5.7-14.3-2.8c-2.9,2.9,11.3,11.3,11.3,11.3s-14.7-5.2-18.1-1.1s12.7,13.3,12.7,13.3s-10.2-5.8-14.7-3.9s8.4,13,8.4,13
	s-6.9-5.3-11.5-2.3C164.8,133.3,172.3,141.2,175.7,144.5z"/>
<polyline class="st1" points="246.6,165.2 229.5,150 205.3,167 189,240.1 "/>
<line class="st1" x1="138.3" y1="145" x2="205.3" y2="167"/>
<g>
	<circle class="st2" cx="229.5" cy="150" r="2.8"/>
</g>
<g>
	<circle class="st2" cx="205.3" cy="167" r="1.5"/>
</g>
<g>
	<circle class="st2" cx="189" cy="240.1" r="1.5"/>
</g>
<g>
	<circle class="st2" cx="246.6" cy="165.2" r="0.9"/>
</g>
<g>
	<circle class="st2" cx="138.3" cy="145" r="0.9"/>
</g>
</svg>
