<?xml version="1.0" encoding="utf-8"?>
<!-- Generator: Adobe Illustrator 28.1.0, SVG Export Plug-In . SVG Version: 6.00 Build 0)  -->
<svg version="1.1" id="Layer_1" xmlns="http://www.w3.org/2000/svg" xmlns:xlink="http://www.w3.org/1999/xlink" x="0px" y="0px"
	 viewBox="0 0 360 360" style="enable-background:new 0 0 360 360;" xml:space="preserve">
<style type="text/css">
	.st0{fill:none;stroke:#BFBFBF;stroke-width:3;stroke-linecap:round;stroke-linejoin:round;stroke-miterlimit:10;}
	.st1{fill:none;stroke:#FFFFFF;stroke-width:0.75;stroke-linejoin:round;stroke-miterlimit:10;}
	.st2{fill:#FFFFFF;}
</style>
<path class="st0" d="M223.4,117.6c0,0-10.5-3.8-26.3-2.7c-15.7,1.1-39.9,6.4-48.2-5.1c0,0,0.1,9.6,5.4,11.6c0,0-42.8-3.9-49.8,12.5
	s-2.2,47.2-2.2,47.2s4.9,23.3-9.9,23.3c0,0-5.7-0.2-5.3-4.5c0,0-5.3,11.6,7,16.2c12.3,4.5,15.2-11.9,15.2-11.9s8.3,10.8,0.3,27.6
	s-18.2,4.5-18.2,4.5s2.9,7.3,7.3,9.9c0,0-10.2,1.8-14.4,9.3c0,0,8.4-6.3,17.2-2.4s34.5,10.2,42.9-14.3c0,0,16.7-15.3,11.3-33.9
	c-5.4-18.6-12.6-20.3-12.6-20.3s-2.7-27.3,20.7-28.5s27.4,7,42.9,4.9c0,0-13.2,4.5-12.1,15.1c0,0,5.5-9.1,12.5-10.7
	c6.9-1.6,28.3-11.4,29.4-26"/>
<path class="st0" d="M144.5,238.9c0,0,6.1-23.3-9.4-41.5s-10.5-42.9-10.5-42.9"/>
<path class="st0" d="M235.3,130c0,0-10.1,17.2-35.6,9.5c-25.4-7.7-32.1-16.2-59.9-13.2c-27.8,3-30.4,38.1-20.8,57.1"/>
<polyline class="st1" points="106.4,229.3 106.5,126.1 205.1,123.1 "/>
<g>
	<circle class="st2" cx="106.4" cy="229.3" r="2"/>
</g>
<g>
	<circle class="st2" cx="106.5" cy="126.1" r="2"/>
</g>
<g>
	<circle class="st2" cx="205.1" cy="123.1" r="2"/>
</g>
<path class="st0" d="M223.4,117.6c0,0,13-1,13.2,21.8l10.5-8.4c0,0,3-13.7-14.2-18L223.4,117.6z"/>
<path class="st0" d="M232.9,113.1c0,0,7.8-1.4,3.2-11.4s-1.6-14.9,6.2-18.1s0.8-10.5,0.8-10.5s6.5,2,6.5,10.8c0,0,8.8-6.1,22.3-1.9
	c13.5,4.2,15.6-7.4,15.6-7.4s5.2,10.5-15.7,13.9c0,0,13.3,5.5,6.8,21s-18,5.2-19.5,25.7c0,0-6.3-6-4.3-15.5c0,0-2.8,9.8-7.6,11.5"/>
<path class="st0" d="M244.5,133.1c0,0,0.5,8.9,11.9,8.9c11.4,0,25.2-9.6,37-8.1v5.1c0,0-7.5-1.1-24.5,5.8s-23.2,2.9-27.4-9.3
	c0,0-0.4,15.3,8.3,16.7c8.8,1.4,27.5-11.2,34,0c6.5,11.2-10.2,22.9-22.7,17.6c-12.5-5.3-15.9-12.1-15.9-12.1s6.8,16.9-7,22.2
	s-16.9-13.7-7.4-28.7"/>
<path class="st0" d="M250.3,157c0,0,11.2-1.2,16.6-3.4c5.4-2.2,11.2-1.2,11.9,4.9C279.5,164.6,264.3,172.6,250.3,157z"/>
<path class="st0" d="M238.7,147.9c0,0-14.1,20-5.8,23.8C241.2,175.6,242.6,163.1,238.7,147.9z"/>
<path class="st0" d="M234.6,127c0,0-22.9,12.6-50.7,1.1"/>
</svg>
