<?xml version="1.0" encoding="utf-8"?>
<!-- Generator: Adobe Illustrator 28.1.0, SVG Export Plug-In . SVG Version: 6.00 Build 0)  -->
<svg version="1.1" id="Layer_1" xmlns="http://www.w3.org/2000/svg" xmlns:xlink="http://www.w3.org/1999/xlink" x="0px" y="0px"
	 viewBox="0 0 360 360" style="enable-background:new 0 0 360 360;" xml:space="preserve">
<style type="text/css">
	.st0{fill:none;stroke:#BFBFBF;stroke-width:3;stroke-linecap:round;stroke-linejoin:round;stroke-miterlimit:10;}
	.st1{fill:none;stroke:#FFFFFF;stroke-width:0.75;stroke-linejoin:round;stroke-miterlimit:10;}
	.st2{fill:#FFFFFF;}
</style>
<path class="st0" d="M170.7,215.1c0,0,14-6.5,26.4,7.6C197.1,222.7,185,231.9,170.7,215.1z"/>
<path class="st0" d="M149.6,198.9c0,0,10.8-2.7,16.5,2.5s13,8.5,13,8.5S163,214.7,149.6,198.9z"/>
<path class="st0" d="M159.4,212.1c0,0,12.8,6.7,19.1,17C178.5,229,154.9,230.2,159.4,212.1z"/>
<path class="st0" d="M139.1,193c0,0,20.5,12.6,15.1,30.8c0,0-1.7-4.2-7-8.1C141.9,211.6,138.7,206.1,139.1,193z"/>
<path class="st0" d="M128.8,169.8c0,0-6.3,18.5,2.2,27.4C131,197.2,135.9,180.8,128.8,169.8z"/>
<path class="st0" d="M134.8,178.4c0,0,13.6,2.5,17.3,12.5C152.1,190.9,136.8,188.9,134.8,178.4z"/>
<path class="st0" d="M131.1,153.5c0,0,7.2,7.5,9.4,15.9C140.5,169.3,130.7,167.8,131.1,153.5z"/>
<path class="st0" d="M128.7,150.4c0,0-10.3,13.9-9.9,21.5C118.8,171.9,134.8,156.9,128.7,150.4z"/>
<path class="st0" d="M133.2,137.3c0,0-4.3,14,5.3,19C138.5,156.4,140.2,148.7,133.2,137.3z"/>
<path class="st0" d="M132,135.8c0,0-12.3,5.9-12.5,15.1C119.5,151,130.7,148.1,132,135.8z"/>
<path class="st0" d="M138.3,128.4c0,0,6.4,8.3,5.9,13.6C144.2,142.1,137,141,138.3,128.4z"/>
<path class="st0" d="M141.3,128.3c0,0,2,7.1,11.1,6.2C152.5,134.5,148.7,127.2,141.3,128.3z"/>
<path class="st0" d="M146.4,123.5c-0.3,0-1-5.2,5.1-6C151.5,117.5,151.7,124,146.4,123.5z"/>
<path class="st0" d="M155.7,125.5c0,0,4.2,12.5,20.7,14C176.4,139.6,166.6,124.6,155.7,125.5z"/>
<path class="st0" d="M153.6,121.9c0,0,0.6-12.5,17.6-13.6C171.3,108.2,168.6,123.5,153.6,121.9z"/>
<path class="st0" d="M167.3,121.9c0,0,4.2-10.7,21.2-9C188.5,112.9,177.2,130.1,167.3,121.9z"/>
<path class="st0" d="M173.3,126.9c0,0-0.2,13.3,12.8,17.5C186.1,144.3,190,136.3,173.3,126.9z"/>
<path class="st0" d="M184.5,125.3c0,0,2.4,14.3,13.1,22.1C197.5,147.4,196.4,128.9,184.5,125.3z"/>
<path class="st0" d="M191,124.9c0,0,2.3-14.6,26-5.1C217.1,119.9,210,129.1,191,124.9z"/>
<path class="st0" d="M193.5,127.7c0,0,15.8,2.1,24.6,24.6C218.1,152.3,197.6,144.1,193.5,127.7z"/>
<path class="st0" d="M206.2,129.1c0,0,7.8-8,25-5.2C231.2,124,225,138.7,206.2,129.1z"/>
<path class="st0" d="M217.1,135.7c0,0,15.4-7.9,31.9,5.1C249.1,140.7,226.6,147,217.1,135.7z"/>
<path class="st0" d="M221,141c0,0-3,15.5,8.9,25.9C229.9,166.8,237.6,150,221,141z"/>
<path class="st0" d="M230.9,143.3c0,0-0.4,18.9,11.9,29.4C242.8,172.8,248.4,149.9,230.9,143.3z"/>
<path class="st0" d="M242.2,149.8c0,0,18.3-4.1,29,10.6C271.2,160.4,251.5,163.5,242.2,149.8z"/>
<path class="st0" d="M245.6,157.5c0,0,10.7,8.1,11.6,27.5C257.1,185.1,239.1,174,245.6,157.5z"/>
<path class="st0" d="M250.6,159.7c0,0,19.3,8.6,22.6,18C273.2,177.7,254.9,177.1,250.6,159.7z"/>
<path class="st0" d="M170.7,215.1c0,0-12.2-4.7-26.5-20s-13.7-24.3-14.1-37.2c-0.3-13,2.5-24,8.9-31.1c0,0,2.8-5.2,28.7-3.2
	s31.8,3.2,41.7,8.4s21.3,13,21.3,13"/>
<polyline class="st1" points="253.8,212.6 138,185 130.7,165.4 130.2,140.4 139,124.8 "/>
<g>
	<circle class="st2" cx="139" cy="124.8" r="1.9"/>
</g>
<g>
	<circle class="st2" cx="130.2" cy="140.4" r="1.9"/>
</g>
<g>
	<circle class="st2" cx="130.7" cy="165.4" r="1.9"/>
</g>
<g>
	<circle class="st2" cx="138" cy="185" r="1.9"/>
</g>
<g>
	<circle class="st2" cx="253.8" cy="212.6" r="1.9"/>
</g>
</svg>
