<?xml version="1.0" encoding="utf-8"?>
<!-- Generator: Adobe Illustrator 28.1.0, SVG Export Plug-In . SVG Version: 6.00 Build 0)  -->
<svg version="1.1" id="Layer_1" xmlns="http://www.w3.org/2000/svg" xmlns:xlink="http://www.w3.org/1999/xlink" x="0px" y="0px"
	 viewBox="0 0 360 360" style="enable-background:new 0 0 360 360;" xml:space="preserve">
<style type="text/css">
	.st0{fill:none;stroke:#BFBFBF;stroke-width:3;stroke-linecap:round;stroke-linejoin:round;stroke-miterlimit:10;}
	.st1{fill:none;stroke:#FFFFFF;stroke-width:0.75;stroke-linejoin:round;stroke-miterlimit:10;}
	.st2{fill:#FFFFFF;}
</style>
<path class="st0" d="M143.9,99.9l-11.2,32.8l-12.5-28.2l-3.5,41.1l-13.4-26l2.2,42l-9.7-21.3l6.2,25.5l-3.3,0.9l0.2,20.9l5.5,8.1
	l0.9,13c0,0,9,30.4,47.3,43.3c38.3,13,71.7-12.8,71.9-13.4c0.2-0.7,13.2-5.7,13.2-5.7l4.8-7.5l28.2-26l-3.3-3.5l-6.4,3.5l16.9-22.9
	l-29.5,12.5l20.9-37.2l-26.8,17.8l10.3-36.5l-27.5,21.3l4.4-37l-25.5,24.6l-1.8-37.8l-22.2,28.6l-6.8-34.8l-18,30.8L143.9,99.9z"/>
<polyline class="st0" points="101.9,165.9 116.4,206 125.7,192.1 139.3,227.1 167.7,211.5 177.8,242 209.9,219.6 211.9,237.6 
	246,213.7 242.5,225.5 "/>
<path class="st0" d="M112.2,193.6c0,0,11.2-42.7,68.2-25.1s43.8,59.6,43.8,59.6"/>
<polyline class="st1" points="239.8,175.9 234.8,220.2 189.1,240.9 158,229 133.7,216.2 116.2,186.1 135.7,134.7 "/>
<g>
	<circle class="st2" cx="135.7" cy="134.7" r="1.9"/>
</g>
<g>
	<circle class="st2" cx="239.8" cy="175.9" r="3.1"/>
</g>
<g>
	<circle class="st2" cx="234.8" cy="220.2" r="3.2"/>
</g>
<g>
	<circle class="st2" cx="133.7" cy="216.2" r="1.9"/>
</g>
<g>
	<circle class="st2" cx="158" cy="229" r="3.1"/>
</g>
<g>
	<circle class="st2" cx="189.1" cy="240.9" r="5"/>
</g>
<g>
	<circle class="st2" cx="116.2" cy="186.1" r="1.9"/>
</g>
</svg>
