<?xml version="1.0" encoding="utf-8"?>
<!-- Generator: Adobe Illustrator 28.1.0, SVG Export Plug-In . SVG Version: 6.00 Build 0)  -->
<svg version="1.1" id="Layer_1" xmlns="http://www.w3.org/2000/svg" xmlns:xlink="http://www.w3.org/1999/xlink" x="0px" y="0px"
	 viewBox="0 0 360 360" style="enable-background:new 0 0 360 360;" xml:space="preserve">
<style type="text/css">
	.st0{fill:none;stroke:#BFBFBF;stroke-width:3;stroke-linejoin:round;stroke-miterlimit:10;}
	.st1{fill:none;stroke:#BFBFBF;stroke-width:3;stroke-linecap:round;stroke-linejoin:round;stroke-miterlimit:10;}
	.st2{fill:none;stroke:#BFBFBF;stroke-width:2.5229;stroke-linecap:round;stroke-linejoin:round;stroke-miterlimit:10;}
	.st3{fill:none;stroke:#FFFFFF;stroke-width:0.75;stroke-linejoin:round;stroke-miterlimit:10;}
	.st4{fill:#FFFFFF;}
</style>
<path class="st0" d="M147.2,82.1c0,0,0-10.7,14.9-9.4c14.9,1.3,16.2,22.9,16.2,22.9"/>
<path class="st1" d="M169.8,91.4c0,0-1.8-10.1-8.4-10.9c-6.6-0.8-7.8,4-7.8,4"/>
<g>
	<path class="st1" d="M83.4,221.9c-5.8,0-12.8-3.6-17.1-9c-3.3-4.1-7.9-12.9-1.9-25.2c8.7-17.8,30-13.5,40-8.7c3,1.4,4.3,5,2.8,8
		c-1.4,3-5,4.3-8,2.8l0,0c-0.7-0.4-18.4-8.4-24.1,3.2c-2.2,4.6-2.2,8.6,0.1,11.9c2.6,3.7,6.9,5.2,8.2,5.1c0.8-0.2,2.9-1.7,4.7-2.8
		c6.1-4.2,15.3-10.4,28.7-8.3c3.3,0.3,10.6,1.4,13.9,5.8c2,2.6,1.5,6.4-1.1,8.4c-2.5,1.9-6.1,1.5-8.2-0.8c-0.9-0.5-3.7-1.2-5.9-1.4
		c-0.1,0-0.3,0-0.4-0.1c-8.8-1.4-14.9,2.7-20.3,6.4c-3.1,2.1-5.7,3.9-8.7,4.6C85.3,221.8,84.4,221.9,83.4,221.9z M121.6,212.2
		L121.6,212.2L121.6,212.2z M121.3,211.9C121.3,211.9,121.3,211.9,121.3,211.9C121.3,211.9,121.3,211.9,121.3,211.9z"/>
</g>
<path class="st1" d="M63.6,210.2c-0.8-0.3-1.5-0.7-2.1-1c-2.5-1.1-4.4-3.3-5.2-6c-3.3-11.6-9.5-45.8,15.5-89.3
	c31-53.9,56.8-55.9,56.8-55.9s5-1.3,6.4,4.5s4.2,15.8,4.2,15.8l34,14.8c0,0,36.7,13,28.2,55c0,0,4.2,3.2,15.8,0.7
	c11.7-2.5,18.9,4,18.9,4s7,4.7,15.5-0.1c8.5-4.8,17.5,1.2,19,8.9c1.5,7.7-3.4,36.3-15.3,63s-34.1,46.8-34.1,46.8s-5.7,5.3-14.6,1
	c-8.9-4.3-1.3-11.4-14.6-13.6c-13.3-2.2-17.4-26.7-17.9-29.4c-0.6-2.6-1.9-10.2-1.9-10.2s-16.9,11.5-45.3,9.8
	c-11.5-0.7-25.1-4.3-37.1-8.5"/>
<path class="st2" d="M250,221.9c-14.2,29.7-32.2,49.1-36.6,46.9c-4.4-2.1,3.5-27.9,17.7-57.6c14.2-29.7,29.3-52.1,33.8-49.9
	C269.2,163.4,264.2,192.2,250,221.9z"/>
<path class="st1" d="M201.3,148.2c0,0-28.2,34.4-29.2,71"/>
<g>
	<polyline class="st3" points="65.9,192.5 104,208.1 171.2,197.5 190.1,156.8 171.5,100.9 129.3,86.3 	"/>
	<line class="st3" x1="255.7" y1="207.8" x2="214.7" y2="270.9"/>
	<line class="st3" x1="171.2" y1="197.5" x2="214.7" y2="270.9"/>
	<line class="st3" x1="190.1" y1="156.8" x2="255.7" y2="207.8"/>
	<g>
		<circle class="st4" cx="214.7" cy="270.9" r="1.5"/>
	</g>
	<g>
		<circle class="st4" cx="104" cy="208.1" r="1.5"/>
	</g>
	<g>
		<circle class="st4" cx="171.5" cy="100.9" r="1.5"/>
	</g>
	<g>
		<circle class="st4" cx="65.9" cy="192.5" r="1.5"/>
	</g>
	<g>
		<circle class="st4" cx="255.7" cy="207.8" r="1.5"/>
	</g>
	<g>
		<circle class="st4" cx="171.2" cy="197.5" r="2"/>
	</g>
	<g>
		<circle class="st4" cx="190.1" cy="156.8" r="2"/>
	</g>
	<g>
		<circle class="st4" cx="129.3" cy="86.3" r="2"/>
	</g>
</g>
</svg>
