<?xml version="1.0" encoding="utf-8"?>
<!-- Generator: Adobe Illustrator 28.1.0, SVG Export Plug-In . SVG Version: 6.00 Build 0)  -->
<svg version="1.1" id="Layer_1" xmlns="http://www.w3.org/2000/svg" xmlns:xlink="http://www.w3.org/1999/xlink" x="0px" y="0px"
	 viewBox="0 0 360 360" style="enable-background:new 0 0 360 360;" xml:space="preserve">
<style type="text/css">
	.st0{fill:none;stroke:#FFFFFF;stroke-width:0.75;stroke-linejoin:round;stroke-miterlimit:10;}
	.st1{fill:#FFFFFF;}
	.st2{fill:none;stroke:#BFBFBF;stroke-width:3;stroke-linecap:round;stroke-linejoin:round;stroke-miterlimit:10;}
</style>
<line class="st0" x1="180.8" y1="60.1" x2="202.2" y2="247.3"/>
<line class="st0" x1="118.7" y1="143.7" x2="246.5" y2="111.2"/>
<g>
	<circle class="st1" cx="118.7" cy="143.7" r="3.5"/>
</g>
<g>
	<circle class="st1" cx="180.8" cy="60.1" r="3.5"/>
</g>
<g>
	<circle class="st1" cx="246.5" cy="111.2" r="2.9"/>
</g>
<g>
	<circle class="st1" cx="202.2" cy="247.3" r="6.8"/>
</g>
<path class="st2" d="M220.9,107.6c0,0-0.6-1.4-3.5-10.8c-3-9.4-19.4-5.8-19.4-5.8s-4.1-12.5,0.7-16.3c4.8-3.8,6.8-4.8,5.6-9.6
	s-8.1-3.8-9.9-6.4c-1.8-2.6-0.3-8.7-0.3-8.7s2.6-6.3-0.8-9.9s-5.1-1-8.7-0.8s-4.3,0-5.3-4.6c-1-4.6-6.6-5-6.6-5s-4.8-0.7-5,6.4
	s0.8,6.6-1.8,7.9c-2.6,1.3-9.9,0.2-10.6,7.3s5.6,7.1,7.4,10.4c1.8,3.3,1.5,7.3-2.6,9.9s4.1,5,6.9,8.7c2.8,3.8,2.1,14.2,2.1,14.2
	s-18.5,2.5-19.3,10.9c-0.8,8.4-0.2,17.4-0.2,17.4l-12.2,2.9c0,0-6.6,0.5-8.4-1.8c-1.8-2.3-5.9-5.1-10.2-2.1c-4.3,3-6.2,5.3-3.1,11.9
	c0,0-11.6,6.8-11.7,12.9c-0.2,6.1,14.2,8.7,14.2,8.7s-2.8,6.6,4.6,8.9c7.4,2.3,9.4-6.3,10.9-8.1c1.5-1.8,37.6-6.8,37.6-6.8
	l19.3,91.4c0,0,2.5,9.7-1.3,13.9c-3.8,4.1-4.3,8.9,1.3,11.9c5.6,3,8.4,5,9.2,7.8c0.8,2.8,3.6,7.3,11.4,5c7.8-2.3,0.7-9.2,5.1-14
	c4.5-4.8,9.2-8.6,6.3-15.7c-3-7.1-8.3-0.3-10.6-10.2c-2.3-9.9-9.7-97.4-9.7-97.4l44.1-13.9c0,0,5.6,8.3,14.5,4.6s3.1-11.7,3.1-11.7
	s12.9-9.6,9.9-17.8c-3-8.3-21.3-2.6-21.3-2.6s-3.6-8.6-8.7-7.6c-5.1,1-6.8,10.6-6.3,11.2C238.1,104.8,220.9,107.6,220.9,107.6z"/>
</svg>
