<?xml version="1.0" encoding="utf-8"?>
<!-- Generator: Adobe Illustrator 28.1.0, SVG Export Plug-In . SVG Version: 6.00 Build 0)  -->
<svg version="1.1" id="Layer_1" xmlns="http://www.w3.org/2000/svg" xmlns:xlink="http://www.w3.org/1999/xlink" x="0px" y="0px"
	 viewBox="0 0 360 360" style="enable-background:new 0 0 360 360;" xml:space="preserve">
<style type="text/css">
	.st0{fill:none;stroke:#BFBFBF;stroke-width:3;stroke-linecap:round;stroke-linejoin:round;stroke-miterlimit:10;}
	.st1{fill:none;stroke:#FFFFFF;stroke-width:0.75;stroke-linejoin:round;stroke-miterlimit:10;}
	.st2{fill:#FFFFFF;}
</style>
<path class="st0" d="M97.3,204c0,0-1.2-2.9,5.3-9.3c6.4-6.4,31.4-38.5,38.3-48.7c6.9-10.2,21-33.2,48.2-36c0,0,19.1-32,49-31.8
	c0,0,17.5-0.3,24.9,7.3c0,0,27.2-4.5,37,6.8l-29.7,8.7c0,0-4.8,1.5-4.3,10.1c0.5,8.6,0.3,20-4.3,25.9c-4.6,5.9-5.1,20.3-5,24.4
	s3.1,35-17.2,40.4c0,0-11.1,30.2-38.3,30.5l-1.2,4c0,0,14.1,16.3,20.4,17.8c6.3,1.5,17.8,0.2,24.9,9.4s3.6,9.6,1.5,8.1
	c-2.1-1.5-7.1-9.9-20.1-10.6c0,0,10.1,7.6,10.1,17.8c0,0-8.6-15.7-25.7-15c0,0,6.1,7.1,6.4,11.7c0,0-12.9-12.2-23.4-11.2
	c0,0,10.7,5.8,12.2,19c0,0-11.2-13.4-20.8-15.3c-9.6-2-24.6,4.8-24.6,4.8s5.1-13.5,16.3-11.6l-23.1-19c0,0-10.1-0.2-13.4-5.9
	c0,0-31.5,42.2-55.6,38.9c0,0-18.5,9.4-22.8,6.8c-4.3-2.6,6.8-10.6,6.8-10.6s-15,6.9-9.7-0.5s34.3-41.5,34.3-41.5s-9.9,1.7-1.7-8.2
	s12.9-11.4,12.9-11.4S83.5,217.1,97.3,204z"/>
<path class="st0" d="M167.3,239.1l20.3,19l13.7,1.8l8.6-3.3l-23.4-18.3c0,0-8.6-0.3-16-3.1L167.3,239.1z"/>
<polygon class="st1" points="204.6,113.3 150.2,176.7 211.1,204.4 231.6,146 "/>
<line class="st1" x1="201.3" y1="228.1" x2="211.1" y2="204.4"/>
<g>
	<circle class="st2" cx="201.3" cy="228.1" r="1.3"/>
</g>
<g>
	<circle class="st2" cx="231.6" cy="146" r="3.3"/>
</g>
<g>
	<circle class="st2" cx="204.6" cy="113.3" r="3.3"/>
</g>
<g>
	<circle class="st2" cx="150.2" cy="176.7" r="2.7"/>
</g>
<g>
	<circle class="st2" cx="211.1" cy="204.4" r="2.7"/>
</g>
</svg>
