<?xml version="1.0" encoding="utf-8"?>
<!-- Generator: Adobe Illustrator 28.1.0, SVG Export Plug-In . SVG Version: 6.00 Build 0)  -->
<svg version="1.1" id="Layer_1" xmlns="http://www.w3.org/2000/svg" xmlns:xlink="http://www.w3.org/1999/xlink" x="0px" y="0px"
	 viewBox="0 0 360 360" style="enable-background:new 0 0 360 360;" xml:space="preserve">
<style type="text/css">
	.st0{fill:none;stroke:#BFBFBF;stroke-width:3;stroke-linecap:round;stroke-miterlimit:10;}
	.st1{fill:none;stroke:#FFFFFF;stroke-width:0.993;stroke-miterlimit:10;}
	.st2{fill:#FFFFFF;}
</style>
<path class="st0" d="M167.3,132.7c0,0,7.7-8.4,12.7-11.3c0,0,8.3-13.1,13.9-14.2c5.5-1.1,7.5,4.2,7.1,8.2s-7.3,12.8-6.6,15.7
	c0,0,6.1-15.2,6.6-15.7s4.7,1.1,4.7,6.2s-4,12.9-4.9,20s-16.2,17.5-16.2,17.5"/>
<path class="st0" d="M189.2,155.6c0,0-0.6,11,1.1,20.1c1.8,9.1,5.5,16.2,0,22.2c0,0,2.1,6,13.2,1.1c11.1-4.9,20.7-9.3,30.4-7.1
	c9.8,2.2,16.8,2.4,16.6,7.8c-0.2,5.3-5,8-13.9,7.6c-8.9-0.5-18.2-3.4-18.2-3.4l-28.1,13.8c-3.1,1.5-6.9,1-9.5-1.3l-13.6-12.1"/>
<path class="st0" d="M177.4,213.3c0,0-4.5,11-16.9,15.9c-12.4,4.9-34.8,7.5-34.8,7.5"/>
<path class="st0" d="M125.6,225.8c0,0,1.6,20.4-5.8,28.2c-7.3,7.8-14.4,0.7-23.3,7.8c0,0,3.3,11.5,7.8,18c0,0,10.4,2,10.4,7
	c0,5-3.3,7.7-11.3,1.9s-6.7-13.3-14.6-19.5s-6.2-12.9,0-16c6.2-3.1,13.1-8.4,7.8-16.4s-7.7-12.5-0.9-23.4c0,0-25.3,5.5-29.3-15.1
	c-3.4-17.6,10.9-34.8,15.2-39.5c0.2-0.2,0.5,0,0.4,0.3c-3.5,7.2-16,37.5,16.5,47.5c0,0,8-9.5,20.8-14.9c12.9-5.3,33.9-17.3,37-27
	c0,0-4.2-14.2,4.4-22.6c0,0-4.5-8.3-1.3-16c0.1-0.2,0.4-0.2,0.5-0.1c1,1.3,4.6,5.6,7.2,6.9c3.1,1.6,7,9.1,4.2,12.4"/>
<path class="st0" d="M137.1,235l1.4,13.2c0,0,12.6-2.2,20.6-6.6c8-4.5,15.9-2.9,15,4s-2,8.4-11.3,6.7c-9.3-1.8-15.3,1.6-23.3,3.5
	c-8,2-14,7.1-12.4,0c1.6-7.1-1.6-19.1-1.6-19.1"/>
<path class="st0" d="M215.3,205.4c0,0,30.9,11.5,31.8,16.6c0.9,5.1-3.1,9.6-14.4,2.9s-11.7-9.1-17.4-10.5c-5.7-1.3-9.7-4.3-9.7-4.3"
	/>
<path class="st0" d="M160.9,141.8c0,0-4.1-2.2-10-3.4c-0.2,0-0.3,0.1-0.3,0.2c0,1.3,0.5,6.7,5.2,10.7"/>
<path class="st0" d="M201,115.4c0,0,7.1-13.3,6.4-19.3"/>
<path class="st0" d="M212.7,100.3c0,0-10.3-8.8-8.5-17.6c0-0.1,0.1-0.1,0.1-0.1l6.6,3.9c0,0,5-12,17.9-10.4c0,0,17.1-7.8,18.6-8.7
	c1.6-0.9,6.7,0,6.2,3.3c-0.4,3.3-12.9,17.3-12.9,17.3s12.9-2.2,14.6-0.2c1.8,2,0.2,3.8-4.9,6.7c-5.1,2.8-14.4,11.2-14.4,11.2
	s-7.5,3-15.5-1.2"/>
<path class="st0" d="M236.2,105.8c0,0,4,30.3-0.9,38"/>
<path class="st0" d="M228.9,138.3c0,0,8.3,10.1,28.6,18.5c20.3,8.4,22,7.8,21.1,12.2c-0.9,4.4-0.7,7.3-5.8,5.1
	c-5.1-2.2-6.7-6.7-14.2-8.1c-7.5-1.4-12.4-4.3-12.4-4.3s-12,2.9-25.9-8"/>
<path class="st0" d="M190,173.5c0,0,28.5-1.1,35.8-16"/>
<path class="st0" d="M211,86.6c0,0-5.1-9.7,0.9-16.8c0.2-0.2,0.5-0.1,0.6,0.1l3.9,9.7"/>
<path class="st0" d="M155.4,155.6c0,0-38,11.6-38.2-23c0-0.2-0.4-0.3-0.4-0.1c-2.1,7.8-9.4,43.5,39.2,29.7"/>
<g>
	<line class="st1" x1="228.9" y1="92.4" x2="178.3" y2="134.2"/>
	<g>
		<circle class="st2" cx="228.9" cy="92.4" r="2.2"/>
	</g>
	<g>
		<circle class="st2" cx="178.3" cy="134.2" r="4.1"/>
	</g>
</g>
</svg>
