<?xml version="1.0" encoding="utf-8"?>
<!-- Generator: Adobe Illustrator 28.1.0, SVG Export Plug-In . SVG Version: 6.00 Build 0)  -->
<svg version="1.1" id="Layer_1" xmlns="http://www.w3.org/2000/svg" xmlns:xlink="http://www.w3.org/1999/xlink" x="0px" y="0px"
	 viewBox="0 0 360 360" style="enable-background:new 0 0 360 360;" xml:space="preserve">
<style type="text/css">
	.st0{fill:none;stroke:#BFBFBF;stroke-width:3;stroke-linecap:round;stroke-linejoin:round;stroke-miterlimit:10;}
	.st1{fill:none;stroke:#FFFFFF;stroke-width:0.75;stroke-linejoin:round;stroke-miterlimit:10;}
	.st2{fill:#FFFFFF;}
</style>
<path class="st0" d="M147.6,118c0,0,4-4.8,9.2,1.6c0,0,5.5-2.1,9.2,4c3.7,6.1,14.1,24.2,14.1,24.2s1-12.4,5.9-16.9
	c5-4.5,9-9.2,13.3-8.2l5.4-19.8c0,0,2.8-9,8.3-8.5c0,0,1.1-11.5,6.9-12.4c0,0,0.2-19.4,6-19.3c0,0,2.4,0.2,2.6,3.1
	c0,0,6.9-15.6,15.8-13.9c0,0,6.4-5.1,10.4-3.5c0,0,2.2-2.5,5.4-1.6c3.1,0.9-1,11.4-3.4,17.7c-2.4,6.4-3.2,11.8-3.8,23
	s-8.5,30.1-8.5,30.1s2.9,1.6,1.9,5.4s-4.3,16.8-16.9,28s-18.7,25.2-18.2,27.9c0.5,2.6,6.4,19.6,9.2,26.5s14.4,29,17.7,32.3
	s12,6.6,16.4,9.4c4.5,2.8,7.5,4.2,13.6,6.4c6.1,2.2,6.3,3.4,9.6,6.3c3.3,2.9,9.8,3.4,11.1,6.4c1.3,3.1-6.8,0.8-12.8,0.1
	c0,0-5.7,4.5-12.7,0.7c-7-3.7-5-7.9-13.9-9.7s-14.7-6.4-19.2-12.3c-4.5-5.9-19.1-25.7-19.1-25.7s-19-6.8-29.8-12.2
	c0,0-18.2,11-25.3,20.2c-7.2,9.2-16.5,17.2-38.4,27.2c-21.9,10-37,16.3-55.7,16.3c-18.7,0.1-26.9-0.1-27.1-3.2
	c-0.2-3.1,7.1-6.9,11.6-8.2c0,0,0.6-11.7,14.5-12.5c0,0,3.2-13.9,19.8-13.7c0,0,7.3-13.8,24.4-14.2c0,0,5.3-13.8,17.2-22.7
	s32.1-17.7,35.3-17.8c0,0-0.1-11.6-5.9-15.5s-19.4-16.6-21.4-20.9c-2-4.3,2.7-4.7,2.7-4.7s-3.1-7.8,3.1-10.8c0,0-3.4-5.8,1.7-8.3
	C137.8,118.6,142.7,111.7,147.6,118z"/>
<polygon class="st1" points="91.3,254.8 138,228.9 175.4,179.9 224.3,137.4 236.8,78.2 182,121.4 147.6,140.9 124,172.2 "/>
<polyline class="st1" points="270,264.6 175.4,179.9 147.6,140.9 "/>
<line class="st1" x1="247" y1="67.5" x2="236.8" y2="78.2"/>
<g>
	<circle class="st2" cx="91.3" cy="254.8" r="1.8"/>
</g>
<g>
	<circle class="st2" cx="224.3" cy="137.4" r="1.8"/>
</g>
<g>
	<circle class="st2" cx="236.8" cy="78.2" r="0.9"/>
</g>
<g>
	<circle class="st2" cx="182.1" cy="121.5" r="0.9"/>
</g>
<g>
	<circle class="st2" cx="247" cy="67.5" r="1.3"/>
</g>
<g>
	<circle class="st2" cx="270" cy="264.6" r="1.8"/>
</g>
<g>
	<circle class="st2" cx="138" cy="228.9" r="1.5"/>
</g>
<g>
	<circle class="st2" cx="175.4" cy="179.9" r="1.3"/>
</g>
<g>
	<circle class="st2" cx="124" cy="172.2" r="1"/>
</g>
<g>
	<circle class="st2" cx="147.6" cy="140.9" r="3.5"/>
</g>
</svg>
