<?xml version="1.0" encoding="utf-8"?>
<!-- Generator: Adobe Illustrator 28.1.0, SVG Export Plug-In . SVG Version: 6.00 Build 0)  -->
<svg version="1.1" id="Layer_1" xmlns="http://www.w3.org/2000/svg" xmlns:xlink="http://www.w3.org/1999/xlink" x="0px" y="0px"
	 viewBox="0 0 360 360" style="enable-background:new 0 0 360 360;" xml:space="preserve">
<style type="text/css">
	.st0{fill:none;stroke:#BFBFBF;stroke-width:3;stroke-linecap:round;stroke-linejoin:round;stroke-miterlimit:10;}
	.st1{fill:none;stroke:#FFFFFF;stroke-width:0.75;stroke-linejoin:round;stroke-miterlimit:10;}
	.st2{fill:#FFFFFF;}
</style>
<path class="st0" d="M176,124.6c0,0-4.4,22.9,9.2,49.1c0,0,5.9-21.3,19.8-27.5"/>
<path class="st0" d="M160.9,121.7c0,0-13.9,11.9-5.7,29.7c0,0,8.8-19.4,18.7-21.1c0,0-27.5-18-36.5-28.6s-16.5-11.4-24.9-15
	c-8.4-3.5-22.4-10.6-21.1-21.3c0,0-5.5-7-2-13.2S121,57,121,57s41.4-36.5,120.8,47.7c0,0,33.2-5.1,44.7,22.4c0,0-15.6-1.8-30.4,6.8
	c0,0,15.2,44.4,5.3,96.4c-9.9,51.9-23.5,40.3-19.4,59.6s19.4,23.1,5.7,53.7c0,0-4.6-19.4-16.7-26.2c-12.1-6.8-9.2-22.2-9.2-22.2
	s-6.2,6.4-19.4,3.7c-13.2-2.6-20.9,0.2-20.9,0.2s13-22,29.3-21.3s15.6-33,11-42c-4.6-9-26.4-80.3-26.4-80.3"/>
<path class="st0" d="M91.3,65.4c0,0,15.6,10.6,40.7,15.4"/>
<polygon class="st1" points="216.1,122.5 200.2,81.9 148.1,74.9 172.2,107.6 "/>
<line class="st1" x1="250.1" y1="223.8" x2="216.1" y2="122.5"/>
<g>
	<circle class="st2" cx="250.1" cy="223.8" r="3.3"/>
</g>
<g>
	<circle class="st2" cx="216.1" cy="122.5" r="3.3"/>
</g>
<g>
	<circle class="st2" cx="200.2" cy="81.9" r="3.3"/>
</g>
<g>
	<circle class="st2" cx="148.1" cy="74.9" r="3.3"/>
</g>
<g>
	<circle class="st2" cx="172.2" cy="107.6" r="3.3"/>
</g>
</svg>
