<?xml version="1.0" encoding="utf-8"?>
<!-- Generator: Adobe Illustrator 28.1.0, SVG Export Plug-In . SVG Version: 6.00 Build 0)  -->
<svg version="1.1" id="Layer_1" xmlns="http://www.w3.org/2000/svg" xmlns:xlink="http://www.w3.org/1999/xlink" x="0px" y="0px"
	 viewBox="0 0 360 360" style="enable-background:new 0 0 360 360;" xml:space="preserve">
<style type="text/css">
	.st0{fill:none;stroke:#BFBFBF;stroke-width:3;stroke-linecap:round;stroke-linejoin:round;stroke-miterlimit:10;}
	.st1{fill:none;stroke:#FFFFFF;stroke-width:0.75;stroke-linejoin:round;stroke-miterlimit:10;}
	.st2{fill:#FFFFFF;}
</style>
<path class="st0" d="M240.9,126.7c0,0-32.2,27.9-21.1,96.2c0,0,14.5-43.1,17.3-51.6s10.9-43.4,10.9-43.4"/>
<line class="st0" x1="232.6" y1="186.2" x2="251.7" y2="169.5"/>
<path class="st0" d="M249.1,146.8c0,0-2,11.6,7.6,35.4c0,0,8.1-23.4,5.8-46.1"/>
<path class="st0" d="M262.9,152.3c0,0,24.9-32.8,30.6-42.5s7.2-14,5.5-18c-1.7-4.1,0.9-4.4-3.1-11.1c-4-6.7-6.5-7.9-13-10.5
	c-6.5-2.5-43.8-24.4-65.5-3.3c0,0-17.3,0.1-24,3c-6.7,2.9-16,7.6-20,19.6s-13.4,55.8-22.1,76.9c-8.7,21.1-26.1,55.6-35.3,64.9
	s-14.9,11.3-11.4,16.8c0,0-11.8,5.8-29.8,3.9c-18-2-34.8,9.2-34.8,9.2s30.4-6.8,51.5,22s14.8,42.5,14.8,42.5s14.6-9.2,13.4-33.9
	c-1.2-24.8,2.5-29,2.5-29s4.1,8.7,8.7,8.7s3-17.8,24.9-29.7s29.7-2.6,29.7-2.6l-3-18.8l34.3-19.6"/>
<path class="st0" d="M269.8,144.4c0,0,7.8,12.1,3.9,27.7l-11-15.4"/>
<polygon class="st1" points="108.1,300.7 87.5,265.8 119.2,252.5 "/>
<polygon class="st1" points="165.5,177.5 119.2,252.5 229.5,146.2 "/>
<line class="st1" x1="274.9" y1="100.6" x2="229.5" y2="146.2"/>
<g>
	<circle class="st2" cx="108.1" cy="300.7" r="1.8"/>
</g>
<g>
	<circle class="st2" cx="119.2" cy="252.5" r="1.8"/>
</g>
<g>
	<circle class="st2" cx="274.9" cy="100.6" r="1.8"/>
</g>
<g>
	<circle class="st2" cx="229.5" cy="146.2" r="2.8"/>
</g>
<g>
	<circle class="st2" cx="87.5" cy="265.8" r="1.2"/>
</g>
<g>
	<circle class="st2" cx="165.5" cy="177.5" r="1.2"/>
</g>
</svg>
