<?xml version="1.0" encoding="utf-8"?>
<!-- Generator: Adobe Illustrator 28.1.0, SVG Export Plug-In . SVG Version: 6.00 Build 0)  -->
<svg version="1.1" id="Layer_1" xmlns="http://www.w3.org/2000/svg" xmlns:xlink="http://www.w3.org/1999/xlink" x="0px" y="0px"
	 viewBox="0 0 360 360" style="enable-background:new 0 0 360 360;" xml:space="preserve">
<style type="text/css">
	.st0{fill:none;stroke:#BFBFBF;stroke-width:3;stroke-linecap:round;stroke-linejoin:round;stroke-miterlimit:10;}
	.st1{fill:none;stroke:#FFFFFF;stroke-width:0.75;stroke-linejoin:round;stroke-miterlimit:10;}
	.st2{fill:#FFFFFF;}
</style>
<line class="st0" x1="96" y1="201.1" x2="81.6" y2="191.5"/>
<path class="st0" d="M227.4,240.7c0,0-10.2,18.3-35.5,12.4s-29.5-53.3-29.5-53.3s-22.8,6.9-30.3-12.7c-7.4-19.6,4.6-25.1-5.3-37.1
	c0,0-5.6-5.3-10.6-3.6c-5,1.7-2.3,8.9-5.4,13.4c0,0-5,13.3-23,17.2c-18,4-6.2,14.6-6.2,14.6"/>
<path class="st0" d="M192.3,222.7c-6.4-18.7-13.1-34.8-13.1-34.8s11.1-13.2-0.8-24.1c0,0-11.6-12.2-26.6-4.5"/>
<path class="st0" d="M75.9,239l-3.4-2.2c0,0-10.2,4.1-19.6-10.1c-9.4-14.2,4-25.4,4-25.4s-6.3-13.4,3.3-29.5c0,0-29.4-20.6-9.9-48.2
	s51.2-7.4,51.2-7.4s43.8-5.4,49.7,39c0,0,0.4,18,4,24.6c3.5,6.6,18,2.2,12.5-7.7c0,0-3.3-5.3-7.5-1.8"/>
<path class="st0" d="M223.1,215.6c0,0,2.8-4.6-1.5-15s-1.5-25.7,12.2-30.4c13.7-4.6,33.5,3,33.5,3s20.6,6.8,24.1-8.9
	c3.5-15.7-4-19-8.1-23.9c-4.1-5-13.4-17.3-7.4-35.5c5.9-18.2,28.5-6.9,34.3-24.9s-21-25.9-21-25.9s-22.4-7.2-26.4,12.2
	c-3.4,16.4,11.7,21.5,17.1,16c0,0,0.3,5-10.1,5.9c-10.4,1-17-15.8-12.9-28.4c4.1-12.5,21.6-19.5,45.4-9.7s21.1,33.7,17.7,40.6
	c-3.5,6.9-12.5,11.9-19.5,13.2c-6.9,1.3-10.2,5.9-10.2,5.9s-6.3,6.8,1.8,16.7s22.3,24.4,14.7,43.4c-7.6,19-25.1,21.9-35.5,21.3
	s-17.2-7.3-25.7-5c-8.6,2.3-1.8,19.1-1.8,19.1s7.4,26.9-15.5,34.2c0,0,4.8-22-10.6-25.7c-10.5-2.6-21.8-1.8-26.2,13.9
	s15.2,17.2,20.2,12.5s4.4-12.3-3.3-13.9"/>
<path class="st0" d="M70.9,153.8c0,0-5.6-7.1,0.5-15.2s11.9,0.8,9.9,7.3C79.3,152.3,71.7,155.2,70.9,153.8z"/>
<path class="st0" d="M79.3,224.5c0,0,0.5-11.4-6.6-10.7C65.6,214.5,69.6,225,79.3,224.5z"/>
<path class="st0" d="M156.7,158.7"/>
<path class="st0" d="M67.8,229.5l12.5,6.8c0,0-2,4-12,5.6s-12.4,6.9-12.4,6.9s9.9-3.5,12.9,2c3,5.4,7.6,17.8,16.5,16
	c8.9-1.8,16-5.1,21.6,3.5c0,0,5.9-7.4,13.5,3.5c0,0,3.5-6.3,7.3-5.8s10.5,0.7,10.5,0.7s12.9-7.4,8.6-11.9c0,0-10,4.2-16.9,0.4
	c-6.9-3.8-7.1-10.9-7.1-10.9s-3.8,2.5-5.9,0.5c-2.1-2,0.3-7.4,3-6.9c2.6,0.5,5.9,3.6,5.9,3.6s1.2-6.1,5.6-2.8s5.8,5.3,4.6-1
	c-1.2-6.3-6.1-17.3-6.1-17.3s-0.3,9.2-7.3,7.3c-6.9-2-0.3-12.4-0.3-12.4s-9.1,4.3-11.9,1.5c-2.8-2.8-3.1-9.7,4.5-13.5
	c0,0-9.6,1.2-11.1,6.1c0,0-3.5-5.9,4.1-16c0,0-18.6,5.8-20.3,22.6"/>
<path class="st0" d="M179.2,187.9c0,0-2.5,8.6-16.8,11.9"/>
<path class="st0" d="M112.5,151.6c0,0,2.4-28.8-24.4-29.3s-20.8,28.7-17.1,31.4"/>
<path class="st0" d="M56.9,201.3c0,0,16.3-13,34.5,3.8"/>
<g>
	<polyline class="st1" points="306.2,78.1 285.7,105.5 266.2,166.5 223.8,219.6 194,226.6 175.9,208.7 148.1,179.5 121.1,133 
		84.8,136.6 100.4,222.9 114.7,238.7 110.7,256.8 84.6,253 100.4,222.9 	"/>
	<line class="st1" x1="81.4" y1="110.9" x2="84.8" y2="136.6"/>
	<line class="st1" x1="125" y1="125.4" x2="121.1" y2="133"/>
</g>
<g>
	<circle class="st2" cx="84.6" cy="253" r="3.1"/>
</g>
<g>
	<circle class="st2" cx="110.7" cy="256.8" r="2.4"/>
</g>
<g>
	<circle class="st2" cx="114.7" cy="238.7" r="1.2"/>
</g>
<g>
	<circle class="st2" cx="100.4" cy="222.9" r="1.2"/>
</g>
<g>
	<circle class="st2" cx="84.8" cy="136.6" r="1.2"/>
</g>
<g>
	<circle class="st2" cx="121.1" cy="133" r="1.2"/>
</g>
<g>
	<circle class="st2" cx="125" cy="125.4" r="1.2"/>
</g>
<g>
	<circle class="st2" cx="148.1" cy="179.5" r="1.2"/>
</g>
<g>
	<circle class="st2" cx="223.8" cy="219.6" r="1"/>
</g>
<g>
	<circle class="st2" cx="266.2" cy="166.5" r="1"/>
</g>
<g>
	<circle class="st2" cx="285.7" cy="105.5" r="1"/>
</g>
<g>
	<circle class="st2" cx="306.2" cy="78.1" r="1"/>
</g>
<g>
	<circle class="st2" cx="194" cy="226.6" r="0.7"/>
</g>
<g>
	<circle class="st2" cx="176.2" cy="208.7" r="1.6"/>
</g>
<g>
	<circle class="st2" cx="81.4" cy="110.9" r="1.2"/>
</g>
</svg>
