<?xml version="1.0" encoding="utf-8"?>
<!-- Generator: Adobe Illustrator 28.1.0, SVG Export Plug-In . SVG Version: 6.00 Build 0)  -->
<svg version="1.1" id="Layer_1" xmlns="http://www.w3.org/2000/svg" xmlns:xlink="http://www.w3.org/1999/xlink" x="0px" y="0px"
	 viewBox="0 0 360 360" style="enable-background:new 0 0 360 360;" xml:space="preserve">
<style type="text/css">
	.st0{fill:none;stroke:#FFFFFF;stroke-width:0.75;stroke-linejoin:round;stroke-miterlimit:10;}
	.st1{fill:#FFFFFF;}
	.st2{fill:none;stroke:#BFBFBF;stroke-width:3;stroke-linecap:round;stroke-linejoin:round;stroke-miterlimit:10;}
</style>
<polyline class="st0" points="240.3,98.5 218,101 210.2,207.1 "/>
<g>
	<circle class="st1" cx="210.2" cy="207.1" r="4.1"/>
</g>
<g>
	<circle class="st1" cx="218" cy="100.7" r="2.5"/>
</g>
<g>
	<circle class="st1" cx="240.3" cy="98.5" r="2.5"/>
</g>
<path class="st2" d="M138.9,118c0,0,5,19,23.3,31.6"/>
<path class="st2" d="M191.5,205.4c0,0-10.7-3.6-10.4-12.2s-6.9-11.9-10.4-14.2c-3.5-2.3-15.2-18.6-7.4-29.7
	c7.8-11.1,26.2-14.4,26.2-14.4l19.5-25.7"/>
<path class="st2" d="M210,119.4c0,0,1.3-3,0.8-7.4c-0.5-4.5-5-8.1,3.3-16.8s15.8-9.1,15.8-9.1s4.3-4.6,10.7-3.6
	c6.4,1,5.4,8.1,10.2,13.4c4.8,5.3,12.5,11.6,10.4,24.8s-11.2,38.6-12.5,45c-1.3,6.4-3,10.6-2.3,15.1c0.8,4.5-6.7,14.7-11.9,18.3"/>
<path class="st2" d="M92.8,177.4c0,0,1.5,7.5,7.2,9.7s9,4,9.5,8.8c0.4,4.8,3.4,9.1,7.3,10c3.9,0.9,5,2,11.2,8
	c6.3,6.1,13.8,9.8,17.6,10c3.9,0.2,4.7,9,19.9,7.3c0,0,10.3,3.9,16.7,2.9"/>
<path class="st2" d="M188.1,224.8c0,0-2.3,8.5-9.5,14.2s-5.6,25.2,3.4,33.8c0,0,4.5-14.4,8.1-17.6c3.6-3.2,12-16.6,9.1-25.7"/>
<path class="st2" d="M200.7,224c-2.1-6.5-4-16.6,4-17.9c12-2,14.5-11.8,14.5-11.8c4.1,3.5-0.1,12.5-0.1,12.5
	c7.2-2.6,7.2-15.7,7.2-15.7c3.3,1.4,5.6,10.8,5.6,10.8c2.2-4.7,16.4-11.1,16.4-11.1l-5,6.3c0,0,5.3-0.3,8.5,2.2c0,0-9.8-1-10.9,7.7
	s-1.1,12.1-6.2,13.6s-8.6,5.8-13.3,9.9c-4.7,4.1-13.5,8-21.8,6.1"/>
<path class="st2" d="M236.2,220c0,0,9.6,4.8,12.3,11.3s4.4,12,4.4,12s-5.2,0.3-14.2-6.1c-9-6.4-16-7.6-16-7.6"/>
<path class="st2" d="M186.6,226.9c0,0-5.8-9.7-16.5-11.9c-10.7-2.1-12.2-15.2-12.2-15.2l-2.8,10.9c0,0-1.7-0.2-7.1-7.9
	c-5.4-7.8-5.6-8.4-5.6-8.4l2.3,12.5c0,0-15.5-7.9-20.8-20c-5.3-12-8.3-12.2-8.7-12.7c-0.5-0.5,0.3,5.8,0.3,5.8"/>
</svg>
