<?xml version="1.0" encoding="utf-8"?>
<!-- Generator: Adobe Illustrator 28.1.0, SVG Export Plug-In . SVG Version: 6.00 Build 0)  -->
<svg version="1.1" id="Layer_1" xmlns="http://www.w3.org/2000/svg" xmlns:xlink="http://www.w3.org/1999/xlink" x="0px" y="0px"
	 viewBox="0 0 360 360" style="enable-background:new 0 0 360 360;" xml:space="preserve">
<style type="text/css">
	.st0{fill:none;stroke:#BFBFBF;stroke-width:3;stroke-linecap:round;stroke-linejoin:round;stroke-miterlimit:10;}
	.st1{fill:none;stroke:#FFFFFF;stroke-width:0.75;stroke-linejoin:round;stroke-miterlimit:10;}
	.st2{fill:#FFFFFF;}
</style>
<path class="st0" d="M278,319.3c0,0-15.5-21.1-22.8-40.9c-7.3-19.8-0.3-41.9-12.2-41.9s-14.5,15.5-34.7,5s-17.5-32.7-52.5-31.7
	s-27.7-36-9.2-52.8s42.6-31.4,59.1-32.3c16.5-1,29.7-0.3,35.3-9.6c5.6-9.2-12.2-30.7-32.3-16.2s-44.6,11.6-57.4-2
	s-26.7-33-51.5-18.2s-26.4,29.7-26.4,29.7"/>
<path class="st0" d="M310,303.4c0,0-21.8-20.5-26.4-39.9c-4.6-19.5-2-47.9-18.8-54.5s-26.7-0.3-38-2.3c-11.2-2-29.4-19.1-35.3-22.8
	c-5.9-3.6-12.5-13.2-4.3-20.1s24.1-11.9,47.9-13.9c23.8-2,39.3-14.9,42.9-32.7s5.6-51.2-28.4-53.5s-53.5,7.6-71.6-7.6
	s-39.6-20.8-62.7-16.5S71.1,61.5,62.2,75.4"/>
<path class="st0" d="M263,276.1c0,0-0.9,4.1,4,6.6c0,0,0,6.4,4.5,7.5c0,0-1.4,3.7,4,6.6c0,0,0.1,7.9,4.9,8.6c0,0,0.8,7.7,4.8,7.9"/>
<path class="st0" d="M187.5,202.3c0,0,1.6,3.9,7,3.3c0,0,3.6,5.3,8,3.7c0,0,0.9,3.8,7,3.3c0,0,4.5,6.5,8.9,4.4c0,0,5,6,8.4,3.9"/>
<path class="st0" d="M205.8,79.1c0,0,2.7,3.2,7.6,1c0,0,5,4,8.7,1.1c0,0,2,3.4,7.6,1c0,0,6.3,4.8,9.8,1.5c0,0,6.6,4.2,9.2,1.2"/>
<path class="st0" d="M201.9,227.6c0,0,4.5,6.5,8.9,4.4c0,0,5,6,8.4,3.9"/>
<path class="st0" d="M206.5,142.9c0,0,7.3,2.9,9.8-1.3c0,0,7.5,2.2,9.1-1.4"/>
<path class="st0" d="M173.9,99.6c0,0,7.3,2.9,9.8-1.3c0,0,7.5,2.2,9.1-1.4"/>
<path class="st0" d="M133.8,54.5c0,0,4,6.8,8.5,5c0,0,4.5,6.3,8.1,4.5"/>
<path class="st0" d="M176.4,186.7c0,0,4.5,6.5,8.9,4.4c0,0,5,6,8.4,3.9"/>
<path class="st0" d="M265.8,265.3c0,0-1.4,3.7,4,6.6c0,0,0.1,7.9,4.9,8.6c0,0,0.8,7.7,4.8,7.9"/>
<path class="st0" d="M166.7,163.6c0,0,3.7,1.2,6.4-4.2c0,0,7.9-0.4,8.4-5.3c0,0,7.7-1.1,7.7-5.1"/>
<path class="st0" d="M135.8,65.3c0,0,0.3,3.9,6.4,4.3c0,0,3.5,7.1,8.1,5.7c0,0,4,6.6,7.7,5.1"/>
<path class="st0" d="M262.4,223.8c0,0-1.8,3.5,3.1,7c0,0-0.9,7.8,3.8,9.1c0,0-0.2,7.8,3.7,8.4"/>
<path class="st0" d="M76.8,76c0,0,3.5,1.7,6.9-3.3c0,0,7.9,0.6,9-4.1c0,0,7.8-0.1,8.3-4"/>
<polyline class="st1" points="292.6,311.5 285.9,281.9 264.4,258.9 256.6,234.8 257.7,220.4 241,221.2 220.5,232.9 204.7,219.2 
	192.9,199.8 164.1,190 158.2,191.8 144.7,176.5 146.3,172.2 179.7,142 186.8,144.6 193.9,137.7 208.5,130 224.4,130.7 243.1,140.7 
	264.8,118.3 268.4,96.2 255.5,71 209.8,71.5 197,73.1 193.5,84.2 179.5,91.6 160.3,60.7 126.7,47.3 114.3,48.4 87.8,61.6 "/>
<g>
	<circle class="st2" cx="87.8" cy="61.6" r="1.5"/>
</g>
<g>
	<circle class="st2" cx="179.5" cy="91.6" r="1.5"/>
</g>
<g>
	<circle class="st2" cx="114.3" cy="48.4" r="1"/>
</g>
<g>
	<circle class="st2" cx="126.7" cy="47.3" r="1"/>
</g>
<g>
	<circle class="st2" cx="160.3" cy="60.7" r="1"/>
</g>
<g>
	<circle class="st2" cx="193.5" cy="84.2" r="1"/>
</g>
<g>
	<circle class="st2" cx="197.2" cy="73.1" r="1"/>
</g>
<g>
	<circle class="st2" cx="209.8" cy="71.5" r="1"/>
</g>
<g>
	<circle class="st2" cx="255.5" cy="71" r="1"/>
</g>
<g>
	<circle class="st2" cx="268.4" cy="96.2" r="1"/>
</g>
<g>
	<circle class="st2" cx="264.8" cy="118.3" r="1"/>
</g>
<g>
	<circle class="st2" cx="243.1" cy="140.7" r="1"/>
</g>
<g>
	<circle class="st2" cx="224.4" cy="130.7" r="1"/>
</g>
<g>
	<circle class="st2" cx="208.5" cy="130" r="1"/>
</g>
<g>
	<circle class="st2" cx="193.9" cy="137.7" r="1"/>
</g>
<g>
	<circle class="st2" cx="186.8" cy="144.6" r="1"/>
</g>
<g>
	<circle class="st2" cx="179.7" cy="142" r="1"/>
</g>
<g>
	<circle class="st2" cx="146.3" cy="172.2" r="1"/>
</g>
<g>
	<circle class="st2" cx="158.2" cy="191.6" r="1"/>
</g>
<g>
	<circle class="st2" cx="204.7" cy="219.2" r="1"/>
</g>
<g>
	<circle class="st2" cx="220.5" cy="232.9" r="1"/>
</g>
<g>
	<circle class="st2" cx="257.7" cy="220.4" r="1"/>
</g>
<g>
	<circle class="st2" cx="256.6" cy="234.8" r="1"/>
</g>
<g>
	<circle class="st2" cx="264.4" cy="258.9" r="1"/>
</g>
<g>
	<circle class="st2" cx="285.9" cy="281.9" r="1"/>
</g>
<g>
	<circle class="st2" cx="292.6" cy="311.5" r="2.6"/>
</g>
<g>
	<circle class="st2" cx="192.9" cy="199.8" r="0.8"/>
</g>
<g>
	<circle class="st2" cx="164.1" cy="190" r="1.4"/>
</g>
<g>
	<circle class="st2" cx="241" cy="221.1" r="1.7"/>
</g>
<g>
	<circle class="st2" cx="144.7" cy="176.5" r="1"/>
</g>
</svg>
