<?xml version="1.0" encoding="utf-8"?>
<!-- Generator: Adobe Illustrator 28.1.0, SVG Export Plug-In . SVG Version: 6.00 Build 0)  -->
<svg version="1.1" id="Layer_1" xmlns="http://www.w3.org/2000/svg" xmlns:xlink="http://www.w3.org/1999/xlink" x="0px" y="0px"
	 viewBox="0 0 360 360" style="enable-background:new 0 0 360 360;" xml:space="preserve">
<style type="text/css">
	.st0{fill:none;stroke:#BFBFBF;stroke-width:3;stroke-linecap:round;stroke-linejoin:round;stroke-miterlimit:10;}
	.st1{fill:none;stroke:#FFFFFF;stroke-width:0.75;stroke-linejoin:round;stroke-miterlimit:10;}
	.st2{fill:#FFFFFF;}
</style>
<path class="st0" d="M192.4,159.6l14,7.9c0,0,2.4,9.2-4.6,11.7l-97.9-55l29.4,2.3l32.9,18.4"/>
<path class="st0" d="M201.8,179.1l-11.4,4.6l-87.1-48.8c0,0-2.1-6.6,0.7-10.8"/>
<line class="st0" x1="86" y1="172.5" x2="104.2" y2="135.9"/>
<line class="st0" x1="188.7" y1="183.3" x2="167.2" y2="221.5"/>
<path class="st0" d="M98.6,191.9c0,0,1.9-2.5-0.7-5.2c-2.5-2.6-2.8-13.1-14.6-13.8c-11.9-0.7-11.2,16.6-11.2,16.6s-0.1,5.7-3.1,4.8
	c-3-0.9-2-4.1-4.2-2.9c-2.2,1.2-3.1,7.4,1.3,7.8c0,0,2.5,9.5,7.9,6.7c5.4-2.8,3.3-5,6.8-9.7s7-5.9,9.5-4.6
	C92.8,193.1,96.2,194.1,98.6,191.9z"/>
<path class="st0" d="M152.2,220.4c0,0,10.5-4,17.2,2.9c6.7,6.8,2.3,16.5-0.4,18.7c-2.8,2.2-7.2,6.1-5.5,9.2c1.7,3.2,8,5.4,5.9,9.2
	c-2.1,3.9-5.4,0.7-5.4,0.7s-8.7,1.7-9.5-4c-0.8-5.6,2.2-12-0.1-15.8c-2.3-3.9-7-8.4-6.3-13.4S150,221.2,152.2,220.4z"/>
<path class="st0" d="M169.8,217.1c2.7-0.2,6.4,0.1,9.2,3c5.1,5.2,1.8,12.5-0.3,14.2s-5.4,4.6-4.2,7s6.1,4.1,4.5,7
	c-1.6,2.9-4.1,0.5-4.1,0.5s-6.6,1.3-7.2-3c-0.1-0.8-0.1-1.7-0.1-2.5"/>
<path class="st0" d="M83.7,193.5c0,0,0.8,7.3,6.5,6.5s6.5-6.5,6.5-6.5l51.8,30.1"/>
<ellipse transform="matrix(0.4714 -0.8819 0.8819 0.4714 -46.8746 196.7363)" class="st0" cx="140.7" cy="137.5" rx="2.1" ry="14.1"/>
<path class="st0" d="M188.9,142.3l7.6-13.8c0.8-1.4,0.3-3.2-1.1-4c-1.4-0.8-3.2-0.3-4,1.1l-7.4,13.5c-6.1-2.3-13,0.2-16.3,6
	c-3.6,6.4,0.9,10.7,7.3,14.2c6.4,3.6,12.4,5.1,16-1.4C193.9,152.8,192.9,146.4,188.9,142.3z"/>
<polyline class="st1" points="108.4,143 182.7,190.9 325.7,152.2 "/>
<g>
	<circle class="st2" cx="108.4" cy="143" r="1.6"/>
</g>
<g>
	<circle class="st2" cx="182.7" cy="190.9" r="1.6"/>
</g>
<g>
	<circle class="st2" cx="325.7" cy="152.2" r="1.5"/>
</g>
<path class="st0" d="M153.6,181.8c0-0.6,0.2-1.2,0.5-1.7l-25-14.3c-0.5,1.4-1.8,2.4-3.3,2.4c-0.7,0-1.4-0.2-1.9-0.6l-9.1,17.4
	c1.2,0.6,2.1,1.8,2.1,3.2c0,0.7-0.2,1.4-0.6,1.9l25.4,14.5c0.6-1.2,1.8-2.1,3.2-2.1c0.6,0,1.2,0.2,1.8,0.5l9-18.2
	C154.4,184.3,153.6,183.1,153.6,181.8z"/>
</svg>
