<?xml version="1.0" encoding="utf-8"?>
<!-- Generator: Adobe Illustrator 28.1.0, SVG Export Plug-In . SVG Version: 6.00 Build 0)  -->
<svg version="1.1" id="Layer_1" xmlns="http://www.w3.org/2000/svg" xmlns:xlink="http://www.w3.org/1999/xlink" x="0px" y="0px"
	 viewBox="0 0 360 360" style="enable-background:new 0 0 360 360;" xml:space="preserve">
<style type="text/css">
	.st0{fill:none;stroke:#BFBFBF;stroke-width:3;stroke-linecap:round;stroke-linejoin:round;stroke-miterlimit:10;}
	.st1{fill:none;stroke:#FFFFFF;stroke-width:0.75;stroke-linejoin:round;stroke-miterlimit:10;}
	.st2{fill:#FFFFFF;}
</style>
<path class="st0" d="M89.2,145.7l2.2,4.5c0,0-0.6,8.8-3.2,10.8c0,0-6.7,4.7-4.5,13.3s10.1,14.1,12.1,18.7s3.3,9.6,5.8,13.3
	c2.5,3.7,6.6,15.3,12.3,21.5c5.7,6.2,6.4,10.3,8.7,13.2s7.8,9.5,10.6,8c0,0,5,1.9,5.1,0c0,0,5.5-1,2-6.1c-3.5-5.1-8.6-5.9-12.5-10.5
	c-4-4.5-6.7-18.4-8.4-21.6c-1.7-3.2-1.8-3.6-4.4-7c-2.6-3.4-4.1-7.4-6.1-12.8s-2.4-6.5-2.4-6.5s9.4,2.6,11.7,4.2
	c2.3,1.5,3.9,1.7,8,8.8c4.2,7.2,22.3,38.3,28.4,44.2c0,0,29.2-11.8,34.1-38.7c0,0-5.1-6.2-16.6-16s-20.8-13.5-20.8-13.5
	s-7.6-5.4-13.1-13.6c-5.5-8.3-7.9-12-7.9-12l8.6,0.8"/>
<path class="st0" d="M135.8,135.2c0,0-14.1-5-22.1-0.2s-10,4.2-10,4.2l-4.3-3"/>
<path class="st0" d="M150.5,173.5c0,0-6.2,19.3-24.5,23.1"/>
<path class="st0" d="M145.6,169.2c0,0-8.8,16.7-22.2,23.8"/>
<path class="st0" d="M71.4,134c0,0,13.3,14.4,23.4,9.5c10.1-5-3.7-18.8-4.5-20.1c-0.8-1.3-0.8-1.3-0.8-1.3l-5-0.6c0,0-3.1-3.3-3.5-2
	c-0.4,1.3-1.9,6.1-4.5,7.3C73.9,128,71.4,134,71.4,134z"/>
<path class="st0" d="M97.3,132.5c0,0,3.4-5.1,1.2-7.4s-0.8-6.4-5-7.9c-4.2-1.5-6.8-6.9-10.8-6.3c-4,0.7-7.2-0.9-10.3,3.5
	c-3.2,4.4-7.2,3.7-6.8,10.2s-3.7,6.4-0.8,10.9c3,4.5,5,7.5,8.6,7.6c3.6,0.1,3.9,5.3,13.1,1.3"/>
<path class="st0" d="M187.9,206.9c0,0,11.9,7.2,16.5,13.3s23,17.6,26.3,20.8c3.3,3.2,10.1,5.7,13.9,6.6c3.7,0.9,20.1,8.8,15.4,11.1
	c-4.7,2.3-14.2-1-19.1,0c-5,1-6.7-0.8-11.2-5.9c-4.5-5.2-16.3-7.2-22.6-9.7c-6.3-2.5-8.9-6.3-11.2-8.8c-2.3-2.5-16.6-10.9-16.6-10.9
	"/>
<path class="st0" d="M175.6,227.5c0,0,13.6,14.7,17.3,20.1s10.3,15.6,13.8,18.9c3.4,3.3,5,5,8.8,7.3c3.9,2.3,6.9,4,8.5,6.5
	c1.5,2.5,9.2,7.8,9.8,10.1c0.6,2.3,1.1,5.9-5,6.9s-9.1,1-11.7-5.8c-2.5-6.8-8.5-9.1-13.9-14.3c-5.4-5.2-13-6.4-20.6-16.7
	c-7.6-10.3-8-9.4-12.2-12.3c-4.2-3-9.7-9.4-9.7-9.4"/>
<path class="st0" d="M130.2,100l3.4,3.7c0,0-1.2,8-2.1,9.6c-0.9,1.5-4.1,6.7,1.2,14.3c0,0,5.4,11,6.3,13.8
	c0.9,2.8,1.2,17.4,0.7,19.8"/>
<path class="st0" d="M146,168.1c0,0,4-12.2,3.4-17.5c-0.6-5.3-1.2-15.3-1.2-18.2s0.6-6.8,0.6-6.8s17.7,8.3,19,9.8s4.6,5.1,11.3,12.5
	c6.7,7.5,27.4,26.3,27.4,26.3s23.8-15.2,30.6-31.2c0,0-23.5-22-41.8-28.3c0,0-2.8-3.2-8.1-7c-5.4-3.9-16.6-16.6-16.6-16.6
	s17.2-2,21.3-3.2c4.2-1.2,12.5-3,12.7-4.4c0.1-1.4,3.4-16.5,2.1-19.3c-1.3-2.8,0.3-8.8,0.3-8.8l-10.2-1.8c0,0,0.4,3.9,0.9,6.6
	c0.4,2.8-3.6,11.6-4.3,13.9c-0.7,2.3-11.7,2.2-15.2,3.3s-12-0.6-16.7,0.9s-8.9,1.7-19,12.1l-5.9-3.6"/>
<path class="st0" d="M124.3,74.6c0,0,15.1,10,12.1,19.9c-3,9.9-18.4,3.7-25.9-1.4c0,0-0.4-4-0.4-6.5s0.7-4,2.5-6.7
	C114.5,77.1,120.4,78.3,124.3,74.6z"/>
<path class="st0" d="M195.3,114.8c0,0-8.3,22.9-21.5,27.1"/>
<path class="st0" d="M189.8,110.1c0,0-5.5,19.3-19.6,26.6"/>
<path class="st0" d="M135.3,85.1c0,0,2.1-5.5,0.4-8c-1.7-2.5-2.2-7.4-5.5-8.4c-3.3-1-1.7-0.6-7.9-2.4c-6.3-1.9-10.9-1.4-12.1,0.6
	c-1.2,2-6.5,1-6.6,5c-0.1,4-5.3,3.2-4,7c1.3,3.9-0.1,11.3,2.1,13.3c2.2,2,1.8,5,5.3,5.6c3.5,0.7,7.6,5.4,14.6,1.2"/>
<path class="st0" d="M236.6,144.9c0,0,9,7.7,11.6,10.1c2.5,2.4,9.8,4.7,14.6,7.6s14.6,7.7,17.2,10.7c2.5,3,5.8,3.3,10.1,3.4
	c4.3,0.1,17.1,1.2,18.7,4.4s-8.3,8.4-16.9,5.5c0,0-10.7,2.6-14-2.6c0,0-2.2-5-12.5-7.8c-10.3-2.9-12.1-2.5-15.7-4.3s-8.9-5.8-12-6.1
	c-3.1-0.2-12.8-6.3-12.8-6.3"/>
<path class="st0" d="M222.2,161.5c0,0,11,6.3,15.7,14.9c0,0,12.8,5.2,14.2,12.7s8.5,15.2,8.5,15.2s10.2,1.9,10.2,7.5
	c0,5.6-1.7,12.8-1.2,15.4c0.4,2.6-2.9,9.6-7.3,7.9c-4.4-1.7-2.3-12-4.1-16.6c-1.8-4.6-2.2-8.4-10.8-13.3s-17.7-13.3-19.5-16.5
	s-17.7-16.7-17.7-16.7"/>
<path class="st0" d="M195.4,48.1c0,0-12.8-1.4-20.2,0.6c-7.5,2-10.8,1.8-16.8-0.6c-6.1-2.3-6.2,1.4-4.5,2.3c0,0,7.6,6.3,20.1,2.8
	c9.9-2.8,24.8,0.3,30.6,1.7c1.5,0.4,2.4,0.6,2.4,0.6s12.2,0.1,16.2,5.4s13,16.4,24.5,15.5c11.6-0.9-0.3-4.4-3.7-5.1
	c-3.4-0.7-9.9-3.5-14.4-9.5s-4.4-6.9-11.9-9c-7.5-2.1-10.2-2.1-10.2-2.1"/>
<path class="st0" d="M205.6,47.1c0,0,2.8,5-0.6,6.9s-9.5,1.9-8.7-4.4S205.6,47.1,205.6,47.1z"/>
<polyline class="st1" points="90.7,134.6 110.1,146.7 142.7,195 145.7,247.4 222.5,282 "/>
<polyline class="st1" points="239,247.9 178.1,209.3 142.7,195 "/>
<polyline class="st1" points="90.3,169.1 110.1,146.7 132.3,139 163.7,116.3 201,81 "/>
<polyline class="st1" points="115.5,98.8 163.7,116.3 222.1,164.9 256.9,210.4 "/>
<polyline class="st1" points="309.5,176.9 287,186.3 269.2,187.7 222.1,164.9 "/>
<g>
	<circle class="st2" cx="110.1" cy="146.7" r="1"/>
</g>
<g>
	<circle class="st2" cx="142.7" cy="195" r="1.5"/>
</g>
<g>
	<circle class="st2" cx="239" cy="247.9" r="2.5"/>
</g>
<g>
	<circle class="st2" cx="145.7" cy="247.4" r="1.5"/>
</g>
<g>
	<circle class="st2" cx="222.5" cy="282" r="1.5"/>
</g>
<g>
	<circle class="st2" cx="178.1" cy="209.3" r="1.1"/>
</g>
<g>
	<circle class="st2" cx="256.9" cy="210.4" r="1.1"/>
</g>
<g>
	<circle class="st2" cx="309.5" cy="176.9" r="1.1"/>
</g>
<g>
	<circle class="st2" cx="90.7" cy="134.6" r="2.8"/>
</g>
<g>
	<circle class="st2" cx="115.5" cy="98.8" r="2.8"/>
</g>
<g>
	<circle class="st2" cx="90.3" cy="169.1" r="1"/>
</g>
<g>
	<circle class="st2" cx="132.3" cy="139" r="1"/>
</g>
<g>
	<circle class="st2" cx="163.7" cy="116.3" r="1"/>
</g>
<g>
	<circle class="st2" cx="201" cy="81" r="1.4"/>
</g>
<g>
	<circle class="st2" cx="222.1" cy="164.9" r="1.4"/>
</g>
<g>
	<circle class="st2" cx="269.2" cy="187.7" r="1.4"/>
</g>
<g>
	<circle class="st2" cx="287" cy="186.3" r="1.4"/>
</g>
<path class="st0" d="M149.3,148.5c0,0,17.8-0.7,21.5-0.8s8.4,0.3,8.4,0.3"/>
<line class="st0" x1="149.1" y1="136.3" x2="170.3" y2="138.4"/>
</svg>
