<?xml version="1.0" encoding="utf-8"?>
<!-- Generator: Adobe Illustrator 28.1.0, SVG Export Plug-In . SVG Version: 6.00 Build 0)  -->
<svg version="1.1" id="Layer_1" xmlns="http://www.w3.org/2000/svg" xmlns:xlink="http://www.w3.org/1999/xlink" x="0px" y="0px"
	 viewBox="0 0 360 360" style="enable-background:new 0 0 360 360;" xml:space="preserve">
<style type="text/css">
	.st0{fill:none;stroke:#BFBFBF;stroke-width:3;stroke-linecap:round;stroke-linejoin:round;stroke-miterlimit:10;}
	.st1{fill:none;stroke:#FFFFFF;stroke-width:0.75;stroke-linejoin:round;stroke-miterlimit:10;}
	.st2{fill:#FFFFFF;}
</style>
<path class="st0" d="M151.3,134.4c0.9,0.1,1.9-0.1,2.6-0.6c5-3.2,25.7-16.3,42.5-18.7c19.1-2.8,24.1-6.2,31.3-13.1
	s10-18.3,17.6-24.1c0,0,1.3-10.5,9.8-14.9s11.1-2.9,15.2-4c4.1-1.1,18.6-9,22.5-10.2c3.9-1.2,3.3,1.3,1.4,2.7c0,0,2.4,3-1,5.2
	s-13.5,9-16.3,13c-2.8,4-7.2,10.6-12.3,11.9s-12.1,3.4-18.5,12.7s-6,16.6-15,24.7s-16.4,9.4-19.6,15.7c0,0,8.2-1.3,20.8-9.1
	c12.6-7.8,29.9-23.6,44.8-18.6c14.9,5,4.3,20.8,7,43.3c2.7,22.5,4.3,29.9,5.2,43.3s0.2,20-2.3,18.5c-2.5-1.4-15.2-22.3-17.4-30.2
	c0,0,0.8,21.7,2.4,28c1.7,6.3-3.5,3.9-13.6-8.2c0,0,4,17.4,1.7,18.3s-12.9-10.4-12.9-10.4s4.9,11.1,2.4,11.2
	c-2.4,0.1-9.1-5.7-9.1-5.7s1.7,6-1,7.1c-2.7,1.1-9.9-8.1-9.9-8.1s2,7.5-0.4,7.8c-2.4,0.2-13.1-15-10.3-43.5c0,0-17.2,5.9-34.1,0.4
	c0,0-9.6,8.3-12.4,16.6c-2.8,8.3-10.2,12.4-16.1,18.5c-5.9,6.1-13.1,16-14.4,21.8c-1.3,5.9-0.7,10.4-0.7,10.4s3.7,4.4,11.6,9
	s19.5,11.1,23,15.8c3.5,4.7,7,11.9,5.8,15s-3.2,5.2-4.4,2.9c0,0-3.3,5.2-8.8,2.4c-5.4-2.8,1.2-3.1,1.3-3.3c0.1-0.2-7.2,0.3-8-2.8
	c-0.8-3.1,6.3-1.8,6.3-1.8s0.4-4.7-0.7-6.9c-1.2-2.3-2.4-5.2-7.4-8.2c-5-3-17.4-11-22.2-14.1s-8.9-4-7.6-11.9s5.5-17.7,9.1-21.8
	c3.6-4.1,6.9-14,6.9-14s-16.8,19.5-33.9,17.3c0,0-5.8-0.2-6.3-4.5c0,0-6.2,0.1-7.4-4.2c0,0-6.2-2.8-1.9-5.2
	c4.3-2.4,20.3-11.3,28.3-26.3c0,0-19.5,8.1-28.8-10.1c0,0-8.6,8.1-11.3,10s-4.9-0.9-4.2-6.4c0,0-7.4,6.8-10.8,12.1
	c-3.4,5.3-6.8,7.6-7.1,4.3c-0.3-3.3,3.9-11,3.9-11s-5.8,7.1-8.6,6.9c-2.9-0.3,3.7-13.1,3.7-13.1s-9.7,14.1-12.5,14.9
	s-1.1-8.1,2.8-14.8c3.9-6.7,12-17,12-17s-16.5,12.9-19.1,12.7c-2.6-0.2,5-18,37.4-42.3s48.4-24.5,51-22.7s-1.2,11.4,2.3,17.7
	C138.9,130.5,147,133.7,151.3,134.4z"/>
<path class="st0" d="M113.9,197.5c0,0-17-0.3-22.6-1s-9.3,0.9-10.1,3.3s0,6.6,5.7,16.9c5.7,10.3,12.5,21.7,15.1,25.7
	c2.7,4,2.4,5.8,5.5,7.3c3.1,1.5,4.9,2.5,4.3,5.9s-1.8,3.2-3.9,5.6s-2,4.6-0.4,4.5c0,0-2.4,2.2,0.9,2.8c3.3,0.6,5.6-1.7,6.2-3.1
	c0,0,2.1,7.6,4.3,1s3.2-12.1-0.7-16.3c-3.9-4.2-5.5-3.3-9.3-8.9c-3.8-5.6-13.1-21.4-14.3-23.4c-1.2-1.9-6-11.7-6-12.7
	c0-1,6.2-2.7,18.1-1.1"/>
<polyline class="st1" points="266.5,68.4 233,93.3 207.7,115.1 174.2,142.6 144,186.2 134.1,244.1 110.9,264.7 "/>
<polyline class="st1" points="174.2,142.6 220.7,189 144,186.2 "/>
<g>
	<circle class="st2" cx="220.7" cy="189" r="3.5"/>
</g>
<g>
	<circle class="st2" cx="144" cy="186.2" r="3.5"/>
</g>
<g>
	<circle class="st2" cx="266.5" cy="68.4" r="2.4"/>
</g>
<g>
	<circle class="st2" cx="134.1" cy="244.1" r="1.9"/>
</g>
<g>
	<circle class="st2" cx="174.2" cy="142.6" r="1.9"/>
</g>
<g>
	<circle class="st2" cx="207.7" cy="115.1" r="1.9"/>
</g>
<g>
	<circle class="st2" cx="233" cy="93.3" r="1.4"/>
</g>
<g>
	<circle class="st2" cx="110.9" cy="264.7" r="1.4"/>
</g>
</svg>
