<?xml version="1.0" encoding="utf-8"?>
<!-- Generator: Adobe Illustrator 28.1.0, SVG Export Plug-In . SVG Version: 6.00 Build 0)  -->
<svg version="1.1" id="Layer_1" xmlns="http://www.w3.org/2000/svg" xmlns:xlink="http://www.w3.org/1999/xlink" x="0px" y="0px"
	 viewBox="0 0 360 360" style="enable-background:new 0 0 360 360;" xml:space="preserve">
<style type="text/css">
	.st0{fill:none;stroke:#BFBFBF;stroke-width:3;stroke-linecap:round;stroke-linejoin:round;stroke-miterlimit:10;}
	.st1{fill:none;stroke:#FFFFFF;stroke-width:0.75;stroke-linejoin:round;stroke-miterlimit:10;}
	.st2{fill:#FFFFFF;}
</style>
<path class="st0" d="M243.1,238.6c0,0,1.7-5.3,1.4-7.5c0,0-12.1-2.1-16-7.8l-5.3,7.5c0,0,5.1-0.4,7.1,2.1c0,0-9,0.2-10.8,3.8
	c-1.8,3.5-5.5,7.3-5.5,7.3s6.7,0.7,6.9,2.5c0,0-6.9-2.4-12.5,6.1c0,0,2.3,1.6,2.5,4.7c0,0-2.7-4.7-8.3,1.8
	c-5.7,6.4-4.7,4.2-12.4,5.7c-7.8,1.4-18.6,2.3-22.3-0.8c-3.7-3.1-3.9-7.4-3.9-7.4s-6-2.5-4.7-8.1c1.3-5.5,3.1-5.5,3.1-5.5
	s-0.1-3.8,2.2-5.5c2.3-1.8,4.4-3.4,4.5-6.7c0.1-3.2,0.1-7,1.3-7.1c1.2-0.1,2.8-0.1,2.8-0.1s-0.4-4.5,1.2-6.7s0.8-5.3,0.8-5.3
	s-9.5-2.4-12-5.5c-2.4-3.1-3.7-6.2-6.7-7.9c-3-1.7-11.1-5.8-14.5-12.2c0,0-1.3-3.4-4.8-3.3c-3.4,0.1-14-1.6-17.2-2.1s-7.9-1.2-9,1.8
	c-1.1,3-4.1,8.6-8.1,8.8c-4,0.1-5,1.7-8.4-0.2s-7.4-4.1-6.5-5.5c0.9-1.4-0.3-5.7,1.1-10c1.4-4.3,3.1-8.2,9.8-8.5"/>
<path class="st0" d="M103.9,166.6c0,0,6.1,1.8,13.7-0.9c7.6-2.7,14.6-3.8,21-3.2c6.3,0.6,9.4,0.4,13.1,3.8
	c3.7,3.3,18.7,13.7,18.7,13.7s0.8-4.3,1.6-6c0,0-0.6-10.8-0.6-13.6c0-2.9-1-2.5-2.9-5.8c-0.4-0.8-0.4-0.8-0.4-0.8
	s-12.5,5.5-20.4-0.2c-7.9-5.8-22.9-12.6-26.7-19.4c-3.8-6.8-9.8-5.7-9.8-13.1c0-7.4,0.3-8.4,3.7-15.5s3.1-12,8.9-24.4s9.3-17,3-24.1
	c-6.3-7.1-10-11.5-10-11.5s-11.6-2.7-11-6c0.7-3.3,5.9-1.7,12.3-1.4c6.4,0.2,10.3,1.8,12.2,3.1c1.9,1.3,7.1,2.5,13.5,2.1
	c6.4-0.4,10.1,0.8,9.9,5.8s-5.2,7.4-7.1,16.6s-0.2,11.2-0.8,18.7s-3.4,18.8-9.9,23.9c0,0,2.4,2.7,8.2,4c5.8,1.3,17.2,5.2,17.2,5.2
	s-6.1-4.1-1.7-8.1c0,0-1.7-4.5,2.7-6c0,0,0.7-5.5,3.2-8.4c0,0,0.8,6.9,4.1,10c0,0-1.7-8.9,2-13.1c0,0,0.7,7.9,3.2,10.4
	c0,0,3.1-6.9,1.9-10.9c0,0,3.8,5.3,3.2,9.3l2.7-6.8l3.5,6.5c0,0,3.8-23.1,5.5-33c1.8-10,3.3-17.6,7.9-19c4.5-1.3,7.8-2.3,14.5,1.1
	c6.8,3.4,22.7,10.9,22.7,10.9s3.7-5.2,3.8-7.6c0.1-2.4-0.2-5.8-2.8-7.8c-2.5-2-2.3-4.8,0-6.4c2.3-1.7,7.3,0.7,9.6,0.4
	s4.9,1.7,5.9,4.8c1,3.1,4.1,8.4,0.7,15c-3.4,6.5-1,11.2-1.1,16.2c-0.1,5-2.2,9.4-7.9,7.9s-2.4-5.7-12.4-4.8
	c-10,0.9-11.4,0.2-13.3-0.1c0,0,4.1,15.7,5.1,20.1c1,4.3,5.8,11.4,5.2,19.7s-2,11.5-2.9,17.3c-0.9,5.8-0.8,7.9-0.1,13.5
	c0.7,5.7,0.1,13.4,0.6,21.5c0.4,8.1,0.6,16.7,3.8,21.6c3.2,4.9,7.3,8.6,13.6,12.4c6.3,3.8,15.4,10.6,17.6,14.9s7.5,5.2,5.4,9.5
	c-2.1,4.3-5.3,12.3-12,18.7c-6.7,6.4-7.1,11.9-9.3,15.4c-2.2,3.5-5.4,6.9-7.9,7.1c-2.4,0.2-10,3.5-10.5-4.3c0,0-4.4,0.3-3.2-4.4
	c1.2-4.8-0.1-5.1,4.9-9.4s5.9-4,5.9-4l1.2,5.8c0,0,2.4,1.1,5.5,1.6"/>
<path class="st0" d="M235.5,247.8l1.8-6.7c0,0,2.4-2.8,6.8-1.4c4.3,1.3,4.1,5.2,4.1,5.2l-7.1,9.3"/>
<path class="st0" d="M224.7,264.5c0,0-5.2,4-6.2,5.5c-1,1.6-1.8,2.8-2.2,4.5c-0.4,1.8-6.3,3-7,5.4s0.9,2.2-1.4,5.4
	c-2.3,3.2-5.2,9.6-5.3,13.7c-0.1,4.1-1.6,6.9,2.2,10.5s11.1,6.9,14,3s2.5-10.3,4.5-12.4c2-2.1,5.7-2.2,5.9-7.1s0.9-5.8,2.1-8.5
	s0.3-3.1,2.1-5.9c1.8-2.8,3.8-6.5,1.8-8.2"/>
<path class="st0" d="M97.8,171.1c0,0,7.5-22.2,8.2-27.7l3.1,6l-7.4,23.3L97.8,171.1z"/>
<path class="st0" d="M90.7,188.9c0,0-5.1,3.8-9.5,5.9c-4.4,2.1-5,1.8-5,1.8"/>
<polyline class="st0" points="80.2,200.3 88,196 81.7,206.1 "/>
<line class="st0" x1="87.8" y1="205.4" x2="95.8" y2="191.3"/>
<ellipse class="st0" cx="89.4" cy="214.8" rx="10.3" ry="8.9"/>
<ellipse class="st0" cx="69" cy="205.8" rx="11.2" ry="10.9"/>
<ellipse class="st0" cx="69.1" cy="227.6" rx="8.9" ry="9.2"/>
<path class="st0" d="M57.8,205.8c0,0-4.8-6.5-4.8-10.5c0,0-9.5,17,7,18.1"/>
<path class="st0" d="M46.1,203.7c10.3,2.1-5.2-18.5-5.2-18.5S35.5,201.4,46.1,203.7z"/>
<path class="st0" d="M84.7,230.3c-5.2-9.2-10.5,16.1-10.5,16.1S90.1,239.7,84.7,230.3z"/>
<path class="st0" d="M46.1,205.2c10.5,1.2-10.8,15.9-10.8,15.9S35.3,203.9,46.1,205.2z"/>
<path class="st0" d="M85,227.4c-2.9-10.1,18.8,3.9,18.8,3.9S88,237.9,85,227.4z"/>
<path class="st0" d="M94.2,233.6c0,0,6.8,3,8,15.4c0,0-14.4,1.8-16.3-13.3"/>
<path class="st0" d="M39.4,197.3c0,0-9.8-11.7-16.2-9.1c0,0,0.1,16,15.1,19.3"/>
<path class="st0" d="M161.3,117.6c0,0-5.9,1.7-9.4,1.2s-5.7-0.9-5.7-0.9s3.5,5.5,11.1,6.5c0,0-4.8,3.5-10.5,1.1c0,0,0.7,5.2,7.6,5.6
	c0,0-10,4.7-17.4,1.2c0,0,4.2,5.2,11.3,5.6c0,0-8.6,0.6-14.2,2.6c0,0,8.4,1.1,10.8,2.7l-10.6,1.3"/>
<path class="st0" d="M186.4,99.6c0,0,4.6,4.9,5,6.5c0.4,1.6,1.8-9.3,1.8-9.3l3,8.3c0,0,3.9-6.9,2.4-10.3c0,0,6.3,6.2,6.5,9.1
	c0,0,2.7-10.1,1.9-12.1c0,0,3.7,5.7,4.7,10.5c0,0,1.4-10.7,3.8-12.2c0,0-0.7,8.3,2.3,11.1c0,0,1-9.6,4.7-10.4"/>
<path class="st0" d="M175.4,211.5c0,0,0.6-4.2-0.3-6.1s4.3,1,5.7,3.1s2.5-3.3,4.8-0.1c2.2,3.2,3,2.1,5.4,6.1s5.4,7,5.4,8.8
	c0,1.8-0.8,5.5-0.8,5.5"/>
<path class="st0" d="M192.2,229.6c0,0,5.8-1.7,5.3,3.8s0.1,6.7-5.2,5.7"/>
<path class="st0" d="M193.5,239.6c-5.6,7.6-11,7.6-18.3,6.2c-2-0.4-3.9-1.4-5.3-2.9l-5.1-5.5"/>
<path class="st0" d="M164.1,256.5"/>
<path class="st0" d="M195.9,226.5c0,0,4-0.4,4.3-9.2c0,0,1.8,4.2,2.3,9.2c0,0,2.7-9.1,8.9-8s2.9-11.6,2.9-11.6s5.7,7,4.5,11.1
	c0,0,4.3-6,9.9-3.9c0,0-6.1,3.2-4.7,6c1.4,2.8-0.4,10.1-0.8,10.8"/>
<path class="st0" d="M171.4,160.3c0,0,2.8-11.7,9.1-12.1c6.3-0.4,10-8.7,20-7.6c10,1,17.2-4.8,25.6,2"/>
<polygon class="st1" points="167.9,271 241,216.5 217,147.3 188.8,153.5 166.5,196.7 "/>
<polyline class="st1" points="244.6,286.8 255.3,267.3 256.8,230.9 241,216.5 "/>
<polyline class="st1" points="134,47 107.4,107.2 153.6,110.2 165.8,112.6 210.5,95.5 217,147.3 "/>
<line class="st1" x1="188.8" y1="153.5" x2="165.8" y2="112.6"/>
<polyline class="st1" points="274.8,61.8 250.8,48.2 235.5,40.4 220.2,69.9 210.5,95.5 "/>
<polyline class="st1" points="85.5,165.3 100.5,163.6 117.4,175.5 141.6,188 166.5,196.7 "/>
<g>
	<circle class="st2" cx="167.9" cy="271" r="2.3"/>
</g>
<g>
	<circle class="st2" cx="241" cy="216.5" r="2.3"/>
</g>
<g>
	<circle class="st2" cx="217" cy="147.3" r="2.3"/>
</g>
<g>
	<circle class="st2" cx="166.5" cy="196.7" r="2.3"/>
</g>
<g>
	<circle class="st2" cx="188.8" cy="153.5" r="1.4"/>
</g>
<g>
	<circle class="st2" cx="165.8" cy="112.6" r="1"/>
</g>
<g>
	<circle class="st2" cx="153.6" cy="110.2" r="1"/>
</g>
<g>
	<circle class="st2" cx="210.5" cy="95.5" r="1"/>
</g>
<g>
	<circle class="st2" cx="220.2" cy="69.9" r="1"/>
</g>
<g>
	<circle class="st2" cx="235.5" cy="40.4" r="1"/>
</g>
<g>
	<circle class="st2" cx="250.8" cy="48.2" r="1"/>
</g>
<g>
	<circle class="st2" cx="274.8" cy="61.8" r="0.8"/>
</g>
<g>
	<circle class="st2" cx="134" cy="47" r="1.2"/>
</g>
<g>
	<circle class="st2" cx="107.4" cy="107.2" r="0.8"/>
</g>
<g>
	<circle class="st2" cx="141.6" cy="188" r="1.1"/>
</g>
<g>
	<circle class="st2" cx="117.4" cy="175.5" r="1.1"/>
</g>
<g>
	<circle class="st2" cx="100.5" cy="163.6" r="1.1"/>
</g>
<g>
	<circle class="st2" cx="85.5" cy="165.3" r="1.1"/>
</g>
<g>
	<circle class="st2" cx="256.8" cy="230.9" r="1.4"/>
</g>
<g>
	<circle class="st2" cx="255.3" cy="267.3" r="1"/>
</g>
<g>
	<circle class="st2" cx="244.6" cy="286.8" r="1"/>
</g>
</svg>
