<?xml version="1.0" encoding="utf-8"?>
<!-- Generator: Adobe Illustrator 28.1.0, SVG Export Plug-In . SVG Version: 6.00 Build 0)  -->
<svg version="1.1" id="Layer_1" xmlns="http://www.w3.org/2000/svg" xmlns:xlink="http://www.w3.org/1999/xlink" x="0px" y="0px"
	 viewBox="0 0 360 360" style="enable-background:new 0 0 360 360;" xml:space="preserve">
<style type="text/css">
	.st0{fill:none;stroke:#BFBFBF;stroke-width:3;stroke-linecap:round;stroke-linejoin:round;stroke-miterlimit:10;}
	.st1{fill:none;stroke:#FFFFFF;stroke-width:0.75;stroke-linejoin:round;stroke-miterlimit:10;}
	.st2{fill:#FFFFFF;}
</style>
<ellipse transform="matrix(0.4051 -0.9143 0.9143 0.4051 -44.3855 124.268)" class="st0" cx="73.3" cy="96.2" rx="21.2" ry="18.4"/>
<ellipse transform="matrix(0.2255 -0.9742 0.9742 0.2255 -0.82 371.6814)" class="st0" cx="233.4" cy="186.4" rx="57" ry="40.2"/>
<line class="st0" x1="92.4" y1="97" x2="191.1" y2="150.4"/>
<line class="st0" x1="88.4" y1="107.2" x2="186.6" y2="160.4"/>
<path class="st0" d="M244.9,120.5c0,0-24.8-10.4-38.1,6c-13.3,16.4-14.2,1.6-12.4-1.8c0,0-10.6-0.2-8,10.4s7.3,12,4.2,20.8
	c-3.1,8.9-8.9,9.3-14.4,10.4c-5.5,1.1-14,14.2-6.2,20.4c0,0,3.5-7.8,8-4.4s3.1,11.5,0,21.1c-3.1,9.5-1.8,32.8,19.7,40.8
	c0,0-3.3,5.1,3.8,10.6s19.7,7.3,20-4.9l7.8,0.7c0,0,1.1,7.8,8.6,7.8s12-12.6,12-12.6s7.8,3.3,10.9-4.7c0,0,8.4,5.3,15.3-2
	c6.9-7.3,3.3-9.5,12.6-12.9s7.5-9.1,5.3-14.2c-2.2-5.1-8.2-18.4-6.2-29.3s2.7-15.5-2.4-19.1c0,0,3.8-16.8-6.2-19.3
	c0,0-2.9-12.9-9.1-8.2l-5.3-2.7c0,0,8.4-16-3.1-20.2C250,109.2,245.1,113.6,244.9,120.5z"/>
<path class="st0" d="M197.7,244.2c0,0,10.6-4.7,13.1,2c2.4,6.7-7.1,5.8-6.9,2.9"/>
<path class="st0" d="M244.9,120.5c0,0,4.2,8.4,9.1,8c4.9-0.4,5.5-7.1,1.1-8.2"/>
<ellipse transform="matrix(0.2857 -0.9583 0.9583 0.2857 -8.1811 353.9815)" class="st0" cx="233.4" cy="182.5" rx="15" ry="12"/>
<ellipse transform="matrix(0.2857 -0.9583 0.9583 0.2857 -8.1811 353.9815)" class="st0" cx="233.4" cy="182.5" rx="5.6" ry="4.5"/>
<path class="st0" d="M236.1,186.8c0,0,1,10,4.9,11.2c0,0-3.7,2.1-0.7,5.1c0,0-1.9,3.1-0.3,7.5c1.6,4.4,2.1,11.7,2.1,11.7l-2.8,7.9
	l-2.8-17.6c0,0-0.7-3-2.4-4.1c-1.8-1.1,1.4-5.5-2.2-8.1c0,0,1.8-4,1.6-7.1c-0.2-3.1-0.7-5.3-0.7-5.3"/>
<path class="st0" d="M238,179.7c0,0,4.9-4.7,7.8-4c0,0-0.1-3.2,2.8-4.5c2.9-1.3,8.8-5.9,8.8-5.9l1.7-5.2c0,0-11.2,6.7-17.5,6.9
	c0,0,0.4,2.7-1,4.2c-1.4,1.6-5.5,5.9-5.5,5.9"/>
<line class="st0" x1="247.3" y1="218.2" x2="255" y2="221.3"/>
<line class="st0" x1="256.1" y1="218.3" x2="253.6" y2="224.8"/>
<line class="st0" x1="248.5" y1="214.7" x2="246" y2="221.8"/>
<line class="st0" x1="236.2" y1="227.5" x2="232.9" y2="236.8"/>
<line class="st0" x1="227.7" y1="226.7" x2="234.8" y2="229.7"/>
<line class="st0" x1="225.8" y1="230.1" x2="233.7" y2="233.7"/>
<line class="st0" x1="228.5" y1="223.2" x2="224.3" y2="233.1"/>
<line class="st0" x1="221.4" y1="220.7" x2="216.3" y2="233.2"/>
<line class="st0" x1="212.5" y1="217.1" x2="208.2" y2="229.4"/>
<line class="st0" x1="220.1" y1="223.2" x2="211.6" y2="219.7"/>
<line class="st0" x1="217.9" y1="226.7" x2="210.6" y2="223.8"/>
<line class="st0" x1="217" y1="230.7" x2="209" y2="227.7"/>
<line class="st0" x1="208" y1="202.9" x2="203.5" y2="215.3"/>
<line class="st0" x1="200.1" y1="197.9" x2="196.9" y2="207.4"/>
<line class="st0" x1="207.3" y1="204.2" x2="200" y2="200.1"/>
<polyline class="st0" points="206.6,206.2 198.6,204.8 203.4,213.2 "/>
<line class="st0" x1="207.2" y1="181.4" x2="203.5" y2="193.1"/>
<line class="st0" x1="199.4" y1="178.9" x2="196.6" y2="188"/>
<polyline class="st0" points="206.8,182.7 198.3,183 203.4,189.1 "/>
<line class="st0" x1="209.9" y1="171.3" x2="214.4" y2="159.5"/>
<line class="st0" x1="205.9" y1="158.1" x2="201.8" y2="168.3"/>
<line class="st0" x1="202.3" y1="166.4" x2="210" y2="169.1"/>
<polyline class="st0" points="211.2,166.5 205.6,161.5 213,161.2 "/>
<line class="st0" x1="216.6" y1="143.5" x2="211.7" y2="153.3"/>
<line class="st0" x1="219.4" y1="156.8" x2="225.4" y2="142.9"/>
<line class="st0" x1="212.4" y1="152.2" x2="219.5" y2="155.2"/>
<line class="st0" x1="214.3" y1="148.8" x2="221.6" y2="151.6"/>
<polyline class="st0" points="224.9,144.1 216.7,144.3 221.8,149.1 "/>
<line class="st0" x1="241.7" y1="136.6" x2="234.2" y2="155.4"/>
<polyline class="st0" points="234.8,152.8 227.5,150.4 233.4,136.9 "/>
<line class="st0" x1="236.2" y1="149.2" x2="229.3" y2="146.7"/>
<line class="st0" x1="237.8" y1="145.8" x2="231.1" y2="143.3"/>
<polyline class="st0" points="239.2,142.7 232.9,138.1 240.6,137.6 "/>
<line class="st0" x1="247.8" y1="140.7" x2="241.6" y2="154.8"/>
<line class="st0" x1="248.9" y1="159" x2="255.9" y2="143.3"/>
<line class="st0" x1="248.2" y1="142" x2="254.8" y2="145"/>
<line class="st0" x1="253.4" y1="148.3" x2="242.6" y2="152.8"/>
<line class="st0" x1="246.1" y1="145.2" x2="249.2" y2="157.2"/>
<line class="st0" x1="260.8" y1="147.9" x2="255.6" y2="159.6"/>
<line class="st0" x1="267.5" y1="154" x2="263.5" y2="164.9"/>
<line class="st0" x1="260.8" y1="149.6" x2="264.2" y2="162.2"/>
<line class="st0" x1="266.6" y1="154.8" x2="256.6" y2="158.1"/>
<line class="st0" x1="268.1" y1="167.8" x2="263.4" y2="179.9"/>
<line class="st0" x1="269.9" y1="183.6" x2="272.7" y2="173.9"/>
<line class="st0" x1="265" y1="179.1" x2="269.5" y2="181.1"/>
<line class="st0" x1="267.9" y1="168.7" x2="271" y2="179.8"/>
<line class="st0" x1="272.7" y1="172.9" x2="265.3" y2="175.5"/>
<polyline class="st0" points="254.6,203 261.1,187.8 265.8,199.5 "/>
<line class="st0" x1="269.4" y1="191.3" x2="263.8" y2="207.1"/>
<line class="st0" x1="255.5" y1="201.7" x2="263.8" y2="205.9"/>
<line class="st0" x1="257.2" y1="198" x2="264.9" y2="202"/>
<line class="st0" x1="258.4" y1="195" x2="268.8" y2="193"/>
<polyline class="st1" points="195.1,322.1 193.8,274.4 234.7,221.8 243.5,201 238,180.7 65.4,88.1 "/>
<g>
	<circle class="st2" cx="65.4" cy="88.5" r="1.8"/>
</g>
<g>
	<circle class="st2" cx="238" cy="181.2" r="1.5"/>
</g>
<g>
	<circle class="st2" cx="243.5" cy="201.4" r="1.5"/>
</g>
<g>
	<circle class="st2" cx="193.8" cy="274.9" r="1.5"/>
</g>
<g>
	<circle class="st2" cx="195.1" cy="322.6" r="1.5"/>
</g>
<g>
	<circle class="st2" cx="234.7" cy="222.3" r="1.5"/>
</g>
</svg>
