<?xml version="1.0" encoding="utf-8"?>
<!-- Generator: Adobe Illustrator 28.1.0, SVG Export Plug-In . SVG Version: 6.00 Build 0)  -->
<svg version="1.1" id="Layer_1" xmlns="http://www.w3.org/2000/svg" xmlns:xlink="http://www.w3.org/1999/xlink" x="0px" y="0px"
	 viewBox="0 0 360 360" style="enable-background:new 0 0 360 360;" xml:space="preserve">
<style type="text/css">
	.st0{fill:none;stroke:#BFBFBF;stroke-width:3;stroke-linecap:round;stroke-linejoin:round;stroke-miterlimit:10;}
	.st1{fill:none;stroke:#FFFFFF;stroke-width:0.75;stroke-linejoin:round;stroke-miterlimit:10;}
	.st2{fill:#FFFFFF;}
</style>
<path class="st0" d="M277.6,108.1c0,0-2.8-5.7-10.8-5.4c-8,0.2-13.2,7.5-13.2,13.6s4.1,14.9,13.2,15c9.1,0.2,15.5-5.7,17.2-11
	c1.7-5.3,7.4-11.3,10.3-11.1l10.5,1.7c0,0,3,1,4.4,2.7c1.4,1.7,7.6,2.3,9.8,1.1c2.2-1.2,3.6-3.3,6.3-3.1c2.7,0.2,4.7-1.1,2.6-2
	c-2.1-0.9-8.6-2.2-9.6-2.5c-0.9-0.2,7.1-0.8,9.2-2c2.2-1.2,2.1-4.2-0.2-4.7c-2.3-0.5-4.7-2.1-7.8-1.7c-3.2,0.4-5.3-2.3-5.7-3.2
	c-0.4-0.9-1.7-2.2-4.7-2.7c-3.1-0.5-6.6-3.1-10.5-2.7c-3.9,0.4-8,1.2-12.7,1.5c-4.7,0.2-5.7,0.7-5.7,0.7l8.3,4.7
	C288.4,97,279.4,101.2,277.6,108.1c-1.8,6.9-5.8,14.4-9,14.3c-3.2-0.1-4.6-5.5-0.4-6.4c0,0,3.6-0.6,3.4,3.9"/>
<path class="st0" d="M282.5,124c0,0,4.4,14.6-5,27.5c-9.4,12.9-25.7,12.7-29.2,12.3c-3.5-0.4-31.3,1.1-39,17s-9.6,21.2-13.4,28.8
	c-3.8,7.6-11.7,21.9-29.7,21.9s-20.4-21.8-25.6-27.6c-5.2-5.8-12.3,0.2-21.4-2.4c-9.1-2.7-10.6-9.9-17.3-8.3
	c-6.7,1.6-15.5,11.1-21.8,11.4c-6.3,0.3-12.3-2.5-19.2,2.9s-11.1,6.5-16.4,3.5c-5.3-3-8.1-4-11.7-1.9s-4.4,2.2-8.4,1.3
	c-4-0.9-8-0.6-8-0.6s5.8-4.1,10.1-3.5s6.8-4.4,11.5-3.3s9.3,6.1,14,4s5.2-7.6,14.5-8.9s12.3,1.7,18.1-4.7
	c5.8-6.3,14.3-10.9,22.4-8.8s11,8.4,18.5,6.9c7.5-1.6,15.1-2.5,20,1.9c4.9,4.4,9.5,21.9,17.6,22.8c8.1,0.9,14.4-3.1,18.5-9.9
	c4.1-6.8,15.6-36.1,19.7-42c4.1-5.9,18-18,31.6-15.6s35.2-2.1,38-17.6"/>
<polyline class="st1" points="43.1,214.7 73,205 104.5,189.4 166,218.1 179.1,211.3 194,183.3 202.7,169.7 210.4,163.7 227.2,166.3 
	239.5,153.7 252.8,162.3 272.3,145.8 265.8,121.8 286.7,113.7 303.1,104.7 310.2,104.2 317,107.5 314.7,114.7 311.4,113.9 
	308.6,105.8 "/>
<g>
	<circle class="st2" cx="43.1" cy="214.7" r="0.7"/>
</g>
<g>
	<circle class="st2" cx="166" cy="218.1" r="0.6"/>
</g>
<g>
	<circle class="st2" cx="179.1" cy="211.3" r="0.6"/>
</g>
<g>
	<circle class="st2" cx="194" cy="183.3" r="0.6"/>
</g>
<g>
	<circle class="st2" cx="202.7" cy="169.7" r="0.6"/>
</g>
<g>
	<circle class="st2" cx="210.4" cy="163.7" r="0.6"/>
</g>
<g>
	<circle class="st2" cx="227.2" cy="166.3" r="0.6"/>
</g>
<g>
	<circle class="st2" cx="239.5" cy="153.6" r="0.6"/>
</g>
<g>
	<circle class="st2" cx="252.8" cy="162.3" r="0.6"/>
</g>
<g>
	<circle class="st2" cx="265.8" cy="121.8" r="0.6"/>
</g>
<g>
	<circle class="st2" cx="286.7" cy="113.7" r="0.6"/>
</g>
<g>
	<circle class="st2" cx="303.1" cy="104.7" r="0.6"/>
</g>
<g>
	<circle class="st2" cx="310.2" cy="104.2" r="0.6"/>
</g>
<g>
	<circle class="st2" cx="317" cy="107.5" r="0.6"/>
</g>
<g>
	<circle class="st2" cx="314.7" cy="114.7" r="0.6"/>
</g>
<g>
	<circle class="st2" cx="311.4" cy="113.9" r="0.6"/>
</g>
<g>
	<circle class="st2" cx="308.6" cy="105.8" r="0.6"/>
</g>
<g>
	<circle class="st2" cx="272.3" cy="145.8" r="1"/>
</g>
<g>
	<circle class="st2" cx="73" cy="205" r="0.9"/>
</g>
<g>
	<circle class="st2" cx="104.5" cy="189.4" r="0.9"/>
</g>
</svg>
