<?xml version="1.0" encoding="utf-8"?>
<!-- Generator: Adobe Illustrator 28.1.0, SVG Export Plug-In . SVG Version: 6.00 Build 0)  -->
<svg version="1.1" id="Layer_1" xmlns="http://www.w3.org/2000/svg" xmlns:xlink="http://www.w3.org/1999/xlink" x="0px" y="0px"
	 viewBox="0 0 360 360" style="enable-background:new 0 0 360 360;" xml:space="preserve">
<style type="text/css">
	.st0{fill:none;stroke:#BFBFBF;stroke-width:3;stroke-linecap:round;stroke-linejoin:round;stroke-miterlimit:10;}
	.st1{fill:none;stroke:#FFFFFF;stroke-width:0.75;stroke-linejoin:round;stroke-miterlimit:10;}
	.st2{fill:#FFFFFF;}
</style>
<path class="st0" d="M216.2,59.2c0,0-10.4,26.2-16.8,51s-17.7,24.6-32.1,26.4c-14.4,1.8-72.7,15.3-72.7,59.2s37.9,46.6,37.9,46.6
	s23.1,2.2,32.8-9.8c9.8-12,13.3-20.6,22.2-19.1c8.9,1.6,2.2,19.5,2.2,19.5s-5.5,12.2,0.2,21.3c5.8,9.1,27.7,6.4,35.7,9.1
	c8,2.7,18.8,16,18.8,16s17.5,14.2,30.8,4.4s-4.7-23.5-13.3-22.8c-8.6,0.7-17.3-0.2-25.1-6.4s-23.3-11.1-23.3-11.1s-7.8-3.1-6.7-13.1
	c1.1-10,8.6-34.1-12.4-37c-21.1-2.9-35,18-35,18s-13.7,17.3-35.5,7.1s-12.2-40.8,6.4-51.9s41-11.1,41-11.1s30.6,0.4,33.7-17.3
	c3.1-17.7,8.6-33.3,9.5-49.4S224.6,41.5,216.2,59.2z"/>
<polygon class="st1" points="113.6,223.9 222.6,57.2 261.5,270.2 "/>
<g>
	<circle class="st2" cx="222.6" cy="57.2" r="2.5"/>
</g>
<g>
	<circle class="st2" cx="261.5" cy="270.2" r="1.8"/>
</g>
<g>
	<circle class="st2" cx="113.6" cy="223.9" r="1.8"/>
</g>
<path class="st0" d="M277.9,281.2c6.5,1.4,12.5,14,12.5,14s-0.6-5-0.9-9.1c-0.3-4.1,5.7-3.8,5.7-3.8s-12.7-1.1-15.9-4"/>
</svg>
