<?xml version="1.0" encoding="utf-8"?>
<!-- Generator: Adobe Illustrator 28.1.0, SVG Export Plug-In . SVG Version: 6.00 Build 0)  -->
<svg version="1.1" id="Layer_1" xmlns="http://www.w3.org/2000/svg" xmlns:xlink="http://www.w3.org/1999/xlink" x="0px" y="0px"
	 viewBox="0 0 360 360" style="enable-background:new 0 0 360 360;" xml:space="preserve">
<style type="text/css">
	.st0{fill:none;stroke:#BFBFBF;stroke-width:3;stroke-linecap:round;stroke-linejoin:round;stroke-miterlimit:10;}
	.st1{fill:none;stroke:#FFFFFF;stroke-width:0.75;stroke-linejoin:round;stroke-miterlimit:10;}
	.st2{fill:#FFFFFF;}
</style>
<path class="st0" d="M174.4,265.5c0,0,18.5-14.7,32.7-23.2c14.2-8.4,17.3-32.1,17.3-32.1s2.9-22.2,5.1-34.6
	c2.2-12.4,12.4-43,12.4-43c1.3-30.4-31.9-77.1-31.9-77.1s-6.4-12.1-11.4-10.6c-5,1.5-5.5,22.8-6,35.2s-8.1,53.9-8.1,53.9"/>
<path class="st0" d="M162,274.3c0.4-4.9,4.7-5.2,12.4-8.8c7.8-3.5,10.2,0.9,10.4,2.2c0.2,1.3,1,9.5,1,9.5c8.8,0.7,2,11.1-0.3,14.2
	c-2.3,3.1-4.3,11-4.3,11s-17.8-2.9-28-15.7s-2.7-25.3-0.7-38.9c2-13.6,14.6-83.7-33.5-100.5l4.5,7.5l-5.7,2.2l7.8,9l-6,1.2l6.3,10.5
	l-4.7,1.3l2.3,6.8l-5.2,2l5.7,9.8l-7.5,0.3l5.5,12l-7.8-2.3l4.3,16l-8.6-5l3.8,15.5l-8-4l6.5,10.3l-7.3,0.5l4.7,8.1h-7.8l5.8,18
	l-14.3-4.7l12.8,17.3c0,0-18.5-2.5-19-1.3c-0.5,1.2,17.3,12.8,17.3,12.8s-14-0.7-16,1.3s12.8,7.6,12.8,7.6s-11.1-1.5-11.5,0.2
	c-0.3,1.7,7.6,7,7.6,7l-8.5,0.3c0,0,51.2,25.3,90.1-5"/>
<path class="st0" d="M183.3,264.8c0,0,18.1-10,25.6-13.3c7.5-3.3,23.4-12.3,23.3-23.1c-0.2-10.8-9.1-15-9.1-15s-2.2-10.3-14.4-12.5
	c-12.2-2.2-19.7,15.7-40.8,13.3"/>
<path class="st0" d="M155.2,197.8c0,0,2.8-8,9.8-15.1c7-7.1,6.2-14,11-28.1c4.8-14.1,9.6-26.1,23.8-38.1"/>
<path class="st0" d="M162.9,185c0,0,5.7-32.1-9.1-41.4l1.5,5.5h-7.1l2.5,7l-7.1-2.8l5.5,10.5l-8.5-2.3"/>
<path class="st0" d="M211.6,57.1c0,0,0.7-4.3,2-6.7c1.3-2.3,2-5.8,2.5-7.5s-0.5-7.5,10.3-7.3s38.6-1.8,39.4,8S253,51.8,253,51.8
	s21.8,3.8,22.3,9.1s-14.8,6-17.5,5.7c-2.7-0.3-6.5-0.2-6.5-0.2s1,42.7-8.5,61.2"/>
<path class="st0" d="M239,113.6c0,0,5.5-18.1,0.8-32.4S239,57.3,239,57.3l-25.4-6.8"/>
<line class="st0" x1="250.8" y1="69.1" x2="238.5" y2="64.4"/>
<polygon class="st1" points="61.2,254.5 135.6,226.4 234.6,149.5 211,210 180.7,296.8 "/>
<g>
	<circle class="st2" cx="234.6" cy="149.5" r="3"/>
</g>
<g>
	<circle class="st2" cx="61.2" cy="254.5" r="2.3"/>
</g>
<g>
	<circle class="st2" cx="180.7" cy="296.8" r="2.3"/>
</g>
<g>
	<circle class="st2" cx="211" cy="210" r="1.8"/>
</g>
<g>
	<circle class="st2" cx="135.6" cy="226.4" r="1.8"/>
</g>
</svg>
