<?xml version="1.0" encoding="utf-8"?>
<!-- Generator: Adobe Illustrator 28.1.0, SVG Export Plug-In . SVG Version: 6.00 Build 0)  -->
<svg version="1.1" id="Layer_1" xmlns="http://www.w3.org/2000/svg" xmlns:xlink="http://www.w3.org/1999/xlink" x="0px" y="0px"
	 viewBox="0 0 360 360" style="enable-background:new 0 0 360 360;" xml:space="preserve">
<style type="text/css">
	.st0{fill:none;stroke:#BFBFBF;stroke-width:3;stroke-linecap:round;stroke-linejoin:round;stroke-miterlimit:10;}
	.st1{fill:none;stroke:#FFFFFF;stroke-width:0.75;stroke-linejoin:round;stroke-miterlimit:10;}
	.st2{fill:#FFFFFF;}
</style>
<path class="st0" d="M150.6,260.1c0,0,8.1,3.5,17.5,26.1c6.3,15.3,17.8,28.3,29.4,21.1s15.8-24.6,5.5-40.7
	c-10.3-16.1-35.6-44.2-35.6-44.2s-18.3-3.8-22.6-11.6c-4.3-7.8-6.8-12-17.8-11.6c-11,0.3-11-4-10.1-8.6c0.8-4.7-0.7-6-2.2-8.5
	c-1.5-2.5,2.8-3.3,4.8-2.8c2,0.5,8.6,2.3,8.8,9.5c0,0,8.6-4.8,14.8-0.5c6.2,4.3,16.5,18.8,16.5,18.8s-17.3-21.6-21.3-51.9
	c0,0-2.3-22.3,1.3-35.1c0,0-9.5-5-9.8-18.8c-0.3-13.8-7-11.3-6.5-17.1c0.5-5.8,6.2-8.3,7.8-6.7s7.3,0,8.3,5.5c1,5.5-1.3,4.3-1,9.5
	c0.3,5.2,4.8,17,12.6,16.5c0,0,4.7-5.7,2-14.8s-4.8-19.6,7.6-30.6c12.5-11,17.3-12.5,23.6-11.3c6.3,1.2,11.3,12.8,12,26.3
	s0.7,16.5-8.8,22.3s-11.5,12.1-9.8,18l10.5,2.8c0,0-2.3-8,1-11.3s3.8-7.8,6.3-6c2.5,1.8,8.3,0.3,8.5,6.3c0.2,6-0.3,13.3-1.2,17.1
	c-0.8,3.8-2.5,8.3-9,7.8c-6.5-0.5-13.5,0-13.5,0s14.6,32.8,8.6,53.2c0,0,14.1,4.3,16.8,15.5c2.7,11.1,10.3,18.3,14.3,21.1
	s6.8,4,6.8,9s-4.7,6.2-8.8,4.2c-4.2-2-6.7-4.5-10.6-5.8c-4-1.3-7.1-6-8.1-9.3s-1.2-9.6-8.3-7.1c0,0,15.1,26.9,22.9,38.6
	c7.8,11.6,14.5,51.2-7.3,63.5s-39.4-4.2-42.9-22.1S150.6,260.1,150.6,260.1z"/>
<polygon class="st1" points="165.6,119.7 178.3,91.9 179.3,50.3 161.5,79.2 "/>
<polygon class="st1" points="188.1,137.5 165.6,119.7 135.7,171.7 163.6,190.4 "/>
<polyline class="st1" points="207.4,272.8 212,241.6 163.6,190.4 "/>
<g>
	<circle class="st2" cx="207.4" cy="272.8" r="2.3"/>
</g>
<g>
	<circle class="st2" cx="212" cy="241.6" r="1.8"/>
</g>
<g>
	<circle class="st2" cx="163.6" cy="190.4" r="1.8"/>
</g>
<g>
	<circle class="st2" cx="188.1" cy="137.5" r="1.8"/>
</g>
<g>
	<circle class="st2" cx="165.6" cy="119.7" r="1.8"/>
</g>
<g>
	<circle class="st2" cx="179.3" cy="50.3" r="1.8"/>
</g>
<g>
	<circle class="st2" cx="178.3" cy="91.9" r="1.8"/>
</g>
<g>
	<circle class="st2" cx="161.5" cy="79.2" r="1.8"/>
</g>
<g>
	<circle class="st2" cx="135.7" cy="171.7" r="1.8"/>
</g>
</svg>
