<?xml version="1.0" encoding="utf-8"?>
<!-- Generator: Adobe Illustrator 28.1.0, SVG Export Plug-In . SVG Version: 6.00 Build 0)  -->
<svg version="1.1" id="Layer_1" xmlns="http://www.w3.org/2000/svg" xmlns:xlink="http://www.w3.org/1999/xlink" x="0px" y="0px"
	 viewBox="0 0 360 360" style="enable-background:new 0 0 360 360;" xml:space="preserve">
<style type="text/css">
	.st0{fill:none;stroke:#BFBFBF;stroke-width:3;stroke-linecap:round;stroke-linejoin:round;stroke-miterlimit:10;}
	.st1{fill:none;stroke:#FFFFFF;stroke-width:0.75;stroke-linejoin:round;stroke-miterlimit:10;}
	.st2{fill:#FFFFFF;}
</style>
<path class="st0" d="M82.7,162c0,0-43.9,10.1-43.9-21s29.4-27.4,52.4-21.4c0,0,8.8-7.5,13.3-9.8c4.5-2.3,5.7-19.5,10.1-15.8
	s11.1,26.8-5.7,34.1s-26.9-0.2-34.3-1.7c-7.3-1.5-23.4-1-23.6,12s14.1,20,26.1,14.8c12-5.2,44.6-25.9,74.3-22.9
	c29.8,3,41.2,4.3,47.6-2.5c0,0-7-4.3-8.8-6.5c-1.8-2.2,9.5-9.1,9.5-9.1s-6-6.8-5.8-9c0.2-2.2,18.3-2.5,18.3-2.5l-6.7-9.1
	c0,0,12.5-2.7,16.8-1.8l-4.3-9.3c0,0,9.6-0.5,14.8,1.5s31.3-4.5,42.9,6.2s13.1,27.4,17.8,29.4s12.8,7.8,12.8,7.8s8.6,4.3,4.7,11
	c-4,6.7-7.3,9.3-7.3,9.3s1.2,13.3-5.7,14c-6.8,0.7-4.8-3.2-11.3-2.5l0.3,8c0,0-5.8-2.3-7-1.7c-1.2,0.7,3.3,6.5,3.5,10.6
	c0.2,4.2-2.7,10.8-2.7,10.8l-4.5-5c0,0-3,19.3-6.8,20.6c0,0-2.2-5.7-7.6-10c0,0-3.5,16.6-15,22.1c0,0-6.7,7.6-8.6,18.6
	c-2,11-2.8,20.1-2.8,20.1s11.5-1,15,5.3c3.5,6.3,3,7.6-1,10.6s-17.5-2.5-21.3-2.3c-3.8,0.2-10.1-1.7-10-14
	c0.2-12.3,3.7-33.4-7.6-43.1c0,0-33.4-0.7-52.4-12.5s-43.1-3.2-46.9-0.2c-3.8,3-13.3,8.1-24.1,11.1c0,0-9.1,9.8-17.3,12.5
	s-8.3,4.8-8.3,4.8s-1.7,8.1-1.2,9.1c0.5,1,7.6,5.2,6.7,10.6c-1,5.5-8.8,4.5-13.8,3.8c-5-0.7-14.6-4-11.5-12.5
	c3.2-8.5,2.2-8.1,1.2-13.5c-1-5.3,3-9.3,9.5-13c6.5-3.7,14.1-10.6,17.8-19.8S76.7,170.3,82.7,162z"/>
<polygon class="st1" points="80.9,180.1 138.9,177.6 140.7,142.4 "/>
<polygon class="st1" points="250,168.4 228.7,148 140.7,142.4 138.9,177.6 "/>
<polyline class="st1" points="124.9,241.7 121.4,210.4 138.9,177.6 "/>
<polyline class="st1" points="228.7,148 233.4,123.2 270.8,103.8 314.9,99.6 305.4,122.6 282.3,118.4 250,168.4 249.2,201.8 "/>
<line class="st1" x1="270.8" y1="103.8" x2="282.3" y2="118.4"/>
<g>
	<circle class="st2" cx="138.9" cy="177.5" r="1.1"/>
</g>
<g>
	<circle class="st2" cx="250" cy="168.3" r="1.1"/>
</g>
<g>
	<circle class="st2" cx="233.4" cy="123.2" r="1.1"/>
</g>
<g>
	<circle class="st2" cx="270.8" cy="103.8" r="1.1"/>
</g>
<g>
	<circle class="st2" cx="282.3" cy="118.4" r="1.1"/>
</g>
<g>
	<circle class="st2" cx="305.4" cy="122.6" r="1.1"/>
</g>
<g>
	<circle class="st2" cx="314.9" cy="99.6" r="1.1"/>
</g>
<g>
	<circle class="st2" cx="80.9" cy="180.1" r="2.5"/>
</g>
<g>
	<circle class="st2" cx="249.2" cy="201.8" r="2.5"/>
</g>
<g>
	<circle class="st2" cx="121.4" cy="210.4" r="1.1"/>
</g>
<g>
	<circle class="st2" cx="124.9" cy="241.7" r="1.1"/>
</g>
<g>
	<circle class="st2" cx="140.7" cy="142.5" r="1.6"/>
</g>
<g>
	<circle class="st2" cx="228.7" cy="148" r="1.6"/>
</g>
<path class="st0" d="M191.8,206.8l6.5,8.3c0,0-4,3.3-4.3,5c0,0-8.1-3.8-12.1-1.7s-8.3,4.3-5.5,8.6c2.8,4.3,4.5,6.5,9.3,7.6
	s9,5.7,17.3,1c8.3-4.7,17.1-6.2,13.3-18.6"/>
<path class="st0" d="M156.5,194.1c0,0,6.5,12.6-4.7,20.3s-21.4,8.1-23.9,14.3c-2.5,6.2-0.2,8.8-0.2,8.8s4.7,3.8,11.6,5.2
	c7,1.3,10.5,8.1,8.3,12c-2.2,3.8-11.5,7.6-21.3,2c-9.8-5.7-5-10.5-13-15.8s-12.3-9.3-7.6-16.6c4.7-7.3,14.3-9.1,13.3-16.5
	c-1-7.3-6.5-13.3-6.5-13.3"/>
</svg>
