<?xml version="1.0" encoding="utf-8"?>
<!-- Generator: Adobe Illustrator 28.1.0, SVG Export Plug-In . SVG Version: 6.00 Build 0)  -->
<svg version="1.1" id="Layer_1" xmlns="http://www.w3.org/2000/svg" xmlns:xlink="http://www.w3.org/1999/xlink" x="0px" y="0px"
	 viewBox="0 0 360 360" style="enable-background:new 0 0 360 360;" xml:space="preserve">
<style type="text/css">
	.st0{fill:none;stroke:#BFBFBF;stroke-width:3;stroke-linecap:round;stroke-linejoin:round;stroke-miterlimit:10;}
	.st1{fill:none;stroke:#FFFFFF;stroke-width:0.75;stroke-linejoin:round;stroke-miterlimit:10;}
	.st2{fill:#FFFFFF;}
</style>
<path class="st0" d="M143.1,202.9l30.4,14.3c0,0,8.1,18.8,42.7,22.6c0,0,8.6,2.3,13.1,5.8c4.5,3.5,11.3,11,13,14.5
	c1.7,3.5-0.7,8.3,5.5,10.8c6.2,2.5,16.6,4.8,11.8-3.7c-4.8-8.5-15.1-20.1-17.6-23.6s-20.3-16.5-22.9-17.8"/>
<path class="st0" d="M141.9,166.8c0,0,12.8,8.5,9.1,23.1c-3.7,14.6-40.2,37.1-45.6,39.9c-5.3,2.8-13.1,9.8-13.1,9.8s16.1-2.3,23.8-2
	c7.6,0.3,22.9,7.3,23.8,12.8c0.8,5.5-7.6,9.8-16,6s-2.7-7.3-17-6s-30.3,0-26.9-8.1c3.3-8.1,16.6-33.3,14.8-42.1
	c-1.8-8.8-22.4-35.6-24.9-40.6s-13.6-7-11.5-20.5c2.2-13.5,15.3,0.3,15.3,0.3s26.6-22.8,60-14.6s34.8,19.6,65.7,21.3
	c0,0,15.8-0.7,28.8,7.6c0,0,12.5-4.2,13.6-11.5s0.8-11.5,4.5-21.1c0,0-30.1-45.7-32.8-59c-2.7-13.3,8-13.1,8-13.1
	s18.8-0.3,36.4,50.7c0,0,15-2.8,21.6,3.2c6.7,6,20.1,14,25.8,19.6s10.8,9,7.6,19.3c0,0-1.3,2.8-5.2,4.5c0,0-7,21.4-23.4,26.6
	c0,0-8.6,13.5-11.8,26.1c-3.2,12.6-16.1,30.6-40.4,35.7"/>
<path class="st0" d="M273.9,99.5c0,0-1.2-33.3,3-48.6c4.2-15.3,9.3-13.5,9.3-13.5s15,8.3-5,66.5"/>
<path class="st0" d="M86.9,184.5c0,0-15,7-21.6,9.3c-6.7,2.3-14.1,5.8-12.1,12.1s27.3,11.6,33.3,21.3"/>
<polygon class="st1" points="84.2,140.9 117.9,129.2 151,137.7 199,179.1 214,222 160.3,244.9 137.1,223.8 "/>
<polyline class="st1" points="268.1,111.2 267.4,158 245.1,114 "/>
<polyline class="st1" points="199,179.1 267.4,158 289.6,246.6 214,222 "/>
<g>
	<circle class="st2" cx="137.1" cy="223.8" r="1.6"/>
</g>
<g>
	<circle class="st2" cx="214" cy="222" r="2.3"/>
</g>
<g>
	<circle class="st2" cx="289.6" cy="246.6" r="2.3"/>
</g>
<g>
	<circle class="st2" cx="267.4" cy="158" r="2.3"/>
</g>
<g>
	<circle class="st2" cx="199" cy="179.1" r="3.5"/>
</g>
<g>
	<circle class="st2" cx="160.3" cy="244.9" r="1.6"/>
</g>
<g>
	<circle class="st2" cx="245.1" cy="114" r="1.6"/>
</g>
<g>
	<circle class="st2" cx="268.1" cy="111.2" r="1.6"/>
</g>
<g>
	<circle class="st2" cx="84.2" cy="140.9" r="1.6"/>
</g>
<g>
	<circle class="st2" cx="117.9" cy="129.2" r="1.6"/>
</g>
<g>
	<circle class="st2" cx="151" cy="137.7" r="1.6"/>
</g>
<path class="st0" d="M254.3,225.2c0,0,7.5,3,19,5c11.5,2,25.1,17,30.1,24.8c5,7.8,12.5,9.6,7.8,14.3s-17.5-0.7-18.3-5.5
	c-0.8-4.8-3.5-17-9.5-18.5c-6-1.5-47.1-7.3-47.1-7.3"/>
<path class="st0" d="M89.9,219.2c0,0-12.1-8.6-17-11.5c0,0,15.5,2,20.8,0"/>
</svg>
