<?xml version="1.0" encoding="UTF-8"?>
<svg id="Layer_1" data-name="Layer 1" xmlns="http://www.w3.org/2000/svg" version="1.1" viewBox="0 0 360 360">
  <defs>
    <style>
      .cls-1 {
        stroke: #fff;
        stroke-width: .8px;
      }

      .cls-1, .cls-2 {
        fill: none;
        stroke-linejoin: round;
      }

      .cls-2 {
        stroke: #bfbfbf;
        stroke-linecap: round;
        stroke-width: 3px;
      }

      .cls-3 {
        fill: #fff;
        stroke-width: 0px;
      }
    </style>
  </defs>
  <g>
    <path class="cls-2" d="M237.4,126.4c-11.1-1.6-23,4.3-38,5.1-.2,0-6.1-1.7-6.2-7.8,0,0,9.2-3.9,4.2-13.5l7.3-14.2s-4.9-4.6,1-9.3l-9.3-1.4-1.6-.2-9.3-1.4c4.2,6.2-1.8,9.2-1.8,9.2l2.8,15.7c-7.5,7.7.1,14.1.1,14.1-1.9,5.9-8.2,5.7-8.2,5.7l-.2.2c-14.6-5.2-23.3-15.6-32.5-18-11.1-2.9-18.3,6.3-18.3,6.3,6.9-3.5,13-2.2,13-2.2,18.7,6.5,22.2,24.2,43.7,27.4,21.4,3.2,42.4-9.3,48.5-11.5,6.1-2.2,13.8,3.9,13.8,3.9-2.1-7.7-8.9-8-8.9-8Z"/>
    <circle class="cls-2" cx="197.5" cy="77.8" r="7.6" transform="translate(-5.9 16.9) rotate(-4.8)"/>
  </g>
  <g>
    <ellipse class="cls-2" cx="235.2" cy="247.4" rx="44.8" ry="14.7" transform="translate(-9.2 9.1) rotate(-2.2)"/>
    <path class="cls-2" d="M280,247.1c.7,17.2-18.9,31.9-43.6,32.8-24.7.9-45.3-12.2-45.9-29.4"/>
  </g>
  <g>
    <ellipse class="cls-2" cx="98.6" cy="214.2" rx="14.7" ry="44.8" transform="translate(-123.1 294.8) rotate(-85.2)"/>
    <path class="cls-2" d="M143.2,219.4c-1.4,17.1-22.6,29.4-47.2,27.3-24.7-2-43.5-17.6-42.1-34.7"/>
  </g>
  <polyline class="cls-2" points="230.8 232.9 245.1 134 279.4 243.6"/>
  <line class="cls-2" x1="200.2" y1="257.8" x2="245.1" y2="134"/>
  <polyline class="cls-2" points="103.8 200 127.4 116.9 125.5 228"/>
  <line class="cls-2" x1="54" y1="210.5" x2="127.4" y2="116.9"/>
  <polyline class="cls-1" points="121.6 288.1 125.4 270.2 125.6 124.4 174.7 64.9 243.2 138.2 206.7 238.6"/>
  <line class="cls-1" x1="125.6" y1="124.4" x2="243.2" y2="138.2"/>
  <circle class="cls-3" cx="243.2" cy="138.2" r="2.8"/>
  <circle class="cls-3" cx="174.7" cy="64.9" r="2.8"/>
  <circle class="cls-3" cx="206.7" cy="238.6" r="1.4"/>
  <circle class="cls-3" cx="125.6" cy="124.4" r="1.4"/>
  <circle class="cls-3" cx="125.4" cy="269.9" r="1.4"/>
  <circle class="cls-3" cx="121.6" cy="288.1" r="1.4"/>
</svg>