<?xml version="1.0" encoding="utf-8"?>
<!-- Generator: Adobe Illustrator 28.1.0, SVG Export Plug-In . SVG Version: 6.00 Build 0)  -->
<svg version="1.1" id="Layer_1" xmlns="http://www.w3.org/2000/svg" xmlns:xlink="http://www.w3.org/1999/xlink" x="0px" y="0px"
	 viewBox="0 0 360 360" style="enable-background:new 0 0 360 360;" xml:space="preserve">
<style type="text/css">
	.st0{fill:none;stroke:#BFBFBF;stroke-width:3;stroke-linecap:round;stroke-linejoin:round;stroke-miterlimit:10;}
	.st1{fill:none;stroke:#FFFFFF;stroke-width:0.75;stroke-linejoin:round;stroke-miterlimit:10;}
	.st2{fill:#FFFFFF;}
</style>
<path class="st0" d="M201.8,161.5c0,0-19.1,0.3-19.3-11c-0.2-11.3,21-6,21-6s5-13,25.4-22.4c0,0-1.8-16.5,11.3-16.8
	c13.1-0.3,7.3,19.1,7.3,19.1s18,10.5,18,22.6c0,12.1-0.2,18.1,0.3,23.9s1.8,14.1-6.8,16.8c-8.6,2.7-19.5-4.2-19.5-4.2
	s-4.8-1-12.5-0.2C219.4,184.3,205.4,179,201.8,161.5z"/>
<path class="st0" d="M214.2,163.4c0,0,16.6-6.2,19.1-2c2.5,4.2,10.6,15.6,15.1,17c0,0,11-0.3,10.8-8.5c0,0-0.5-7.1-9.6-15.1
	c-9.1-8-3.8-14.6-1.5-16.3"/>
<path class="st0" d="M185.1,156.7c0,0-17.8-0.7-29.4-4.8c-11.6-4.2-35.6-5.2-45.1,8.1c-9.5,13.3-10.6,16.1-10.6,16.1
	s-5,12.1-17.8,11.3c-12.8-0.8-23.6-8.3-23.6-22.1c0-13.8,13.1-18.5,24.3-17.1c11.1,1.3,10.6-3.3,10.6-3.3s2.5-7.8-12.6-7.1
	s-34.1,6-34.1,28.9s20.3,32.6,31.3,32.9c11,0.3,24.1-3.7,30.1-12.1c0,0,7.3,7.6,7.3,12.3s-12.1,5.5-10.8,12.5
	c1.3,7,13.1,24.4,13,29.3c-0.2,4.8,0,10.5,6.7,10.5s13.3-3.7,10.3-10.5c-3-6.8-10.5-18.8-10.5-18.8s30.6,6,31.6-20.8"/>
<path class="st0" d="M247.2,187.6c0,0-8.5,12.5-9,12.8c-0.5,0.3-1.5,4.8,5.5,8c7,3.2,22.8,15.6,28.1,21.1c5.3,5.5,13.8,6.2,19.3,7.3
	c5.5,1.2,10.8,5,11,9.5c0.2,4.5,2.8,10.3-7,12.5s-15.6-0.2-29.8-9.1c-14.1-9-12-9.8-25.2-15.1c-13.1-5.3-18.6-12-23.1-15.3
	s-15.1-8.7-26.8-10.4"/>
<path class="st0" d="M153,213.2c0,0,31,22.6,58.5,2.9"/>
<path class="st0" d="M265.8,171c0,0,11.8,9.3,23.6,10c11.8,0.7,29.3,18.5,31.6,26.8s2.5,15-4,13.6c-6.5-1.3-12.8-1-14.6-7
	s-9-16.1-14.5-17.1c-5.5-1-13.6-2.5-20.6-1c-7,1.5-18.1,2.7-24.9-1.2"/>
<path class="st0" d="M233.4,161.4c0,0-6.3,8-16.3,1"/>
<path class="st0" d="M247.7,152c0,0,5.5-4.2-0.5-12.5"/>
<polyline class="st1" points="257.5,155.3 174.3,174.5 126.4,192.5 55.8,183 121.9,156.1 174.3,174.5 "/>
<g>
	<circle class="st2" cx="55.8" cy="183" r="1.4"/>
</g>
<g>
	<circle class="st2" cx="122.2" cy="156.1" r="1.4"/>
</g>
<g>
	<circle class="st2" cx="126.4" cy="192.5" r="1.4"/>
</g>
<g>
	<circle class="st2" cx="174.3" cy="174.5" r="1.4"/>
</g>
<g>
	<circle class="st2" cx="257.5" cy="155.3" r="1.4"/>
</g>
</svg>
