<?xml version="1.0" encoding="UTF-8"?>
<svg id="Layer_1" data-name="Layer 1" xmlns="http://www.w3.org/2000/svg" version="1.1" viewBox="0 0 360 360">
  <defs>
    <style>
      .cls-1 {
        stroke: #fff;
        stroke-width: .8px;
      }

      .cls-1, .cls-2 {
        fill: none;
        stroke-linejoin: round;
      }

      .cls-2 {
        stroke: #bfbfbf;
        stroke-linecap: round;
        stroke-width: 3px;
      }

      .cls-3 {
        fill: #fff;
        stroke-width: 0px;
      }
    </style>
  </defs>
  <path class="cls-2" d="M227.1,229.4s.3-21.9,1.1-36.2-2.9-27.3-2.5-27.3,7.9-2.9,16-4.8,12.7-2.9,18-3.9,15.3-3,20.4-4.7,3.4-6.4,3.4-14.6-4.8-9.5-6.5-9.6-3.7,2.9-3.9,5.4-2.6,6.3-2.6,6.3c0,0-8.8,1.9-12.8,1.8s-21.9,3-31.4,3.2-14.9-4.3-17.6-6.4-5.2-12.9-15.4-23.2-33.8-8.4-33.8-8.4c-4.8-4.8-12.8-4.6-14.7-7s-8.1-3.6-7.5-4.7-2.5-2.1-3.9-3.4.7-2.6,1.4-10.3-4.6-9.4-4.6-9.4c-1-7-4.1-7.6-7.7-8.8s-8.9,4.7-11.9,8.5-7.3,8.7-10.6,8.8-6.4,1.9-9.6,4.8-5.6,1.9-10,11.1,1.3,19,1.3,19c0,0-10.7,7.3-11.8,9s15,5.4,26.5,2.4"/>
  <path class="cls-2" d="M202.8,228s19.9-1.5,35,5.3,16.6,24.9,31.7,27,21.6.1,27.2.3,11.1.2,11.1.2c0,0,4-5.1,5-7.4s5.4-6.2,8.8,1.3-.2,7.7.1,11.3-.1,10.5-7.4,10.3-16.6-3.2-24-2-11.3,4.8-19.1,4.2-15.2-7.3-23.5-7.7-20.7-.1-20.7-.1"/>
  <path class="cls-2" d="M286.7,275.5s21.3,29,4.3,42.8c0,0-14-28.3-46.2-33.3s-47.1-6.9-60.9-14.4-26.2-12.4-32.5-31.6-9.8-40.4-9.8-40.4c0,0-12.8-19.9-16.8-26s-10.1-24.1-14.1-27.5-13.5-14.1-19.1-16.9"/>
  <path class="cls-2" d="M201.9,126.5s16.1,5.8,30.8,5.9,18.2-1.5,23.5-1.4,9.7.6,11.8-1.5,2.6-11.6,5.7-12,7.6,1.8,7.4,12"/>
  <path class="cls-2" d="M227.7,204.9s22.6,8.5,26.6,11.2,13.4,7.7,20,5.5,28.7-9.7,28.7-9.7c0,0,2.5-8.3,5.8-8.3s5.8,5.2,5.7,8.8.4,5.2-1.2,9-7.9,1.9-14.3,5.1-17.8,6.6-20.7,9.8-6.5,7.6-13.2,4.7-19.1-1.5-19.1-1.5"/>
  <path class="cls-2" d="M84.2,89.3s-15.4-.2-17.7.9c0,0,9.9,7.6,12.5,10.2"/>
  <polyline class="cls-1" points="264.4 227.2 205 278 99.9 127.2 114.4 70.9 185 97 99.9 127.2"/>
  <polyline class="cls-1" points="234.8 176.6 186.9 147.8 157.1 154.3 99.9 127.2"/>
  <polyline class="cls-1" points="205 278 184.8 193.2 157.1 154.3"/>
  <circle class="cls-3" cx="264.4" cy="227.2" r="2.9"/>
  <circle class="cls-3" cx="205" cy="278" r="1.5"/>
  <circle class="cls-3" cx="184.8" cy="193.2" r="1.5"/>
  <circle class="cls-3" cx="186.9" cy="147.8" r="1.5"/>
  <circle class="cls-3" cx="185" cy="97" r="1.5"/>
  <circle class="cls-3" cx="114.4" cy="70.9" r="1.5"/>
  <circle class="cls-3" cx="157.1" cy="154.3" r="2.2"/>
  <circle class="cls-3" cx="99.9" cy="127.2" r="2.2"/>
  <circle class="cls-3" cx="234.8" cy="176.6" r="2.2"/>
</svg>