<?xml version="1.0" encoding="UTF-8"?>
<svg id="Layer_1" data-name="Layer 1" xmlns="http://www.w3.org/2000/svg" version="1.1" viewBox="0 0 360 360">
  <defs>
    <style>
      .cls-1 {
        stroke: #fff;
        stroke-width: .8px;
      }

      .cls-1, .cls-2 {
        fill: none;
        stroke-linejoin: round;
      }

      .cls-2 {
        stroke: #bfbfbf;
        stroke-linecap: round;
        stroke-width: 3px;
      }

      .cls-3 {
        fill: #fff;
        stroke-width: 0px;
      }
    </style>
  </defs>
  <path class="cls-2" d="M234.4,157.9c2-2.7,3.8-13.4,4.4-20.5s-.7-25.6-1.7-34.4-8.2-17.6-5.8-17.9,5.8-1,9.8-4.7,7-1,11.2-2.8,1.7-6.8,1.7-6.8c4.8-1.3,3.5-3.3,4.5-8.6s-12.1-16-12.1-16c-.9-5.4-11.9-10.8-11.9-10.8,1.3-7.7-6.3-11-5.3-8.5s-2.7,8.3-2.7,8.3c-8.9-1.9-17,8.6-22.4,12.9s-7.1,6.9-11.2,23.2c-4.1,16.2,2,27.4.9,29.2s-.5,7.7-2.1,9.6-4.3,6.1-4.3,6.1c0,0-9.1.5-16.7,7.1s-8.3,8.6-13.2,12.6-11.1,10.1-23.5,14-30.4,9.2-38,21.6c-7.7,12.5-13.1,20.9-28.9,18.2s-32.8-4-34.9,14,16.5,25.6,20.3,27.2c3.8,1.7,11.3,5.6,10.3,14.2s-5.3,8.5-6.8,12.9,1.6,6.1-1.9,9.8-7.3,5.4-7.3,5.4c0,0,12,2,16.1-6.8,4.1-8.8,3-11.6,3-11.6,0,0,6.9-19.8-2.7-24.7-9.5-4.9-20.7-12.3-22.6-17.7s-2-11,2.4-14.9c4.5-3.8,16.5-1.7,26.3-.4s24.3-5.2,25.9-8.8"/>
  <path class="cls-2" d="M224.6,157.4s17.5,1.5,21.3,2.8,12,.8,14.7-.2,5.2-2.2,10.3-.4,12,4.8,19.6,5.3,15.9,2.3,18.1,6.5,2.8,3.5,5.6,5.1,6.1,5.5,4.6,9.9-3.8,4.3-3.8,4.3c0,0-3.3,3.3-8.7-1.1s-4.6-9-4.6-9c0,0-8.9-4.8-15-6.1-6.1-1.3-26.5-4.4-32.2-3.6s-34.5,6.9-45.3,3.9c0,0-13.5,9.6-31.8,13s-28.4,7.3-31.7,11-4.6,5.2-5,8.6,1.6,11.2-5.9,22.3c-7.5,11-5.9,9.3-13.5,15.5s-17.6,11-21.3,13.9-10.4,10.1-12.8,13.5-8.2,15.7-9.9,18-2.1,5.8-1.9,8.5,1.5,4.1,4.4,5,4.8,4,4.9,6.4-2.4,4.5-4.1,3.7-3.9,2.8-7,1-3.8,0-5.3-3.8,0-3.3-1.7-4.7-6.9-1-3.7-8.5c3.3-7.6,11.1-19.3,13.6-25.4s1.6-11.5,5.3-14c3.7-2.5,9.8-8.1,11.5-12.3s11.8-18.4,11.8-18.4c0,0-21-32.3-2.8-54.1"/>
  <path class="cls-2" d="M109.2,253.1s-9.6,13.9-11.3,17.2-6.2,10.1-6.2,10.1l.9,7s3,.4,6,2.4,6.7,2.5,5.5,6.3-.5,5.5-4.2,4.5c-3.7-1-4.5,1.5-7.2,0s-5.1-3.9-6.3-4.9-2.4-.4-1.7-4.9-.4-13.5-.4-13.5"/>
  <path class="cls-2" d="M237.9,146.7s5.4-2.1,12.3-3.4,10-1.4,13.4-3.6,6.6-4.4,13-3.2,18.5-.8,22.7-1.6,9.7-1.2,16.1,3.4c0,0,10.9.6,11,6.9s-4.4,4.7-4.4,4.7c0,0-3.7,4.5-8.7,2.4s-8.1-8.3-8.1-8.3c0,0-2.5.9-8.3.9s-15-1.4-24,1.6c-9,3-30.9,12.7-30.9,12.7"/>
  <path class="cls-2" d="M220.8,54.5s-7.1-9.1-17.5-2.8c0,0-1.5,13.5,12.1,11.8"/>
  <polyline class="cls-1" points="38.6 257.6 46 240.1 66.7 231.4 79.5 208.2 133 202.1 204.1 152.7 223.6 78.2 258.5 63.2"/>
  <circle class="cls-3" cx="38.6" cy="257.6" r="1.9"/>
  <circle class="cls-3" cx="46" cy="240.1" r="1.3"/>
  <circle class="cls-3" cx="79.5" cy="207.9" r="1.3"/>
  <circle class="cls-3" cx="66.7" cy="231.4" r="1"/>
  <circle class="cls-3" cx="133" cy="202.1" r="1"/>
  <circle class="cls-3" cx="204.1" cy="152.7" r="1"/>
  <circle class="cls-3" cx="223.6" cy="78.2" r="1"/>
  <circle class="cls-3" cx="258.5" cy="63.2" r="1"/>
</svg>