<?xml version="1.0" encoding="UTF-8"?>
<svg id="Layer_1" data-name="Layer 1" xmlns="http://www.w3.org/2000/svg" version="1.1" viewBox="0 0 360 360">
  <defs>
    <style>
      .cls-1 {
        stroke: #fff;
        stroke-width: .8px;
      }

      .cls-1, .cls-2 {
        fill: none;
        stroke-linejoin: round;
      }

      .cls-2 {
        stroke: #bfbfbf;
        stroke-linecap: round;
        stroke-width: 3px;
      }

      .cls-3 {
        fill: #fff;
        stroke-width: 0px;
      }
    </style>
  </defs>
  <path class="cls-2" d="M238.8,127.4c2.9.2,5.4-1.9,5.6-4.8.2-2.6-1.6-4.9-4.1-5.4l-7.3-1.5s-16.3-21.3-16.9-30.4c-.7-9,8.4-9.5,8.4-9.5-5.5,13,7.3,18,7.3,18,0,0-1.5-5.1,4.2-9.9,5.7-4.8,1.5-12.8-.9-15.6-2.4-2.9-18.7-8.1-26.8,6.8-8.1,15,3.1,34.5,3.1,34.5l-70.2-14.7s6.4-7.5,15.8-17.2c9.5-9.7,2-26.6-9-30.6-11-4-19.6-.4-20,9-.4,9.5-4.8,9.7-4.8,9.7,20.5,4.8,14.1-7.9,14.1-7.9,0,0-.7-8.1,8.1-4.4,8.8,3.7,3.5,16.5-2.2,21.3s-22.4,14.5-22.4,14.5l-6.2-1c-2.4-.4-4.8,1-5.6,3.3-.9,2.6.5,5.5,3.1,6.4l1.8.6c-41.8,43.1-46.9,103.6-48.4,127.2-1.5,23.5,10.8,53.9,33.4,63.6,22.7,9.7,54.6,17.4,87.1,6.8s51.3-72.4,56.3-110.2c5.1-37.8-6.2-59-6.2-59l2.7.2ZM214.3,200.5c-8.8,37.6-15.2,46-27.7,44s-9.2-15.8-9.2-15.8c0,0,2.9,0,5.9-5.5,1.7-3-.3-5.7-2.5-7.5-1.7-1.4-3.6-2.4-5.7-3-9.2-2.9-46-13.9-55.6-7-6.6,4.8,0,9.7,0,9.7-1.8,8.4-14.1,12.1-21.6,6.4s-10.8-18.3,2.4-56.5,35.6-62.3,35.6-62.3l79,18s8.1,42-.7,79.6Z"/>
  <line class="cls-2" x1="129.4" y1="203.5" x2="151.6" y2="106.7"/>
  <line class="cls-2" x1="137.5" y1="203.8" x2="159.1" y2="109.6"/>
  <line class="cls-2" x1="144.5" y1="204.8" x2="165.9" y2="111.6"/>
  <line class="cls-2" x1="153.3" y1="206.4" x2="174.5" y2="114"/>
  <line class="cls-2" x1="161.5" y1="208.6" x2="183.1" y2="114.7"/>
  <line class="cls-2" x1="169" y1="210.2" x2="190.6" y2="116.4"/>
  <line class="cls-2" x1="176.8" y1="213.2" x2="198.7" y2="118"/>
  <polygon class="cls-1" points="137.8 227.8 168.4 213.8 184.1 140.7 154.6 152.9 137.8 227.8"/>
  <polygon class="cls-1" points="209.8 119.3 184.1 105.9 184.1 140.7 209.8 119.3"/>
  <circle class="cls-3" cx="137.8" cy="227.8" r="2.6"/>
  <circle class="cls-3" cx="168.4" cy="213.8" r="2.6"/>
  <circle class="cls-3" cx="154.6" cy="152.9" r="2.1"/>
  <circle class="cls-3" cx="184.1" cy="140.7" r="2.1"/>
  <circle class="cls-3" cx="209.8" cy="119.3" r="6.4"/>
  <circle class="cls-3" cx="183.7" cy="105.9" r="2.1"/>
</svg>