<?xml version="1.0" encoding="UTF-8"?>
<svg id="Layer_1" data-name="Layer 1" xmlns="http://www.w3.org/2000/svg" version="1.1" viewBox="0 0 360 360">
  <defs>
    <style>
      .cls-1 {
        stroke: #fff;
        stroke-width: .8px;
      }

      .cls-1, .cls-2 {
        fill: none;
        stroke-linejoin: round;
      }

      .cls-2 {
        stroke: #bfbfbf;
        stroke-linecap: round;
        stroke-width: 3px;
      }

      .cls-3 {
        fill: #fff;
        stroke-width: 0px;
      }
    </style>
  </defs>
  <path class="cls-2" d="M244.7,141.5l-76.8,93.9s-12.7,1.3-16,5.5-7.5,5.3-13.2,4.8-6.6.9-11.4,3.3-3.3,1.8-13.4,4.4-8.8-3.1-21.1,2-5.5,5.7-19.4,9-23.1,11-17.2,2.9,35.9-31.5,46.9-50.6,34.8-64.2,46.2-75,44.9-35.9,55.2-49.3,14.3-14.7,23.3-25.7,8.1-10.6,7.3.9-.2,25.5-.7,33.9-2,13.2,1.3,21.3,10.1,14.5,9,18.7Z"/>
  <path class="cls-2" d="M227.2,163.2s-8.3-5-9.2-17.2-2.6-32.3-7.6-38"/>
  <line class="cls-2" x1="135.1" y1="236.1" x2="202.2" y2="144.6"/>
  <path class="cls-2" d="M102.3,253.9s75.5-113.3,83.2-121.4"/>
  <line class="cls-2" x1="126.1" y1="231.7" x2="186.8" y2="140.2"/>
  <line class="cls-2" x1="110" y1="217.6" x2="183.5" y2="122.6"/>
  <polyline class="cls-1" points="122.8 207.1 167.8 233.1 210.7 209.3 210.7 142.3"/>
  <circle class="cls-3" cx="210.7" cy="142.3" r="2.3"/>
  <circle class="cls-3" cx="210.7" cy="209.3" r="2.3"/>
  <circle class="cls-3" cx="122.8" cy="207.1" r="2.3"/>
  <circle class="cls-3" cx="167.8" cy="233.1" r="2.3"/>
</svg>