<?xml version="1.0" encoding="UTF-8"?>
<svg id="Layer_1" data-name="Layer 1" xmlns="http://www.w3.org/2000/svg" version="1.1" viewBox="0 0 360 360">
  <defs>
    <style>
      .cls-1 {
        stroke: #fff;
        stroke-width: .8px;
      }

      .cls-1, .cls-2 {
        fill: none;
        stroke-linejoin: round;
      }

      .cls-2 {
        stroke: #bfbfbf;
        stroke-linecap: round;
        stroke-width: 3px;
      }

      .cls-3 {
        fill: #fff;
        stroke-width: 0px;
      }
    </style>
  </defs>
  <path class="cls-2" d="M201.6,192.9s22.1-29.4,36.3-50.2,37.5-58.2,37.5-58.2c0,0,7.1,1.2,10.2-3.3,0,0-6.3-4-4.6-8.3s9.4-.8,13.7,1.8,8.7,5.1,8.7,5.1c0,0,8.1,4.6,6.1,9.1s-8.9.2-8.9.2c0,0-2.1,4.6.8,9.6l-40.4,61.2s-26.2,38-30.4,50.2c0,0-19.3-4.5-29-17.2Z"/>
  <circle class="cls-2" cx="198.2" cy="142.6" r="18.9"/>
  <line class="cls-2" x1="239.1" y1="140.1" x2="214.6" y2="133.3"/>
  <line class="cls-2" x1="213" y1="154.6" x2="226.4" y2="158.7"/>
  <path class="cls-2" d="M198.2,161.5s-63,30.2-55.4,67.2l-3.1,7.4,10.2,14.7,26.6-20.1-14.5-12.2,24.4-5.8,33.3,23.3,2.3,24.1-22.9-16.5s-2.3,14-19,8.6l-27.4,21s-4.8,3.1-5.6,10.4-7.3,5.9-12.9-6.3-51.2-101-51.2-101c0,0-1.5-5.9,3.8-8.1s20.8,9.6,37.3,3.6,54.8-26.1,54.8-26.1"/>
  <polyline class="cls-1" points="272.3 243.7 212.1 205.7 121.1 205.5"/>
  <circle class="cls-3" cx="121.1" cy="205.7" r="3.2"/>
  <circle class="cls-3" cx="212.1" cy="205.5" r="3.2"/>
  <circle class="cls-3" cx="272.3" cy="243.7" r="3.2"/>
</svg>