<?xml version="1.0" encoding="UTF-8"?>
<svg id="Layer_1" data-name="Layer 1" xmlns="http://www.w3.org/2000/svg" version="1.1" viewBox="0 0 360 360">
  <defs>
    <style>
      .cls-1 {
        stroke: #fff;
        stroke-width: .8px;
      }

      .cls-1, .cls-2 {
        fill: none;
        stroke-linejoin: round;
      }

      .cls-2 {
        stroke: #bfbfbf;
        stroke-linecap: round;
        stroke-width: 3px;
      }

      .cls-3 {
        fill: #fff;
        stroke-width: 0px;
      }
    </style>
  </defs>
  <path class="cls-2" d="M108.3,207.5c-4.2,12.9,4,27.4,6.8,36.6s-12,7.2-9.6,9.6,9.9,8.9,16.5,12.9,13.8,12.7,5.2,15-12-3.9-12.7-7.7.1-1.7-11.9-10.9-18.4-11.6-23-20.5,5.6-10.7,5.6-10.7c-27.4-24.8-23.1-43.3-23.1-43.3-19.4,2-11.2,24.8,1.7,33.1s7.8,22.3.9,26.4-4,13.6-4,13.6c-14.3-5.7-8.9-13.6-6.4-26.2s-3.5-12.3-11.6-29.2,18.9-23.9,18.9-23.9c6.1-22.9,35.2-23.1,49.7-23s27.3-13.8,36.2-20.6,25.2-11,25.2-11c0,0-2.4-1.7-5.3-2.1s-2.1-2.1.8-3,4.5-3.4,7-7.9,5.3-9.5,7.9-10.1-2.8-2.9,2.3-4.3,9-6.8,11.6-9,7.3-7.9,14-8.3"/>
  <path class="cls-2" d="M188.2,190.2s-8.6,16.1-29.8,18.6-49.6.1-50.8,12"/>
  <path class="cls-2" d="M112.8,236.4s19.6,13.1,20.1,19-2.9,9.1-1.7,11.9,11.4,7,13.3,2.2,2.5-16.8-7.9-23.8-11.4-13.3-9.2-19-1.1-15.3-1.1-15.3"/>
  <path class="cls-2" d="M180.8,182.3s7,9.2,24.1,10.8,16.2-.4,22.1,4.8,11.6,3.4,15.8,11.2,12.1,14.4,12.9,14.7,2.8,7.3,10.3,8.1,6.8-5.5,3.9-10.8-16.5-12.9-19.1-17.2-7.8-14-14.5-16.4-20-5.3-22.3-13-.8-16.1-2.2-24,7.4-27.4,14.7-30"/>
  <path class="cls-2" d="M216.8,105.7s-3.4,9.5,13,15,11.8,2.1,16.7,7.8,12,1.7,12,1.7c0,0,12-9.9,4.5-16.7s-15.6-15.2-15.7-15.5-3.5-10.8-11.3-13.4"/>
  <path class="cls-2" d="M212.7,89.2s-.7-9.5-2.8-11.8,5.9-.6,8.3,3.9c0,0,5.7.4,8.8.7"/>
  <path class="cls-2" d="M238,188.4s16.5,2.9,20.7,7.2,8.9,7.4,12.3,9.1,17.4,8.6,20,12.4,3,5.5-.4,4.8-9.6,5.9-18-6.8c0,0-17.7-10.9-22.8-13"/>
  <path class="cls-2" d="M225.4,84.5s-1.2,1.9,1.9,4.1,9.8-6.2,9.8-6.2l31-29.3c.2-.2,0-.5-.3-.3l-42.4,31.7Z"/>
  <path class="cls-2" d="M223.3,81.5l-1.7-9.1s5.6,5.3,7.3,8.7"/>
  <polyline class="cls-1" points="110.5 251 50.5 194.4 172.8 172 225 147.3 277.3 128.5 257.3 104.5 240.1 82.2"/>
  <polyline class="cls-1" points="295.9 222.4 265.9 228.9 172.8 172 225 147.3 257.3 104.5"/>
  <circle class="cls-3" cx="110.5" cy="251" r="1.1"/>
  <circle class="cls-3" cx="50.5" cy="194.4" r="1.1"/>
  <circle class="cls-3" cx="172.8" cy="172" r="1.1"/>
  <circle class="cls-3" cx="277.3" cy="128.5" r="1.1"/>
  <circle class="cls-3" cx="225" cy="147.3" r="1.1"/>
  <circle class="cls-3" cx="257.3" cy="104.5" r="1.1"/>
  <circle class="cls-3" cx="240.1" cy="82.2" r="1.1"/>
  <circle class="cls-3" cx="265.9" cy="228.9" r="1.6"/>
  <circle class="cls-3" cx="295.9" cy="222.4" r="1.1"/>
</svg>