<?xml version="1.0" encoding="UTF-8"?>
<svg id="Layer_1" data-name="Layer 1" xmlns="http://www.w3.org/2000/svg" version="1.1" viewBox="0 0 360 360">
  <defs>
    <style>
      .cls-1 {
        stroke: #bfbfbf;
        stroke-linecap: round;
        stroke-width: 3px;
      }

      .cls-1, .cls-2 {
        fill: none;
        stroke-linejoin: round;
      }

      .cls-3 {
        fill: #fff;
        stroke-width: 0px;
      }

      .cls-2 {
        stroke: #fff;
        stroke-width: .8px;
      }
    </style>
  </defs>
  <path class="cls-1" d="M182.3,152.1l2-9.1,16.4-9.3s4.9-2.4,6-10.4,1.8-18.4,5.3-24.2-3.1-6.2-5.1-3.3-6,20.8-6.2,27.3-17.7,11.3-17.7,11.3c0,0,4.4-39.5,1.8-56.5s-4.7-22.6-22.6-11.5c-18,11.1-25.9,40.8-30.2,59.2s-12.9,66.7-12.9,66.7c0,0-6.2-.7-6-13.5s.7-28.8.7-28.8c0,0-.7-9.3-6.9-14.6s-19.5-12.4-19.5-12.4c0,0-4.9-1.6-6,.9s-.4,4.2,7.3,8.2,12.6,6.9,12.6,6.9c0,0,6,3.1,5.5,15.3s.7,28.2.7,28.2c0,0,.2,11.3,3.8,15.5,0,0-14-4.4-23.5.2s-21.3,2.4-27.5-1.6-17.1-8.9-24.6-7.1,3.3,6,6.4,7.1,18.2,8.6,18.2,8.6c0,0,14.6,3.8,23.5,1.1s15.1-5.8,23.1.4c0,0-6.7,5.1-6.4,11.7,0,0-7.3-6.2-11.7-2s-5.5,16.2-1.3,25.3c0,0-19.1,4.4-21.9,10.6s6.9-.2,12.6-2.2,10.9-3.8,10.9-3.8l3.5,4.2-15.3,13.1s-2.4,3.1-.4,5.3,16.8-13.3,18.4-15.1,7.3,10.2,21.5,9.5,2.2-16,2.2-16c0,0,7.3,3.1,17.7-1.3l-.4,10.4-10.6,23.5s-4.4,10.2,1.8,20.4,4.2,16,9.5,16.2,4.4-3.5,1.8-10.4-8.4-16.4-6.9-21.1,9.8-25.3,9.8-25.3c0,0,1.6-11.5.4-16.6l3.3-2.4.2,8.6s.4,8.9,7.8,10.6,35,10.2,35,10.2c0,0,6.9,1.1,6.9,6.9s.2,19.3.2,19.3c0,0-.9,6,2.9,6.7s3.3-7.8,3.5-13.3,0-13.7,0-13.7c0,0,.4-10.2-8.6-11.5s-38.8-14.4-38.8-14.4l-1.6-6.7s48.3,13.5,67,15.5,66.5,5.8,76.9-14-66.3-37-66.3-37l10.4-8.6s10.4,1.8,22.2,4.9,13.7,4.7,14,.7-20.8-8.9-20.8-8.9c0,0-13.7-7.3-19.5-2.4s-16.6,11.3-16.6,11.3l-7.3-2.2s39.5-28.2,29.7-51.9-60.1,1.3-60.1,1.3Z"/>
  <polyline class="cls-2" points="226.3 164.2 171.7 180.1 138.6 200.7 122.5 183.2 104 248.8 146.7 255.5 138.6 200.7"/>
  <circle class="cls-3" cx="104" cy="248.8" r="1.7"/>
  <circle class="cls-3" cx="146.7" cy="255.5" r="1.7"/>
  <circle class="cls-3" cx="138.6" cy="200.7" r="1.7"/>
  <circle class="cls-3" cx="226.3" cy="164.2" r="1.7"/>
  <circle class="cls-3" cx="171.7" cy="180.1" r="1.7"/>
  <circle class="cls-3" cx="122.5" cy="183.2" r="1.7"/>
</svg>