<?xml version="1.0" encoding="UTF-8"?>
<svg id="Layer_1" data-name="Layer 1" xmlns="http://www.w3.org/2000/svg" version="1.1" viewBox="0 0 360 360">
  <defs>
    <style>
      .cls-1 {
        stroke: #bfbfbf;
        stroke-linecap: round;
        stroke-width: 3px;
      }

      .cls-1, .cls-2 {
        fill: none;
        stroke-linejoin: round;
      }

      .cls-3 {
        fill: #fff;
        stroke-width: 0px;
      }

      .cls-2 {
        stroke: #fff;
        stroke-width: .8px;
      }
    </style>
  </defs>
  <path class="cls-1" d="M84.9,197.6l121.9-63.5c1.2-.6,2.7-.3,3.5.9l73,106.7c1,1.5.5,3.6-1.1,4.5l-12.7,6.7c-1.4.7-3.1.3-4-1l-62.3-92.3c-.8-1.1-2.3-1.5-3.5-.9l-90.9,47.8c-4.2,2.2-9.1,2.8-13.6,1.6l-9.2-2.4c-3.8-1-4.4-6.2-.9-8.1Z"/>
  <path class="cls-1" d="M159.8,158.5l-58.7-106.3c-.6-1.1-.2-2.4.9-2.9l14.3-7.4c1-.5,2.3-.1,2.8.9l59.6,105.9"/>
  <path class="cls-1" d="M187.4,165.1l80.7,160.1c.7,1.3.2,2.9-1.1,3.6l-10.3,5.8c-1.3.8-3,.3-3.7-1.1l-83.9-158.7"/>
  <polygon class="cls-2" points="226.4 183.2 194.7 199.1 174.4 169.6 214.5 133.5 226.4 183.2"/>
  <circle class="cls-3" cx="194.7" cy="199.1" r="1.2" transform="translate(-15.8 16.8) rotate(-4.8)"/>
  <circle class="cls-3" cx="226.4" cy="183.2" r="1.2" transform="translate(-14.4 19.4) rotate(-4.8)"/>
  <circle class="cls-3" cx="214.5" cy="133.5" r="1.2" transform="translate(-10.3 18.2) rotate(-4.8)"/>
  <circle class="cls-3" cx="174.4" cy="169.6" r="1.2" transform="translate(-13.5 15) rotate(-4.8)"/>
</svg>