<?xml version="1.0" encoding="UTF-8"?>
<svg id="Layer_1" data-name="Layer 1" xmlns="http://www.w3.org/2000/svg" version="1.1" viewBox="0 0 360 360">
  <defs>
    <style>
      .cls-1 {
        stroke: #bfbfbf;
        stroke-linecap: round;
        stroke-width: 3px;
      }

      .cls-1, .cls-2 {
        fill: none;
        stroke-linejoin: round;
      }

      .cls-3 {
        fill: #fff;
        stroke-width: 0px;
      }

      .cls-2 {
        stroke: #fff;
        stroke-width: .8px;
      }
    </style>
  </defs>
  <path class="cls-1" d="M97,251.9l152.3-38.6s52.5-41.7,37.9-97.3l6.4-3.5-8.6-17.1-8.4,3.5s-49-32.1-109.7-3.5l-82,131.2s-11.5-1.3-22.2,6.4-5.5,23.1-3.1,26.2c4.1,5.2,18.4,16.2,37.5-7.3Z"/>
  <path class="cls-1" d="M276.6,98.9l-12,5.8-13.3,1.3-159.6,126s4.3,2,6,8.6l169.9-107.1,7.3-11,12.3-6.7"/>
  <path class="cls-1" d="M102.5,223.5l71-110s38.9-21.6,73.1-3.8"/>
  <path class="cls-1" d="M263.2,136.4s-.1,35.9-28.7,67.2l-130.5,33.2"/>
  <polygon class="cls-1" points="208.7 170.7 229.3 204.8 222.9 206.5 203.1 174.2 208.7 170.7"/>
  <polygon class="cls-1" points="197.4 148.6 177.2 111.7 173.5 113.5 172.3 115.4 192.1 152.8 197.4 148.6"/>
  <polygon class="cls-1" points="136.7 196.5 127.8 184.4 123.8 190.4 131.3 200.8 136.7 196.5"/>
  <polygon class="cls-2" points="204.1 85.2 63.2 251.9 281.4 109.7 204.1 85.2"/>
  <circle class="cls-3" cx="63.2" cy="251.9" r="1.5"/>
  <circle class="cls-3" cx="204.1" cy="85.2" r="3"/>
  <circle class="cls-3" cx="281.4" cy="109.7" r="2.6"/>
  <polygon class="cls-1" points="147.6 209.2 157.8 223 149.9 225 141 213.4 147.6 209.2"/>
</svg>