<?xml version="1.0" encoding="UTF-8"?>
<svg xmlns="http://www.w3.org/2000/svg" version="1.1" viewBox="0 0 360 360">
  <defs>
    <style>
      .cls-1 {
        stroke: #bfbfbf;
        stroke-linecap: round;
        stroke-width: 3px;
      }

      .cls-1, .cls-2 {
        fill: none;
        stroke-linejoin: round;
      }

      .cls-2 {
        stroke: #fff;
        stroke-width: .8px;
      }

      .cls-3 {
        fill: #fff;
      }
    </style>
  </defs>
  <!-- Generator: Adobe Illustrator 28.7.1, SVG Export Plug-In . SVG Version: 1.2.0 Build 142)  -->
  <g>
    <g id="Layer_1">
      <g>
        <path class="cls-1" d="M266.7,157.9c-.4-9.3-1.7-31.5-4.4-35.6s-16.5-15.2-21.3-19-11.1-15.7-20.1-20.4-11.6-1.5-18.1.5-20.4,4.6-20.4,4.6l-2.5-5s2.2-1.2,7.1-2.7,4.1-6.3,2.9-7.5-1.1-4.9-1.3-5.9-1.9-4.9-1.9-4.9c3.9-1.9-1-5.4-2.2-6.6s-4-3.8-3.8-6.2-2.2-6.3-2.2-6.3c0,0,2.7-1.5,1.3-4.7s-11.3-6.7-22.1-4.8-21.3,10.6-23.6,23.3,5.5,22.1,13.3,24.4,9.8,7.6,9.8,7.6l2.7,5.2s-7.1,4.2-10.1,11-15.3,9.1-12.5,23.9,14.1,28.8,18.3,32.4,7.1,9.8,7.1,9.8"/>
        <path class="cls-1" d="M169.7,169s-8.5.8-15,12.6-10.6,13.1-10.6,13.1c0,0-10.1-7.3-19-5.3s2.5,4.7,5.2,6.2,15.1,10.1,15.1,10.1l19.3-15.1"/>
        <path class="cls-1" d="M179.5,173.8s-15.6,6.8-16,22.9,17.3,33.9,36.7,32.9,33.1-9.1,56.7-37.1"/>
        <path class="cls-1" d="M227.2,149.7s14,15.6,16.3,22.1l11.1-11.3s-8.3-19.5-7.8-26.1c0,0-18.8-7-25.1-15,0,0,6.5,25.1,5.5,30.3s-10.5,19.5-25.1,22.3-17.6,11.1-17.6,11.1c0,0-5.3-9.8-9.6-20.6s-15.8-17.3-18-32.4"/>
        <path class="cls-1" d="M254.6,160.5s27.3-5.2,20.6-4.3c0,0,9.5-1.2,8.6-13s-9.3-28.3,1.7-37.7,23.1-20.8,15.8-30.8-21.9-27.3-8.6-42.2,24.3-9,22.6-4.7-13.5,15-13.3,15.8,12.5,23.4,14,27.1,10.1,17.5-5.8,31.1-11.5,21.6-10.1,31.6c0,0,7,33.1-11.6,40.4l-13.5,5.5"/>
        <path class="cls-1" d="M243.5,171.8s-12.3,20.1-23.4,25.8-40.1,8-35.6-14.5"/>
        <path class="cls-1" d="M165,207.7s-12.1,3.3-19.6-2"/>
        <path class="cls-1" d="M129.1,189.3s-1-22.4-5.5-26.8c0,0,13.1-22.6-4.7-38.9s-37.1,7.6-52,2.3-17.5-13.5-32.6-13.8,14.1,11.5,14.1,11.5c0,0,16.3,14.3,28.9,11.3s31.8-13.8,37.9-1.3.5,31.9-18.5,24.1"/>
        <path class="cls-1" d="M130.9,215.2c23.6,27.4,47.9,8.5,47.9,8.5,0,0-13.6,24.9-13,41.6,0,0-5.8,8.5-4,19.6l-1,29.3"/>
        <path class="cls-1" d="M109.8,169.5c.7,14.1,7.3,31.3,7.3,31.3,0,0,4-7.6,5.5.5,0,0,4.7-2.8,4.7,3.2,0,0,4.8-3.7,4.5,3.3s-1.7,12.3-5.3,9.1-8.8-8.1-9.3-16.1"/>
        <path class="cls-1" d="M123.6,162.5s-9.6,9.8-27.9,8.3-12.3-20.5-12.3-20.5c0,0,8.6-18.3,32.4,1"/>
        <path class="cls-1" d="M274.1,183.1s.2,4.7-4.8,6.3-9.8,5.2-17.1-.7,5.3-3.2,5.3-3.2c0,0-4.7-5.3,1.3-5.7,6-.4,8.6,2,8.6,2,0,0-5.3-5.8-1.7-6.3s9.8,3,8.3,7.5h.1Z"/>
        <path class="cls-1" d="M184,311.2s-1.8-31.3-1.8-31.8,22.4-27.1,27.9-50.7"/>
        <path class="cls-1" d="M221.2,224.5s4.3,18.1,12.8,31.3c0,0-.3,12,8.3,22.1"/>
        <path class="cls-1" d="M251.8,198.3s13,25.6,8.3,53c0,0,5.7,11,3,18.3"/>
        <path class="cls-1" d="M197.8,257.8s18.1-7.8,32.8-7.5"/>
      </g>
      <g>
        <polyline class="cls-2" points="162.9 343.7 172 310.9 191.5 248 138 109.5 152.9 55.8 217.9 78.5 248.2 215.2 191.5 248"/>
        <polyline class="cls-2" points="263.1 303.5 266.9 280.4 256.5 255.8 248.2 215.2 264.2 200.7 281.5 176.6 289.1 170.1 262.5 130.5 217.9 78.5"/>
        <polyline class="cls-2" points="111.4 207.2 129.7 122.5 138 109.5"/>
        <circle class="cls-3" cx="217.9" cy="78.5" r="1.5"/>
        <circle class="cls-3" cx="138" cy="109.5" r="1.5"/>
        <circle class="cls-3" cx="129.7" cy="122.5" r="1.3"/>
        <circle class="cls-3" cx="111.4" cy="207.2" r="1.3"/>
        <circle class="cls-3" cx="191.5" cy="248" r="2.7"/>
        <circle class="cls-3" cx="248.2" cy="215.2" r="2"/>
        <circle class="cls-3" cx="262.5" cy="130.5" r="1.5"/>
        <circle class="cls-3" cx="289.1" cy="170.1" r="1.5"/>
        <circle class="cls-3" cx="281.5" cy="176.6" r="1.5"/>
        <circle class="cls-3" cx="264.1" cy="200.9" r="1.1"/>
        <circle class="cls-3" cx="256.5" cy="255.8" r="1.3"/>
        <circle class="cls-3" cx="263.1" cy="303.5" r="1.3"/>
        <circle class="cls-3" cx="266.9" cy="280.4" r="1.3"/>
        <circle class="cls-3" cx="172" cy="310.9" r="1.3"/>
        <circle class="cls-3" cx="162.9" cy="343.7" r="1.2" transform="translate(-184.2 499.4) rotate(-88.8)"/>
        <circle class="cls-3" cx="152.9" cy="55.8" r="2.5"/>
      </g>
    </g>
  </g>
</svg>