<?xml version="1.0" encoding="UTF-8"?>
<svg id="Layer_1" data-name="Layer 1" xmlns="http://www.w3.org/2000/svg" version="1.1" viewBox="0 0 360 360">
  <defs>
    <style>
      .cls-1 {
        stroke: #bfbfbf;
        stroke-linecap: round;
        stroke-width: 3px;
      }

      .cls-1, .cls-2 {
        fill: none;
        stroke-linejoin: round;
      }

      .cls-3 {
        fill: #fff;
        stroke-width: 0px;
      }

      .cls-2 {
        stroke: #fff;
        stroke-width: .8px;
      }
    </style>
  </defs>
  <path class="cls-1" d="M187.8,172.5c5.1,11.1.9,19.3.9,19.3.7,12.4-4.9,30.4-4.9,30.4-11.1,16.8-44.8,18-44.8,18,0,0,1.1-19.3-6.2-32.1s-5.5-27-5.5-27c0,0-5.3-6.2-18.6-16.6s-13.3-19.1-13.3-19.1c0,0-6.2-26.6-9.1-35.7s-2.9-8.9-7.3-8.9-4-6.9-4.2-10.4,7.8-11.5,12.4-10.9,8,7.3,9.1,11.3-2.4,11.7,3.8,19.3,15.3,27.7,15.3,27.7c10.6,6.4,23.3,20.8,23.3,20.8l11.1,1.8,2.2-8.9s-10.4-4.9-10.2-8.9,1.1-6,.2-11.7-2.9-12.2,2.4-17.3,11.5-9.1,16.4-8.2,7.3-.4,10.2-.7,2,.2,3.3,1.8,1.8,3.3.9,5.3,1.6,7.3,1.6,7.3c0,0,2.1,4.5,2.3,6.8s1.2,4.5,2.9,6.8,2.5,4.8-1.7,5.1c0,0,2.2,4.7,2.3,6.1s4.8,11.2-1.4,11.6-17.4.9-21-5.4"/>
  <path class="cls-1" d="M169.4,155.3l.6,6.7s17.6-3.7,29.3-2.2c0,0,14.6.8,23.3-3.2s18.2-13.6,18.2-13.6c0,0,4.8,4.2,3.4,15.3s2.2,20.8-3.8,30.7"/>
  <path class="cls-1" d="M190.9,183.9s9.4-3.2,16.3-6.8,16-2.8,22.3-5.7,14.6-13.3,14.6-13.3"/>
  <path class="cls-1" d="M240.7,142.9s1.3-4.8,5.2-5.3,5.3-4.8,8.9-4.3,6.4-1.8,8.9,5.7.3,7.3,5.2,12.2,4.2,19.1,8.1,24.8,4.7,17.8,2.2,22.9-1.1,8.6,0,13.3,1.4,13.3-1.6,20.5-4,11.6-4.7,15.6-4.5,13-8.3,11.3-5-.4-6.8-2.5-3.5-4.7-.8-7.3,4.2-2.1,5.8-7.8,3.5-9.1,3.7-13.4"/>
  <path class="cls-1" d="M253.4,193.7s-6.2-8.6-10.4-7.9-1.4,9.3-.1,11.3c0,0-4.8,7.6-2,11.5s5,6.1,5,6.4-.7,6.4,1.1,9.2,4.3,6.1,7.9,3.8c0,0,5.1,3.9,8.1.1s3.8-14.1,3.8-14.1c0,0,11.3-5.9,4.7-17.7,0,0,5.4-7.8,2.7-10.6s-12.4,8.4-12.4,8.4l-8.2-.4Z"/>
  <path class="cls-1" d="M233.4,169.1s-.7,7.1,1,12.2,2,9.4,1.8,16.2-1.3,12.6,1.2,17.6-2.4,13.2,1.4,23.4,3.1,16.4,7.2,16.5,6.9,1,7.8-3.8,1.1-3.8-2.1-9.4-4-16.1-4-16.1"/>
  <path class="cls-1" d="M257.4,132.8s1.7-2.7,4.3-2.5,6.4,1.2,7.5,3.4,4,4.2,3.3,6.2-4.5,5.7-7.3,5.5"/>
  <path class="cls-1" d="M183.8,222.2s8.8,0,14-2.8c0,0,.2,6.3-3,12.5s-2.5,21.8-2.1,34.4-27.4,47.9-54.4,34.5c0,0,5.7-16,2.5-24.3s-4.4-27.6-1.8-36.4"/>
  <path class="cls-1" d="M74.5,93.4s-4.7,2-4.4,5.8,2.9,2.3,5.9.6"/>
  <path class="cls-1" d="M87.1,79.4s5-6.3,9.9-12.9,6.7-9.8,8.1-13.2.8-6.2,3.8-7.9,5.4-12.2,10.9-12.2,13.1,5,10.8,12.2,2.1,10.2-5.2,11-11.9,13.9-14,16.3-15.7,15.9-15.7,15.9"/>
  <path class="cls-1" d="M197.8,219.4s11.9-2.2,17.6-2.9,13.2-1.2,16.8,1.4,4.4,13.4,3.1,20.7c0,0-3.7,14.9-4.9,23.6s-4.4,15.5-3.8,19.6,0,8.6,4.5,10.9,14.5,5.8,14.3,10.1-10.8,3.2-17.6,1.6-17.8-4.1-17.8-4.1c0,0-4.8-1.7-2-8.6s5.3-6.5,6.4-10,2.1-13.3,2.2-14.1-1.1-14.9-2.1-18.3-1.7-7.2,1.6-12.5"/>
  <path class="cls-1" d="M192.7,257.5s17.8-6.4,21-13.5"/>
  <path class="cls-1" d="M162.9,301.4s-.1,21.4-18.8,17.5-12.9-9.3-13.4-11.4,0-4.3-1.6-4.8"/>
  <path class="cls-1" d="M140,291.8s-4.3-2.7-5.9-3.7-8.3-5.7-11.4.3-2.1,22.7-.7,27.3,6.5,7.2,8.1,4.1,2.5-8.1,2.5-8.1"/>
  <polyline class="cls-2" points="101.2 91.8 131.1 41.7 110 42.9 91.5 96.5 112.5 138.1 128.2 158.8 160.8 244 171.3 237.1 180.9 229.1 196.5 168.6 173.9 136.1 128.2 158.8 196.5 168.6 276.4 162.3 273.4 174.8 266.6 203.7 257.3 210.1"/>
  <polyline class="cls-2" points="242.2 86.1 260.5 102.9 264.6 133.8 273.8 144.8 276.4 162.3"/>
  <polyline class="cls-2" points="221.5 300.9 198.1 248.3 180.9 229.1"/>
  <line class="cls-2" x1="160.8" y1="244" x2="144.1" y2="314.6"/>
  <circle class="cls-3" cx="101.2" cy="91.8" r="1.2"/>
  <circle class="cls-3" cx="131.1" cy="41.7" r="1.2"/>
  <circle class="cls-3" cx="110" cy="42.7" r="1.2"/>
  <circle class="cls-3" cx="91.5" cy="96.5" r="1.2"/>
  <circle class="cls-3" cx="112.5" cy="138.1" r="1.2"/>
  <circle class="cls-3" cx="173.9" cy="136.1" r="1.9"/>
  <circle class="cls-3" cx="196.5" cy="168.6" r="3.8"/>
  <circle class="cls-3" cx="180.9" cy="229.1" r="1.9"/>
  <circle class="cls-3" cx="257.3" cy="210.1" r="1"/>
  <circle class="cls-3" cx="266.6" cy="203.7" r="1.4"/>
  <circle class="cls-3" cx="273.4" cy="174.8" r="1.4"/>
  <circle class="cls-3" cx="273.8" cy="144.8" r="1.2"/>
  <circle class="cls-3" cx="264.6" cy="133.8" r="1.2"/>
  <circle class="cls-3" cx="260.5" cy="102.9" r="1.2"/>
  <circle class="cls-3" cx="242.2" cy="86.1" r="1.2"/>
  <circle class="cls-3" cx="276.4" cy="162.3" r="1.9"/>
  <circle class="cls-3" cx="221.5" cy="300.9" r="5.2"/>
  <circle class="cls-3" cx="144.1" cy="314.6" r="3.1"/>
  <circle class="cls-3" cx="171.3" cy="237.1" r="1.9"/>
  <circle class="cls-3" cx="160.8" cy="244" r="1.9"/>
  <circle class="cls-3" cx="198.1" cy="248.3" r="1.4"/>
  <circle class="cls-3" cx="128.2" cy="158.8" r="3.9"/>
</svg>