<?xml version="1.0" encoding="UTF-8"?>
<svg id="Layer_1" data-name="Layer 1" xmlns="http://www.w3.org/2000/svg" version="1.1" viewBox="0 0 360 360">
  <defs>
    <style>
      .cls-1 {
        stroke: #bfbfbf;
        stroke-linecap: round;
        stroke-width: 3px;
      }

      .cls-1, .cls-2 {
        fill: none;
        stroke-linejoin: round;
      }

      .cls-3 {
        fill: #fff;
        stroke-width: 0px;
      }

      .cls-2 {
        stroke: #fff;
        stroke-width: .8px;
      }
    </style>
  </defs>
  <path class="cls-1" d="M84.8,245.4s.1,14.1-2.3,19.6-9.6,15.6-12.9,17.2-8,2.7-8,4.7,4.2.6,7.2,1.1,7.2,4.4,6.9-1.1,3.5-6.8,6.7-10.6,13.5-19.8,13.9-24.8"/>
  <path class="cls-1" d="M98.3,192.5s-25.6,6.4-2.1,53.9,47.9,41.9,47.9,41.9c0,0-.4-7.8-8.4-14.9,0,0,7.8,2.2,11.7.9,0,0-3.5-8.6-6.9-12.6l8.2.7s11.1,48.1,27.3,42.1c0,0,8.8,14,23.2,10.6s4-24.8,3.4-25.3,6.5-.3,9.3-6c0,0,7.4,21.9,28.4,12.9s2.2-34.5-6-35.1c0,0,8.8-4.3,9.2-10.4,0,0,18.1,27.7,36.8,12.4s1.6-35.5-9.2-36.2c0,0-13-3.8-22.9,4l-11.9-10.1s.3-5.7.2-8.5c0,0,23.8,18.2,37.6,4.3,0,0,4.3-3.4,2-12.3,0,0,30.8,17.4,41.3-3.3s-25.3-25.9-25.3-25.9c0,0,5.1-10.6-4.4-19.1,0,0,2.5-2.2,11.3-1.3s27.9,4,30.5-14.1-22.1-21-30.4-11c0,0-1.6-9.4-7.2-12.9,0,0,31.7-.7,23.7-25.9s-28.8-.3-28.8-.3l-6.5-8,14.1-11s14.2-7.9,1.7-24.2-25.2,13.5-25.2,13.5l-13.1-3.3s9-17.4-1.2-23.3-27.9,34.4-28,34.7,2.9-17.5-9.3-20.6-23.8,10.8-20.6,26.2c0,0-1.8,7.6-4,8.6s.6-13.1-9.1-13.5-17.4,18-10.8,28.9l-4.4,7.4s-3.5-1.4-6.9.4c0,0-3.7-6-11.6-2.2s-3.9,15,.8,21v15.9c.1,0-5.2-8.8-11.6-6.8s-10.4,13.6,2,28.5c0,0-12.2.4-11.5,8.5s4.2,9.6,4.2,9.6l-7.6,7"/>
  <path class="cls-1" d="M83,254.4s-26.7-12.9-34-31.1,9.6-33.3,9.6-33.3c-11.4-18.2,5.2-36.4,13.5-49s9.4-14.9,12.9-21.8,6.4-20.2,6.4-20.2c-1.4-2.4-2.2-7.2-2.2-7.2-5.7-4-14.4-5-14.4-5,5.4-9.9,31.5-2.4,31.5-2.4,0,0,.3-2.2,2-3.8s1.8-4.4,1.3-8.9,3.8.3,5.2,3.9,2.4,2.8,8.5,5-.2,8.2-2.3,6.9-7.4-.1-7.4-.1l-2.2,1.8c5.8,5.8-.1,20.5-4.1,32.5s-4.4,22.2-6.5,33.1-6,20.3,11,26.4c17,6.1,25.6,15.2,25.6,15.2,0,0,14.9,14.9,15.2,45.3"/>
  <path class="cls-1" d="M104.2,261.1s-4.8,16.7-12.9,24.9-13.5,10.2-16.7,11.3-1,3.2,3.5,2.8,8-3.4,11.1-2.8,1-3.1,3.8-5.1,16-24.5,16-24.5"/>
  <polygon class="cls-2" points="56.1 211.8 102.3 91.2 145.2 192.2 104.5 201.8 56.1 211.8"/>
  <polygon class="cls-2" points="290.5 176.2 279.5 147.4 239.7 147.1 145.2 192.2 225.7 203.3 290.5 176.2"/>
  <line class="cls-2" x1="312.9" y1="197.6" x2="290.5" y2="176.2"/>
  <polyline class="cls-2" points="232.4 252.3 145.2 192.2 164.5 267.7"/>
  <circle class="cls-3" cx="102.3" cy="91.2" r="4"/>
  <circle class="cls-3" cx="56.1" cy="211.8" r="1.9"/>
  <circle class="cls-3" cx="104.5" cy="201.8" r="1.9"/>
  <circle class="cls-3" cx="145.2" cy="192.2" r="1.9"/>
  <circle class="cls-3" cx="239.7" cy="147.1" r="1.9"/>
  <circle class="cls-3" cx="279.5" cy="147.4" r="1.9"/>
  <circle class="cls-3" cx="290.5" cy="176.2" r="1.9"/>
  <circle class="cls-3" cx="225.7" cy="203.3" r="1.9"/>
  <circle class="cls-3" cx="232.4" cy="252.3" r="1.9"/>
  <circle class="cls-3" cx="164.5" cy="267.7" r="1.9"/>
  <circle class="cls-3" cx="312.9" cy="197.6" r="1.9"/>
</svg>