<?xml version="1.0" encoding="UTF-8"?>
<svg id="Layer_1" data-name="Layer 1" xmlns="http://www.w3.org/2000/svg" version="1.1" viewBox="0 0 360 360">
  <defs>
    <style>
      .cls-1 {
        stroke: #bfbfbf;
        stroke-linecap: round;
        stroke-width: 3px;
      }

      .cls-1, .cls-2 {
        fill: none;
        stroke-linejoin: round;
      }

      .cls-3 {
        fill: #fff;
        stroke-width: 0px;
      }

      .cls-2 {
        stroke: #fff;
        stroke-width: .8px;
      }
    </style>
  </defs>
  <path class="cls-1" d="M291.5,181.5s-10.3-4.3-16.5-3c0,0-11.8-19.3-20.8-26.1,0,0,6.5-9.1,7.1-10.1s15.6,3.2,23.9,2.5,7-1.9,10.8-5.2,8.3-12.1,14.4-16.6,8-6.8,8-12.3,1.2-11.8-2.2-14.8-6.5-3.7-7-.3-3,8.5-.2,11.5-1.2,6.3-6,11.6-14.6,14-14.6,14c0,0-22.8-.5-30.4-4.5,0,0,20.1-.8,25.6-2s10.6-5.8,9-12-8.8-27.8-8.8-27.8c0,0-2.5-5.5-6.8-7s-16.1-2.2-17,1,5.8,9.3,9.6,8.6,4.7-1,4.7-1c0,0,8.8,22.1,9,22.6s1.3,8-5.5,6.3-30.1-6.2-30.1-6.2c0,0-10.1-2.2-13.1.8s-17.1-1-26.1,1.3-26.8,10-34.8,22.8c0,0-10.1-.5-18.6,2.2s-15.5,5.5-20.1,3-9.6-11-21.3-13.8-25.4,4-25.4,4c0,0-7.3-.2-9.6-3.3s-15.6-18.1-19.5-20.3-8.1-5.3-14.6-4.5-8.3,4.7-5.8,7.6,9.5,5.3,11.6,1.8c0,0,5,3.2,6.7,6.7s10.5,6.3,14.5,13.8,7.1,10.3,13.1,9.8,14.8-4.2,20.1,4-1.3,17.8,15.8,28.3c0,0-4.5,6.5-12.5,4.5s-5.3-20.5-17.3-23.3-17.6-.5-24.9-5.2l-7.3-4.7,1.5,11-4.8-.5s-1.3,13.6,17.1,18.3,13.1,23.1,34.8,15.1,18.3-8,18.3-8c0,0,20.8,7.5,37.6-.8s19.1-8,23.4-7.1c0,0-1.7,7.3-5.2,8.5s-21,2.3-26.1,11.5c0,0,8.8.2,11,2,0,0-13.3,2.7-15.3,6.2,0,0,8.6,0,12.3,2,0,0-15.3,4-21.8,14.5,0,0,10.6-3.8,15.1-3.3,0,0-11.1,6.3-11.6,9.8l10.5-.8s-25.3,14-25.6,26.8c0,0,13-7.5,16.1-7.8,0,0-16.1,11.5-20.3,25.3l11-7.8s-13.5,15.5-15.1,26.4c0,0,14.1-14,14.6-14.5s-12.1,17.3-14,28.8c0,0,13.8-16.1,16.6-18,0,0-18,28.6-11,43.6,0,0,2,2.2,5.5-4.8s24.6-35.7,43.6-55.7,30.1-22.3,28.1-34.1-4-14.3.3-18.3,7.1-16.5,6.3-22.9,4.8-13.1,10.1-15.8c0,0-1.8,6.5-3,7.1s6.7,2.8,12,3.3l-9.1,3.8s9.5,2.2,12.8,2.3c0,0-7,2.5-7.5,3.8,0,0,4.8,3.5,12,4.3l-7.8,2.5s10.3,5.3,13.3,4.8-4.7,4-4.7,4c0,0,19.3-.7,25.1-3.5s10.5-.5,10.5-.5c0,0-4,4.5-3,9.8,0,0,8-5.8,11.1-7.1s8-4.7,8.6-7.5c0,0,18.1-7.8,21.1-8.6s7.8-3.2,7.1-6.5-1.8-10.3-4.7-9.5-6,.7-6,.7c0,0-1.2-5.2-4.8-4.8s-9.1-.2-13.5,7.3Z"/>
  <polygon class="cls-2" points="198 127.3 241.7 133.8 240 173.7 188.8 169.4 198 127.3"/>
  <polyline class="cls-2" points="301.8 187.9 282.4 200.6 257.5 187.1 240 173.7"/>
  <polyline class="cls-2" points="295.7 139.6 281.3 141.6 253.7 147.8 241.7 133.8 256.1 127.4 278.1 117.5"/>
  <circle class="cls-3" cx="198" cy="127.3" r="1.2"/>
  <circle class="cls-3" cx="188.8" cy="169.4" r=".8"/>
  <circle class="cls-3" cx="240" cy="173.7" r=".8"/>
  <circle class="cls-3" cx="257.5" cy="187.1" r=".6"/>
  <circle class="cls-3" cx="253.7" cy="147.8" r=".6"/>
  <circle class="cls-3" cx="281.3" cy="141.6" r=".6"/>
  <circle class="cls-3" cx="256.1" cy="127.4" r=".6"/>
  <circle class="cls-3" cx="295.7" cy="139.6" r=".6"/>
  <circle class="cls-3" cx="278.1" cy="117.5" r=".6"/>
  <circle class="cls-3" cx="282.4" cy="200.6" r=".6"/>
  <circle class="cls-3" cx="241.7" cy="133.8" r="1"/>
  <circle class="cls-3" cx="301.8" cy="187.9" r="1"/>
</svg>