<?xml version="1.0" encoding="UTF-8"?>
<svg id="Layer_1" data-name="Layer 1" xmlns="http://www.w3.org/2000/svg" version="1.1" viewBox="0 0 360 360">
  <defs>
    <style>
      .cls-1 {
        stroke: #bfbfbf;
        stroke-linecap: round;
        stroke-width: 3px;
      }

      .cls-1, .cls-2 {
        fill: none;
        stroke-linejoin: round;
      }

      .cls-3 {
        fill: #fff;
        stroke-width: 0px;
      }

      .cls-2 {
        stroke: #fff;
        stroke-width: .8px;
      }
    </style>
  </defs>
  <path class="cls-1" d="M233.5,112.2c9.3,1.6,13.7-5.8,13.7-5.8-6-9.3-21.3-6-21.3-6-10-9.1-25.3-1.6-26.8,0s-1.3,7.5-1.3,7.5l-5.1,11.7s-5.1-13.5-11.7-17.3c0,0-.4-18.8-6.9-22.2l-4.9-13.7s3.8-2.7,8.4-3.3,27.3-9.3,34.6-6.2c7.3,3.1,14.2-4.4,14.2-4.4l15.7,2.9,1.8-4.9,4.7,4.2c29.3,13.3,55,38.1,55,38.1l26.4,12-10-30.8c-14.2-14.2-69.4-28.6-69.4-28.6l1.1-7.8-9.5-2-2.7,9.8c-4.7-1.8-16.4-3.1-16.8-5.1s-2.7-1.1-4.7-2.4-2.7,1.1-5.5,0-3.5,1.1-6.9.9-6.9,5.3-6.9,5.3c-10-.9-26.4,3.1-30.6,4.9s-8.4,0-13.5,2.2-3.1,11.3-5.3,20.2-2.4,21.9,2.2,28.2,10.9,21.9,10.9,21.9c-3.8,10-4.2,17.1-2.9,24.2s-3.3,10.6-3.3,10.6c-1.3-15.7-22.6-31-33-35.5s-19.3-.4-24.2,5.1-17.7,20.6-22.4,26.6-20.8,20.6-33,24.6c-12.2,4-24.4-4.9-29.9-1.1s4.7,14.9,16.8,16.2,13.3,12,25.1,13.1,7.5-16.6,7.5-16.6c0,0,0-6.9,7.8-8.2s27.7-7.5,31.9-16.6,4.4-16.8,10-23.5"/>
  <path class="cls-1" d="M236.6,100.9s-3.3,10.9-6.9,17.3c0,0-.7,13.7-4.4,16.2s-18,5.8-23.7-7.8"/>
  <path class="cls-1" d="M197.8,108s-5.5-2.4-8-5.3c0,0,7.3-34.6,35.7-29.5,0,0,14.6,1.1,17.1,12,2.4,10.9-1.1,13.3,3.3,19.5"/>
  <path class="cls-1" d="M204.9,76.7s2.7-15.1,18.4-15.7,18.8-5.5,18.8-5.5"/>
  <path class="cls-1" d="M248.5,54.8s4.7,15.3-18.6,19.1"/>
  <path class="cls-1" d="M229.3,123.7s6.9-2.9,16.6,2.9c9.8,5.8,15.3,23.1,12.2,41.5,0,0,1.1,14.9,2.2,20.6s2.9,13.5-5.1,14.9"/>
  <path class="cls-1" d="M108.2,150.3s7.3,15.3,15.3,23.5"/>
  <path class="cls-1" d="M119.1,120s16.8,18.2,3.3,58.7-3.8,36.8,4,36.4,44.8,17.1,40.3,54.5c0,0-11.7,4.2-22.8-25.1"/>
  <path class="cls-1" d="M123.3,215.3l-14.9,11.5s-9.8,5.8-6.2,20.4c0,0,6.9,29.7,6.4,43.9s-1.1,10.2-1.1,10.2c0,0-9.1,8.2-11.7,11.3s-12.6,2.2-12.4,7.3,4.2,13.3,10.9,13.1,12.9-3.1,20-8.9,14.2-6.4,12.6-11.1-3.5-14.4-1.8-18.6,2.2-9.5,7.5-20,4.9-22.2-.2-29.3"/>
  <path class="cls-1" d="M161,241s-26.2,5.3-38.6,4"/>
  <path class="cls-1" d="M166.7,269.6s9.8-1.1,21.7-12.4"/>
  <path class="cls-1" d="M202.9,205.4s7.9,2.5,12-1.1c0,0,4.4,3.7,9.5,3.2,0,0,4.4,2.4,5,9.3s-4,5.5-2.5,9.1-.6,7.5-3.9,10.6-4.2,6.7-3.9,12.4-1.4,9.1-6.1,8.3-9.9-7.4-12.5-9.4-4.8-3.1-5.5-8-6.2-9.1-5.7-13.5c0,0,7.6-3.1,4-13.1,0,0,9.5-1.8,9.6-7.9Z"/>
  <path class="cls-1" d="M218.4,254.9s1.8,1.3,4.4.8c0,0,0,9.5,7.6,11,0,0,6.7,8.2,9,7.1s3.2-6.5-1-9.1-9.8-1.4-9.9-9.9"/>
  <path class="cls-1" d="M219.9,251.2s2.7-7.2,8.5-6.8,12.6,5.4,13.3,11.7-8.5,5.3-12.5.9"/>
  <path class="cls-1" d="M222.8,255.6s1.8-8.8,8-5.2l6.2,3.5"/>
  <path class="cls-1" d="M237.8,248.8s15.5-4,13.3-9.3c-2.2-5.3-10-.7-10.8-7s8.9,7.3,16.6-2.4c0,0,7.6-2.8,6.1-5.1s-3.3-2.5-6.3-2.2-7.2-.7-6.2,1.4,3.3,2.3,2.8,3.4-2.1,1.6-4.4.9-5.3-6.3-9.9-6-10.9,8.6,1.2,16.6"/>
  <path class="cls-1" d="M222,236.9s13.5,5.2,21.6,1.1"/>
  <path class="cls-1" d="M228.6,212.2s.2-17,10.9-14.3.8,13,.8,13.3-3.9,6.5-1.2,11.3"/>
  <path class="cls-1" d="M229.6,218.5s4.8-1.1,5.2-6.1,3.7-9.3,3.7-9.3"/>
  <path class="cls-1" d="M242,222.8s4.2-4.8,3.2-10.3c-1-5.5,7.4-12.1,11.7-8.4,4.3,3.7-.1,7.6,2.5,10.3s7.4-1.4,10.2,1.3c2.8,2.8-.9,5.7-4.8,5.3s-10.5-2.2-10.8-5,.6-7.1-1.7-7.4-2.3,6.4-1.6,9.4,1.3,5,1.3,5"/>
  <path class="cls-1" d="M194.9,239.9s-5.9,2.3-4.4,5.3,3,9.9-1.2,11.4-9.1,9.6-12.3,7.3-3.3-7.4.8-8,9.2-.9,8.9-5.1-6.5-11.4,6.1-16"/>
  <path class="cls-1" d="M189.2,226.4s-9.5,1.6-9.9-4.1,6.8-7.2,6.8-7.2"/>
  <path class="cls-1" d="M182.9,221.7s6.7-1.9,3.5-11.5"/>
  <path class="cls-1" d="M193.2,213.3s-4-4.3-9.6-4.5-6.1,13.1-18.5,10.8-6-16.3-5.4-16.7-8.4-1.7-8.1-4.7,13.1-5.8,13.2,1-4.2,8-1.1,13.2,9.1,2.3,10.2-2,12.9-10.2,20-4.8"/>
  <path class="cls-1" d="M202.9,205.4s-8.5-5.8-4.9-13.4,12.6-.2,12.6-.2"/>
  <path class="cls-1" d="M201.7,195s2.8,3.3,6.5,2,12.9.3,6.7,7.3"/>
  <path class="cls-1" d="M220.8,206.9s6.3-5.1,2.4-9.6-5.3-4.7-1-6.8,12.7-2.9,8.9-7.3c-3.9-4.4-8.3-5.9-4.7-8.8s4-9.3,2-10.1-7.8,3.9-6.8,7.4-6.4,5.2-.1,9.1-4,4-6.5,5.7-5.3,2.4-3.8,9.9"/>
  <line class="cls-1" x1="197.9" y1="199.9" x2="191.1" y2="204.1"/>
  <path class="cls-1" d="M185.7,203.4s1.3-4.8-3.4-6.5-9-3.9-5.9-7.4,3.8-4.8,1.2-5-8.5,1.9-9-.6,3.8-5,6.9-3.7,11.4,1.3,9.2,5.9-3.7,5,1.2,8.1,8.3,3.8,7.8,8.2"/>
  <line class="cls-1" x1="226.8" y1="189" x2="232.5" y2="190.6"/>
  <path class="cls-1" d="M235.9,197.2s-4.9-4.8-1.6-9.6c3.3-4.9,13.6,2.1,13.6,2.1"/>
  <path class="cls-1" d="M237.8,190.1s4.9,4.2,9.1,1.8,4.8-5.4,9.4-3.4-1.4,7.5-4.2,7.1-8.1,3.3-12.6,2.3"/>
  <path class="cls-1" d="M179.4,222.3s-9.5.7-9.8,4.5,3.8,5.7,3.8,5.7c0,0,2.2,3.1-3.9,5.3s-1,11.3-.2,12.9-.1,6.2,2.8,4.1,6.7-3.3,3.2-7.4-4.7-5.2-2.1-7,11.1-6.1,6.8-9,1.7-5.7,1.7-5.7"/>
  <polygon class="cls-2" points="222 74.6 220.5 104 200.4 135.9 175.8 134.6 204.1 97.9 222 74.6"/>
  <polyline class="cls-2" points="327.6 102 239.8 135.9 200.4 135.9 202.4 181.2 206.6 219.1 115.2 227 146.1 153.5 175.8 134.6"/>
  <line class="cls-2" x1="204.1" y1="97.9" x2="220.5" y2="104"/>
  <line class="cls-2" x1="213.6" y1="239.5" x2="206.6" y2="219.1"/>
  <polyline class="cls-2" points="135.2 302.4 115.2 305 112.3 287.7 108.8 266.5 115.2 227"/>
  <polyline class="cls-2" points="110.9 125.6 93.7 123.6 95.9 142 105.2 150.4 146.1 153.5"/>
  <circle class="cls-3" cx="206.6" cy="219.1" r="2.7"/>
  <circle class="cls-3" cx="115.2" cy="227" r="2.7"/>
  <circle class="cls-3" cx="115.2" cy="305" r="2.7"/>
  <circle class="cls-3" cx="213.6" cy="239.5" r="1.7"/>
  <circle class="cls-3" cx="202.4" cy="181.2" r="1.7"/>
  <circle class="cls-3" cx="200.4" cy="135.9" r="1.5"/>
  <circle class="cls-3" cx="146.1" cy="153.5" r="1.5"/>
  <circle class="cls-3" cx="105.2" cy="150.4" r="1.5"/>
  <circle class="cls-3" cx="93.7" cy="123.6" r="1.3"/>
  <circle class="cls-3" cx="110.9" cy="125.6" r="1.3"/>
  <circle class="cls-3" cx="95.9" cy="142" r="1.5"/>
  <circle class="cls-3" cx="220.5" cy="104" r="1.5"/>
  <circle class="cls-3" cx="222" cy="74.2" r="1.5"/>
  <circle class="cls-3" cx="204.1" cy="97.9" r="2.3"/>
  <circle class="cls-3" cx="175.8" cy="134.6" r="2.3"/>
  <circle class="cls-3" cx="239.8" cy="135.9" r="1.5"/>
  <circle class="cls-3" cx="327.6" cy="102" r="1.5"/>
  <circle class="cls-3" cx="108.8" cy="266.5" r="1.7"/>
  <circle class="cls-3" cx="135.2" cy="302.4" r="1.7"/>
  <path class="cls-1" d="M156.1,156.3s1.8,7.3,2.7,18.4,9.8,24.6,24.8,28.7"/>
</svg>