<?xml version="1.0" encoding="UTF-8"?>
<svg id="Layer_1" data-name="Layer 1" xmlns="http://www.w3.org/2000/svg" version="1.1" viewBox="0 0 360 360">
  <defs>
    <style>
      .cls-1 {
        stroke: #bfbfbf;
        stroke-linecap: round;
        stroke-width: 3px;
      }

      .cls-1, .cls-2 {
        fill: none;
        stroke-linejoin: round;
      }

      .cls-3 {
        fill: #fff;
        stroke-width: 0px;
      }

      .cls-2 {
        stroke: #fff;
        stroke-width: .8px;
      }
    </style>
  </defs>
  <path class="cls-1" d="M153.2,120.6s9.1-2.3,22.9-11.6,31.9-10.6,47.6-2.2,16.6,18,24.9,11.6-7.8-17.3-5-26.9c0,0-11.6-1.3-15.8-5.3,0,0,13,.3,14,.5s-11.5-10.6-30.1-11.1c0,0,27.9.8,38.1,5.5,0,0-15.8-20-43.6-12.3,0,0,29.3-12.5,56.5,10.3,0,0,19.3,8,21.8,23.3s8.1,21.4,13.6,30.1,10.6,18.5.7,10.3-33.4-26.6-36.2-27.1-5-3.3-1.8,5.8-.3,27.4-24.4,16.1c0,0-12-.7-13,9s19.5,21.9,19.5,21.9c0,0,14,8.1,1.7,24.6s-24.1,30.9-30.6,49.9-35.7,48.4-54.9,46.4c0,0,34.4-45.2,37.2-55.9s-.2-1.2-.2-1.2c0,0-21.8,37.9-39.4,43.2,0,0,21.1-44.7,29.3-51.9,0,0-17,8.5-19.6,13.1,0,0,2-17.3,9.1-24.4l-5.2.2s2.8-6.7.3-14-4.5-13.3-2.5-15c0,0-6-6.3-5.7-12.3,0,0-7.8-7.1-3.2-14.1,0,0-27.9,14-31.6,23.1s-5.8,30.6,20.6,34.3c0,0-4,4.8-5.7,5.3,0,0,4.8.7,8.6.5,0,0-8.1,24.9-28.1,22.3l3.8,4s-30.1,10.6-51-26.3c0,0-10.3-17.5,4.5-37.7,0,0-18.8,7-30.6-2.8,0,0,8.6.3,15-1.5,0,0-18.8-13.5-18.1-30.1,0,0,7.8,8.6,12.6,11,0,0-9-14-4.7-28.1,0,0,5.3,10.1,11.6,8s17.5-9.5,41.4-5.8,21.1-13.6,28.6-14.5c0,0-11.5-7.8-21.4-4.8l5-5.5s-23.9,3-32.3,9.1c0,0,5-8,8-10.5l-5.7-1s39.8-25.4,85.8-24.8,45.4,23.9,45.4,23.9"/>
  <polygon class="cls-2" points="268.7 93.6 164.3 151.5 305.1 147.9 268.7 93.6"/>
  <polygon class="cls-2" points="103.8 106.8 164.3 151.5 162.3 274.4 106.3 190.6 103.8 106.8"/>
  <circle class="cls-3" cx="268.7" cy="93.6" r="4"/>
  <circle class="cls-3" cx="103.8" cy="106.8" r="2.5"/>
  <circle class="cls-3" cx="163.9" cy="151.5" r="2.5"/>
  <circle class="cls-3" cx="162.3" cy="274.4" r="2"/>
  <circle class="cls-3" cx="106.3" cy="191" r="2"/>
  <circle class="cls-3" cx="305.1" cy="147.9" r="2"/>
</svg>