<?xml version="1.0" encoding="UTF-8"?>
<svg id="Layer_1" data-name="Layer 1" xmlns="http://www.w3.org/2000/svg" version="1.1" viewBox="0 0 360 360">
  <defs>
    <style>
      .cls-1 {
        stroke: #bfbfbf;
        stroke-linecap: round;
        stroke-width: 3px;
      }

      .cls-1, .cls-2 {
        fill: none;
        stroke-linejoin: round;
      }

      .cls-3 {
        fill: #fff;
        stroke-width: 0px;
      }

      .cls-2 {
        stroke: #fff;
        stroke-width: .8px;
      }
    </style>
  </defs>
  <polyline class="cls-1" points="196.2 177.2 66.5 313.5 86.3 317.5 108.4 304.2 216.2 183.8"/>
  <polygon class="cls-1" points="173.2 153.4 257.6 183.6 257.6 197.1 173.6 167 173.2 153.4"/>
  <polyline class="cls-1" points="195.3 207.3 190.9 259.4 177.4 255.6 180.5 223.5"/>
  <polyline class="cls-1" points="233.2 188.9 241.7 272.7 256.7 276.7 248.8 194.7"/>
  <polyline class="cls-1" points="246.8 179.2 231.7 41 220.2 38.8 232.6 173.8"/>
  <polyline class="cls-1" points="197.8 162.3 204.9 38.4 194.7 37.5 186.2 157.4"/>
  <line class="cls-1" x1="184.2" y1="171.4" x2="182.9" y2="190.7"/>
  <line class="cls-1" x1="203.3" y1="68.3" x2="222.7" y2="72.7"/>
  <polyline class="cls-1" points="185.8 151.2 168.3 145.2 156.5 57.7 192.6 65.9"/>
  <line class="cls-1" x1="232.1" y1="167" x2="198" y2="155.4"/>
  <polyline class="cls-1" points="235 75.5 268.7 83.2 283.3 184.5 245.7 171.6"/>
  <line class="cls-1" x1="86.3" y1="317.5" x2="207.9" y2="179.6"/>
  <polyline class="cls-2" points="206.4 68.7 203.9 178 64.9 325.3"/>
  <circle class="cls-3" cx="206.4" cy="68.7" r="4.6"/>
  <circle class="cls-3" cx="64.9" cy="325.3" r="4.1"/>
  <circle class="cls-3" cx="203.9" cy="178" r="2.3"/>
</svg>