<?xml version="1.0" encoding="UTF-8"?>
<svg id="Layer_1" data-name="Layer 1" xmlns="http://www.w3.org/2000/svg" version="1.1" viewBox="0 0 360 360">
  <defs>
    <style>
      .cls-1 {
        stroke: #bfbfbf;
        stroke-linecap: round;
        stroke-width: 3px;
      }

      .cls-1, .cls-2 {
        fill: none;
        stroke-linejoin: round;
      }

      .cls-3 {
        fill: #fff;
        stroke-width: 0px;
      }

      .cls-2 {
        stroke: #fff;
        stroke-width: .8px;
      }
    </style>
  </defs>
  <path class="cls-1" d="M118.6,119.3s-24.2,6.6-28.4,8.3-17,.5-25.6,3-9.2,5.2-16.8,5.6-10.8,3.8-13.9,7.7c0,0-9.9,2.6-9.4,9.8s10.1,17.9,23,25.5c12.9,7.6,22.9,23.9,43.9,29.5,21,5.5,58.2,8.6,74.8,7.5,16.6-1,33.5-6.5,54.5-10s39.2-11.4,54.3-7.4,32.1,28,43.1,33.8c11,5.7,15.8,7.4,13.9.8s-6.1-32,1-49.3c7.1-17.3,12.2-25.2,8.7-30.9s-18.1-4.1-30.5,4c-12.4,8-21.8,14.5-34.6,9.8-12.8-4.7-30.8-14.2-48.5-19-17.7-4.8-43.7-23.7-72.8-25.4"/>
  <path class="cls-1" d="M115.4,134.7s.8-27.2,20.6-33.8,20.8-1.7,23.6,1.1,7.5,18.2-15,24.7l-21.3,9.3"/>
  <path class="cls-1" d="M94.1,209.5s4,11,21.1,16.7c17.1,5.7,47.4,7.6,50.6,4.8s1.5-11.5-1.5-14.8"/>
  <path class="cls-1" d="M185.5,213.8s7,6.5,21.8,5.5,25.1-1.3,25.8-6.6-6.4-7.9-6.4-7.9"/>
  <path class="cls-1" d="M219.4,144.8s23.3-3.1,29.3-4.4,14.9,0,14.1,5.4-6.6,12.5-6.6,12.5"/>
  <path class="cls-1" d="M76.7,139.2s24.2,13.8-8.4,37"/>
  <polygon class="cls-2" points="49.1 156.8 106.4 111.9 220.6 206.2 292.5 175.8 299.9 210.5 220.6 206.2 141.7 196.3 70.8 207.9 58.7 203.3 49.1 156.8"/>
  <circle class="cls-3" cx="58.7" cy="203.3" r="1.7"/>
  <circle class="cls-3" cx="70.8" cy="207.9" r="1.7"/>
  <circle class="cls-3" cx="141.7" cy="196.3" r="1.7"/>
  <circle class="cls-3" cx="292.5" cy="175.8" r="1.7"/>
  <circle class="cls-3" cx="299.9" cy="210.5" r="1.7"/>
  <circle class="cls-3" cx="220.6" cy="206" r="1.7"/>
  <circle class="cls-3" cx="106.4" cy="111.9" r="2.8"/>
  <circle class="cls-3" cx="49.1" cy="156.8" r="6.3"/>
</svg>