<?xml version="1.0" encoding="UTF-8"?>
<svg id="Layer_1" data-name="Layer 1" xmlns="http://www.w3.org/2000/svg" version="1.1" viewBox="0 0 360 360">
  <defs>
    <style>
      .cls-1 {
        stroke: #bfbfbf;
        stroke-linecap: round;
        stroke-width: 3px;
      }

      .cls-1, .cls-2 {
        fill: none;
        stroke-linejoin: round;
      }

      .cls-3 {
        fill: #fff;
        stroke-width: 0px;
      }

      .cls-2 {
        stroke: #fff;
        stroke-width: .8px;
      }
    </style>
  </defs>
  <path class="cls-1" d="M112.3,88c11.3-27.4,26.3-26.8,26.3-26.8,0,0,2.3-3.5,5.8-2s12.1,16,6.8,36.4-13.8,36.6-28.1,49-15,8.1-15.8,18.8-5.5,25.4-10.6,24.3-6-10.8-17.5-12.5-8.8-8.3-3.3-11.5,17-7.8,20.5-19-1.7-33.9,8.1-40.6"/>
  <path class="cls-1" d="M116.1,87.5s-7.9,2.8-16.5,5.7-.5,11.3,2.7,11.1,6.2-.8,11.6-8.8"/>
  <path class="cls-1" d="M125.3,142.7s.2,21.6-10.1,8.3"/>
  <path class="cls-1" d="M151.1,98s9,1.7,5.8,8.3-8.1,22.8-17.5,19.8"/>
  <path class="cls-1" d="M261.5,250.1c-9.1-.2-28.8-16.3-39.2-22.6s-18.8.3-27.3,1.8-4.8-10-2.8-16.6-3-10.3,2.2-12.5,15.6,5.2,33.4,13.5,52.5-1.8,64.3,5.5,26.9,23.1,26.9,28.1-8.6,4.7-8.6,4.7l1.2,3.8s-14.3,6.3-35.7,0"/>
  <path class="cls-1" d="M273.6,246s-16,4.5-16.5,10.1,8.6,8.6,14.1,4.2,6.5-9.3,6.5-9.3"/>
  <path class="cls-1" d="M242.5,241.8s-9.3,2.3-16-1.3,7.1-5,7.1-5"/>
  <path class="cls-1" d="M261.5,216.7s-5.7-6.7-1-8.3,23.3.7,25.6,2.3,4.8,2.7,6,8.5"/>
  <path class="cls-1" d="M281.7,257.6s-3.7,10.5-10.5,2.7"/>
  <path class="cls-1" d="M89.5,181.3s-5.7,4.3-8.5,16-13.8,15.5-18.1,21.1-19.6,13.3-15.8,16.1,19.8-6.7,30.1-12.3,18.3-7.5,28.1-6.8,14.6.5,26.6-3.8,25.8.8,37.2.3,19.3-4.7,23.4-3"/>
  <path class="cls-1" d="M190.8,216.6s-16.6,0-24.3,2.7-19.5-3.7-26.9-2.8-20.6,5-35.4,7.6-21.3,3-30.6,9-31.1,14.2-35.3,9.8,5.9-16.5,15.5-24.3,20.1-20.8,20.5-28.3,8.3-14.3,8.3-14.3"/>
  <circle class="cls-3" cx="130.7" cy="67.1" r="1.2"/>
  <circle class="cls-3" cx="118.2" cy="85.2" r="1.2"/>
  <circle class="cls-3" cx="125.7" cy="103.4" r="1.2"/>
  <circle class="cls-3" cx="94.8" cy="162.7" r="1.2"/>
  <circle class="cls-3" cx="38.2" cy="241.6" r="1.2"/>
  <circle class="cls-3" cx="74.2" cy="226.7" r="1.2"/>
  <circle class="cls-3" cx="69.8" cy="202.3" r="1.2"/>
  <circle class="cls-3" cx="93.1" cy="223.5" r="1.2"/>
  <circle class="cls-3" cx="138.5" cy="214.3" r="1.2"/>
  <circle class="cls-3" cx="162" cy="216.9" r="1.2"/>
  <circle class="cls-3" cx="243.5" cy="220.9" r="1.2"/>
  <circle class="cls-3" cx="275.9" cy="227.6" r="1.2"/>
  <circle class="cls-3" cx="295.3" cy="221.5" r="1.2"/>
  <circle class="cls-3" cx="314.9" cy="240.2" r="1.2"/>
  <circle class="cls-3" cx="299.7" cy="254.9" r="1.2"/>
  <circle class="cls-3" cx="274.2" cy="253" r="1.2"/>
  <polyline class="cls-2" points="125.7 103.4 118.2 85.2 130.7 67.1 125.7 103.4 94.8 162.7 69.8 201.9 38.2 241.6 74.2 226.7 93.1 223.5 138.5 214.3 162 216.9 243.5 220.9 275.9 227.6 295.3 221.5 314.9 240.2 299.7 254.9 274.2 253 275.9 227.6"/>
  <line class="cls-1" x1="138.6" y1="61.3" x2="134.6" y2="68.2"/>
</svg>