<?xml version="1.0" encoding="UTF-8"?>
<svg id="Layer_1" data-name="Layer 1" xmlns="http://www.w3.org/2000/svg" version="1.1" viewBox="0 0 360 360">
  <defs>
    <style>
      .cls-1 {
        stroke: #bfbfbf;
        stroke-linecap: round;
        stroke-width: 3px;
      }

      .cls-1, .cls-2 {
        fill: none;
        stroke-linejoin: round;
      }

      .cls-3 {
        fill: #fff;
        stroke-width: 0px;
      }

      .cls-2 {
        stroke: #fff;
        stroke-width: .8px;
      }
    </style>
  </defs>
  <path class="cls-1" d="M287.6,154.5c6.2,11.7,1.8,31.9-17.3,39.6s-43.4-28.9-43.4-28.9l-87.8-111.1c-10.2-2.9-11.7-5.5-11.7-5.5-14.2-2.9-24.2-8.9-24.2-8.9,0,0-2-2.7,2.7-3.5s7.1-3.8,7.5-7.8,10.9-7.3,16.8-1.8,6.7,11.1,18.2,10.9,13.7,3.3,14.2,8.2.7,12.1,9.8,18.8,18.8,9.3,14.9,19.5l68.7,85.8s2-5.5-5.3-17.7c-7.3-12.2-13.7-22.8-6.9-32.1,6.9-9.3,21.7-8.2,20.4,7.3"/>
  <path class="cls-1" d="M269.4,173.2s-20.2-18.4-12.9-34.6c7.3-16.2,23.5-10.4,24.6-10s10.4,3.1,8.6,18.6-12.2,6.4-12.2,6.4c0,0-6.7-8,2.9-9.5"/>
  <path class="cls-1" d="M290.2,166.3s13.3,7.1,20.4,15.1c0,0-14,30.8-21.1,37.5,0,0-6.7,11.5-29,5.1-22.4-6.4-39.2-8.9-42.6,5.1-3.3,14,10.6,16.2,11.3,16.2s12,1.3,10.4-12.6-15.5-3.5-9.8.9"/>
  <path class="cls-1" d="M296.6,208.9s5.3,15.1-2.9,20.2c0,0-2.2,29-26.2,30.6s-34.8-11.1-47.2,1.1,4.7,20.4,12.6,17.5c8-2.9,3.8-10.9-2-10"/>
  <path class="cls-1" d="M293.8,229s-9.3,9.1-18.4,8.9-24.4-2-23.5,6.9,12,9.1,11.3,3.1"/>
  <path class="cls-1" d="M275.1,258.3s-12.6,28.4-29.9,24.4-35.9,2-38.4,9.3c-2.4,7.3,7.1,10.4,11.3,4.9,4.2-5.5-4.2-6.7-5.8-4.9"/>
  <path class="cls-1" d="M258.7,280.2s-8.6,18-17.1,20-11.7,12-15.3,21.1"/>
  <path class="cls-1" d="M102.4,328.1s19.5-44.9,20.5-98.4-4.3-118.4-15.6-149.6c0,0-1.7-4.3,1.3-9,0,0-9.1-23.2-5.5-31.4"/>
  <path class="cls-1" d="M256.6,223s-50.9-68.8-86.5-101.8c-35.6-32.9-61.5-50.2-61.5-50.2"/>
  <line class="cls-1" x1="112" y1="299.8" x2="84.7" y2="292.9"/>
  <line class="cls-1" x1="109.3" y1="309.1" x2="82.5" y2="302"/>
  <path class="cls-1" d="M79.6,327.9s4.7-92,43.2-116.2c0,0-27.5-28.6-86.2-29.9"/>
  <path class="cls-1" d="M228.8,255.6s-13.3-18.2-39.2-3.8c-25.9,14.4-8.4,36.1-1.8,32.4,0,0,8.4-.7,6.4-10.4s-10-4.9-9.1-1.1"/>
  <line class="cls-1" x1="123.1" y1="187.6" x2="176.9" y2="262.5"/>
  <line class="cls-1" x1="192.2" y1="282.2" x2="208.9" y2="304"/>
  <path class="cls-1" d="M113,74.4s33.3,73.5,29.6,154.6-24.6,103.4-24.6,103.4"/>
  <path class="cls-1" d="M113.3,44.6s-5.2,19.6,22.3,46.9"/>
  <path class="cls-1" d="M127.3,48.6s-6.7,12.7,5.3,27.3,14.3,23.4,14.3,23.4"/>
  <path class="cls-1" d="M139,54.1s-6.3,3.5.4,17.1,12.6,22.1,16.6,37.1"/>
  <circle class="cls-1" cx="197.6" cy="195.1" r="5.3"/>
  <line class="cls-1" x1="201.3" y1="227.2" x2="201.3" y2="198.9"/>
  <line class="cls-1" x1="194.4" y1="227.2" x2="194.4" y2="198.9"/>
  <path class="cls-1" d="M202.8,193.1s11.5-1,16.5,2.3c0,0-8.8,3.8-16.1,1"/>
  <path class="cls-1" d="M192.5,193.3s-10.3-1.3-15,.5,5.3,4.2,15,3.2"/>
  <path class="cls-1" d="M210.1,221.7s-4.2,6.5-12,6.5-10.3-5.3-10.3-5.3l1.5-3.8-14.3-6.3s-.3,21.3,23.6,21.3,23.6-26.8,23.6-26.8l-15,9.6,2.8,4.8Z"/>
  <path class="cls-1" d="M195.8,188.5s-1.3-4,2.2-4.2,2.3,5.2,2.3,5.2"/>
  <polyline class="cls-2" points="135.7 227.7 138.5 168.5 121.3 42.3 155.3 44 174.8 59.2 181.4 71.2 212.8 143.1 270.2 195.8 278.2 274.7"/>
  <polyline class="cls-2" points="181.4 71.2 166.5 76.5 155.3 44"/>
  <circle class="cls-3" cx="138.5" cy="168.5" r="2.3"/>
  <circle class="cls-3" cx="135.7" cy="227.7" r="2.3"/>
  <circle class="cls-3" cx="121.3" cy="42.3" r="2"/>
  <circle class="cls-3" cx="155.3" cy="44" r="1.5"/>
  <circle class="cls-3" cx="174.8" cy="59.2" r="1.5"/>
  <circle class="cls-3" cx="181.4" cy="71.2" r="1.5"/>
  <circle class="cls-3" cx="212.8" cy="143.1" r="2.2"/>
  <circle class="cls-3" cx="270.2" cy="195.8" r="1.7"/>
  <circle class="cls-3" cx="278.2" cy="274.7" r="4.7"/>
  <circle class="cls-3" cx="166.5" cy="76.5" r="1.5"/>
  <path class="cls-1" d="M241.7,300.2s-33.3-2.2-34.6,10.6,10.2,12,12.9,8,.4-8.4-4-8"/>
  <path class="cls-1" d="M216.2,268.3s-13.7-4.7-16,4,6,10.2,10.6,6-2-6.2-2-6.2"/>
</svg>