<?xml version="1.0" encoding="UTF-8"?>
<svg id="Layer_1" data-name="Layer 1" xmlns="http://www.w3.org/2000/svg" version="1.1" viewBox="0 0 360 360">
  <defs>
    <style>
      .cls-1 {
        stroke: #bfbfbf;
        stroke-linecap: round;
        stroke-width: 3px;
      }

      .cls-1, .cls-2 {
        fill: none;
        stroke-linejoin: round;
      }

      .cls-3 {
        fill: #fff;
        stroke-width: 0px;
      }

      .cls-2 {
        stroke: #fff;
        stroke-width: .8px;
      }
    </style>
  </defs>
  <path class="cls-1" d="M155,103.8s27.4-11.6,51.9-10.3,33.8,9,31.6,20.5-26.4,34.8-69.2,46.7c-42.7,12-73.3,15-77.6,0s5-36.6,63.3-56.9Z"/>
  <path class="cls-1" d="M166.3,99l-6-8.8s-15.8-5-21.3,9.1l2.8,8.8"/>
  <path class="cls-1" d="M227.9,129.6s37.7,12.1,44.4,50.2-23.9,80.8-61.9,90.5-79.8-9.1-97.8-43.1-2.3-56-2.3-56"/>
  <path class="cls-1" d="M139.1,99.3s-8-.7-6.5-9,9.1-11,9.1-11c0,0,14.1-5.7,18.6.5s0,10.3,0,10.3"/>
  <path class="cls-1" d="M164.2,94.9s8.2-6.5,3-18-27.9-5.3-27.9-5.3c0,0-20.5,6.7-15.1,23.6,0,0,4.5,11.5,16.5,9.6"/>
  <path class="cls-1" d="M218.2,138.9s27.1,11.5,35.1,37.1-9.5,65.3-38.1,77.1-72.5,3-90.8-32.6c0,0-12-27.3-4-49.5"/>
  <polygon class="cls-1" points="126.8 177.3 186.1 183.8 244.3 205.8 183.6 196.4 126.8 177.3"/>
  <ellipse class="cls-1" cx="158.5" cy="123.2" rx="50" ry="12.9" transform="translate(-32.1 60.2) rotate(-19.6)"/>
  <line class="cls-1" x1="174.7" y1="194" x2="123.8" y2="219.4"/>
  <line class="cls-1" x1="244.3" y1="159.2" x2="191" y2="185.8"/>
  <line class="cls-1" x1="179.6" y1="182" x2="169.3" y2="160.7"/>
  <line class="cls-1" x1="215.2" y1="253.1" x2="187.7" y2="197.7"/>
  <polyline class="cls-2" points="154.6 79.1 191 215.4 208.5 268.9"/>
  <circle class="cls-3" cx="154.6" cy="79.1" r="3.6"/>
  <circle class="cls-3" cx="191" cy="215.4" r="3.6"/>
  <circle class="cls-3" cx="208.5" cy="268.9" r="3.6"/>
</svg>