<?xml version="1.0" encoding="UTF-8"?>
<svg id="Layer_1" data-name="Layer 1" xmlns="http://www.w3.org/2000/svg" version="1.1" viewBox="0 0 360 360">
  <defs>
    <style>
      .cls-1 {
        stroke: #bfbfbf;
        stroke-linecap: round;
        stroke-width: 3px;
      }

      .cls-1, .cls-2 {
        fill: none;
        stroke-linejoin: round;
      }

      .cls-3 {
        fill: #fff;
        stroke-width: 0px;
      }

      .cls-2 {
        stroke: #fff;
        stroke-width: .8px;
      }
    </style>
  </defs>
  <path class="cls-1" d="M309.7,196.1s-6.2,3.6-8.2,5.8-5.1,0-10.8,4.1-15.3,1.3-22.4-.3-13.9,4.1-11.7-24.3"/>
  <path class="cls-1" d="M247.3,162.5s-8.4,14.3-10.8,25.6-26.3,18.2-41,4.4"/>
  <path class="cls-1" d="M258.1,204.1s-3.3,11.2-2,18.5.3,17.1-9.3,16.7-17.4-7-20.8-13.5-14-6.5-16.6-14.6-21.2,6.2-29.7-1c0,0-1.7,15.4-14.9,14.9s-13.6-19.3-13.6-19.3l-123.4,2.4c-3.5,0-6.4-2.7-6.5-6.2h0c0-3.5,2.6-6.3,6-6.5l18.9-1s-2.2-23.9,8.4-68.7l-16.7-4.8c-2-.6-3.1-2.6-2.7-4.6h0c.5-2,2.4-3.3,4.5-2.9l118.3,22.9s1.2-11.6,13.6-11.6,11.5,18.8,11.5,18.8c0,0,5.8-3,13.6-.8s10.5.7,13.5-3.7,10.6-21.4,22.4-18.3,28.9,23.6,22.6,38.9h3.3s3.5-5,8.3-8.1,6.3-10,10.3-12,7.8-1.3,10.1,1c0,0,5.5-5.5,18.8.8s18.8,10.3,17,19.3,1.7,9.3-.8,15.5-1.8,18.8-12.5,20c0,0,3.9-5,2.6-11.2s1.2-8.6-3.4-12.8-7-6.3-7-6.3c0,0-3.2-3.1-5.1-.7s-11,6-14.4-1.2c0,0,7.1-4.2,3.8-8.2s-17.5,3.2-12.1,9.5"/>
  <path class="cls-1" d="M63.3,127.4l90.1,22.2-2.4,15.3-91.4-6.2s2.3-20.1,3.8-31.3Z"/>
  <polygon class="cls-1" points="58.1 167.5 53.7 194.9 149.2 191.6 149.9 173.4 58.1 167.5"/>
  <path class="cls-1" d="M167.7,134.3s-6,6-7.3,33.9-1.8,45.1,4.8,47.1"/>
  <path class="cls-1" d="M255.9,192s-9.4,1.8-9.6-5-1.3-20.1-1.3-20.1"/>
  <polyline class="cls-2" points="58.3 133.4 149.4 126 230.1 120.6 296.9 178.3 255.7 232.6"/>
  <circle class="cls-3" cx="58.3" cy="133.4" r="1.4"/>
  <circle class="cls-3" cx="230.1" cy="120.6" r="1.4"/>
  <circle class="cls-3" cx="149.4" cy="126" r="1.4"/>
  <circle class="cls-3" cx="296.9" cy="178.3" r="1.4"/>
  <circle class="cls-3" cx="255.7" cy="232.6" r="1.4"/>
</svg>