<?xml version="1.0" encoding="UTF-8"?>
<svg id="Layer_1" data-name="Layer 1" xmlns="http://www.w3.org/2000/svg" version="1.1" viewBox="0 0 360 360">
  <defs>
    <style>
      .cls-1 {
        stroke: #bfbfbf;
        stroke-linecap: round;
        stroke-width: 3px;
      }

      .cls-1, .cls-2 {
        fill: none;
        stroke-linejoin: round;
      }

      .cls-3 {
        fill: #fff;
        stroke-width: 0px;
      }

      .cls-2 {
        stroke: #fff;
        stroke-width: .8px;
      }
    </style>
  </defs>
  <path class="cls-1" d="M245.3,158.4l-12.6-9s4.7-5.5,4.8-4.7,6.7,1.7,6.7,1.7c0,0,2,4.3,2,15.5s6.2,12.3,6.2,12.3c14.5,10.5,32.1-6.8,32.1-6.8,0,0,21.3,3.3,20.1-29.9s-10.3-40.4-10.3-40.4c4.4,8.7,2.5,30.8,2.5,30.8-.5-10-7-23.4-7-23.4,1.5,8.6-1.2,28.3-11.6,37.7s-5.5,20.1-5.5,20.1c-4.7-2.2-12.5.2-12.5.2,1.3-7.8-7.5-20.8-7.5-20.8-3-6.5-6.3-6.7-6.3-6.7,4-6.5,2.3-13.1,2.3-13.1,8.8-2.7,6.8-11,6.8-11-.5,4-8.6,6.5-9.5,1.7s6.7-7,6.7-7c-5.3-1.3-10.1,2.1-10.1,2.1-7.1-6-14.9-6.2-14.9-6.2,6.7-8.4-5.1-15.1-5.1-15.1.2-13.3-10.2-22.6-10.2-22.6,3.1-.9,9.3-5.3,9.3-5.3,4.7,15.1,21.5,5.1,32.8,7.1s28.4,18.2,28.4,18.2c0,0-16.5-23-20.5-26,0,0,14.3,7.6,27.3,23.8,0,0-10.6-22.4-25.9-33.1s-31.6-10.8-38.6-4.7c0,0-19.5,1.2-23.6,9.8s-3.2,13.5-.3,18.1,8,15.1,13.5,20.1c0,0-3.7,2.8.2,11.5,0,0-9,2-13.1,5.8,0,0-11-9-12-10.1s-.5-6.2-1.3-9.5c0,0,2.2-10.8.7-15,0,0-8.5-8.1-12.6-7.6s-2.5,4.2.2,6,5.5,4,5.5,4l.5,13.1s-2.2,7.1,3.8,12.8c0,0-1.8,9.5,10,13.6l-10.1,15s-3.2-4.2-6.7-6c0,0-.5-9.3-1.5-12,0,0,2.5-13.3,1.8-17s-1-13-7.6-15.5-4.3,2-2,5.2,4.7,7.1,4.7,7.1c0,0-4.2,10.6-2.2,18.1,0,0-7,6.2-.7,15.3,0,0-2.7,10.5,7.1,17l-3.3,5.7s-5.7-5-9.1-5.3c0,0-2-9.3-3.2-11.1,0,0,2.2-19.5-1.2-20.6,0,0-11.3-10-14.8-8s6.8,9.8,6.8,9.8c0,0-.7,12.8,3.5,18.8,0,0-4.2,5.7,2.7,14.1,0,0,0,8.3,7.3,11.8l-6.2,14.3s-9.5-3.2-14.6-3.8c0,0-2.7-8.3-5-9.1,0,0-1.7-13.3-6.2-16.3,0,0-12.5-5.3-13.1-3.8s5.5,5.5,6.8,6.2,3.3,10.5,6.7,15.3c0,0-.3,8.6,7.8,12,0,0,.5,9,13.5,11.6,0,0-14.3,28.1-4.7,40.4,0,0-2,7.5-.7,17.3,0,0-3.5,7-3.7,12.3,0,0-11.1,7.6-11.3,14.1,0,0-9.5,4.7-11.1,8.8,0,0-12.3-.7-14.1,2.5s-15.8-.8-17.8-.7-7.3-7.8-7.6-8.6,10.8-17.8,2.8-27.3c0,0,6.2-18-8.8-25.6,0,0,8.8,15,2,23.6,0,0-15.6,6.7-17.3,18s3.3,16.1,3.3,16.1c0,0,1.3,11.5,12.6,13.8,0,0,9.5,13.1,22.1,8.1,0,0,7.5,2,12.5-1.5,0,0,16.6,3.2,21.4-7.6,0,0,14.8-4.7,19-11.8,0,0,12-9.6,11.5-16.6,0,0,7.3-10,7.5-19.6s4.5-17.6,7-22.8,4.5-9.3,4.5-9.3l3.2-2.3s.8,6.3,5.7,10.5c0,0,5.8,10.8,11.8,12.1s13,5.5,13,5.5c0,0-.5,9.1,2.2,11.5s5.2,2,4.8-3.7,1.7-9.3-2.8-11.6-12.5-7.5-13.5-8-3.7-7.1-7.5-9c0,0-2.5-17.8-3.3-19s8-12.3,8-12.3c0,0,5.7,18,15.8,22.9,0,0,6.3,8.6,15.6,8.5l15.6,5.2s2,11.5,6,11.6,1-11.1-.3-14.8-19.8-7-19.8-7c0,0-4.2-4.7-10.5-5.8,0,0-3.5-17.5-17.8-28.6l4.3-5.2s9.1,18.8,21.9,21.8c0,0,9.6,7.6,17.3,5.7l17.8.7s5.7,9.6,9.6,10.5,1.5-5-.5-9.1-6.7-7.8-6.7-7.8c0,0-11.3-2.8-18.6-.3,0,0-7.3-4-13.3-4.2,0,0-6-15.5-22.3-25.9l4.8-5.5s11.5,20.1,20.6,22.4c0,0,11.1,7.6,17.5,5.7s19.1,1,19.1,1c0,0,5.5,5.2,6.5,8s7.6,3.2,5.7-3.2-9.8-11.3-9.8-11.3l-14-2"/>
  <polyline class="cls-2" points="54.5 235.6 87.2 233 93.1 234.3 71.7 253.6 63.1 265.6 85.9 292 133.3 291 166 281.4 171.2 238.2 174.8 201 206.4 140.7 221.3 123.5 240 116 289.8 90.6"/>
  <polyline class="cls-2" points="265.8 56.7 280.4 61.4 289.8 90.6 289.6 125.8 290.5 157.1"/>
  <circle class="cls-3" cx="54.5" cy="235.6" r=".9"/>
  <circle class="cls-3" cx="87.2" cy="233" r="1.2"/>
  <circle class="cls-3" cx="93.1" cy="234.3" r="1.2"/>
  <circle class="cls-3" cx="71.7" cy="253.6" r="1.2"/>
  <circle class="cls-3" cx="63.1" cy="265.6" r="1.2"/>
  <circle class="cls-3" cx="85.9" cy="292" r="2.3"/>
  <circle class="cls-3" cx="133.3" cy="291" r="1.6"/>
  <circle class="cls-3" cx="166" cy="281.4" r="1"/>
  <circle class="cls-3" cx="171.2" cy="238.2" r="1"/>
  <circle class="cls-3" cx="174.8" cy="201" r="1.6"/>
  <circle class="cls-3" cx="206.4" cy="140.7" r="1.6"/>
  <circle class="cls-3" cx="240" cy="116" r="1.9"/>
  <circle class="cls-3" cx="289.8" cy="90.6" r="2.3"/>
  <circle class="cls-3" cx="280.4" cy="61.4" r="1.8"/>
  <circle class="cls-3" cx="265.8" cy="56.7" r="1.2"/>
  <circle class="cls-3" cx="289.6" cy="125.8" r="1.7"/>
  <circle class="cls-3" cx="290.5" cy="156.8" r="1.3"/>
  <circle class="cls-3" cx="221.3" cy="123.5" r="3"/>
</svg>