<?xml version="1.0" encoding="UTF-8"?>
<svg id="Layer_1" data-name="Layer 1" xmlns="http://www.w3.org/2000/svg" version="1.1" viewBox="0 0 360 360">
  <defs>
    <style>
      .cls-1 {
        stroke: #bfbfbf;
        stroke-linecap: round;
        stroke-width: 3px;
      }

      .cls-1, .cls-2 {
        fill: none;
        stroke-linejoin: round;
      }

      .cls-3 {
        fill: #fff;
        stroke-width: 0px;
      }

      .cls-2 {
        stroke: #fff;
        stroke-width: .8px;
      }
    </style>
  </defs>
  <path class="cls-1" d="M102.6,147.2s14-76.6,61.4-78.2,77.2,81.6,82,97.9c7.5,25.3,19,122-49,138.2-67,16-108-98.9-94.4-157.9Z"/>
  <path class="cls-1" d="M135.4,96.8s-41,67.6,0,151.9,93.6,25.7,93.6,25.7"/>
  <ellipse class="cls-1" cx="200.2" cy="184.9" rx="19.1" ry="29.8" transform="translate(-48.9 74.4) rotate(-18.8)"/>
  <path class="cls-1" d="M185.7,91.9s-8.6,9.8,5.1,26.2,2.7,23.9,2.7,23.9"/>
  <path class="cls-1" d="M160.4,101.7s-.4,18.4,10.6,21.3,10.4,26.4,10.4,26.4"/>
  <path class="cls-1" d="M146.9,132.5s3.5,16.2,12.4,13.1,13.3,3.8,14.2,12.2"/>
  <path class="cls-1" d="M142,163.5s1.8,11.1,10.6,7.1,13.3-4.4,17.1,2"/>
  <path class="cls-1" d="M169.5,194.8s-3.3-12.9-14-4.4-17.5.4-17.5.4"/>
  <path class="cls-1" d="M144.5,220.1s12.2,3.3,15.3-5.5,10.9-10.2,16.2-8"/>
  <path class="cls-1" d="M183.7,214.3s-13.7-1.3-13.3,12.6.7,22.2-10,24.6"/>
  <path class="cls-1" d="M192.6,220.7s-13.5,5.1-8.2,18.2,10.6,25.3-2.2,35"/>
  <path class="cls-1" d="M203.7,228.3s-10.4,10.9-1.3,21.9,15.3,17.5,8.4,29"/>
  <path class="cls-1" d="M213.2,224.5s-3.5,14.2,6.7,19.3,8.6,17.3,8.6,17.3"/>
  <path class="cls-1" d="M218.3,217.6s.9,9.5,10,11.3,8.9,2.4,9.8,9.8"/>
  <path class="cls-1" d="M223.2,208.7s4.7,9.8,10.2,7.3,9.3.2,10,4.9"/>
  <path class="cls-1" d="M226.5,198.6s2.9,6,9.1,2.9,8.6-.9,10.4,3.8"/>
  <path class="cls-1" d="M226.9,185s1.6,4,7.1,2,6.4-4.9,9.8-.4"/>
  <path class="cls-1" d="M222.5,176.2s9.3,3.8,10.4-.2,5.3-5.1,9.1-2.9"/>
  <path class="cls-1" d="M218.3,164.9s9.1,4,10.2-2.4,3.5-6.4,7.8-5.8"/>
  <path class="cls-1" d="M210.3,156.2s10.4,2,10.9-6.4,4-9.5,8.9-8.6"/>
  <path class="cls-1" d="M201.4,148s11.3.4,10.6-13.3-5.3-16.2,2.9-22.8"/>
  <polygon class="cls-2" points="174.2 81.1 192.9 145.8 240.6 229.3 219.4 133.6 174.2 81.1"/>
  <circle class="cls-3" cx="174.2" cy="81.1" r="1.5"/>
  <circle class="cls-3" cx="219.4" cy="133.6" r="1.5"/>
  <circle class="cls-3" cx="240.6" cy="229.3" r="1.5"/>
  <circle class="cls-3" cx="192.9" cy="145.8" r="1.5"/>
</svg>