<?xml version="1.0" encoding="UTF-8"?>
<svg id="Layer_1" data-name="Layer 1" xmlns="http://www.w3.org/2000/svg" version="1.1" viewBox="0 0 360 360">
  <defs>
    <style>
      .cls-1 {
        stroke: #bfbfbf;
        stroke-linecap: round;
        stroke-width: 3px;
      }

      .cls-1, .cls-2 {
        fill: none;
        stroke-linejoin: round;
      }

      .cls-3 {
        fill: #fff;
        stroke-width: 0px;
      }

      .cls-2 {
        stroke: #fff;
        stroke-width: .8px;
      }
    </style>
  </defs>
  <path class="cls-1" d="M228.7,152.9l14.9,43.2s2,1.8,9.8.7l17.7,40.3s-4,5.1.4,8.4c4.4,3.3,25.5-8.4,29-10.4,3.5-2,5.3-7.1-2.7-9.3l-15.1-36.4s2.7-3.1,4.4-7.5l-18.8-47s-30.2,2-39.7,18Z"/>
  <path class="cls-1" d="M238.5,183.5l-94.7,81.4s10,11.3,4,18.6c-6,7.3-20.4,18.8-20.4,18.8,0,0-37.7-18-43-62.7l-8.9,3.5s-14.2-41-13.5-65.4l12.4-4.7s4.4-78.9,63.2-112.4l18.2,6s-47.9,25.9-55.9,96l10.6-3.1s8,15.5,27.9,10.4,119.5-48.8,119.5-48.8"/>
  <path class="cls-1" d="M229.4,157.3l-84.2,30.6s-23.7,5.3-25.3,30.4l-9.5,6.7s5.3,20.6,16.8,31.7l106.4-87.6"/>
  <path class="cls-1" d="M151.6,69.7s23.3,6.9,32.8,4.7,15.7-4,24.8-2,8.9,10.9,14,14.6c5.1,3.8,18.6,1.1,27.9-7.1l18.2,6.4-11.5,17.5,5.5,2.9"/>
  <line class="cls-1" x1="140.9" y1="77.9" x2="258.9" y2="114.8"/>
  <path class="cls-1" d="M261.3,135.1c-2.4-2.4-2.9-11.3-2.9-11.3,0,0-2.2-21.7,19.1-23.1s25.5,12.4,25.5,12.4l10.2-1.1,2.9,12.4-8.4.7s0,19.7-12.2,23.5c-12.2,3.8-22.4-1.1-22.4-1.1"/>
  <path class="cls-1" d="M248,124.7l-89.8,1.1s-9.1-6.7-27.7-4.9-18,24.5-10,29.3,27.3-.9,37.5-11.3l65.2-2.7"/>
  <polyline class="cls-2" points="130.7 155 126.6 121.1 216.8 117.2 279.4 241.9"/>
  <circle class="cls-3" cx="126.6" cy="121.1" r="2.2"/>
  <circle class="cls-3" cx="130.7" cy="155" r="2.2"/>
  <circle class="cls-3" cx="216.8" cy="117.2" r="2.2"/>
  <circle class="cls-3" cx="279.4" cy="241.9" r="2.2"/>
</svg>