<?xml version="1.0" encoding="UTF-8"?>
<svg id="Layer_1" data-name="Layer 1" xmlns="http://www.w3.org/2000/svg" version="1.1" viewBox="0 0 360 360">
  <defs>
    <style>
      .cls-1 {
        stroke: #bfbfbf;
        stroke-linecap: round;
        stroke-width: 3px;
      }

      .cls-1, .cls-2 {
        fill: none;
        stroke-linejoin: round;
      }

      .cls-3 {
        fill: #fff;
        stroke-width: 0px;
      }

      .cls-2 {
        stroke: #fff;
        stroke-width: .8px;
      }
    </style>
  </defs>
  <path class="cls-1" d="M175.8,168.9c-16.8-4.5-27.3-61.2-62.9-58.2s-39.4,30.8-39.4,30.8c-52,1.8-50.7,40.2-50.7,40.2,0,0,6.7-6.1,15.6-5.3s32.8-24.9,32.8-24.9c0,0,3,10.6-5.7,17.6s-14.5,3.8-14.3,13.1,7.5,7,7.1,20.5-1.2,17.3,3,20.8-.2,9.8-.2,9.8c0,0-.5,9.8,12.8,10,0,0,10.3-8.8.5-22.1,0,0-8.5-23.8-8.6-27.4s-.8-4.2,4.5-3.7,20.6,2.7,27.8-6.8,12.5-10.6,12.5-10.6"/>
  <path class="cls-1" d="M171.1,174.9s19.3-20.5,17-37.6"/>
  <path class="cls-1" d="M133.1,206.9s-7,8.6-5.2,23.1,2.5,28.9-4.3,37.6-21.3,14.3-21.3,14.3c0,0-4-5.7-7.1,1l-9.3,1.3s-6,4.8.5,16.3c0,0,11.5.5,15.5-7.6,0,0,6.3-5.8,11.8-7.5s18-6.3,19.1-14.1,12.6-29.8,12.6-29.8c0,0,20.3-.5,25.1-11.6"/>
  <path class="cls-1" d="M111.1,202.5s-8.5,3.8-15.8,3.7-12.6,3.8-12.6,3.8l-5.7,15"/>
  <path class="cls-1" d="M70.2,208.3s1.2-7.5,6.2-8.1,11.8-1.3,15.8-7.3,7.1-10.3,7.1-10.3c0,0,9.1,8.5,13,20.5s8.1,18.8,15.1,23.6"/>
  <path class="cls-1" d="M65.6,241.4s3.8,14.3-4.3,16.6c0,0-11.6-5.5-5.8-14.5,0,0-2.8-8.1,5.8-11.6"/>
  <path class="cls-1" d="M151.2,241s-.8,9.8.8,14.8-3,15.6-2.7,24.1-2.2,24.8-4.5,29.3-7.6,5.8-2.3,9.6c0,0,1.2,1.7-.3,6.3s1.7,10.3,11,8.6c0,0,7-6.5,3.8-17.8,0,0-.8-10.6.8-18.5s5.2-17.1,4.8-23.6,5.3-20,9-25.9,4-10.8,9.8-14.1,20.6-12.1,22.8-26.9c0,0,3.3-6.3,10.5-9.8s14.3-21.9,14.3-21.9c0,0,15.6-11,15.3-20.3"/>
  <path class="cls-1" d="M249.3,139.4s-17.8-2.3-27.4-6-10.6-12-23.3-13.6-21.9,0-21.9,3.5,6.2,5.7,7.8,8.1,4.5,9.6,17.5,12.6,15.5.7,27.4,4,15.8,8.1,20.1,7,2.7-4,2.2-5.3,3.2-2,2.3-3.7,2.8-3,1-4.3,1.7-5.5-5.7-2.3Z"/>
  <path class="cls-1" d="M254.9,141.8s13.5,5.2,14.3,7.1,17,4.8,21.1,11.5,16.5,8.1,16.5,8.1c0,0,14-14.5,5.5-37.7s-14-38.4-11.1-49.4,8.1-7.5,10.6-5.5,1.2,8.6-4.2,8c0,0-2.8,3.8,2.5,20.3s22.4,39.9,7.6,67l-1.5,3,11.3,7.1,2-4,11.1,13-16.1-2,.7-3.8-11.3-6.2s-5.5,21.6-27.4,32.4-30.3,37.9-30.3,37.9c0,0,5.7.7,3.8,5.3s-13.1,4.7-12.8-5,12-30.3,27.8-38.7,22.1-22.6,25.3-29.6c0,0-9.3-9.6-15.6-10.6s-15.6-4.7-20.8-8.5-11.8-8.1-11.8-8.1"/>
  <path class="cls-1" d="M212.2,126.3s-5-12.8,5.2-21.1,18-16,27.9-11.8,22.9,16.6,13.8,24.9c0,0-2.8,7.6-5.3,11s-9,9.5-9,9.5"/>
  <path class="cls-1" d="M187.3,135.6s-15.8,5.8-23.3-.2-9.1-13.1-12.6-25.3-9.6-17.6-9.6-17.6c0,0-7.5-7-11-14.5"/>
  <path class="cls-1" d="M214.2,108.2s-9.5-7.6-10.3-16-4.5-23.3-11.3-26.1,6.3,14.8-7.8,15.1-17.6-21.8-29.1-31.9-40.2-3.2-51-4-19.5-6.2-15,1.7,20.8,22.6,36.2,28.6,27.4,18.1,31.4,27.4,16.3,15.8,32.3,10.6,21.9-.2,21.9-.2"/>
  <polygon class="cls-2" points="204.7 127.7 177.5 141.7 186.9 164.6 269.8 214.8 317.1 168.9 280.9 168 268.2 121.1 226.6 135.4 204.7 127.7"/>
  <line class="cls-2" x1="306" y1="79.2" x2="268.2" y2="121.1"/>
  <polyline class="cls-2" points="186.9 164.6 226.6 135.4 280.9 168 269.8 214.8 281.2 240.5"/>
  <polyline class="cls-2" points="139.2 40.9 149.7 51.8 170 72.6 182.2 80.2 198.8 73.6 170 72.6"/>
  <circle class="cls-3" cx="177.5" cy="141.7" r="1.7"/>
  <circle class="cls-3" cx="226.6" cy="135.4" r="1.7"/>
  <circle class="cls-3" cx="280.9" cy="168" r="1.4"/>
  <circle class="cls-3" cx="269.8" cy="214.8" r="1.6"/>
  <circle class="cls-3" cx="317.1" cy="168.9" r="1.1"/>
  <circle class="cls-3" cx="268.2" cy="121.1" r="1.1"/>
  <circle class="cls-3" cx="306" cy="79.2" r="1.1"/>
  <circle class="cls-3" cx="198.8" cy="73.6" r="1.1"/>
  <circle class="cls-3" cx="182.2" cy="80.2" r="1.1"/>
  <circle class="cls-3" cx="149.7" cy="51.8" r="1.1"/>
  <circle class="cls-3" cx="170" cy="72.6" r="1.5"/>
  <circle class="cls-3" cx="139.2" cy="40.9" r="1.5"/>
  <circle class="cls-3" cx="281.2" cy="240.5" r="1.1"/>
  <circle class="cls-3" cx="187" cy="164.6" r="2.4"/>
  <circle class="cls-3" cx="204.7" cy="127.7" r="3.3"/>
</svg>