<?xml version="1.0" encoding="UTF-8"?>
<svg id="Layer_1" data-name="Layer 1" xmlns="http://www.w3.org/2000/svg" version="1.1" viewBox="0 0 360 360">
  <defs>
    <style>
      .cls-1 {
        stroke: #bfbfbf;
        stroke-linecap: round;
        stroke-width: 3px;
      }

      .cls-1, .cls-2 {
        fill: none;
        stroke-linejoin: round;
      }

      .cls-3 {
        fill: #fff;
        stroke-width: 0px;
      }

      .cls-2 {
        stroke: #fff;
        stroke-width: .8px;
      }
    </style>
  </defs>
  <path class="cls-1" d="M22.2,149.4s12.1-19,27.1-14.1,7.6,12.1,19.1,20.1,25.8-1.8,27.9-8.6l3.5,3.5s-2.2,6.5-8.1,11.6-4,17.6-8.5,21.3c0,0,28.8-8,29.4-21,0,0,11.6,11.5,20.1,12.6,0,0,6.2,7,13.1,1,0,0,22.4,0,25.8,2.7s5.3,9.1,12,8.8,13.8,3.8,17.8-6c0,0,7.5,5.3,11-7.1s9.5-21.9-6.5-28.3-7.8-6.8-8-15.1-3-16-11.3-25.4"/>
  <path class="cls-1" d="M183.6,187.3s-14.4.4-22.8,5-15.3.9-21.1,2-6.9,2.7-8,6.4-7.1,10.9.4,18,9.5,19.1,15.5,30.4,11.1,17.7,16.6,21.5,5.3,10.6,15.5,11.7,13.1,3.8,13.7-.7c0,0,10.2-1.3,4.7-11.7s-7.3-16.6-20.2-12.6c0,0-5.1-11.1-12.2-16.4s-14.4-17.3-9.8-25.5c0,0,9.5-1.1,16.6,5.8s21.5,4,21.5,4"/>
  <path class="cls-1" d="M263.1,193.2s-16.4-4.9-41.9,16.2c0,0-30.6,7.3-27.3,20.8s6,14.4,12.6,14.4,16.2,2.4,24.2-2.2,28.4,3.3,33.7-.4,22.4-2.7,26.8-4.7,4.9-3.8,4.9-3.8c0,0,6.7-10.2-7.3-12.6,0,0-51,12.6-74.9,11.7"/>
  <path class="cls-1" d="M288.8,220.9s9.8-2,9.5-15.1,8-20.2,15.7-26.8,10.6-12.4,10.6-12.4"/>
  <path class="cls-1" d="M22.3,150.9s-.7-27.7,27.5-26.4c0,0,13.1-1.1,18.2,9.8s11.7,3.3,13.3-3.5,5.5-4.2,5.5-4.2c0,0-3.3-10,3.3-18.2s7.3-18.2,15.7-17.5l4.9-15.5s1.8-9.1-5.8-9.5-3.3,6.7-22.8,15.5-36.6-2.2-36.6-2.2c0,0,26.6,5.8,31.7-7.3s16.2-22.4,33.3-19.7,18.6,23.1,18.6,23.1l15.5-6.4"/>
  <path class="cls-1" d="M134.7,102.6s7.1-4.4,3.1-11.3,10.2-23.7,10.6-29.7,2.4-10,5.3-.9,7.1,19.1,6.7,25.9"/>
  <path class="cls-1" d="M231.6,55.1s-5.5,10.2-29.9,7.5-39.7-2.9-46.6,1.6"/>
  <polyline class="cls-2" points="35.8 131.8 153.1 173.9 167.7 178.2 185.2 180.3 178.7 165.2 167.2 151.9 61.1 72.3"/>
  <polyline class="cls-2" points="220 258.1 291.2 223.1 223.2 204.2 185.2 180.3"/>
  <circle class="cls-3" cx="167.2" cy="151.9" r="1.2"/>
  <circle class="cls-3" cx="185.2" cy="180.3" r="1.2"/>
  <circle class="cls-3" cx="291.2" cy="223.1" r="1.2"/>
  <circle class="cls-3" cx="178.7" cy="165.2" r="1.2"/>
  <circle class="cls-3" cx="153.1" cy="173.9" r="3.2"/>
  <circle class="cls-3" cx="167.7" cy="178.2" r="1.2"/>
  <circle class="cls-3" cx="223.2" cy="204.2" r="1.2"/>
  <circle class="cls-3" cx="220" cy="258.1" r="1.2"/>
  <circle class="cls-3" cx="35.8" cy="131.8" r="1.2"/>
  <circle class="cls-3" cx="61.1" cy="72.3" r="2.6"/>
</svg>