<?xml version="1.0" encoding="UTF-8"?>
<svg id="Layer_1" data-name="Layer 1" xmlns="http://www.w3.org/2000/svg" version="1.1" viewBox="0 0 360 360">
  <defs>
    <style>
      .cls-1 {
        stroke: #bfbfbf;
        stroke-linecap: round;
        stroke-width: 3px;
      }

      .cls-1, .cls-2 {
        fill: none;
        stroke-linejoin: round;
      }

      .cls-3 {
        fill: #fff;
        stroke-width: 0px;
      }

      .cls-2 {
        stroke: #fff;
        stroke-width: .8px;
      }
    </style>
  </defs>
  <path class="cls-1" d="M24.7,179s26.8-12.9,43.9-16.6,36.4-8.6,47.9-16.4,35.2-18,45.2-24.2,16.8-12.4,30.7-23.1,21.9-16.8,38.9-15.1c0,0,65.8-13.7,104.4,19.7,0,0-65.2,6.2-103.1,22.8,0,0-14.1,4.7-19.1,21.9s-23.6,62.6-76.4,79.5c0,0-4.4,1.4-3.6,6.3s5,8,11.6,8.2,21.2.7,24.5,4l3.3,3.3-7.4-.7,5.5,5s-8.3-2-19.5-1.9-13.9-1.7-17.7-1-3.9-.3-2.7-3-.2-3.4-3-5.1c-2.8-1.7-9.5-5.8-6.3-14.7,0,0-4.4-2-9.8-.7-5.3,1.3-11.3,8.4-7.5,13.7,3.8,5.3,3.1,8.9,14.5,10.2s14.6,5,14.9,7.9-7.4-3.5-15-3c0,0,10.9,7.4,5.5,12.9s.4-4.9-8.4-9.2-14.3-5.3-16.5-2.5-5.3.8-3.1-2.3,5.3-4.5,5.3-4.5c0,0-6.2-6.8-9.4-9s-9.1-7-1.9-12.6c7.2-5.7,5.5-12,5.5-12,0,0-8-10.5-16.6-13-8.6-2.4-14.7-2.3-31.6-9.2-16.8-6.9-25.6-10.8-23.2-15.6Z"/>
  <polygon class="cls-2" points="79.9 169.1 103.2 194.2 135.5 202.6 280.9 213.4 318.4 151.8 215.6 95.8 79.9 169.1"/>
  <circle class="cls-3" cx="318.4" cy="151.8" r="3.7"/>
  <circle class="cls-3" cx="215.6" cy="95.8" r="2"/>
  <circle class="cls-3" cx="280.9" cy="213.4" r="2"/>
  <circle class="cls-3" cx="79.9" cy="169.1" r="2"/>
  <circle class="cls-3" cx="103.2" cy="194.2" r="1.7"/>
  <circle class="cls-3" cx="135.5" cy="202.6" r="1.7"/>
</svg>