<?xml version="1.0" encoding="UTF-8"?>
<svg id="Layer_1" data-name="Layer 1" xmlns="http://www.w3.org/2000/svg" version="1.1" viewBox="0 0 360 360">
  <defs>
    <style>
      .cls-1 {
        stroke: #bfbfbf;
        stroke-linecap: round;
        stroke-width: 3px;
      }

      .cls-1, .cls-2 {
        fill: none;
        stroke-linejoin: round;
      }

      .cls-3 {
        fill: #fff;
        stroke-width: 0px;
      }

      .cls-2 {
        stroke: #fff;
        stroke-width: .8px;
      }
    </style>
  </defs>
  <path class="cls-1" d="M221.6,74.2c-6.8,2.3-18.6,12.5-29.4,21s-17.5,16.1-25.4,18.6-22.1,7.8-32.9,15.6-16.8,9.5-16.8,9.5l-32.2-6.5c-8.9-1.8-18.1-.9-26.5,2.6l-26.3,11c-4.2,1.7-5.9,6.8-3.6,10.7h0c1.9,3.4,6.2,4.8,9.7,3.1l15.7-7.3c7.7-3.6,16.3-4.9,24.7-3.8l27.6,3.5s4.2.3,2.3,4-7.9,14.2,2.9,39.9,22.9,39,28,47.8,8.5,16,12.3,20.8,3.2,7,6.1,7,4.1-.2,8.8-.7,6.9-1,8.6-2.2,15.7-7.1,11.4-11.5-16.7-3.8-16.7-3.8c0,0-5-13.6-3.7-23.1s12.5-31,1.3-47.8"/>
  <path class="cls-1" d="M227.3,79.2s-8-7.6-6.4-13.4,5.1-1.7,8.6-1.3,7.9,3.4,8.6,5.9"/>
  <path class="cls-1" d="M208.3,162c11.2,9.9,25.5,15.2,30.3,16s16.8,2.5,23.5,1.2,12.9-2.4,24.1-2.5,9.6-3.3,16.2-2.9,15.1-1.6,17.3-4.4,6.7-6.8,9.2-9.4c0,0,6.1-5.5-2.8-11.6s-4.1-1.6-8.5.6-7.8,5.1-9,5-9-1.7-20.1-2.9-20.7-8.1-25.2-12.9-6.7-12.6-5.5-16.8,1.9-11.6,1.9-11.6c4.4,0,11-3,14.1-5.5s10.4-7,15.7-9.3,5.3-4.8,6.4-9.4-3-5.7-3-5.7l-13.6-5.7s-4.5-10.6-6.4-11.5-8.8-4.8-18.6-5.2-20.3,8.2-20.3,8.2"/>
  <path class="cls-1" d="M171.6,211.5s9.2-8.4,18.6-10.1,42.6-18.8,46.8-23.4"/>
  <path class="cls-1" d="M167.7,224.6s3.7,6.9,6.5,9.5,9.4,2.2,19.6,2.9,14.3-.1,17.3,1.1,10.1,2,14.6-2.2,11-13.1,9.9-16.5-6.7-4-11.1-.2-9,2.9-11.1,1.9-13.3-4-20.3-20.2"/>
  <path class="cls-1" d="M251.1,57.2s-.1-7.5,3.1-8.2,4.9,2.8,5.7,3.7,3.1,2.9,3,5.8"/>
  <path class="cls-1" d="M258.1,120.3s9,1.7,12.5,1.8,20.5,1.9,23.3,8.1,6.3,14.9-.3,21"/>
  <line class="cls-1" x1="276" y1="147.1" x2="283.3" y2="144.2"/>
  <path class="cls-1" d="M280.1,138.1s6.8,5.3,5.8,12.2"/>
  <polyline class="cls-2" points="38.6 164.6 72.3 144.7 97.8 147.5 130.2 148.6 145.4 170.6 149.7 206.3 178.8 293.3 179.6 302.9"/>
  <polyline class="cls-2" points="243.7 226.9 240.1 236.3 186.5 225.8 149.7 206.3"/>
  <polyline class="cls-2" points="145.4 170.6 189 155.7 240.9 128.8 290.3 93.8 245.5 102 185.2 124.2 130.2 148.6"/>
  <polyline class="cls-2" points="308.4 170.6 306.6 176.7 270.5 164.6 240.9 128.8"/>
  <line class="cls-2" x1="185.2" y1="124.2" x2="189" y2="155.7"/>
  <circle class="cls-3" cx="38.6" cy="164.6" r="1.9"/>
  <circle class="cls-3" cx="72.3" cy="144.7" r="1.9"/>
  <circle class="cls-3" cx="97.8" cy="147.3" r="1.9"/>
  <circle class="cls-3" cx="145.4" cy="170.6" r="1.7"/>
  <circle class="cls-3" cx="185.2" cy="124.2" r="1.7"/>
  <circle class="cls-3" cx="189" cy="155.7" r="1.4"/>
  <circle class="cls-3" cx="130.2" cy="148.6" r="1.1"/>
  <circle class="cls-3" cx="149.7" cy="206.3" r="1.1"/>
  <circle class="cls-3" cx="240.1" cy="236.3" r="1.1"/>
  <circle class="cls-3" cx="186.5" cy="225.7" r="1.1"/>
  <circle class="cls-3" cx="179.6" cy="302.9" r="1.1"/>
  <circle class="cls-3" cx="178.8" cy="293.3" r="1.1"/>
  <circle class="cls-3" cx="243.7" cy="226.9" r="1.1"/>
  <circle class="cls-3" cx="245.5" cy="102" r="1.1"/>
  <circle class="cls-3" cx="290.3" cy="93.8" r="1.1"/>
  <circle class="cls-3" cx="240.9" cy="128.8" r="1.1"/>
  <circle class="cls-3" cx="306.6" cy="176.7" r="1.1"/>
  <circle class="cls-3" cx="270.5" cy="164.6" r="1.1"/>
  <circle class="cls-3" cx="308.4" cy="170.3" r="1.1"/>
</svg>