<?xml version="1.0" encoding="UTF-8"?>
<svg id="Layer_1" data-name="Layer 1" xmlns="http://www.w3.org/2000/svg" version="1.1" viewBox="0 0 360 360">
  <defs>
    <style>
      .cls-1 {
        stroke: #bfbfbf;
        stroke-linecap: round;
        stroke-width: 3px;
      }

      .cls-1, .cls-2 {
        fill: none;
        stroke-linejoin: round;
      }

      .cls-3 {
        fill: #fff;
        stroke-width: 0px;
      }

      .cls-2 {
        stroke: #fff;
        stroke-width: .8px;
      }
    </style>
  </defs>
  <path class="cls-1" d="M172.4,149.3s-6.9,0-15.5.4-39,8-44.1,7.1-14.6,4-14.6,4c0,0-7.8,7.5-9.1,17.3s7.5,12,10.6,11.1,5.8-10.6,5.8-10.6c0,0,10-3.8,15.1-2.9s17.5,3.8,21.3,4.4,6,2.2,6.8,6c2.8,13.3,7.4,25.3,10.1,32.6s13.7,17.7,16.4,24.2,7.5,11.5,11.3,14.9,6,11.1,7.1,14.2,8.6,6.2,14.9,6.9,7.3-4.4,7.3-4.4l2.7-17.5c11.5-6.9,8.4-17.5,8.2-21.9s-1.6-7.3.4-10,2.7-6,.2-8.6-5.5-.9-7.8.4-6.9-3.8-6.9-3.8c2.2-2.2,5.8-8.2,8.4-20.6s-2.2-1.8,10-27.3-3.1-64.5-9.3-72.3-13.1-12.9-18.4-12.4-5.1,5.8-5.1,5.8c0,0-22.2,0-33.7,4.7s-28.6,3.1-39.5,8.2-16,5.8-19.3,8.9-3.8,10-3.8,14.6,2.2,11.7,6.7,8.9,9.1-8.4,15.1-9.1,16.2,3.5,22.4,6.9,21.1,11.7,38.4,4.9"/>
  <path class="cls-1" d="M150.9,132.3s-1.6,13.3-2,18.8"/>
  <path class="cls-1" d="M150.2,195.9s-20,.7-26.8,3.3-14,5.1-14.2,6.2-.4,8.2-6.4,9.5-9.1-3.3-9.1-7.1,1.8-9.1,2-12,3.5-6,8.6-7.5,25.7-10.6,25.7-10.6"/>
  <polyline class="cls-2" points="205.7 105 190.1 132.6 179.7 168.3 190.1 206.9 214.4 237 197 255.4 171.4 218.9 190.1 206.9"/>
  <circle class="cls-3" cx="190.1" cy="132.6" r=".9"/>
  <circle class="cls-3" cx="190.1" cy="206.9" r=".9"/>
  <circle class="cls-3" cx="214.4" cy="237" r="2.1"/>
  <circle class="cls-3" cx="171.4" cy="218.9" r=".9"/>
  <circle class="cls-3" cx="197" cy="255.4" r="1.6"/>
  <circle class="cls-3" cx="179.7" cy="168.3" r=".9"/>
  <circle class="cls-3" cx="205.7" cy="105" r="2.3"/>
</svg>