<?xml version="1.0" encoding="UTF-8"?>
<svg id="Layer_1" data-name="Layer 1" xmlns="http://www.w3.org/2000/svg" version="1.1" viewBox="0 0 360 360">
  <defs>
    <style>
      .cls-1 {
        stroke: #bfbfbf;
        stroke-linecap: round;
        stroke-width: 3px;
      }

      .cls-1, .cls-2 {
        fill: none;
        stroke-linejoin: round;
      }

      .cls-3 {
        fill: #fff;
        stroke-width: 0px;
      }

      .cls-2 {
        stroke: #fff;
        stroke-width: .8px;
      }
    </style>
  </defs>
  <path class="cls-1" d="M288.1,119.6s-2.8,4.2-7.2,6.6-12.6,3.5-10.6,11.1,10.6,12,15.6,10.5"/>
  <path class="cls-1" d="M268.8,135.1c-2.3,1-5.7.3-8.5-3.5s-1.2-6.8-4.2-13.1-8.1-10.3-16.8-12.5-13.6,3.8-13.6,3.8c0,0-20-3.3-22.9-4.2s-18.6-12.6-21.6-17.1-7.1-5.8-12.1-5.8-8-.2-7.3,2.7,8,4.7,11.6,6.7,3.8,5.8,7.6,11.5,11.8,12,17.1,14.5,24.6,6.2,24.6,6.2l-3.7,5.5-7.6.5c-20.3-11.6-42.6-10-62.7-4.8s-14.8,7.8-23.6,6-30.3,1.2-45.1-1.7-14-9.8-25.9-10.5,2.5,4.5,3.2,9.6,3.8,13.3,8.8,14.6,5.3,5.2,5.3,5.2c-6.7,2.7-25.8,4.5-35.6,3.7s-16,1.8-19,4-3.7,7.3-1.8,11.8,11.3,1.7,17.6,1.5,21.1-3.7,24.9-7.1,13.3-1.5,13.3-1.5c0,0-.5,1.5-2.2,7s-1,10.3,1.3,14.3,2.2,8.6,2.2,8.6c0,0-11.5-3-19.1-4s-7.1,5.7-7.1,5.7c0,0,.3,11.5,0,24.3s3.8,14,5.8,14.3,2.5-6.8,3-12.1,9.3-15.8,9.3-15.8l7.8-.8s1.8,10,3.8,16.3,8.1-1.2,13.5-4.8,9.1-2.8,32.1-2.5,26.8-7.6,37.1-14.8,19.3-6.2,34.8-10.5,26.6-14.1,26.6-14.1l20.3.2s-1.3,1.7-4.3,4.5-16.8,14.1-27.6,20-24.1,15.3-28.1,15.8-4.5,1.3-6.3,4.5-5.7.8-9.8,5.7-.8,2.7,16.1-1,36.9-16.8,40.4-19.6,7.1-6,13.1-6.5,16.1-3.2,27.4-11.5,6.7-17.5,9-22.8,13.1-10.6,13.1-10.6c0,0,3.8-1.6,6.5-.2s9.6,3.8,11,2.2,6,2.3,6.7-.5,6.7-.5,5.8-3.5,6-3.8,3.7-6.3,4.7-4.3,3-7-.7-5.3-3.3-7.3-.3-6.9-4.4-6.4-1.6-4.2-5.6-4-5.3-4.5-7.3-3.7-6.3-1.3-7.1.5-5.1.7-4.3,3.5,3.4,5.1,5.9,5.2,6,0,5.1,4.8,0,6.9,0,6.9c0,0-3.5,3.6-2.2,6.8s-2.5,5.1-2.5,5.1"/>
  <path class="cls-1" d="M228,172"/>
  <path class="cls-1" d="M268.9,167.8s4.2-3.2,14-5.3,19.6.7,17.1,19.5-20.6,28.9-46.4,39.4-67.2,23.9-85.6,24.8c0,0-21.9,12-26.1,13,0,0-10.2,3.4-11.5,1.9s20.4-20.4,20.4-20.4c0,0-10.3,2.7-7.3,0s14.3-17,14.3-17c0,0-12.5,3-8.5-1.2s27-22.4,30.2-24.9,0,0,0,0c0,0-9.3-1.9,4.4-8.9"/>
  <path class="cls-1" d="M179.7,86.4s8-.7,23.1,2.7,18,5,22.8,2.8,25.3-15.3,46.4-10.3,27.9,22.4,17.5,31.1-21.1-3.7-32.8,7"/>
  <path class="cls-1" d="M161.7,85.4s-14.5,5.5-16.5,7.3,6.7,2,6.7,2c0,0-32.4,11-35.6,13.8s-2.7,1.8,6.8,1.5,19-.5,19-.5c0,0-6.5,3.7.3,4.5s18,0,18,0c0,0-4.5,2.8,3.8,3s16.5-.7,16.5-.7c0,0,2.7,3.8,9.1,3.2s6.7-1.8,6.7-1.8"/>
  <polyline class="cls-2" points="29.6 151.3 99.9 153.5 141.8 166.7 77.3 200.5 34.8 198.5"/>
  <polyline class="cls-2" points="192.6 94.7 202.9 141.8 224.1 172.1 180.6 197.5 156.5 232.7"/>
  <polyline class="cls-2" points="141.8 166.7 224.1 172.1 258.3 167.2 304.1 152.2 311.9 122.4 281.7 108.6 258.3 167.2"/>
  <circle class="cls-3" cx="29.6" cy="151.3" r="1.1"/>
  <circle class="cls-3" cx="34.8" cy="198.5" r="1.1"/>
  <circle class="cls-3" cx="141.8" cy="166.7" r="1.6"/>
  <circle class="cls-3" cx="156.5" cy="232.7" r="3"/>
  <circle class="cls-3" cx="224.1" cy="172.1" r="1.6"/>
  <circle class="cls-3" cx="192.6" cy="94.7" r="1.6"/>
  <circle class="cls-3" cx="99.9" cy="153.5" r="1.1"/>
  <circle class="cls-3" cx="202.9" cy="141.8" r="1.1"/>
  <circle class="cls-3" cx="180.6" cy="197.5" r="1.1"/>
  <circle class="cls-3" cx="258.3" cy="167.2" r="1.1"/>
  <circle class="cls-3" cx="311.9" cy="122.4" r="1.1"/>
  <circle class="cls-3" cx="304.1" cy="152.2" r="1.1"/>
  <circle class="cls-3" cx="281.7" cy="108.6" r="1.1"/>
  <circle class="cls-3" cx="77.3" cy="200.5" r="1.1"/>
</svg>