<?xml version="1.0" encoding="UTF-8"?>
<svg id="Layer_1" data-name="Layer 1" xmlns="http://www.w3.org/2000/svg" version="1.1" viewBox="0 0 360 360">
  <defs>
    <style>
      .cls-1 {
        stroke: #bfbfbf;
        stroke-linecap: round;
        stroke-width: 3px;
      }

      .cls-1, .cls-2 {
        fill: none;
        stroke-linejoin: round;
      }

      .cls-3 {
        fill: #fff;
        stroke-width: 0px;
      }

      .cls-2 {
        stroke: #fff;
        stroke-width: .8px;
      }
    </style>
  </defs>
  <path class="cls-1" d="M99.2,165.7s-11.5,14.6,4.9,28.8,17.5,20.2,14.2,31-2.7,13.7,4.4,19.7,16.4,13.7,21.9,14,12.6-1.3,10.9-4.2-7.1-5.1-11.1-5.8-8.6-4.2-10.6-8-4-4.7-1.6-11.3,10.2-16.8,10.2-16.8c0,0,7.5-10.6-3.8-26.8"/>
  <path class="cls-1" d="M143.3,195.2s29.9,6.9,39.2,4.2"/>
  <path class="cls-1" d="M191.5,181s-12.2,13.7-6.7,23.9,10.9,8.2,17.5,27.7,27,22.6,30.6,22.2,4.9-6.2-.9-7.5-8.4-4.2-8.4-4.2c0,0-3.3-5.5-6.9-9.8s-11.7-22.2-11.7-23.3,3.3-12.9,11.7-12.9,18.8-1.6,25.5-8.4,3.8-19.5,10.6-24.8,10.9-15.7,7.5-25.1-2.4-20.2-6.7-26.2-9.5-13.7-10.4-11.5-6,11.7-1.8,20.2c0,0-11.7-9.1-25.3,1.6,0,0-13.5-6-15.5-9.5s-3.1,4-1.1,8.2,9.3,16.4,9.3,16.4l-20.2,8s-25.3-12.6-57-3.8-43.2,16.4-48.3,26.2-4.4,11.1-4.9,13.7,2.7.4,2.7,2.2-2.7,13.7-2.9,18.8,2.7,3.3,2.7,3.3c0,0,1.1,22.2-2.2,30.4s-9.8,16.4-8.2,16.2,12.9,1.8,21.7-6.4,11.5-16,11.5-16c0,0,2.9,7.8,3.5,2.2s-.9-20.4-.9-20.4c0,0,4.9,6.9,4.4,2s-2-15.3-2-15.3"/>
  <path class="cls-1" d="M156,197.7s8,9.8.9,19.5-4.4,17.7-4.4,17.7c0,0,8,5.5,14.2,7.8s10.4,4,8.9,8-10,3.5-14.2-.2-10.4-6.4-14.4-9.1-7.8-8.4-5.3-14.9-.7-10.6-.7-10.6"/>
  <path class="cls-1" d="M232.2,194.8s6.7,18.2,10.9,23.1,14.4,17.1,18,19.1,12.6,7.1,7.8,9.8-11.3,4.2-16-2.7-8-8.6-13.5-14.2-22.6-32.6-22.6-32.6"/>
  <line class="cls-2" x1="81.2" y1="171.9" x2="202" y2="151.4"/>
  <circle class="cls-3" cx="81.2" cy="171.9" r="2.8"/>
  <circle class="cls-3" cx="202" cy="151.4" r="2.8"/>
</svg>